solid OpenSCAD_Model
  facet normal -0 0 1
    outer loop
      vertex 7.7 9.172 3.19
      vertex 15.4 7.372 3.19
      vertex 15.4 9.172 3.19
    endloop
  endfacet
  facet normal 0 0 1
    outer loop
      vertex 15.4 7.372 3.19
      vertex 7.7 9.172 3.19
      vertex 7.7 7.372 3.19
    endloop
  endfacet
  facet normal -1 0 0
    outer loop
      vertex 7.7 7.372 2.6
      vertex 7.7 9.172 3.19
      vertex 7.7 9.172 2.6
    endloop
  endfacet
  facet normal -1 -0 0
    outer loop
      vertex 7.7 9.172 3.19
      vertex 7.7 7.372 2.6
      vertex 7.7 7.372 3.19
    endloop
  endfacet
  facet normal 0 1 -0
    outer loop
      vertex 14.3 9.172 2.6
      vertex 11.3 9.172 2.7
      vertex 14.3 9.172 2.7
    endloop
  endfacet
  facet normal 0 1 0
    outer loop
      vertex 11.3 9.172 2.7
      vertex 14.3 9.172 2.6
      vertex 11.3 9.172 2.6
    endloop
  endfacet
  facet normal 0 1 0
    outer loop
      vertex 14.3 9.172 2.7
      vertex 15.4 9.172 3.19
      vertex 14.7 9.172 2.7
    endloop
  endfacet
  facet normal 0 1 -0
    outer loop
      vertex 15.4 9.172 2.6
      vertex 14.7 9.172 2.7
      vertex 15.4 9.172 3.19
    endloop
  endfacet
  facet normal 0 1 0
    outer loop
      vertex 14.7 9.172 2.7
      vertex 15.4 9.172 2.6
      vertex 14.7 9.172 2.6
    endloop
  endfacet
  facet normal 0 1 0
    outer loop
      vertex 11.3 9.172 2.7
      vertex 15.4 9.172 3.19
      vertex 14.3 9.172 2.7
    endloop
  endfacet
  facet normal 0 1 0
    outer loop
      vertex 15.4 9.172 3.19
      vertex 11.3 9.172 2.7
      vertex 7.7 9.172 3.19
    endloop
  endfacet
  facet normal 0 1 -0
    outer loop
      vertex 10.9 9.172 2.7
      vertex 7.7 9.172 3.19
      vertex 11.3 9.172 2.7
    endloop
  endfacet
  facet normal 0 1 0
    outer loop
      vertex 7.7 9.172 2.6
      vertex 10.9 9.172 2.7
      vertex 10.9 9.172 2.6
    endloop
  endfacet
  facet normal 0 1 0
    outer loop
      vertex 10.9 9.172 2.7
      vertex 7.7 9.172 2.6
      vertex 7.7 9.172 3.19
    endloop
  endfacet
  facet normal 0 -1 0
    outer loop
      vertex 11.3 7.372 2.6
      vertex 14.3 7.372 2.7
      vertex 11.3 7.372 2.7
    endloop
  endfacet
  facet normal 0 -1 -0
    outer loop
      vertex 14.3 7.372 2.7
      vertex 11.3 7.372 2.6
      vertex 14.3 7.372 2.6
    endloop
  endfacet
  facet normal 0 -1 0
    outer loop
      vertex 11.3 7.372 2.7
      vertex 7.7 7.372 3.19
      vertex 10.9 7.372 2.7
    endloop
  endfacet
  facet normal 0 -1 0
    outer loop
      vertex 7.7 7.372 2.6
      vertex 10.9 7.372 2.7
      vertex 7.7 7.372 3.19
    endloop
  endfacet
  facet normal 0 -1 -0
    outer loop
      vertex 10.9 7.372 2.7
      vertex 7.7 7.372 2.6
      vertex 10.9 7.372 2.6
    endloop
  endfacet
  facet normal 0 -1 0
    outer loop
      vertex 7.7 7.372 3.19
      vertex 11.3 7.372 2.7
      vertex 15.4 7.372 3.19
    endloop
  endfacet
  facet normal 0 -1 0
    outer loop
      vertex 14.3 7.372 2.7
      vertex 15.4 7.372 3.19
      vertex 11.3 7.372 2.7
    endloop
  endfacet
  facet normal 0 -1 0
    outer loop
      vertex 14.7 7.372 2.7
      vertex 15.4 7.372 3.19
      vertex 14.3 7.372 2.7
    endloop
  endfacet
  facet normal 0 -1 0
    outer loop
      vertex 15.4 7.372 2.6
      vertex 14.7 7.372 2.7
      vertex 14.7 7.372 2.6
    endloop
  endfacet
  facet normal 0 -1 0
    outer loop
      vertex 14.7 7.372 2.7
      vertex 15.4 7.372 2.6
      vertex 15.4 7.372 3.19
    endloop
  endfacet
  facet normal 1 0 0
    outer loop
      vertex 15.4 9.172 3.19
      vertex 15.4 7.372 3.19
      vertex 15.4 9.172 2.6
    endloop
  endfacet
  facet normal 1 0 0
    outer loop
      vertex 15.4 27.972 3.19
      vertex 15.4 26.172 3.19
      vertex 15.4 27.972 2.6
    endloop
  endfacet
  facet normal 1 -0 0
    outer loop
      vertex 15.4 27.972 2.6
      vertex 15.4 37.6 0
      vertex 15.4 37.6 2.6
    endloop
  endfacet
  facet normal 1 0 0
    outer loop
      vertex 15.4 26.172 2.6
      vertex 15.4 27.972 2.6
      vertex 15.4 26.172 3.19
    endloop
  endfacet
  facet normal 1 -0 0
    outer loop
      vertex 15.4 26.172 2.6
      vertex 15.4 37.6 0
      vertex 15.4 27.972 2.6
    endloop
  endfacet
  facet normal 1 0 0
    outer loop
      vertex 15.4 0 0
      vertex 15.4 26.172 2.6
      vertex 15.4 9.172 2.6
    endloop
  endfacet
  facet normal 1 0 0
    outer loop
      vertex 15.4 7.372 2.6
      vertex 15.4 9.172 2.6
      vertex 15.4 7.372 3.19
    endloop
  endfacet
  facet normal 1 0 0
    outer loop
      vertex 15.4 0 0
      vertex 15.4 9.172 2.6
      vertex 15.4 7.372 2.6
    endloop
  endfacet
  facet normal 1 0 0
    outer loop
      vertex 15.4 0 0
      vertex 15.4 7.372 2.6
      vertex 15.4 0 2.6
    endloop
  endfacet
  facet normal 1 0 0
    outer loop
      vertex 15.4 26.172 2.6
      vertex 15.4 0 0
      vertex 15.4 37.6 0
    endloop
  endfacet
  facet normal -0 0 1
    outer loop
      vertex 7.7 27.972 3.19
      vertex 15.4 26.172 3.19
      vertex 15.4 27.972 3.19
    endloop
  endfacet
  facet normal 0 0 1
    outer loop
      vertex 15.4 26.172 3.19
      vertex 7.7 27.972 3.19
      vertex 7.7 26.172 3.19
    endloop
  endfacet
  facet normal -1 0 0
    outer loop
      vertex 7.7 26.172 2.6
      vertex 7.7 27.972 3.19
      vertex 7.7 27.972 2.6
    endloop
  endfacet
  facet normal -1 -0 0
    outer loop
      vertex 7.7 27.972 3.19
      vertex 7.7 26.172 2.6
      vertex 7.7 26.172 3.19
    endloop
  endfacet
  facet normal 0 1 -0
    outer loop
      vertex 14.3 27.972 2.6
      vertex 11.3 27.972 2.7
      vertex 14.3 27.972 2.7
    endloop
  endfacet
  facet normal 0 1 0
    outer loop
      vertex 11.3 27.972 2.7
      vertex 14.3 27.972 2.6
      vertex 11.3 27.972 2.6
    endloop
  endfacet
  facet normal 0 1 0
    outer loop
      vertex 14.3 27.972 2.7
      vertex 15.4 27.972 3.19
      vertex 14.7 27.972 2.7
    endloop
  endfacet
  facet normal 0 1 -0
    outer loop
      vertex 15.4 27.972 2.6
      vertex 14.7 27.972 2.7
      vertex 15.4 27.972 3.19
    endloop
  endfacet
  facet normal 0 1 0
    outer loop
      vertex 14.7 27.972 2.7
      vertex 15.4 27.972 2.6
      vertex 14.7 27.972 2.6
    endloop
  endfacet
  facet normal 0 1 0
    outer loop
      vertex 11.3 27.972 2.7
      vertex 15.4 27.972 3.19
      vertex 14.3 27.972 2.7
    endloop
  endfacet
  facet normal 0 1 0
    outer loop
      vertex 15.4 27.972 3.19
      vertex 11.3 27.972 2.7
      vertex 7.7 27.972 3.19
    endloop
  endfacet
  facet normal 0 1 -0
    outer loop
      vertex 10.9 27.972 2.7
      vertex 7.7 27.972 3.19
      vertex 11.3 27.972 2.7
    endloop
  endfacet
  facet normal 0 1 0
    outer loop
      vertex 7.7 27.972 2.6
      vertex 10.9 27.972 2.7
      vertex 10.9 27.972 2.6
    endloop
  endfacet
  facet normal 0 1 0
    outer loop
      vertex 10.9 27.972 2.7
      vertex 7.7 27.972 2.6
      vertex 7.7 27.972 3.19
    endloop
  endfacet
  facet normal 0 -1 0
    outer loop
      vertex 11.3 26.172 2.6
      vertex 14.3 26.172 2.7
      vertex 11.3 26.172 2.7
    endloop
  endfacet
  facet normal 0 -1 -0
    outer loop
      vertex 14.3 26.172 2.7
      vertex 11.3 26.172 2.6
      vertex 14.3 26.172 2.6
    endloop
  endfacet
  facet normal 0 -1 0
    outer loop
      vertex 11.3 26.172 2.7
      vertex 7.7 26.172 3.19
      vertex 10.9 26.172 2.7
    endloop
  endfacet
  facet normal 0 -1 0
    outer loop
      vertex 7.7 26.172 2.6
      vertex 10.9 26.172 2.7
      vertex 7.7 26.172 3.19
    endloop
  endfacet
  facet normal 0 -1 -0
    outer loop
      vertex 10.9 26.172 2.7
      vertex 7.7 26.172 2.6
      vertex 10.9 26.172 2.6
    endloop
  endfacet
  facet normal 0 -1 0
    outer loop
      vertex 7.7 26.172 3.19
      vertex 11.3 26.172 2.7
      vertex 15.4 26.172 3.19
    endloop
  endfacet
  facet normal 0 -1 0
    outer loop
      vertex 14.3 26.172 2.7
      vertex 15.4 26.172 3.19
      vertex 11.3 26.172 2.7
    endloop
  endfacet
  facet normal 0 -1 0
    outer loop
      vertex 14.7 26.172 2.7
      vertex 15.4 26.172 3.19
      vertex 14.3 26.172 2.7
    endloop
  endfacet
  facet normal 0 -1 0
    outer loop
      vertex 15.4 26.172 2.6
      vertex 14.7 26.172 2.7
      vertex 14.7 26.172 2.6
    endloop
  endfacet
  facet normal 0 -1 0
    outer loop
      vertex 14.7 26.172 2.7
      vertex 15.4 26.172 2.6
      vertex 15.4 26.172 3.19
    endloop
  endfacet
  facet normal 0 0 -1
    outer loop
      vertex 1.90735e-07 0 0
      vertex 15.4 37.6 0
      vertex 15.4 0 0
    endloop
  endfacet
  facet normal -0 0 -1
    outer loop
      vertex 15.4 37.6 0
      vertex 1.90735e-07 0 0
      vertex 1.90735e-07 37.6 0
    endloop
  endfacet
  facet normal -1 0 0
    outer loop
      vertex 1.90735e-07 0 0
      vertex 1.90735e-07 37.6 2.6
      vertex 1.90735e-07 37.6 0
    endloop
  endfacet
  facet normal -1 -0 0
    outer loop
      vertex 1.90735e-07 37.6 2.6
      vertex 1.90735e-07 0 0
      vertex 1.90735e-07 0 2.6
    endloop
  endfacet
  facet normal -0 0 1
    outer loop
      vertex 14.7 37.6 2.6
      vertex 15.4 27.972 2.6
      vertex 15.4 37.6 2.6
    endloop
  endfacet
  facet normal 0 0 1
    outer loop
      vertex 15.4 27.972 2.6
      vertex 14.7 37.6 2.6
      vertex 14.7 27.972 2.6
    endloop
  endfacet
  facet normal 0 0 1
    outer loop
      vertex 10.9 37.6 2.6
      vertex 7.7 27.972 2.6
      vertex 10.9 27.972 2.6
    endloop
  endfacet
  facet normal 0 0 1
    outer loop
      vertex 1.90735e-07 37.6 2.6
      vertex 7.7 26.172 2.6
      vertex 7.7 27.972 2.6
    endloop
  endfacet
  facet normal 0 0 1
    outer loop
      vertex 7.7 26.172 2.6
      vertex 1.90735e-07 0 2.6
      vertex 7.7 9.172 2.6
    endloop
  endfacet
  facet normal 0 0 1
    outer loop
      vertex 7.7 26.172 2.6
      vertex 1.90735e-07 37.6 2.6
      vertex 1.90735e-07 0 2.6
    endloop
  endfacet
  facet normal -0 0 1
    outer loop
      vertex 1.90735e-07 37.6 2.6
      vertex 7.7 27.972 2.6
      vertex 10.9 37.6 2.6
    endloop
  endfacet
  facet normal -0 0 1
    outer loop
      vertex 7.7 26.172 2.6
      vertex 10.9 9.172 2.6
      vertex 10.9 26.172 2.6
    endloop
  endfacet
  facet normal 0 0 1
    outer loop
      vertex 10.9 9.172 2.6
      vertex 7.7 26.172 2.6
      vertex 7.7 9.172 2.6
    endloop
  endfacet
  facet normal -0 0 1
    outer loop
      vertex 7.7 7.372 2.6
      vertex 10.9 0 2.6
      vertex 10.9 7.372 2.6
    endloop
  endfacet
  facet normal 0 0 1
    outer loop
      vertex 7.7 7.372 2.6
      vertex 1.90735e-07 0 2.6
      vertex 10.9 0 2.6
    endloop
  endfacet
  facet normal 0 0 1
    outer loop
      vertex 7.7 9.172 2.6
      vertex 1.90735e-07 0 2.6
      vertex 7.7 7.372 2.6
    endloop
  endfacet
  facet normal -0 0 1
    outer loop
      vertex 14.7 7.372 2.6
      vertex 15.4 0 2.6
      vertex 15.4 7.372 2.6
    endloop
  endfacet
  facet normal 0 0 1
    outer loop
      vertex 15.4 0 2.6
      vertex 14.7 7.372 2.6
      vertex 14.7 0 2.6
    endloop
  endfacet
  facet normal -0 0 1
    outer loop
      vertex 14.7 26.172 2.6
      vertex 15.4 9.172 2.6
      vertex 15.4 26.172 2.6
    endloop
  endfacet
  facet normal 0 0 1
    outer loop
      vertex 15.4 9.172 2.6
      vertex 14.7 26.172 2.6
      vertex 14.7 9.172 2.6
    endloop
  endfacet
  facet normal -0 0 1
    outer loop
      vertex 11.3 37.6 2.6
      vertex 14.3 27.972 2.6
      vertex 14.3 37.6 2.6
    endloop
  endfacet
  facet normal 0 0 1
    outer loop
      vertex 14.3 27.972 2.6
      vertex 11.3 37.6 2.6
      vertex 11.3 27.972 2.6
    endloop
  endfacet
  facet normal -0 0 1
    outer loop
      vertex 11.3 7.372 2.6
      vertex 14.3 0 2.6
      vertex 14.3 7.372 2.6
    endloop
  endfacet
  facet normal 0 0 1
    outer loop
      vertex 14.3 0 2.6
      vertex 11.3 7.372 2.6
      vertex 11.3 0 2.6
    endloop
  endfacet
  facet normal 0 0 1
    outer loop
      vertex 14.3 26.172 2.6
      vertex 13.628 18.8 2.6
      vertex 14.3 9.172 2.6
    endloop
  endfacet
  facet normal 0 0 1
    outer loop
      vertex 14.3 26.172 2.6
      vertex 13.5519 19.1827 2.6
      vertex 13.628 18.8 2.6
    endloop
  endfacet
  facet normal 0 0 1
    outer loop
      vertex 14.3 26.172 2.6
      vertex 13.3351 19.5071 2.6
      vertex 13.5519 19.1827 2.6
    endloop
  endfacet
  facet normal 0 0 1
    outer loop
      vertex 14.3 26.172 2.6
      vertex 13.0107 19.7239 2.6
      vertex 13.3351 19.5071 2.6
    endloop
  endfacet
  facet normal 0 0 1
    outer loop
      vertex 14.3 26.172 2.6
      vertex 12.628 19.8 2.6
      vertex 13.0107 19.7239 2.6
    endloop
  endfacet
  facet normal -0 0 1
    outer loop
      vertex 11.3 26.172 2.6
      vertex 12.628 19.8 2.6
      vertex 14.3 26.172 2.6
    endloop
  endfacet
  facet normal 0 0 1
    outer loop
      vertex 12.628 19.8 2.6
      vertex 11.3 26.172 2.6
      vertex 12.2453 19.7239 2.6
    endloop
  endfacet
  facet normal 0 0 1
    outer loop
      vertex 12.2453 19.7239 2.6
      vertex 11.3 26.172 2.6
      vertex 11.9209 19.5071 2.6
    endloop
  endfacet
  facet normal 0 0 1
    outer loop
      vertex 11.7041 19.1827 2.6
      vertex 11.3 26.172 2.6
      vertex 11.628 18.8 2.6
    endloop
  endfacet
  facet normal 0 0 1
    outer loop
      vertex 11.9209 19.5071 2.6
      vertex 11.3 26.172 2.6
      vertex 11.7041 19.1827 2.6
    endloop
  endfacet
  facet normal -0 0 1
    outer loop
      vertex 13.5519 18.4173 2.6
      vertex 14.3 9.172 2.6
      vertex 13.628 18.8 2.6
    endloop
  endfacet
  facet normal -0 0 1
    outer loop
      vertex 13.3351 18.0929 2.6
      vertex 14.3 9.172 2.6
      vertex 13.5519 18.4173 2.6
    endloop
  endfacet
  facet normal -0 0 1
    outer loop
      vertex 13.0107 17.8761 2.6
      vertex 14.3 9.172 2.6
      vertex 13.3351 18.0929 2.6
    endloop
  endfacet
  facet normal -0 0 1
    outer loop
      vertex 12.628 17.8 2.6
      vertex 14.3 9.172 2.6
      vertex 13.0107 17.8761 2.6
    endloop
  endfacet
  facet normal 0 0 1
    outer loop
      vertex 11.3 9.172 2.6
      vertex 12.628 17.8 2.6
      vertex 12.2453 17.8761 2.6
    endloop
  endfacet
  facet normal 0 0 1
    outer loop
      vertex 11.3 9.172 2.6
      vertex 12.2453 17.8761 2.6
      vertex 11.9209 18.0929 2.6
    endloop
  endfacet
  facet normal 0 0 1
    outer loop
      vertex 11.3 9.172 2.6
      vertex 11.9209 18.0929 2.6
      vertex 11.7041 18.4173 2.6
    endloop
  endfacet
  facet normal 0 0 1
    outer loop
      vertex 12.628 17.8 2.6
      vertex 11.3 9.172 2.6
      vertex 14.3 9.172 2.6
    endloop
  endfacet
  facet normal 0 0 1
    outer loop
      vertex 11.628 18.8 2.6
      vertex 11.3 9.172 2.6
      vertex 11.7041 18.4173 2.6
    endloop
  endfacet
  facet normal 0 0 1
    outer loop
      vertex 11.3 9.172 2.6
      vertex 11.628 18.8 2.6
      vertex 11.3 26.172 2.6
    endloop
  endfacet
  facet normal 0 1 0
    outer loop
      vertex 15.4 37.6 2.6
      vertex 14.7 37.6 2.2
      vertex 14.7 37.6 2.6
    endloop
  endfacet
  facet normal 0 1 0
    outer loop
      vertex 15.4 37.6 0
      vertex 14.3 37.6 2.2
      vertex 14.7 37.6 2.2
    endloop
  endfacet
  facet normal 0 1 0
    outer loop
      vertex 14.3 37.6 2.2
      vertex 15.4 37.6 0
      vertex 11.3 37.6 2.2
    endloop
  endfacet
  facet normal 0 1 0
    outer loop
      vertex 11.3 37.6 2.2
      vertex 15.4 37.6 0
      vertex 10.9 37.6 2.2
    endloop
  endfacet
  facet normal 0 1 -0
    outer loop
      vertex 15.4 37.6 0
      vertex 14.7 37.6 2.2
      vertex 15.4 37.6 2.6
    endloop
  endfacet
  facet normal 0 1 -0
    outer loop
      vertex 14.3 37.6 2.2
      vertex 11.3 37.6 2.6
      vertex 14.3 37.6 2.6
    endloop
  endfacet
  facet normal 0 1 0
    outer loop
      vertex 11.3 37.6 2.6
      vertex 14.3 37.6 2.2
      vertex 11.3 37.6 2.2
    endloop
  endfacet
  facet normal 0 1 -0
    outer loop
      vertex 10.9 37.6 2.2
      vertex 1.90735e-07 37.6 2.6
      vertex 10.9 37.6 2.6
    endloop
  endfacet
  facet normal 0 1 0
    outer loop
      vertex 1.90735e-07 37.6 0
      vertex 10.9 37.6 2.2
      vertex 15.4 37.6 0
    endloop
  endfacet
  facet normal 0 1 0
    outer loop
      vertex 10.9 37.6 2.2
      vertex 1.90735e-07 37.6 0
      vertex 1.90735e-07 37.6 2.6
    endloop
  endfacet
  facet normal 0 -1 0
    outer loop
      vertex 1.90735e-07 0 2.6
      vertex 10.9 0 2.2
      vertex 10.9 0 2.6
    endloop
  endfacet
  facet normal 0 -1 0
    outer loop
      vertex 15.4 0 0
      vertex 11.3 0 2.2
      vertex 10.9 0 2.2
    endloop
  endfacet
  facet normal 0 -1 0
    outer loop
      vertex 11.3 0 2.2
      vertex 15.4 0 0
      vertex 14.3 0 2.2
    endloop
  endfacet
  facet normal 0 -1 0
    outer loop
      vertex 15.4 0 0
      vertex 10.9 0 2.2
      vertex 1.90735e-07 0 0
    endloop
  endfacet
  facet normal 0 -1 0
    outer loop
      vertex 1.90735e-07 0 0
      vertex 10.9 0 2.2
      vertex 1.90735e-07 0 2.6
    endloop
  endfacet
  facet normal 0 -1 0
    outer loop
      vertex 11.3 0 2.2
      vertex 14.3 0 2.6
      vertex 11.3 0 2.6
    endloop
  endfacet
  facet normal 0 -1 -0
    outer loop
      vertex 14.3 0 2.6
      vertex 11.3 0 2.2
      vertex 14.3 0 2.2
    endloop
  endfacet
  facet normal 0 -1 0
    outer loop
      vertex 14.7 0 2.2
      vertex 15.4 0 2.6
      vertex 14.7 0 2.6
    endloop
  endfacet
  facet normal 0 -1 0
    outer loop
      vertex 14.7 0 2.2
      vertex 15.4 0 0
      vertex 15.4 0 2.6
    endloop
  endfacet
  facet normal 0 -1 0
    outer loop
      vertex 14.3 0 2.2
      vertex 15.4 0 0
      vertex 14.7 0 2.2
    endloop
  endfacet
  facet normal -1 0 0
    outer loop
      vertex 11.3 37.6 2.2
      vertex 11.3 27.972 2.6
      vertex 11.3 37.6 2.6
    endloop
  endfacet
  facet normal -1 0 0
    outer loop
      vertex 11.3 27.972 2.6
      vertex 11.3 26.172 2.6
      vertex 11.3 27.972 2.7
    endloop
  endfacet
  facet normal -1 0 0
    outer loop
      vertex 11.3 37.6 2.2
      vertex 11.3 26.172 2.6
      vertex 11.3 27.972 2.6
    endloop
  endfacet
  facet normal -1 0 0
    outer loop
      vertex 11.3 37.6 2.2
      vertex 11.3 9.172 2.6
      vertex 11.3 26.172 2.6
    endloop
  endfacet
  facet normal -1 0 0
    outer loop
      vertex 11.3 9.172 2.6
      vertex 11.3 7.372 2.6
      vertex 11.3 9.172 2.7
    endloop
  endfacet
  facet normal -1 0 0
    outer loop
      vertex 11.3 0 2.2
      vertex 11.3 9.172 2.6
      vertex 11.3 37.6 2.2
    endloop
  endfacet
  facet normal -1 -0 0
    outer loop
      vertex 11.3 9.172 2.6
      vertex 11.3 0 2.2
      vertex 11.3 7.372 2.6
    endloop
  endfacet
  facet normal -1 -0 0
    outer loop
      vertex 11.3 7.372 2.6
      vertex 11.3 0 2.2
      vertex 11.3 0 2.6
    endloop
  endfacet
  facet normal -1 -0 0
    outer loop
      vertex 11.3 27.972 2.7
      vertex 11.3 26.172 2.6
      vertex 11.3 26.172 2.7
    endloop
  endfacet
  facet normal -1 -0 0
    outer loop
      vertex 11.3 9.172 2.7
      vertex 11.3 7.372 2.6
      vertex 11.3 7.372 2.7
    endloop
  endfacet
  facet normal 0 0 -1
    outer loop
      vertex 10.9 7.372 2.7
      vertex 11.3 9.172 2.7
      vertex 11.3 7.372 2.7
    endloop
  endfacet
  facet normal -0 0 -1
    outer loop
      vertex 11.3 9.172 2.7
      vertex 10.9 7.372 2.7
      vertex 10.9 9.172 2.7
    endloop
  endfacet
  facet normal 0 0 -1
    outer loop
      vertex 10.9 26.172 2.7
      vertex 11.3 27.972 2.7
      vertex 11.3 26.172 2.7
    endloop
  endfacet
  facet normal -0 0 -1
    outer loop
      vertex 11.3 27.972 2.7
      vertex 10.9 26.172 2.7
      vertex 10.9 27.972 2.7
    endloop
  endfacet
  facet normal -0 0 1
    outer loop
      vertex 10.9 37.6 2.2
      vertex 11.3 0 2.2
      vertex 11.3 37.6 2.2
    endloop
  endfacet
  facet normal 0 0 1
    outer loop
      vertex 11.3 0 2.2
      vertex 10.9 37.6 2.2
      vertex 10.9 0 2.2
    endloop
  endfacet
  facet normal 1 0 0
    outer loop
      vertex 10.9 9.172 2.7
      vertex 10.9 7.372 2.7
      vertex 10.9 9.172 2.6
    endloop
  endfacet
  facet normal 1 0 0
    outer loop
      vertex 10.9 27.972 2.7
      vertex 10.9 26.172 2.7
      vertex 10.9 27.972 2.6
    endloop
  endfacet
  facet normal 1 -0 0
    outer loop
      vertex 10.9 27.972 2.6
      vertex 10.9 37.6 2.2
      vertex 10.9 37.6 2.6
    endloop
  endfacet
  facet normal 1 0 0
    outer loop
      vertex 10.9 26.172 2.6
      vertex 10.9 27.972 2.6
      vertex 10.9 26.172 2.7
    endloop
  endfacet
  facet normal 1 -0 0
    outer loop
      vertex 10.9 26.172 2.6
      vertex 10.9 37.6 2.2
      vertex 10.9 27.972 2.6
    endloop
  endfacet
  facet normal 1 -0 0
    outer loop
      vertex 10.9 9.172 2.6
      vertex 10.9 37.6 2.2
      vertex 10.9 26.172 2.6
    endloop
  endfacet
  facet normal 1 0 0
    outer loop
      vertex 10.9 7.372 2.6
      vertex 10.9 9.172 2.6
      vertex 10.9 7.372 2.7
    endloop
  endfacet
  facet normal 1 0 0
    outer loop
      vertex 10.9 0 2.2
      vertex 10.9 9.172 2.6
      vertex 10.9 7.372 2.6
    endloop
  endfacet
  facet normal 1 0 0
    outer loop
      vertex 10.9 0 2.2
      vertex 10.9 7.372 2.6
      vertex 10.9 0 2.6
    endloop
  endfacet
  facet normal 1 0 0
    outer loop
      vertex 10.9 9.172 2.6
      vertex 10.9 0 2.2
      vertex 10.9 37.6 2.2
    endloop
  endfacet
  facet normal -1 0 0
    outer loop
      vertex 14.7 37.6 2.2
      vertex 14.7 27.972 2.6
      vertex 14.7 37.6 2.6
    endloop
  endfacet
  facet normal -1 0 0
    outer loop
      vertex 14.7 27.972 2.6
      vertex 14.7 26.172 2.6
      vertex 14.7 27.972 2.7
    endloop
  endfacet
  facet normal -1 0 0
    outer loop
      vertex 14.7 37.6 2.2
      vertex 14.7 26.172 2.6
      vertex 14.7 27.972 2.6
    endloop
  endfacet
  facet normal -1 0 0
    outer loop
      vertex 14.7 37.6 2.2
      vertex 14.7 9.172 2.6
      vertex 14.7 26.172 2.6
    endloop
  endfacet
  facet normal -1 0 0
    outer loop
      vertex 14.7 9.172 2.6
      vertex 14.7 7.372 2.6
      vertex 14.7 9.172 2.7
    endloop
  endfacet
  facet normal -1 0 0
    outer loop
      vertex 14.7 0 2.2
      vertex 14.7 9.172 2.6
      vertex 14.7 37.6 2.2
    endloop
  endfacet
  facet normal -1 -0 0
    outer loop
      vertex 14.7 9.172 2.6
      vertex 14.7 0 2.2
      vertex 14.7 7.372 2.6
    endloop
  endfacet
  facet normal -1 -0 0
    outer loop
      vertex 14.7 7.372 2.6
      vertex 14.7 0 2.2
      vertex 14.7 0 2.6
    endloop
  endfacet
  facet normal -1 -0 0
    outer loop
      vertex 14.7 27.972 2.7
      vertex 14.7 26.172 2.6
      vertex 14.7 26.172 2.7
    endloop
  endfacet
  facet normal -1 -0 0
    outer loop
      vertex 14.7 9.172 2.7
      vertex 14.7 7.372 2.6
      vertex 14.7 7.372 2.7
    endloop
  endfacet
  facet normal 0 0 -1
    outer loop
      vertex 14.3 7.372 2.7
      vertex 14.7 9.172 2.7
      vertex 14.7 7.372 2.7
    endloop
  endfacet
  facet normal -0 0 -1
    outer loop
      vertex 14.7 9.172 2.7
      vertex 14.3 7.372 2.7
      vertex 14.3 9.172 2.7
    endloop
  endfacet
  facet normal 0 0 -1
    outer loop
      vertex 14.3 26.172 2.7
      vertex 14.7 27.972 2.7
      vertex 14.7 26.172 2.7
    endloop
  endfacet
  facet normal -0 0 -1
    outer loop
      vertex 14.7 27.972 2.7
      vertex 14.3 26.172 2.7
      vertex 14.3 27.972 2.7
    endloop
  endfacet
  facet normal -0 0 1
    outer loop
      vertex 14.3 37.6 2.2
      vertex 14.7 0 2.2
      vertex 14.7 37.6 2.2
    endloop
  endfacet
  facet normal 0 0 1
    outer loop
      vertex 14.7 0 2.2
      vertex 14.3 37.6 2.2
      vertex 14.3 0 2.2
    endloop
  endfacet
  facet normal 1 0 0
    outer loop
      vertex 14.3 9.172 2.7
      vertex 14.3 7.372 2.7
      vertex 14.3 9.172 2.6
    endloop
  endfacet
  facet normal 1 0 0
    outer loop
      vertex 14.3 27.972 2.7
      vertex 14.3 26.172 2.7
      vertex 14.3 27.972 2.6
    endloop
  endfacet
  facet normal 1 -0 0
    outer loop
      vertex 14.3 27.972 2.6
      vertex 14.3 37.6 2.2
      vertex 14.3 37.6 2.6
    endloop
  endfacet
  facet normal 1 0 0
    outer loop
      vertex 14.3 26.172 2.6
      vertex 14.3 27.972 2.6
      vertex 14.3 26.172 2.7
    endloop
  endfacet
  facet normal 1 -0 0
    outer loop
      vertex 14.3 26.172 2.6
      vertex 14.3 37.6 2.2
      vertex 14.3 27.972 2.6
    endloop
  endfacet
  facet normal 1 -0 0
    outer loop
      vertex 14.3 9.172 2.6
      vertex 14.3 37.6 2.2
      vertex 14.3 26.172 2.6
    endloop
  endfacet
  facet normal 1 0 0
    outer loop
      vertex 14.3 7.372 2.6
      vertex 14.3 9.172 2.6
      vertex 14.3 7.372 2.7
    endloop
  endfacet
  facet normal 1 0 0
    outer loop
      vertex 14.3 0 2.2
      vertex 14.3 9.172 2.6
      vertex 14.3 7.372 2.6
    endloop
  endfacet
  facet normal 1 0 0
    outer loop
      vertex 14.3 0 2.2
      vertex 14.3 7.372 2.6
      vertex 14.3 0 2.6
    endloop
  endfacet
  facet normal 1 0 0
    outer loop
      vertex 14.3 9.172 2.6
      vertex 14.3 0 2.2
      vertex 14.3 37.6 2.2
    endloop
  endfacet
  facet normal 0.555646 -0.831419 0
    outer loop
      vertex 13.0107 17.8761 2.6
      vertex 13.3351 18.0929 3.5
      vertex 13.0107 17.8761 3.5
    endloop
  endfacet
  facet normal 0.555646 -0.831419 0
    outer loop
      vertex 13.3351 18.0929 3.5
      vertex 13.0107 17.8761 2.6
      vertex 13.3351 18.0929 2.6
    endloop
  endfacet
  facet normal 0.831419 0.555646 0
    outer loop
      vertex 13.5519 19.1827 3.5
      vertex 13.3351 19.5071 2.6
      vertex 13.3351 19.5071 3.5
    endloop
  endfacet
  facet normal 0.831419 0.555646 0
    outer loop
      vertex 13.3351 19.5071 2.6
      vertex 13.5519 19.1827 3.5
      vertex 13.5519 19.1827 2.6
    endloop
  endfacet
  facet normal 0.980797 0.195032 0
    outer loop
      vertex 13.628 18.8 3.5
      vertex 13.5519 19.1827 2.6
      vertex 13.5519 19.1827 3.5
    endloop
  endfacet
  facet normal 0.980797 0.195032 0
    outer loop
      vertex 13.5519 19.1827 2.6
      vertex 13.628 18.8 3.5
      vertex 13.628 18.8 2.6
    endloop
  endfacet
  facet normal 0.555646 0.831419 -0
    outer loop
      vertex 13.3351 19.5071 2.6
      vertex 13.0107 19.7239 3.5
      vertex 13.3351 19.5071 3.5
    endloop
  endfacet
  facet normal 0.555646 0.831419 0
    outer loop
      vertex 13.0107 19.7239 3.5
      vertex 13.3351 19.5071 2.6
      vertex 13.0107 19.7239 2.6
    endloop
  endfacet
  facet normal -0.980797 0.195032 0
    outer loop
      vertex 11.628 18.8 2.6
      vertex 11.7041 19.1827 3.5
      vertex 11.7041 19.1827 2.6
    endloop
  endfacet
  facet normal -0.980797 0.195032 0
    outer loop
      vertex 11.7041 19.1827 3.5
      vertex 11.628 18.8 2.6
      vertex 11.628 18.8 3.5
    endloop
  endfacet
  facet normal 0 0 1
    outer loop
      vertex 13.5519 19.1827 3.5
      vertex 13.5519 18.4173 3.5
      vertex 13.628 18.8 3.5
    endloop
  endfacet
  facet normal 0 0 1
    outer loop
      vertex 13.3351 19.5071 3.5
      vertex 13.5519 18.4173 3.5
      vertex 13.5519 19.1827 3.5
    endloop
  endfacet
  facet normal 0 0 1
    outer loop
      vertex 13.3351 19.5071 3.5
      vertex 13.3351 18.0929 3.5
      vertex 13.5519 18.4173 3.5
    endloop
  endfacet
  facet normal 0 0 1
    outer loop
      vertex 13.0107 19.7239 3.5
      vertex 13.3351 18.0929 3.5
      vertex 13.3351 19.5071 3.5
    endloop
  endfacet
  facet normal 0 0 1
    outer loop
      vertex 13.0107 19.7239 3.5
      vertex 13.0107 17.8761 3.5
      vertex 13.3351 18.0929 3.5
    endloop
  endfacet
  facet normal 0 0 1
    outer loop
      vertex 12.628 19.8 3.5
      vertex 13.0107 17.8761 3.5
      vertex 13.0107 19.7239 3.5
    endloop
  endfacet
  facet normal 0 0 1
    outer loop
      vertex 12.628 19.8 3.5
      vertex 12.628 17.8 3.5
      vertex 13.0107 17.8761 3.5
    endloop
  endfacet
  facet normal -0 0 1
    outer loop
      vertex 12.2453 19.7239 3.5
      vertex 12.628 17.8 3.5
      vertex 12.628 19.8 3.5
    endloop
  endfacet
  facet normal 0 0 1
    outer loop
      vertex 12.2453 19.7239 3.5
      vertex 12.2453 17.8761 3.5
      vertex 12.628 17.8 3.5
    endloop
  endfacet
  facet normal -0 0 1
    outer loop
      vertex 11.9209 19.5071 3.5
      vertex 12.2453 17.8761 3.5
      vertex 12.2453 19.7239 3.5
    endloop
  endfacet
  facet normal 0 0 1
    outer loop
      vertex 11.9209 19.5071 3.5
      vertex 11.9209 18.0929 3.5
      vertex 12.2453 17.8761 3.5
    endloop
  endfacet
  facet normal -0 0 1
    outer loop
      vertex 11.7041 19.1827 3.5
      vertex 11.9209 18.0929 3.5
      vertex 11.9209 19.5071 3.5
    endloop
  endfacet
  facet normal 0 0 1
    outer loop
      vertex 11.7041 19.1827 3.5
      vertex 11.7041 18.4173 3.5
      vertex 11.9209 18.0929 3.5
    endloop
  endfacet
  facet normal 0 -0 1
    outer loop
      vertex 11.7041 18.4173 3.5
      vertex 11.7041 19.1827 3.5
      vertex 11.628 18.8 3.5
    endloop
  endfacet
  facet normal 0.195032 0.980797 -0
    outer loop
      vertex 13.0107 19.7239 2.6
      vertex 12.628 19.8 3.5
      vertex 13.0107 19.7239 3.5
    endloop
  endfacet
  facet normal 0.195032 0.980797 0
    outer loop
      vertex 12.628 19.8 3.5
      vertex 13.0107 19.7239 2.6
      vertex 12.628 19.8 2.6
    endloop
  endfacet
  facet normal -0.980797 -0.195032 0
    outer loop
      vertex 11.7041 18.4173 2.6
      vertex 11.628 18.8 3.5
      vertex 11.628 18.8 2.6
    endloop
  endfacet
  facet normal -0.980797 -0.195032 0
    outer loop
      vertex 11.628 18.8 3.5
      vertex 11.7041 18.4173 2.6
      vertex 11.7041 18.4173 3.5
    endloop
  endfacet
  facet normal 0.980797 -0.195032 0
    outer loop
      vertex 13.5519 18.4173 3.5
      vertex 13.628 18.8 2.6
      vertex 13.628 18.8 3.5
    endloop
  endfacet
  facet normal 0.980797 -0.195032 0
    outer loop
      vertex 13.628 18.8 2.6
      vertex 13.5519 18.4173 3.5
      vertex 13.5519 18.4173 2.6
    endloop
  endfacet
  facet normal -0.831419 -0.555646 0
    outer loop
      vertex 11.9209 18.0929 2.6
      vertex 11.7041 18.4173 3.5
      vertex 11.7041 18.4173 2.6
    endloop
  endfacet
  facet normal -0.831419 -0.555646 0
    outer loop
      vertex 11.7041 18.4173 3.5
      vertex 11.9209 18.0929 2.6
      vertex 11.9209 18.0929 3.5
    endloop
  endfacet
  facet normal -0.555646 0.831419 0
    outer loop
      vertex 12.2453 19.7239 2.6
      vertex 11.9209 19.5071 3.5
      vertex 12.2453 19.7239 3.5
    endloop
  endfacet
  facet normal -0.555646 0.831419 0
    outer loop
      vertex 11.9209 19.5071 3.5
      vertex 12.2453 19.7239 2.6
      vertex 11.9209 19.5071 2.6
    endloop
  endfacet
  facet normal 0.831419 -0.555646 0
    outer loop
      vertex 13.3351 18.0929 3.5
      vertex 13.5519 18.4173 2.6
      vertex 13.5519 18.4173 3.5
    endloop
  endfacet
  facet normal 0.831419 -0.555646 0
    outer loop
      vertex 13.5519 18.4173 2.6
      vertex 13.3351 18.0929 3.5
      vertex 13.3351 18.0929 2.6
    endloop
  endfacet
  facet normal 0.195032 -0.980797 0
    outer loop
      vertex 12.628 17.8 2.6
      vertex 13.0107 17.8761 3.5
      vertex 12.628 17.8 3.5
    endloop
  endfacet
  facet normal 0.195032 -0.980797 0
    outer loop
      vertex 13.0107 17.8761 3.5
      vertex 12.628 17.8 2.6
      vertex 13.0107 17.8761 2.6
    endloop
  endfacet
  facet normal -0.195032 0.980797 0
    outer loop
      vertex 12.628 19.8 2.6
      vertex 12.2453 19.7239 3.5
      vertex 12.628 19.8 3.5
    endloop
  endfacet
  facet normal -0.195032 0.980797 0
    outer loop
      vertex 12.2453 19.7239 3.5
      vertex 12.628 19.8 2.6
      vertex 12.2453 19.7239 2.6
    endloop
  endfacet
  facet normal -0.195032 -0.980797 0
    outer loop
      vertex 12.2453 17.8761 2.6
      vertex 12.628 17.8 3.5
      vertex 12.2453 17.8761 3.5
    endloop
  endfacet
  facet normal -0.195032 -0.980797 -0
    outer loop
      vertex 12.628 17.8 3.5
      vertex 12.2453 17.8761 2.6
      vertex 12.628 17.8 2.6
    endloop
  endfacet
  facet normal -0.831419 0.555646 0
    outer loop
      vertex 11.7041 19.1827 2.6
      vertex 11.9209 19.5071 3.5
      vertex 11.9209 19.5071 2.6
    endloop
  endfacet
  facet normal -0.831419 0.555646 0
    outer loop
      vertex 11.9209 19.5071 3.5
      vertex 11.7041 19.1827 2.6
      vertex 11.7041 19.1827 3.5
    endloop
  endfacet
  facet normal -0.555646 -0.831419 0
    outer loop
      vertex 11.9209 18.0929 2.6
      vertex 12.2453 17.8761 3.5
      vertex 11.9209 18.0929 3.5
    endloop
  endfacet
  facet normal -0.555646 -0.831419 -0
    outer loop
      vertex 12.2453 17.8761 3.5
      vertex 11.9209 18.0929 2.6
      vertex 12.2453 17.8761 2.6
    endloop
  endfacet
endsolid OpenSCAD_Model
