solid OpenSCAD_Model
  facet normal 1 -0 0
    outer loop
      vertex 1.2 3 3
      vertex 1.2 3.5 0
      vertex 1.2 3.5 3
    endloop
  endfacet
  facet normal 1 0 0
    outer loop
      vertex 1.2 3.5 0
      vertex 1.2 3 3
      vertex 1.2 3 0
    endloop
  endfacet
  facet normal 1 -0 0
    outer loop
      vertex 1.2 -0.5 3
      vertex 1.2 0 0
      vertex 1.2 0 3
    endloop
  endfacet
  facet normal 1 0 0
    outer loop
      vertex 1.2 0 0
      vertex 1.2 -0.5 3
      vertex 1.2 -0.5 0
    endloop
  endfacet
  facet normal -0 0 1
    outer loop
      vertex 0 3.5 3
      vertex 1.2 3 3
      vertex 1.2 3.5 3
    endloop
  endfacet
  facet normal 0 0 1
    outer loop
      vertex 1.2 3 3
      vertex 0 3.5 3
      vertex 1.2 0 3
    endloop
  endfacet
  facet normal 0 0 1
    outer loop
      vertex 0 -0.5 3
      vertex 1.2 0 3
      vertex 0 3.5 3
    endloop
  endfacet
  facet normal 0 0 1
    outer loop
      vertex 1.2 0 3
      vertex 0 -0.5 3
      vertex 1.2 -0.5 3
    endloop
  endfacet
  facet normal -0 0 1
    outer loop
      vertex 1.2 3 3
      vertex 38.8 0 3
      vertex 38.8 3 3
    endloop
  endfacet
  facet normal 0 0 1
    outer loop
      vertex 38.8 0 3
      vertex 1.2 3 3
      vertex 1.2 0 3
    endloop
  endfacet
  facet normal 0 0 1
    outer loop
      vertex 38.8 3 3
      vertex 40 3.5 3
      vertex 38.8 3.5 3
    endloop
  endfacet
  facet normal 0 0 1
    outer loop
      vertex 40 3.5 3
      vertex 38.8 3 3
      vertex 40 -0.5 3
    endloop
  endfacet
  facet normal -0 0 1
    outer loop
      vertex 38.8 0 3
      vertex 40 -0.5 3
      vertex 38.8 3 3
    endloop
  endfacet
  facet normal 0 0 1
    outer loop
      vertex 40 -0.5 3
      vertex 38.8 0 3
      vertex 38.8 -0.5 3
    endloop
  endfacet
  facet normal 0 0 -1
    outer loop
      vertex 0 -0.5 0
      vertex 1.2 0 0
      vertex 1.2 -0.5 0
    endloop
  endfacet
  facet normal -0 0 -1
    outer loop
      vertex 1.2 0 0
      vertex 0 -0.5 0
      vertex 1.2 3 0
    endloop
  endfacet
  facet normal 0 0 -1
    outer loop
      vertex 0 3.5 0
      vertex 1.2 3 0
      vertex 0 -0.5 0
    endloop
  endfacet
  facet normal 0 0 -1
    outer loop
      vertex 1.2 3 0
      vertex 0 3.5 0
      vertex 1.2 3.5 0
    endloop
  endfacet
  facet normal 0 0 -1
    outer loop
      vertex 1.2 0 0
      vertex 38.8 3 0
      vertex 38.8 0 0
    endloop
  endfacet
  facet normal -0 0 -1
    outer loop
      vertex 38.8 3 0
      vertex 1.2 0 0
      vertex 1.2 3 0
    endloop
  endfacet
  facet normal 0 0 -1
    outer loop
      vertex 38.8 0 0
      vertex 40 -0.5 0
      vertex 38.8 -0.5 0
    endloop
  endfacet
  facet normal 0 0 -1
    outer loop
      vertex 40 -0.5 0
      vertex 38.8 0 0
      vertex 40 3.5 0
    endloop
  endfacet
  facet normal 0 0 -1
    outer loop
      vertex 38.8 3 0
      vertex 40 3.5 0
      vertex 38.8 0 0
    endloop
  endfacet
  facet normal -0 0 -1
    outer loop
      vertex 40 3.5 0
      vertex 38.8 3 0
      vertex 38.8 3.5 0
    endloop
  endfacet
  facet normal -1 0 0
    outer loop
      vertex 0 -0.5 0
      vertex 0 3.5 3
      vertex 0 3.5 0
    endloop
  endfacet
  facet normal -1 -0 0
    outer loop
      vertex 0 3.5 3
      vertex 0 -0.5 0
      vertex 0 -0.5 3
    endloop
  endfacet
  facet normal 0 1 -0
    outer loop
      vertex 1.2 3.5 0
      vertex 0 3.5 3
      vertex 1.2 3.5 3
    endloop
  endfacet
  facet normal 0 1 0
    outer loop
      vertex 0 3.5 3
      vertex 1.2 3.5 0
      vertex 0 3.5 0
    endloop
  endfacet
  facet normal 0 -1 0
    outer loop
      vertex 0 -0.5 0
      vertex 1.2 -0.5 3
      vertex 0 -0.5 3
    endloop
  endfacet
  facet normal 0 -1 -0
    outer loop
      vertex 1.2 -0.5 3
      vertex 0 -0.5 0
      vertex 1.2 -0.5 0
    endloop
  endfacet
  facet normal 1 -0 0
    outer loop
      vertex 40 -0.5 3
      vertex 40 3.5 0
      vertex 40 3.5 3
    endloop
  endfacet
  facet normal 1 0 0
    outer loop
      vertex 40 3.5 0
      vertex 40 -0.5 3
      vertex 40 -0.5 0
    endloop
  endfacet
  facet normal -1 0 0
    outer loop
      vertex 38.8 3 0
      vertex 38.8 3.5 3
      vertex 38.8 3.5 0
    endloop
  endfacet
  facet normal -1 -0 0
    outer loop
      vertex 38.8 3.5 3
      vertex 38.8 3 0
      vertex 38.8 3 3
    endloop
  endfacet
  facet normal -1 0 0
    outer loop
      vertex 38.8 -0.5 0
      vertex 38.8 0 3
      vertex 38.8 0 0
    endloop
  endfacet
  facet normal -1 -0 0
    outer loop
      vertex 38.8 0 3
      vertex 38.8 -0.5 0
      vertex 38.8 -0.5 3
    endloop
  endfacet
  facet normal 0 1 -0
    outer loop
      vertex 40 3.5 0
      vertex 38.8 3.5 3
      vertex 40 3.5 3
    endloop
  endfacet
  facet normal 0 1 0
    outer loop
      vertex 38.8 3.5 3
      vertex 40 3.5 0
      vertex 38.8 3.5 0
    endloop
  endfacet
  facet normal 0 -1 0
    outer loop
      vertex 38.8 -0.5 0
      vertex 40 -0.5 3
      vertex 38.8 -0.5 3
    endloop
  endfacet
  facet normal 0 -1 -0
    outer loop
      vertex 40 -0.5 3
      vertex 38.8 -0.5 0
      vertex 40 -0.5 0
    endloop
  endfacet
  facet normal 0 1 -0
    outer loop
      vertex 38.8 3 0
      vertex 1.2 3 3
      vertex 38.8 3 3
    endloop
  endfacet
  facet normal 0 1 0
    outer loop
      vertex 1.2 3 3
      vertex 38.8 3 0
      vertex 1.2 3 0
    endloop
  endfacet
  facet normal 0 -1 0
    outer loop
      vertex 1.2 0 0
      vertex 38.8 0 3
      vertex 1.2 0 3
    endloop
  endfacet
  facet normal 0 -1 -0
    outer loop
      vertex 38.8 0 3
      vertex 1.2 0 0
      vertex 38.8 0 0
    endloop
  endfacet
endsolid OpenSCAD_Model
