solid OpenSCAD_Model
  facet normal 1 -0 0
    outer loop
      vertex 25.4 -1.5 0
      vertex 25.4 1.5 -1.4
      vertex 25.4 1.5 0
    endloop
  endfacet
  facet normal 1 0 0
    outer loop
      vertex 25.4 1.5 -1.4
      vertex 25.4 -1.5 0
      vertex 25.4 -1.5 -1.4
    endloop
  endfacet
  facet normal 0 0 -1
    outer loop
      vertex 25.4 -1.5 -1.4
      vertex 1.5 1.5 -1.4
      vertex 25.4 1.5 -1.4
    endloop
  endfacet
  facet normal 0 0 -1
    outer loop
      vertex -1.5 -1.5 -1.4
      vertex 1.5 1.5 -1.4
      vertex 25.4 -1.5 -1.4
    endloop
  endfacet
  facet normal 0 0 -1
    outer loop
      vertex -1.5 25.4 -1.4
      vertex 1.5 1.5 -1.4
      vertex -1.5 -1.5 -1.4
    endloop
  endfacet
  facet normal 0 0 -1
    outer loop
      vertex 1.5 1.5 -1.4
      vertex -1.5 25.4 -1.4
      vertex 1.5 25.4 -1.4
    endloop
  endfacet
  facet normal -1 0 0
    outer loop
      vertex -1.5 25.4 -1.4
      vertex -1.5 21.25 -0.00999928
      vertex -1.5 25.4 -0.00999928
    endloop
  endfacet
  facet normal -1 0 0
    outer loop
      vertex -1.5 -1.5 -1.4
      vertex -1.5 21.25 -0.00999928
      vertex -1.5 25.4 -1.4
    endloop
  endfacet
  facet normal -1 0 0
    outer loop
      vertex -1.5 -1.5 0
      vertex -1.5 21.25 -0.00999928
      vertex -1.5 -1.5 -1.4
    endloop
  endfacet
  facet normal -1 0 0
    outer loop
      vertex -1.5 21.25 -0.00999928
      vertex -1.5 -1.5 0
      vertex -1.5 21.25 0
    endloop
  endfacet
  facet normal 0 1 -0
    outer loop
      vertex 25.4 1.5 -1.4
      vertex 1.5 1.5 0
      vertex 25.4 1.5 0
    endloop
  endfacet
  facet normal 0 1 0
    outer loop
      vertex 1.5 1.5 0
      vertex 25.4 1.5 -1.4
      vertex 1.5 1.5 -1.4
    endloop
  endfacet
  facet normal 0 -1 0
    outer loop
      vertex -1.5 -1.5 -1.4
      vertex 25.4 -1.5 0
      vertex -1.5 -1.5 0
    endloop
  endfacet
  facet normal 0 -1 -0
    outer loop
      vertex 25.4 -1.5 0
      vertex -1.5 -1.5 -1.4
      vertex 25.4 -1.5 -1.4
    endloop
  endfacet
  facet normal 1 0 0
    outer loop
      vertex 1.5 21.25 0
      vertex 1.5 1.5 0
      vertex 1.5 21.25 -0.00999928
    endloop
  endfacet
  facet normal 1 -0 0
    outer loop
      vertex 1.5 21.25 -0.00999928
      vertex 1.5 25.4 -1.4
      vertex 1.5 25.4 -0.00999928
    endloop
  endfacet
  facet normal 1 0 0
    outer loop
      vertex 1.5 1.5 -1.4
      vertex 1.5 21.25 -0.00999928
      vertex 1.5 1.5 0
    endloop
  endfacet
  facet normal 1 0 0
    outer loop
      vertex 1.5 21.25 -0.00999928
      vertex 1.5 1.5 -1.4
      vertex 1.5 25.4 -1.4
    endloop
  endfacet
  facet normal 0 1 -0
    outer loop
      vertex 1.5 25.4 -1.4
      vertex -1.5 25.4 -0.00999928
      vertex 1.5 25.4 -0.00999928
    endloop
  endfacet
  facet normal 0 1 0
    outer loop
      vertex -1.5 25.4 -0.00999928
      vertex 1.5 25.4 -1.4
      vertex -1.5 25.4 -1.4
    endloop
  endfacet
  facet normal 0 1 -0
    outer loop
      vertex -1.65216 25.4 0
      vertex -3 25.4 50.8
      vertex -1.65216 25.4 50.8
    endloop
  endfacet
  facet normal 0 1 0
    outer loop
      vertex -3 25.4 50.8
      vertex -1.65216 25.4 0
      vertex -3 25.4 0
    endloop
  endfacet
  facet normal 0 1 -0
    outer loop
      vertex 3 25.4 0
      vertex 1.65216 25.4 50.8
      vertex 3 25.4 50.8
    endloop
  endfacet
  facet normal 0 1 0
    outer loop
      vertex 1.65216 25.4 50.8
      vertex 3 25.4 0
      vertex 1.65216 25.4 0
    endloop
  endfacet
  facet normal 1 -0 0
    outer loop
      vertex 25.4 1.50224 50.8
      vertex 25.4 3 0
      vertex 25.4 3 50.8
    endloop
  endfacet
  facet normal 1 0 0
    outer loop
      vertex 25.4 3 0
      vertex 25.4 1.50224 50.8
      vertex 25.4 1.50224 0
    endloop
  endfacet
  facet normal 1 -0 0
    outer loop
      vertex 25.4 -3 50.8
      vertex 25.4 -1.50224 0
      vertex 25.4 -1.50224 50.8
    endloop
  endfacet
  facet normal 1 0 0
    outer loop
      vertex 25.4 -1.50224 0
      vertex 25.4 -3 50.8
      vertex 25.4 -3 0
    endloop
  endfacet
  facet normal 0 0 1
    outer loop
      vertex -1.65216 25.4 50.8
      vertex -3 25.4 50.8
      vertex -2.54999 21.25 50.8
    endloop
  endfacet
  facet normal 0 0 1
    outer loop
      vertex 3 25.4 50.8
      vertex 2.54999 21.25 50.8
      vertex 3 3 50.8
    endloop
  endfacet
  facet normal 0 -0 1
    outer loop
      vertex 2.54999 21.25 50.8
      vertex 3 25.4 50.8
      vertex 1.65216 25.4 50.8
    endloop
  endfacet
  facet normal -0 0 1
    outer loop
      vertex 3 3 50.8
      vertex 25.4 1.50224 50.8
      vertex 25.4 3 50.8
    endloop
  endfacet
  facet normal 0 0 1
    outer loop
      vertex 25.4 1.50224 50.8
      vertex 3 3 50.8
      vertex 25.4 -1.50224 50.8
    endloop
  endfacet
  facet normal 0 0 1
    outer loop
      vertex 25.4 -1.50224 50.8
      vertex 3 3 50.8
      vertex 25.4 -3 50.8
    endloop
  endfacet
  facet normal -0 0 1
    outer loop
      vertex -2.54999 21.25 50.8
      vertex 3 3 50.8
      vertex 2.54999 21.25 50.8
    endloop
  endfacet
  facet normal 0 0 1
    outer loop
      vertex 3 3 50.8
      vertex -3 -3 50.8
      vertex 25.4 -3 50.8
    endloop
  endfacet
  facet normal 0 0 1
    outer loop
      vertex -2.54999 21.25 50.8
      vertex -3 -3 50.8
      vertex 3 3 50.8
    endloop
  endfacet
  facet normal 0 0 1
    outer loop
      vertex -3 -3 50.8
      vertex -2.54999 21.25 50.8
      vertex -3 25.4 50.8
    endloop
  endfacet
  facet normal -0 0 1
    outer loop
      vertex 25.4 1.50224 50.8
      vertex 29.4 -2.39999 50.8
      vertex 29.4 2.39999 50.8
    endloop
  endfacet
  facet normal 0 0 1
    outer loop
      vertex 29.4 -2.39999 50.8
      vertex 25.4 1.50224 50.8
      vertex 25.4 -1.50224 50.8
    endloop
  endfacet
  facet normal 0 0 -1
    outer loop
      vertex 25.4 -1.5 0
      vertex 29.4 -2.39999 0
      vertex 25.4 -1.50224 0
    endloop
  endfacet
  facet normal 0 0 -1
    outer loop
      vertex 29.4 -2.39999 0
      vertex 25.4 -1.5 0
      vertex 29.4 2.39999 0
    endloop
  endfacet
  facet normal 0 0 -1
    outer loop
      vertex 25.4 1.5 0
      vertex 29.4 2.39999 0
      vertex 25.4 -1.5 0
    endloop
  endfacet
  facet normal 0 0 -1
    outer loop
      vertex 25.4 1.5 0
      vertex 25.4 1.50224 0
      vertex 29.4 2.39999 0
    endloop
  endfacet
  facet normal 0 0 -1
    outer loop
      vertex 3 3 0
      vertex 25.4 1.50224 0
      vertex 25.4 1.5 0
    endloop
  endfacet
  facet normal 0 0 -1
    outer loop
      vertex 25.4 1.50224 0
      vertex 3 3 0
      vertex 25.4 3 0
    endloop
  endfacet
  facet normal 0 0 -1
    outer loop
      vertex 3 3 0
      vertex 2.54999 21.25 0
      vertex 3 25.4 0
    endloop
  endfacet
  facet normal 0 0 -1
    outer loop
      vertex 1.5 1.5 0
      vertex 3 3 0
      vertex 25.4 1.5 0
    endloop
  endfacet
  facet normal 0 0 -1
    outer loop
      vertex 1.5 21.25 0
      vertex 3 3 0
      vertex 1.5 1.5 0
    endloop
  endfacet
  facet normal 0 0 -1
    outer loop
      vertex 3 3 0
      vertex 1.5 21.25 0
      vertex 2.54999 21.25 0
    endloop
  endfacet
  facet normal 0 0 -1
    outer loop
      vertex -1.5 -1.5 0
      vertex 25.4 -1.50224 0
      vertex 25.4 -3 0
    endloop
  endfacet
  facet normal 0 0 -1
    outer loop
      vertex 25.4 -1.50224 0
      vertex -1.5 -1.5 0
      vertex 25.4 -1.5 0
    endloop
  endfacet
  facet normal 0 0 -1
    outer loop
      vertex -1.5 -1.5 0
      vertex -2.54999 21.25 0
      vertex -1.5 21.25 0
    endloop
  endfacet
  facet normal -0 0 -1
    outer loop
      vertex -1.5 -1.5 0
      vertex -3 -3 0
      vertex -2.54999 21.25 0
    endloop
  endfacet
  facet normal 0 0 -1
    outer loop
      vertex -3 -3 0
      vertex -1.5 -1.5 0
      vertex 25.4 -3 0
    endloop
  endfacet
  facet normal -0 0 -1
    outer loop
      vertex 3 25.4 0
      vertex 2.54999 21.25 0
      vertex 1.65216 25.4 0
    endloop
  endfacet
  facet normal 0 0 -1
    outer loop
      vertex -2.54999 21.25 0
      vertex -3 25.4 0
      vertex -1.65216 25.4 0
    endloop
  endfacet
  facet normal 0 0 -1
    outer loop
      vertex -3 25.4 0
      vertex -2.54999 21.25 0
      vertex -3 -3 0
    endloop
  endfacet
  facet normal -1 0 0
    outer loop
      vertex -3 -3 0
      vertex -3 25.4 50.8
      vertex -3 25.4 0
    endloop
  endfacet
  facet normal -1 -0 0
    outer loop
      vertex -3 25.4 50.8
      vertex -3 -3 0
      vertex -3 -3 50.8
    endloop
  endfacet
  facet normal 0 1 -0
    outer loop
      vertex 25.4 3 0
      vertex 3 3 50.8
      vertex 25.4 3 50.8
    endloop
  endfacet
  facet normal 0 1 0
    outer loop
      vertex 3 3 50.8
      vertex 25.4 3 0
      vertex 3 3 0
    endloop
  endfacet
  facet normal 0 -1 0
    outer loop
      vertex -3 -3 0
      vertex 25.4 -3 50.8
      vertex -3 -3 50.8
    endloop
  endfacet
  facet normal 0 -1 -0
    outer loop
      vertex 25.4 -3 50.8
      vertex -3 -3 0
      vertex 25.4 -3 0
    endloop
  endfacet
  facet normal 1 -0 0
    outer loop
      vertex 3 3 50.8
      vertex 3 25.4 0
      vertex 3 25.4 50.8
    endloop
  endfacet
  facet normal 1 0 0
    outer loop
      vertex 3 25.4 0
      vertex 3 3 50.8
      vertex 3 3 0
    endloop
  endfacet
  facet normal 1 -0 0
    outer loop
      vertex 29.4 -2.39999 50.8
      vertex 29.4 2.39999 0
      vertex 29.4 2.39999 50.8
    endloop
  endfacet
  facet normal 1 0 0
    outer loop
      vertex 29.4 2.39999 0
      vertex 29.4 -2.39999 50.8
      vertex 29.4 -2.39999 0
    endloop
  endfacet
  facet normal -0.21899 -0.975727 0
    outer loop
      vertex 25.4 -1.50224 0
      vertex 29.4 -2.39999 50.8
      vertex 25.4 -1.50224 50.8
    endloop
  endfacet
  facet normal -0.21899 -0.975727 -0
    outer loop
      vertex 29.4 -2.39999 50.8
      vertex 25.4 -1.50224 0
      vertex 29.4 -2.39999 0
    endloop
  endfacet
  facet normal -0.21899 0.975727 0
    outer loop
      vertex 29.4 2.39999 0
      vertex 25.4 1.50224 50.8
      vertex 29.4 2.39999 50.8
    endloop
  endfacet
  facet normal -0.21899 0.975727 0
    outer loop
      vertex 25.4 1.50224 50.8
      vertex 29.4 2.39999 0
      vertex 25.4 1.50224 0
    endloop
  endfacet
  facet normal -0 0 1
    outer loop
      vertex -1.5 25.4 -0.00999928
      vertex 1.5 21.25 -0.00999928
      vertex 1.5 25.4 -0.00999928
    endloop
  endfacet
  facet normal 0 0 1
    outer loop
      vertex 1.5 21.25 -0.00999928
      vertex -1.5 25.4 -0.00999928
      vertex -1.5 21.25 -0.00999928
    endloop
  endfacet
  facet normal 0 1 -0
    outer loop
      vertex 1.5 21.25 -0.00999928
      vertex -1.5 21.25 0
      vertex 1.5 21.25 0
    endloop
  endfacet
  facet normal 0 1 0
    outer loop
      vertex -1.5 21.25 0
      vertex 1.5 21.25 -0.00999928
      vertex -1.5 21.25 -0.00999928
    endloop
  endfacet
  facet normal 0 1 0
    outer loop
      vertex 1.5 21.25 0
      vertex 2.54999 21.25 50.8
      vertex 2.54999 21.25 0
    endloop
  endfacet
  facet normal 0 1 0
    outer loop
      vertex 2.54999 21.25 50.8
      vertex 1.5 21.25 0
      vertex -2.54999 21.25 50.8
    endloop
  endfacet
  facet normal 0 1 -0
    outer loop
      vertex -1.5 21.25 0
      vertex -2.54999 21.25 50.8
      vertex 1.5 21.25 0
    endloop
  endfacet
  facet normal 0 1 0
    outer loop
      vertex -2.54999 21.25 50.8
      vertex -1.5 21.25 0
      vertex -2.54999 21.25 0
    endloop
  endfacet
  facet normal 0.977388 -0.211453 0
    outer loop
      vertex -2.54999 21.25 50.8
      vertex -1.65216 25.4 0
      vertex -1.65216 25.4 50.8
    endloop
  endfacet
  facet normal 0.977388 -0.211453 0
    outer loop
      vertex -1.65216 25.4 0
      vertex -2.54999 21.25 50.8
      vertex -2.54999 21.25 0
    endloop
  endfacet
  facet normal -0.977388 -0.211453 0
    outer loop
      vertex 2.54999 21.25 0
      vertex 1.65216 25.4 50.8
      vertex 1.65216 25.4 0
    endloop
  endfacet
  facet normal -0.977388 -0.211453 0
    outer loop
      vertex 1.65216 25.4 50.8
      vertex 2.54999 21.25 0
      vertex 2.54999 21.25 50.8
    endloop
  endfacet
endsolid OpenSCAD_Model
