solid OpenSCAD_Model
  facet normal 1 0 0
    outer loop
      vertex 16 2 16
      vertex 16 0 16
      vertex 16 2 6
    endloop
  endfacet
  facet normal 1 0 0
    outer loop
      vertex 16 13.44 6
      vertex 16 2 6
      vertex 16 13.44 5.6
    endloop
  endfacet
  facet normal 1 0 0
    outer loop
      vertex 16 30 6
      vertex 16 32 10
      vertex 16 30 10
    endloop
  endfacet
  facet normal 1 0 0
    outer loop
      vertex 16 32 10
      vertex 16 30 6
      vertex 16 32 0
    endloop
  endfacet
  facet normal 1 0 0
    outer loop
      vertex 16 14.04 5.6
      vertex 16 30 6
      vertex 16 14.04 6
    endloop
  endfacet
  facet normal 1 0 0
    outer loop
      vertex 16 30 6
      vertex 16 14.04 5.6
      vertex 16 32 0
    endloop
  endfacet
  facet normal 1 0 0
    outer loop
      vertex 16 0 0
      vertex 16 14.04 5.6
      vertex 16 13.44 5.6
    endloop
  endfacet
  facet normal 1 0 0
    outer loop
      vertex 16 0 0
      vertex 16 13.44 5.6
      vertex 16 2 6
    endloop
  endfacet
  facet normal 1 0 0
    outer loop
      vertex 16 14.04 5.6
      vertex 16 0 0
      vertex 16 32 0
    endloop
  endfacet
  facet normal 1 0 0
    outer loop
      vertex 16 0 0
      vertex 16 2 6
      vertex 16 0 16
    endloop
  endfacet
  facet normal 0 0 1
    outer loop
      vertex 16 13.44 6
      vertex 14 9 6
      vertex 16 2 6
    endloop
  endfacet
  facet normal 0 0 1
    outer loop
      vertex 16 13.44 6
      vertex 2 9 6
      vertex 14 9 6
    endloop
  endfacet
  facet normal 0 0 1
    outer loop
      vertex 0 2 6
      vertex 2 9 6
      vertex 0 13.44 6
    endloop
  endfacet
  facet normal -0 0 1
    outer loop
      vertex 0 13.44 6
      vertex 2 9 6
      vertex 16 13.44 6
    endloop
  endfacet
  facet normal -0 0 1
    outer loop
      vertex 14 3 6
      vertex 16 2 6
      vertex 14 9 6
    endloop
  endfacet
  facet normal -0 0 1
    outer loop
      vertex 2 3 6
      vertex 16 2 6
      vertex 14 3 6
    endloop
  endfacet
  facet normal 0 0 1
    outer loop
      vertex 2 3 6
      vertex 0 2 6
      vertex 16 2 6
    endloop
  endfacet
  facet normal 0 0 1
    outer loop
      vertex 2 9 6
      vertex 0 2 6
      vertex 2 3 6
    endloop
  endfacet
  facet normal -0 0 1
    outer loop
      vertex 0 30 6
      vertex 16 14.04 6
      vertex 16 30 6
    endloop
  endfacet
  facet normal 0 0 1
    outer loop
      vertex 16 14.04 6
      vertex 0 30 6
      vertex 0 14.04 6
    endloop
  endfacet
  facet normal 0 0 -1
    outer loop
      vertex 0 0 0
      vertex 16 32 0
      vertex 16 0 0
    endloop
  endfacet
  facet normal -0 0 -1
    outer loop
      vertex 16 32 0
      vertex 0 0 0
      vertex 0 32 0
    endloop
  endfacet
  facet normal -1 0 0
    outer loop
      vertex 0 32 0
      vertex 0 30 6
      vertex 0 32 10
    endloop
  endfacet
  facet normal -1 0 0
    outer loop
      vertex 0 32 0
      vertex 0 14.04 5.6
      vertex 0 30 6
    endloop
  endfacet
  facet normal -1 0 0
    outer loop
      vertex 0 0 0
      vertex 0 14.04 5.6
      vertex 0 32 0
    endloop
  endfacet
  facet normal -1 0 0
    outer loop
      vertex 0 13.44 5.6
      vertex 0 2 6
      vertex 0 13.44 6
    endloop
  endfacet
  facet normal -1 -0 0
    outer loop
      vertex 0 14.04 5.6
      vertex 0 0 0
      vertex 0 13.44 5.6
    endloop
  endfacet
  facet normal -1 -0 0
    outer loop
      vertex 0 13.44 5.6
      vertex 0 0 0
      vertex 0 2 6
    endloop
  endfacet
  facet normal -1 0 0
    outer loop
      vertex 0 0 16
      vertex 0 2 6
      vertex 0 0 0
    endloop
  endfacet
  facet normal -1 0 0
    outer loop
      vertex 0 2 6
      vertex 0 0 16
      vertex 0 2 16
    endloop
  endfacet
  facet normal -1 -0 0
    outer loop
      vertex 0 32 10
      vertex 0 30 6
      vertex 0 30 10
    endloop
  endfacet
  facet normal -1 -0 0
    outer loop
      vertex 0 30 6
      vertex 0 14.04 5.6
      vertex 0 14.04 6
    endloop
  endfacet
  facet normal 0 1 -0
    outer loop
      vertex 16 32 0
      vertex 0 32 10
      vertex 16 32 10
    endloop
  endfacet
  facet normal 0 1 0
    outer loop
      vertex 0 32 10
      vertex 16 32 0
      vertex 0 32 0
    endloop
  endfacet
  facet normal 0 -1 0
    outer loop
      vertex 0 0 0
      vertex 16 0 16
      vertex 0 0 16
    endloop
  endfacet
  facet normal 0 -1 -0
    outer loop
      vertex 16 0 16
      vertex 0 0 0
      vertex 16 0 0
    endloop
  endfacet
  facet normal -0 0 1
    outer loop
      vertex 0 2 16
      vertex 16 0 16
      vertex 16 2 16
    endloop
  endfacet
  facet normal 0 0 1
    outer loop
      vertex 16 0 16
      vertex 0 2 16
      vertex 0 0 16
    endloop
  endfacet
  facet normal 0 1 -0
    outer loop
      vertex 16 2 6
      vertex 0 2 16
      vertex 16 2 16
    endloop
  endfacet
  facet normal 0 1 0
    outer loop
      vertex 0 2 16
      vertex 16 2 6
      vertex 0 2 6
    endloop
  endfacet
  facet normal -0 0 1
    outer loop
      vertex 0 32 10
      vertex 16 30 10
      vertex 16 32 10
    endloop
  endfacet
  facet normal 0 0 1
    outer loop
      vertex 16 30 10
      vertex 0 32 10
      vertex 0 30 10
    endloop
  endfacet
  facet normal 0 -1 0
    outer loop
      vertex 0 30 6
      vertex 16 30 10
      vertex 0 30 10
    endloop
  endfacet
  facet normal 0 -1 -0
    outer loop
      vertex 16 30 10
      vertex 0 30 6
      vertex 16 30 6
    endloop
  endfacet
  facet normal -0 0 1
    outer loop
      vertex 0 14.04 5.6
      vertex 16 13.44 5.6
      vertex 16 14.04 5.6
    endloop
  endfacet
  facet normal 0 0 1
    outer loop
      vertex 16 13.44 5.6
      vertex 0 14.04 5.6
      vertex 0 13.44 5.6
    endloop
  endfacet
  facet normal 0 -1 0
    outer loop
      vertex 0 14.04 5.6
      vertex 16 14.04 6
      vertex 0 14.04 6
    endloop
  endfacet
  facet normal 0 -1 -0
    outer loop
      vertex 16 14.04 6
      vertex 0 14.04 5.6
      vertex 16 14.04 5.6
    endloop
  endfacet
  facet normal 0 1 -0
    outer loop
      vertex 16 13.44 5.6
      vertex 0 13.44 6
      vertex 16 13.44 6
    endloop
  endfacet
  facet normal 0 1 0
    outer loop
      vertex 0 13.44 6
      vertex 16 13.44 5.6
      vertex 0 13.44 5.6
    endloop
  endfacet
  facet normal -0.826227 0 0.563337
    outer loop
      vertex 2 9 6
      vertex 3.5 4.5 8.2
      vertex 3.5 7.5 8.2
    endloop
  endfacet
  facet normal -0.826227 0 0.563337
    outer loop
      vertex 3.5 4.5 8.2
      vertex 2 9 6
      vertex 2 3 6
    endloop
  endfacet
  facet normal -0 0 1
    outer loop
      vertex 3.5 7.5 8.2
      vertex 12.5 4.5 8.2
      vertex 12.5 7.5 8.2
    endloop
  endfacet
  facet normal 0 0 1
    outer loop
      vertex 12.5 4.5 8.2
      vertex 3.5 7.5 8.2
      vertex 3.5 4.5 8.2
    endloop
  endfacet
  facet normal 0 -0.826227 0.563337
    outer loop
      vertex 2 3 6
      vertex 12.5 4.5 8.2
      vertex 3.5 4.5 8.2
    endloop
  endfacet
  facet normal 0 -0.826227 0.563337
    outer loop
      vertex 12.5 4.5 8.2
      vertex 2 3 6
      vertex 14 3 6
    endloop
  endfacet
  facet normal 0 0.826227 0.563337
    outer loop
      vertex 14 9 6
      vertex 3.5 7.5 8.2
      vertex 12.5 7.5 8.2
    endloop
  endfacet
  facet normal 0 0.826227 0.563337
    outer loop
      vertex 3.5 7.5 8.2
      vertex 14 9 6
      vertex 2 9 6
    endloop
  endfacet
  facet normal 0.826227 -0 0.563337
    outer loop
      vertex 12.5 4.5 8.2
      vertex 14 9 6
      vertex 12.5 7.5 8.2
    endloop
  endfacet
  facet normal 0.826227 0 0.563337
    outer loop
      vertex 14 9 6
      vertex 12.5 4.5 8.2
      vertex 14 3 6
    endloop
  endfacet
endsolid OpenSCAD_Model
