solid OpenSCAD_Model
  facet normal 1 -0 0
    outer loop
      vertex 2.2 53.8 2
      vertex 2.2 58 0
      vertex 2.2 58 2
    endloop
  endfacet
  facet normal 1 0 0
    outer loop
      vertex 2.2 58 0
      vertex 2.2 53.8 2
      vertex 2.2 53.8 0
    endloop
  endfacet
  facet normal 1 -0 0
    outer loop
      vertex 2.2 0 2
      vertex 2.2 4 0
      vertex 2.2 4 2
    endloop
  endfacet
  facet normal 1 0 0
    outer loop
      vertex 2.2 4 0
      vertex 2.2 0 2
      vertex 2.2 0 0
    endloop
  endfacet
  facet normal 1 -0 0
    outer loop
      vertex 2.2 11.8 2
      vertex 2.2 16 0
      vertex 2.2 16 2
    endloop
  endfacet
  facet normal 1 0 0
    outer loop
      vertex 2.2 16 0
      vertex 2.2 11.8 2
      vertex 2.2 11.8 0
    endloop
  endfacet
  facet normal 1 -0 0
    outer loop
      vertex 2.2 5.8 2
      vertex 2.2 10 0
      vertex 2.2 10 2
    endloop
  endfacet
  facet normal 1 0 0
    outer loop
      vertex 2.2 10 0
      vertex 2.2 5.8 2
      vertex 2.2 5.8 0
    endloop
  endfacet
  facet normal 1 -0 0
    outer loop
      vertex 2.2 29.8 2
      vertex 2.2 34 0
      vertex 2.2 34 2
    endloop
  endfacet
  facet normal 1 0 0
    outer loop
      vertex 2.2 34 0
      vertex 2.2 29.8 2
      vertex 2.2 29.8 0
    endloop
  endfacet
  facet normal 1 -0 0
    outer loop
      vertex 2.2 23.8 2
      vertex 2.2 28 0
      vertex 2.2 28 2
    endloop
  endfacet
  facet normal 1 0 0
    outer loop
      vertex 2.2 28 0
      vertex 2.2 23.8 2
      vertex 2.2 23.8 0
    endloop
  endfacet
  facet normal 1 -0 0
    outer loop
      vertex 2.2 41.8 2
      vertex 2.2 46 0
      vertex 2.2 46 2
    endloop
  endfacet
  facet normal 1 0 0
    outer loop
      vertex 2.2 46 0
      vertex 2.2 41.8 2
      vertex 2.2 41.8 0
    endloop
  endfacet
  facet normal 1 -0 0
    outer loop
      vertex 2.2 35.8 2
      vertex 2.2 40 0
      vertex 2.2 40 2
    endloop
  endfacet
  facet normal 1 0 0
    outer loop
      vertex 2.2 40 0
      vertex 2.2 35.8 2
      vertex 2.2 35.8 0
    endloop
  endfacet
  facet normal 1 -0 0
    outer loop
      vertex 2.2 47.8 2
      vertex 2.2 52 0
      vertex 2.2 52 2
    endloop
  endfacet
  facet normal 1 0 0
    outer loop
      vertex 2.2 52 0
      vertex 2.2 47.8 2
      vertex 2.2 47.8 0
    endloop
  endfacet
  facet normal 1 -0 0
    outer loop
      vertex 2.2 17.8 2
      vertex 2.2 22 0
      vertex 2.2 22 2
    endloop
  endfacet
  facet normal 1 0 0
    outer loop
      vertex 2.2 22 0
      vertex 2.2 17.8 2
      vertex 2.2 17.8 0
    endloop
  endfacet
  facet normal -0 0 1
    outer loop
      vertex 0 58 2
      vertex 2.2 53.8 2
      vertex 2.2 58 2
    endloop
  endfacet
  facet normal 0 0 1
    outer loop
      vertex 2.2 53.8 2
      vertex 0 58 2
      vertex 2.2 52 2
    endloop
  endfacet
  facet normal 0 0 1
    outer loop
      vertex 2.2 52 2
      vertex 0 58 2
      vertex 2.2 47.8 2
    endloop
  endfacet
  facet normal 0 0 1
    outer loop
      vertex 2.2 47.8 2
      vertex 0 58 2
      vertex 2.2 46 2
    endloop
  endfacet
  facet normal 0 0 1
    outer loop
      vertex 2.2 46 2
      vertex 0 58 2
      vertex 2.2 41.8 2
    endloop
  endfacet
  facet normal 0 0 1
    outer loop
      vertex 2.2 41.8 2
      vertex 0 58 2
      vertex 2.2 40 2
    endloop
  endfacet
  facet normal 0 0 1
    outer loop
      vertex 2.2 40 2
      vertex 0 58 2
      vertex 2.2 35.8 2
    endloop
  endfacet
  facet normal 0 0 1
    outer loop
      vertex 2.2 35.8 2
      vertex 0 58 2
      vertex 2.2 34 2
    endloop
  endfacet
  facet normal 0 0 1
    outer loop
      vertex 2.2 34 2
      vertex 0 58 2
      vertex 2.2 29.8 2
    endloop
  endfacet
  facet normal 0 0 1
    outer loop
      vertex 2.2 29.8 2
      vertex 0 58 2
      vertex 2.2 28 2
    endloop
  endfacet
  facet normal 0 0 1
    outer loop
      vertex 0 0 2
      vertex 2.2 28 2
      vertex 0 58 2
    endloop
  endfacet
  facet normal 0 0 1
    outer loop
      vertex 2.2 28 2
      vertex 0 0 2
      vertex 2.2 23.8 2
    endloop
  endfacet
  facet normal 0 0 1
    outer loop
      vertex 2.2 23.8 2
      vertex 0 0 2
      vertex 2.2 22 2
    endloop
  endfacet
  facet normal 0 0 1
    outer loop
      vertex 2.2 22 2
      vertex 0 0 2
      vertex 2.2 17.8 2
    endloop
  endfacet
  facet normal 0 0 1
    outer loop
      vertex 2.2 17.8 2
      vertex 0 0 2
      vertex 2.2 16 2
    endloop
  endfacet
  facet normal 0 0 1
    outer loop
      vertex 2.2 16 2
      vertex 0 0 2
      vertex 2.2 11.8 2
    endloop
  endfacet
  facet normal 0 0 1
    outer loop
      vertex 2.2 11.8 2
      vertex 0 0 2
      vertex 2.2 10 2
    endloop
  endfacet
  facet normal 0 0 1
    outer loop
      vertex 2.2 10 2
      vertex 0 0 2
      vertex 2.2 5.8 2
    endloop
  endfacet
  facet normal 0 0 1
    outer loop
      vertex 2.2 5.8 2
      vertex 0 0 2
      vertex 2.2 4 2
    endloop
  endfacet
  facet normal 0 0 1
    outer loop
      vertex 2.2 4 2
      vertex 0 0 2
      vertex 2.2 0 2
    endloop
  endfacet
  facet normal -0 0 1
    outer loop
      vertex 2.2 5.8 2
      vertex 6.8 4 2
      vertex 6.8 5.8 2
    endloop
  endfacet
  facet normal 0 0 1
    outer loop
      vertex 6.8 4 2
      vertex 2.2 5.8 2
      vertex 2.2 4 2
    endloop
  endfacet
  facet normal -0 0 1
    outer loop
      vertex 2.2 11.8 2
      vertex 6.8 10 2
      vertex 6.8 11.8 2
    endloop
  endfacet
  facet normal 0 0 1
    outer loop
      vertex 6.8 10 2
      vertex 2.2 11.8 2
      vertex 2.2 10 2
    endloop
  endfacet
  facet normal -0 0 1
    outer loop
      vertex 2.2 17.8 2
      vertex 6.8 16 2
      vertex 6.8 17.8 2
    endloop
  endfacet
  facet normal 0 0 1
    outer loop
      vertex 6.8 16 2
      vertex 2.2 17.8 2
      vertex 2.2 16 2
    endloop
  endfacet
  facet normal -0 0 1
    outer loop
      vertex 2.2 23.8 2
      vertex 6.8 22 2
      vertex 6.8 23.8 2
    endloop
  endfacet
  facet normal 0 0 1
    outer loop
      vertex 6.8 22 2
      vertex 2.2 23.8 2
      vertex 2.2 22 2
    endloop
  endfacet
  facet normal -0 0 1
    outer loop
      vertex 2.2 29.8 2
      vertex 6.8 28 2
      vertex 6.8 29.8 2
    endloop
  endfacet
  facet normal 0 0 1
    outer loop
      vertex 6.8 28 2
      vertex 2.2 29.8 2
      vertex 2.2 28 2
    endloop
  endfacet
  facet normal -0 0 1
    outer loop
      vertex 2.2 35.8 2
      vertex 6.8 34 2
      vertex 6.8 35.8 2
    endloop
  endfacet
  facet normal 0 0 1
    outer loop
      vertex 6.8 34 2
      vertex 2.2 35.8 2
      vertex 2.2 34 2
    endloop
  endfacet
  facet normal -0 0 1
    outer loop
      vertex 2.2 41.8 2
      vertex 6.8 40 2
      vertex 6.8 41.8 2
    endloop
  endfacet
  facet normal 0 0 1
    outer loop
      vertex 6.8 40 2
      vertex 2.2 41.8 2
      vertex 2.2 40 2
    endloop
  endfacet
  facet normal -0 0 1
    outer loop
      vertex 2.2 47.8 2
      vertex 6.8 46 2
      vertex 6.8 47.8 2
    endloop
  endfacet
  facet normal 0 0 1
    outer loop
      vertex 6.8 46 2
      vertex 2.2 47.8 2
      vertex 2.2 46 2
    endloop
  endfacet
  facet normal -0 0 1
    outer loop
      vertex 2.2 53.8 2
      vertex 6.8 52 2
      vertex 6.8 53.8 2
    endloop
  endfacet
  facet normal 0 0 1
    outer loop
      vertex 6.8 52 2
      vertex 2.2 53.8 2
      vertex 2.2 52 2
    endloop
  endfacet
  facet normal 0 0 1
    outer loop
      vertex 6.8 53.8 2
      vertex 9 58 2
      vertex 6.8 58 2
    endloop
  endfacet
  facet normal 0 0 1
    outer loop
      vertex 6.8 52 2
      vertex 9 58 2
      vertex 6.8 53.8 2
    endloop
  endfacet
  facet normal 0 0 1
    outer loop
      vertex 6.8 47.8 2
      vertex 9 58 2
      vertex 6.8 52 2
    endloop
  endfacet
  facet normal 0 0 1
    outer loop
      vertex 6.8 46 2
      vertex 9 58 2
      vertex 6.8 47.8 2
    endloop
  endfacet
  facet normal 0 0 1
    outer loop
      vertex 6.8 41.8 2
      vertex 9 58 2
      vertex 6.8 46 2
    endloop
  endfacet
  facet normal 0 0 1
    outer loop
      vertex 6.8 40 2
      vertex 9 58 2
      vertex 6.8 41.8 2
    endloop
  endfacet
  facet normal 0 0 1
    outer loop
      vertex 6.8 35.8 2
      vertex 9 58 2
      vertex 6.8 40 2
    endloop
  endfacet
  facet normal 0 0 1
    outer loop
      vertex 6.8 34 2
      vertex 9 58 2
      vertex 6.8 35.8 2
    endloop
  endfacet
  facet normal 0 0 1
    outer loop
      vertex 6.8 29.8 2
      vertex 9 58 2
      vertex 6.8 34 2
    endloop
  endfacet
  facet normal 0 0 1
    outer loop
      vertex 9 58 2
      vertex 6.8 29.8 2
      vertex 9 0 2
    endloop
  endfacet
  facet normal -0 0 1
    outer loop
      vertex 6.8 28 2
      vertex 9 0 2
      vertex 6.8 29.8 2
    endloop
  endfacet
  facet normal -0 0 1
    outer loop
      vertex 6.8 23.8 2
      vertex 9 0 2
      vertex 6.8 28 2
    endloop
  endfacet
  facet normal -0 0 1
    outer loop
      vertex 6.8 22 2
      vertex 9 0 2
      vertex 6.8 23.8 2
    endloop
  endfacet
  facet normal -0 0 1
    outer loop
      vertex 6.8 17.8 2
      vertex 9 0 2
      vertex 6.8 22 2
    endloop
  endfacet
  facet normal -0 0 1
    outer loop
      vertex 6.8 16 2
      vertex 9 0 2
      vertex 6.8 17.8 2
    endloop
  endfacet
  facet normal -0 0 1
    outer loop
      vertex 6.8 11.8 2
      vertex 9 0 2
      vertex 6.8 16 2
    endloop
  endfacet
  facet normal -0 0 1
    outer loop
      vertex 6.8 10 2
      vertex 9 0 2
      vertex 6.8 11.8 2
    endloop
  endfacet
  facet normal -0 0 1
    outer loop
      vertex 6.8 5.8 2
      vertex 9 0 2
      vertex 6.8 10 2
    endloop
  endfacet
  facet normal -0 0 1
    outer loop
      vertex 6.8 4 2
      vertex 9 0 2
      vertex 6.8 5.8 2
    endloop
  endfacet
  facet normal 0 0 1
    outer loop
      vertex 9 0 2
      vertex 6.8 4 2
      vertex 6.8 0 2
    endloop
  endfacet
  facet normal 0 0 -1
    outer loop
      vertex 0 0 0
      vertex 2.2 4 0
      vertex 2.2 0 0
    endloop
  endfacet
  facet normal -0 0 -1
    outer loop
      vertex 2.2 4 0
      vertex 0 0 0
      vertex 2.2 5.8 0
    endloop
  endfacet
  facet normal -0 0 -1
    outer loop
      vertex 2.2 5.8 0
      vertex 0 0 0
      vertex 2.2 10 0
    endloop
  endfacet
  facet normal -0 0 -1
    outer loop
      vertex 2.2 10 0
      vertex 0 0 0
      vertex 2.2 11.8 0
    endloop
  endfacet
  facet normal -0 0 -1
    outer loop
      vertex 2.2 11.8 0
      vertex 0 0 0
      vertex 2.2 16 0
    endloop
  endfacet
  facet normal -0 0 -1
    outer loop
      vertex 2.2 16 0
      vertex 0 0 0
      vertex 2.2 17.8 0
    endloop
  endfacet
  facet normal -0 0 -1
    outer loop
      vertex 2.2 17.8 0
      vertex 0 0 0
      vertex 2.2 22 0
    endloop
  endfacet
  facet normal -0 0 -1
    outer loop
      vertex 2.2 22 0
      vertex 0 0 0
      vertex 2.2 23.8 0
    endloop
  endfacet
  facet normal -0 0 -1
    outer loop
      vertex 2.2 23.8 0
      vertex 0 0 0
      vertex 2.2 28 0
    endloop
  endfacet
  facet normal -0 0 -1
    outer loop
      vertex 2.2 28 0
      vertex 0 0 0
      vertex 2.2 29.8 0
    endloop
  endfacet
  facet normal 0 0 -1
    outer loop
      vertex 0 58 0
      vertex 2.2 29.8 0
      vertex 0 0 0
    endloop
  endfacet
  facet normal 0 0 -1
    outer loop
      vertex 2.2 29.8 0
      vertex 0 58 0
      vertex 2.2 34 0
    endloop
  endfacet
  facet normal 0 0 -1
    outer loop
      vertex 2.2 34 0
      vertex 0 58 0
      vertex 2.2 35.8 0
    endloop
  endfacet
  facet normal 0 0 -1
    outer loop
      vertex 2.2 35.8 0
      vertex 0 58 0
      vertex 2.2 40 0
    endloop
  endfacet
  facet normal 0 0 -1
    outer loop
      vertex 2.2 40 0
      vertex 0 58 0
      vertex 2.2 41.8 0
    endloop
  endfacet
  facet normal 0 0 -1
    outer loop
      vertex 2.2 41.8 0
      vertex 0 58 0
      vertex 2.2 46 0
    endloop
  endfacet
  facet normal 0 0 -1
    outer loop
      vertex 2.2 46 0
      vertex 0 58 0
      vertex 2.2 47.8 0
    endloop
  endfacet
  facet normal 0 0 -1
    outer loop
      vertex 2.2 47.8 0
      vertex 0 58 0
      vertex 2.2 52 0
    endloop
  endfacet
  facet normal 0 0 -1
    outer loop
      vertex 2.2 52 0
      vertex 0 58 0
      vertex 2.2 53.8 0
    endloop
  endfacet
  facet normal 0 0 -1
    outer loop
      vertex 2.2 53.8 0
      vertex 0 58 0
      vertex 2.2 58 0
    endloop
  endfacet
  facet normal 0 0 -1
    outer loop
      vertex 2.2 52 0
      vertex 6.8 53.8 0
      vertex 6.8 52 0
    endloop
  endfacet
  facet normal -0 0 -1
    outer loop
      vertex 6.8 53.8 0
      vertex 2.2 52 0
      vertex 2.2 53.8 0
    endloop
  endfacet
  facet normal 0 0 -1
    outer loop
      vertex 2.2 46 0
      vertex 6.8 47.8 0
      vertex 6.8 46 0
    endloop
  endfacet
  facet normal -0 0 -1
    outer loop
      vertex 6.8 47.8 0
      vertex 2.2 46 0
      vertex 2.2 47.8 0
    endloop
  endfacet
  facet normal 0 0 -1
    outer loop
      vertex 2.2 40 0
      vertex 6.8 41.8 0
      vertex 6.8 40 0
    endloop
  endfacet
  facet normal -0 0 -1
    outer loop
      vertex 6.8 41.8 0
      vertex 2.2 40 0
      vertex 2.2 41.8 0
    endloop
  endfacet
  facet normal 0 0 -1
    outer loop
      vertex 2.2 34 0
      vertex 6.8 35.8 0
      vertex 6.8 34 0
    endloop
  endfacet
  facet normal -0 0 -1
    outer loop
      vertex 6.8 35.8 0
      vertex 2.2 34 0
      vertex 2.2 35.8 0
    endloop
  endfacet
  facet normal 0 0 -1
    outer loop
      vertex 2.2 28 0
      vertex 6.8 29.8 0
      vertex 6.8 28 0
    endloop
  endfacet
  facet normal -0 0 -1
    outer loop
      vertex 6.8 29.8 0
      vertex 2.2 28 0
      vertex 2.2 29.8 0
    endloop
  endfacet
  facet normal 0 0 -1
    outer loop
      vertex 2.2 22 0
      vertex 6.8 23.8 0
      vertex 6.8 22 0
    endloop
  endfacet
  facet normal -0 0 -1
    outer loop
      vertex 6.8 23.8 0
      vertex 2.2 22 0
      vertex 2.2 23.8 0
    endloop
  endfacet
  facet normal 0 0 -1
    outer loop
      vertex 2.2 16 0
      vertex 6.8 17.8 0
      vertex 6.8 16 0
    endloop
  endfacet
  facet normal -0 0 -1
    outer loop
      vertex 6.8 17.8 0
      vertex 2.2 16 0
      vertex 2.2 17.8 0
    endloop
  endfacet
  facet normal 0 0 -1
    outer loop
      vertex 2.2 10 0
      vertex 6.8 11.8 0
      vertex 6.8 10 0
    endloop
  endfacet
  facet normal -0 0 -1
    outer loop
      vertex 6.8 11.8 0
      vertex 2.2 10 0
      vertex 2.2 11.8 0
    endloop
  endfacet
  facet normal 0 0 -1
    outer loop
      vertex 2.2 4 0
      vertex 6.8 5.8 0
      vertex 6.8 4 0
    endloop
  endfacet
  facet normal -0 0 -1
    outer loop
      vertex 6.8 5.8 0
      vertex 2.2 4 0
      vertex 2.2 5.8 0
    endloop
  endfacet
  facet normal 0 0 -1
    outer loop
      vertex 6.8 4 0
      vertex 9 0 0
      vertex 6.8 0 0
    endloop
  endfacet
  facet normal 0 0 -1
    outer loop
      vertex 6.8 5.8 0
      vertex 9 0 0
      vertex 6.8 4 0
    endloop
  endfacet
  facet normal 0 0 -1
    outer loop
      vertex 6.8 10 0
      vertex 9 0 0
      vertex 6.8 5.8 0
    endloop
  endfacet
  facet normal 0 0 -1
    outer loop
      vertex 6.8 11.8 0
      vertex 9 0 0
      vertex 6.8 10 0
    endloop
  endfacet
  facet normal 0 0 -1
    outer loop
      vertex 6.8 16 0
      vertex 9 0 0
      vertex 6.8 11.8 0
    endloop
  endfacet
  facet normal 0 0 -1
    outer loop
      vertex 6.8 17.8 0
      vertex 9 0 0
      vertex 6.8 16 0
    endloop
  endfacet
  facet normal 0 0 -1
    outer loop
      vertex 6.8 22 0
      vertex 9 0 0
      vertex 6.8 17.8 0
    endloop
  endfacet
  facet normal 0 0 -1
    outer loop
      vertex 6.8 23.8 0
      vertex 9 0 0
      vertex 6.8 22 0
    endloop
  endfacet
  facet normal 0 0 -1
    outer loop
      vertex 6.8 28 0
      vertex 9 0 0
      vertex 6.8 23.8 0
    endloop
  endfacet
  facet normal 0 0 -1
    outer loop
      vertex 9 0 0
      vertex 6.8 28 0
      vertex 9 58 0
    endloop
  endfacet
  facet normal 0 0 -1
    outer loop
      vertex 6.8 29.8 0
      vertex 9 58 0
      vertex 6.8 28 0
    endloop
  endfacet
  facet normal 0 0 -1
    outer loop
      vertex 6.8 34 0
      vertex 9 58 0
      vertex 6.8 29.8 0
    endloop
  endfacet
  facet normal 0 0 -1
    outer loop
      vertex 6.8 35.8 0
      vertex 9 58 0
      vertex 6.8 34 0
    endloop
  endfacet
  facet normal 0 0 -1
    outer loop
      vertex 6.8 40 0
      vertex 9 58 0
      vertex 6.8 35.8 0
    endloop
  endfacet
  facet normal 0 0 -1
    outer loop
      vertex 6.8 41.8 0
      vertex 9 58 0
      vertex 6.8 40 0
    endloop
  endfacet
  facet normal 0 0 -1
    outer loop
      vertex 6.8 46 0
      vertex 9 58 0
      vertex 6.8 41.8 0
    endloop
  endfacet
  facet normal 0 0 -1
    outer loop
      vertex 6.8 47.8 0
      vertex 9 58 0
      vertex 6.8 46 0
    endloop
  endfacet
  facet normal 0 0 -1
    outer loop
      vertex 6.8 52 0
      vertex 9 58 0
      vertex 6.8 47.8 0
    endloop
  endfacet
  facet normal 0 0 -1
    outer loop
      vertex 6.8 53.8 0
      vertex 9 58 0
      vertex 6.8 52 0
    endloop
  endfacet
  facet normal -0 0 -1
    outer loop
      vertex 9 58 0
      vertex 6.8 53.8 0
      vertex 6.8 58 0
    endloop
  endfacet
  facet normal -1 0 0
    outer loop
      vertex 0 0 0
      vertex 0 58 2
      vertex 0 58 0
    endloop
  endfacet
  facet normal -1 -0 0
    outer loop
      vertex 0 58 2
      vertex 0 0 0
      vertex 0 0 2
    endloop
  endfacet
  facet normal 0 1 -0
    outer loop
      vertex 2.2 58 0
      vertex 0 58 2
      vertex 2.2 58 2
    endloop
  endfacet
  facet normal 0 1 0
    outer loop
      vertex 0 58 2
      vertex 2.2 58 0
      vertex 0 58 0
    endloop
  endfacet
  facet normal 0 -1 0
    outer loop
      vertex 0 0 0
      vertex 2.2 0 2
      vertex 0 0 2
    endloop
  endfacet
  facet normal 0 -1 -0
    outer loop
      vertex 2.2 0 2
      vertex 0 0 0
      vertex 2.2 0 0
    endloop
  endfacet
  facet normal 1 -0 0
    outer loop
      vertex 9 0 2
      vertex 9 58 0
      vertex 9 58 2
    endloop
  endfacet
  facet normal 1 0 0
    outer loop
      vertex 9 58 0
      vertex 9 0 2
      vertex 9 0 0
    endloop
  endfacet
  facet normal -1 0 0
    outer loop
      vertex 6.8 53.8 0
      vertex 6.8 58 2
      vertex 6.8 58 0
    endloop
  endfacet
  facet normal -1 -0 0
    outer loop
      vertex 6.8 58 2
      vertex 6.8 53.8 0
      vertex 6.8 53.8 2
    endloop
  endfacet
  facet normal -1 0 0
    outer loop
      vertex 6.8 0 0
      vertex 6.8 4 2
      vertex 6.8 4 0
    endloop
  endfacet
  facet normal -1 -0 0
    outer loop
      vertex 6.8 4 2
      vertex 6.8 0 0
      vertex 6.8 0 2
    endloop
  endfacet
  facet normal -1 0 0
    outer loop
      vertex 6.8 11.8 0
      vertex 6.8 16 2
      vertex 6.8 16 0
    endloop
  endfacet
  facet normal -1 -0 0
    outer loop
      vertex 6.8 16 2
      vertex 6.8 11.8 0
      vertex 6.8 11.8 2
    endloop
  endfacet
  facet normal -1 0 0
    outer loop
      vertex 6.8 5.8 0
      vertex 6.8 10 2
      vertex 6.8 10 0
    endloop
  endfacet
  facet normal -1 -0 0
    outer loop
      vertex 6.8 10 2
      vertex 6.8 5.8 0
      vertex 6.8 5.8 2
    endloop
  endfacet
  facet normal -1 0 0
    outer loop
      vertex 6.8 29.8 0
      vertex 6.8 34 2
      vertex 6.8 34 0
    endloop
  endfacet
  facet normal -1 -0 0
    outer loop
      vertex 6.8 34 2
      vertex 6.8 29.8 0
      vertex 6.8 29.8 2
    endloop
  endfacet
  facet normal -1 0 0
    outer loop
      vertex 6.8 23.8 0
      vertex 6.8 28 2
      vertex 6.8 28 0
    endloop
  endfacet
  facet normal -1 -0 0
    outer loop
      vertex 6.8 28 2
      vertex 6.8 23.8 0
      vertex 6.8 23.8 2
    endloop
  endfacet
  facet normal -1 0 0
    outer loop
      vertex 6.8 41.8 0
      vertex 6.8 46 2
      vertex 6.8 46 0
    endloop
  endfacet
  facet normal -1 -0 0
    outer loop
      vertex 6.8 46 2
      vertex 6.8 41.8 0
      vertex 6.8 41.8 2
    endloop
  endfacet
  facet normal -1 0 0
    outer loop
      vertex 6.8 35.8 0
      vertex 6.8 40 2
      vertex 6.8 40 0
    endloop
  endfacet
  facet normal -1 -0 0
    outer loop
      vertex 6.8 40 2
      vertex 6.8 35.8 0
      vertex 6.8 35.8 2
    endloop
  endfacet
  facet normal -1 0 0
    outer loop
      vertex 6.8 47.8 0
      vertex 6.8 52 2
      vertex 6.8 52 0
    endloop
  endfacet
  facet normal -1 -0 0
    outer loop
      vertex 6.8 52 2
      vertex 6.8 47.8 0
      vertex 6.8 47.8 2
    endloop
  endfacet
  facet normal -1 0 0
    outer loop
      vertex 6.8 17.8 0
      vertex 6.8 22 2
      vertex 6.8 22 0
    endloop
  endfacet
  facet normal -1 -0 0
    outer loop
      vertex 6.8 22 2
      vertex 6.8 17.8 0
      vertex 6.8 17.8 2
    endloop
  endfacet
  facet normal 0 1 -0
    outer loop
      vertex 9 58 0
      vertex 6.8 58 2
      vertex 9 58 2
    endloop
  endfacet
  facet normal 0 1 0
    outer loop
      vertex 6.8 58 2
      vertex 9 58 0
      vertex 6.8 58 0
    endloop
  endfacet
  facet normal 0 -1 0
    outer loop
      vertex 6.8 0 0
      vertex 9 0 2
      vertex 6.8 0 2
    endloop
  endfacet
  facet normal 0 -1 -0
    outer loop
      vertex 9 0 2
      vertex 6.8 0 0
      vertex 9 0 0
    endloop
  endfacet
  facet normal 0 1 -0
    outer loop
      vertex 6.8 5.8 0
      vertex 2.2 5.8 2
      vertex 6.8 5.8 2
    endloop
  endfacet
  facet normal 0 1 0
    outer loop
      vertex 2.2 5.8 2
      vertex 6.8 5.8 0
      vertex 2.2 5.8 0
    endloop
  endfacet
  facet normal 0 -1 0
    outer loop
      vertex 2.2 4 0
      vertex 6.8 4 2
      vertex 2.2 4 2
    endloop
  endfacet
  facet normal 0 -1 -0
    outer loop
      vertex 6.8 4 2
      vertex 2.2 4 0
      vertex 6.8 4 0
    endloop
  endfacet
  facet normal 0 1 -0
    outer loop
      vertex 6.8 11.8 0
      vertex 2.2 11.8 2
      vertex 6.8 11.8 2
    endloop
  endfacet
  facet normal 0 1 0
    outer loop
      vertex 2.2 11.8 2
      vertex 6.8 11.8 0
      vertex 2.2 11.8 0
    endloop
  endfacet
  facet normal 0 -1 0
    outer loop
      vertex 2.2 10 0
      vertex 6.8 10 2
      vertex 2.2 10 2
    endloop
  endfacet
  facet normal 0 -1 -0
    outer loop
      vertex 6.8 10 2
      vertex 2.2 10 0
      vertex 6.8 10 0
    endloop
  endfacet
  facet normal 0 1 -0
    outer loop
      vertex 6.8 17.8 0
      vertex 2.2 17.8 2
      vertex 6.8 17.8 2
    endloop
  endfacet
  facet normal 0 1 0
    outer loop
      vertex 2.2 17.8 2
      vertex 6.8 17.8 0
      vertex 2.2 17.8 0
    endloop
  endfacet
  facet normal 0 -1 0
    outer loop
      vertex 2.2 16 0
      vertex 6.8 16 2
      vertex 2.2 16 2
    endloop
  endfacet
  facet normal 0 -1 -0
    outer loop
      vertex 6.8 16 2
      vertex 2.2 16 0
      vertex 6.8 16 0
    endloop
  endfacet
  facet normal 0 1 -0
    outer loop
      vertex 6.8 23.8 0
      vertex 2.2 23.8 2
      vertex 6.8 23.8 2
    endloop
  endfacet
  facet normal 0 1 0
    outer loop
      vertex 2.2 23.8 2
      vertex 6.8 23.8 0
      vertex 2.2 23.8 0
    endloop
  endfacet
  facet normal 0 -1 0
    outer loop
      vertex 2.2 22 0
      vertex 6.8 22 2
      vertex 2.2 22 2
    endloop
  endfacet
  facet normal 0 -1 -0
    outer loop
      vertex 6.8 22 2
      vertex 2.2 22 0
      vertex 6.8 22 0
    endloop
  endfacet
  facet normal 0 1 -0
    outer loop
      vertex 6.8 29.8 0
      vertex 2.2 29.8 2
      vertex 6.8 29.8 2
    endloop
  endfacet
  facet normal 0 1 0
    outer loop
      vertex 2.2 29.8 2
      vertex 6.8 29.8 0
      vertex 2.2 29.8 0
    endloop
  endfacet
  facet normal 0 -1 0
    outer loop
      vertex 2.2 28 0
      vertex 6.8 28 2
      vertex 2.2 28 2
    endloop
  endfacet
  facet normal 0 -1 -0
    outer loop
      vertex 6.8 28 2
      vertex 2.2 28 0
      vertex 6.8 28 0
    endloop
  endfacet
  facet normal 0 1 -0
    outer loop
      vertex 6.8 35.8 0
      vertex 2.2 35.8 2
      vertex 6.8 35.8 2
    endloop
  endfacet
  facet normal 0 1 0
    outer loop
      vertex 2.2 35.8 2
      vertex 6.8 35.8 0
      vertex 2.2 35.8 0
    endloop
  endfacet
  facet normal 0 -1 0
    outer loop
      vertex 2.2 34 0
      vertex 6.8 34 2
      vertex 2.2 34 2
    endloop
  endfacet
  facet normal 0 -1 -0
    outer loop
      vertex 6.8 34 2
      vertex 2.2 34 0
      vertex 6.8 34 0
    endloop
  endfacet
  facet normal 0 1 -0
    outer loop
      vertex 6.8 41.8 0
      vertex 2.2 41.8 2
      vertex 6.8 41.8 2
    endloop
  endfacet
  facet normal 0 1 0
    outer loop
      vertex 2.2 41.8 2
      vertex 6.8 41.8 0
      vertex 2.2 41.8 0
    endloop
  endfacet
  facet normal 0 -1 0
    outer loop
      vertex 2.2 40 0
      vertex 6.8 40 2
      vertex 2.2 40 2
    endloop
  endfacet
  facet normal 0 -1 -0
    outer loop
      vertex 6.8 40 2
      vertex 2.2 40 0
      vertex 6.8 40 0
    endloop
  endfacet
  facet normal 0 1 -0
    outer loop
      vertex 6.8 47.8 0
      vertex 2.2 47.8 2
      vertex 6.8 47.8 2
    endloop
  endfacet
  facet normal 0 1 0
    outer loop
      vertex 2.2 47.8 2
      vertex 6.8 47.8 0
      vertex 2.2 47.8 0
    endloop
  endfacet
  facet normal 0 -1 0
    outer loop
      vertex 2.2 46 0
      vertex 6.8 46 2
      vertex 2.2 46 2
    endloop
  endfacet
  facet normal 0 -1 -0
    outer loop
      vertex 6.8 46 2
      vertex 2.2 46 0
      vertex 6.8 46 0
    endloop
  endfacet
  facet normal 0 1 -0
    outer loop
      vertex 6.8 53.8 0
      vertex 2.2 53.8 2
      vertex 6.8 53.8 2
    endloop
  endfacet
  facet normal 0 1 0
    outer loop
      vertex 2.2 53.8 2
      vertex 6.8 53.8 0
      vertex 2.2 53.8 0
    endloop
  endfacet
  facet normal 0 -1 0
    outer loop
      vertex 2.2 52 0
      vertex 6.8 52 2
      vertex 2.2 52 2
    endloop
  endfacet
  facet normal 0 -1 -0
    outer loop
      vertex 6.8 52 2
      vertex 2.2 52 0
      vertex 6.8 52 0
    endloop
  endfacet
endsolid OpenSCAD_Model
