solid OpenSCAD_Model
  facet normal 1 -0 0
    outer loop
      vertex 12 0 8
      vertex 12 26 0
      vertex 12 26 8
    endloop
  endfacet
  facet normal 1 0 0
    outer loop
      vertex 12 26 0
      vertex 12 0 8
      vertex 12 0 0
    endloop
  endfacet
  facet normal 0 0 1
    outer loop
      vertex 12 26 8
      vertex 10.4 24.4 8
      vertex 12 0 8
    endloop
  endfacet
  facet normal 0 0 1
    outer loop
      vertex 12 26 8
      vertex 1.6 24.4 8
      vertex 10.4 24.4 8
    endloop
  endfacet
  facet normal 0 0 1
    outer loop
      vertex 1.6 24.4 8
      vertex 0 26 8
      vertex 1.6 1.6 8
    endloop
  endfacet
  facet normal -0 0 1
    outer loop
      vertex 0 26 8
      vertex 1.6 24.4 8
      vertex 12 26 8
    endloop
  endfacet
  facet normal -0 0 1
    outer loop
      vertex 10.4 1.6 8
      vertex 12 0 8
      vertex 10.4 24.4 8
    endloop
  endfacet
  facet normal -0 0 1
    outer loop
      vertex 1.6 1.6 8
      vertex 12 0 8
      vertex 10.4 1.6 8
    endloop
  endfacet
  facet normal 0 0 1
    outer loop
      vertex 1.6 1.6 8
      vertex 0 0 8
      vertex 12 0 8
    endloop
  endfacet
  facet normal 0 0 1
    outer loop
      vertex 0 0 8
      vertex 1.6 1.6 8
      vertex 0 26 8
    endloop
  endfacet
  facet normal 0 0 -1
    outer loop
      vertex 0 0 0
      vertex 12 26 0
      vertex 12 0 0
    endloop
  endfacet
  facet normal -0 0 -1
    outer loop
      vertex 12 26 0
      vertex 0 0 0
      vertex 0 26 0
    endloop
  endfacet
  facet normal -1 0 0
    outer loop
      vertex 0 0 0
      vertex 0 26 8
      vertex 0 26 0
    endloop
  endfacet
  facet normal -1 -0 0
    outer loop
      vertex 0 26 8
      vertex 0 0 0
      vertex 0 0 8
    endloop
  endfacet
  facet normal 0 1 -0
    outer loop
      vertex 12 26 0
      vertex 0 26 8
      vertex 12 26 8
    endloop
  endfacet
  facet normal 0 1 0
    outer loop
      vertex 0 26 8
      vertex 12 26 0
      vertex 0 26 0
    endloop
  endfacet
  facet normal 0 -1 0
    outer loop
      vertex 0 0 0
      vertex 12 0 8
      vertex 0 0 8
    endloop
  endfacet
  facet normal 0 -1 -0
    outer loop
      vertex 12 0 8
      vertex 0 0 0
      vertex 12 0 0
    endloop
  endfacet
  facet normal -1 0 0
    outer loop
      vertex 10.4 1.6 2
      vertex 10.4 24.4 8
      vertex 10.4 24.4 2
    endloop
  endfacet
  facet normal -1 -0 0
    outer loop
      vertex 10.4 24.4 8
      vertex 10.4 1.6 2
      vertex 10.4 1.6 8
    endloop
  endfacet
  facet normal -0 0 1
    outer loop
      vertex 1.6 24.4 2
      vertex 10.4 1.6 2
      vertex 10.4 24.4 2
    endloop
  endfacet
  facet normal 0 0 1
    outer loop
      vertex 10.4 1.6 2
      vertex 1.6 24.4 2
      vertex 1.6 1.6 2
    endloop
  endfacet
  facet normal 1 -0 0
    outer loop
      vertex 1.6 1.6 8
      vertex 1.6 24.4 2
      vertex 1.6 24.4 8
    endloop
  endfacet
  facet normal 1 0 0
    outer loop
      vertex 1.6 24.4 2
      vertex 1.6 1.6 8
      vertex 1.6 1.6 2
    endloop
  endfacet
  facet normal 0 -1 0
    outer loop
      vertex 1.6 24.4 2
      vertex 10.4 24.4 8
      vertex 1.6 24.4 8
    endloop
  endfacet
  facet normal 0 -1 -0
    outer loop
      vertex 10.4 24.4 8
      vertex 1.6 24.4 2
      vertex 10.4 24.4 2
    endloop
  endfacet
  facet normal 0 1 -0
    outer loop
      vertex 10.4 1.6 2
      vertex 1.6 1.6 8
      vertex 10.4 1.6 8
    endloop
  endfacet
  facet normal 0 1 0
    outer loop
      vertex 1.6 1.6 8
      vertex 10.4 1.6 2
      vertex 1.6 1.6 2
    endloop
  endfacet
  facet normal 1 -0 0
    outer loop
      vertex 28 0 1.81
      vertex 28 26 1.8
      vertex 28 26 1.81
    endloop
  endfacet
  facet normal 1 0 0
    outer loop
      vertex 28 26 1.8
      vertex 28 0 1.81
      vertex 28 0 1.8
    endloop
  endfacet
  facet normal -1 0 0
    outer loop
      vertex 16 0 1.8
      vertex 16 26 1.81
      vertex 16 26 1.8
    endloop
  endfacet
  facet normal -1 -0 0
    outer loop
      vertex 16 26 1.81
      vertex 16 0 1.8
      vertex 16 0 1.81
    endloop
  endfacet
  facet normal -0.707107 0 0.707107
    outer loop
      vertex 16 26 1.81
      vertex 18.2 2.2 4.01
      vertex 18.2 23.8 4.01
    endloop
  endfacet
  facet normal -0.707107 0 0.707107
    outer loop
      vertex 18.2 2.2 4.01
      vertex 16 26 1.81
      vertex 16 0 1.81
    endloop
  endfacet
  facet normal 0 0 -1
    outer loop
      vertex 28 0 1.8
      vertex 26.25 1.75 1.8
      vertex 28 26 1.8
    endloop
  endfacet
  facet normal 0 0 -1
    outer loop
      vertex 28 0 1.8
      vertex 17.75 1.75 1.8
      vertex 26.25 1.75 1.8
    endloop
  endfacet
  facet normal -0 0 -1
    outer loop
      vertex 17.75 1.75 1.8
      vertex 16 0 1.8
      vertex 17.75 24.25 1.8
    endloop
  endfacet
  facet normal 0 0 -1
    outer loop
      vertex 16 0 1.8
      vertex 17.75 1.75 1.8
      vertex 28 0 1.8
    endloop
  endfacet
  facet normal 0 0 -1
    outer loop
      vertex 26.25 24.25 1.8
      vertex 28 26 1.8
      vertex 26.25 1.75 1.8
    endloop
  endfacet
  facet normal 0 0 -1
    outer loop
      vertex 17.75 24.25 1.8
      vertex 28 26 1.8
      vertex 26.25 24.25 1.8
    endloop
  endfacet
  facet normal 0 0 -1
    outer loop
      vertex 17.75 24.25 1.8
      vertex 16 26 1.8
      vertex 28 26 1.8
    endloop
  endfacet
  facet normal 0 0 -1
    outer loop
      vertex 16 26 1.8
      vertex 17.75 24.25 1.8
      vertex 16 0 1.8
    endloop
  endfacet
  facet normal 0 1 -0
    outer loop
      vertex 28 26 1.8
      vertex 16 26 1.81
      vertex 28 26 1.81
    endloop
  endfacet
  facet normal 0 1 0
    outer loop
      vertex 16 26 1.81
      vertex 28 26 1.8
      vertex 16 26 1.8
    endloop
  endfacet
  facet normal 0 0 1
    outer loop
      vertex 21.6 16.12 4.01
      vertex 19.8 16.12 4.01
      vertex 21.6 5.2 4.01
    endloop
  endfacet
  facet normal 0 0 1
    outer loop
      vertex 24.2 16.12 4.01
      vertex 25.8 23.8 4.01
      vertex 24.2 16.92 4.01
    endloop
  endfacet
  facet normal 0 0 1
    outer loop
      vertex 25.8 23.8 4.01
      vertex 22.4 18.72 4.01
      vertex 24.2 16.92 4.01
    endloop
  endfacet
  facet normal 0 0 1
    outer loop
      vertex 25.8 23.8 4.01
      vertex 21.6 18.72 4.01
      vertex 22.4 18.72 4.01
    endloop
  endfacet
  facet normal 0 0 1
    outer loop
      vertex 21.6 18.72 4.01
      vertex 19.8 16.92 4.01
      vertex 21.6 16.92 4.01
    endloop
  endfacet
  facet normal -0 0 1
    outer loop
      vertex 18.2 23.8 4.01
      vertex 21.6 18.72 4.01
      vertex 25.8 23.8 4.01
    endloop
  endfacet
  facet normal 0 0 1
    outer loop
      vertex 19.8 16.92 4.01
      vertex 18.2 23.8 4.01
      vertex 19.8 16.12 4.01
    endloop
  endfacet
  facet normal 0 0 1
    outer loop
      vertex 21.6 18.72 4.01
      vertex 18.2 23.8 4.01
      vertex 19.8 16.92 4.01
    endloop
  endfacet
  facet normal 0 0 1
    outer loop
      vertex 25.8 23.8 4.01
      vertex 24.2 16.12 4.01
      vertex 25.8 2.2 4.01
    endloop
  endfacet
  facet normal 0 0 1
    outer loop
      vertex 22.4 5.2 4.01
      vertex 24.2 16.12 4.01
      vertex 22.4 16.12 4.01
    endloop
  endfacet
  facet normal 0 0 1
    outer loop
      vertex 24.2 16.12 4.01
      vertex 22.4 5.2 4.01
      vertex 25.8 2.2 4.01
    endloop
  endfacet
  facet normal -0 0 1
    outer loop
      vertex 21.6 5.2 4.01
      vertex 25.8 2.2 4.01
      vertex 22.4 5.2 4.01
    endloop
  endfacet
  facet normal 0 0 1
    outer loop
      vertex 18.2 2.2 4.01
      vertex 19.8 16.12 4.01
      vertex 18.2 23.8 4.01
    endloop
  endfacet
  facet normal 0 0 1
    outer loop
      vertex 21.6 5.2 4.01
      vertex 18.2 2.2 4.01
      vertex 25.8 2.2 4.01
    endloop
  endfacet
  facet normal 0 0 1
    outer loop
      vertex 19.8 16.12 4.01
      vertex 18.2 2.2 4.01
      vertex 21.6 5.2 4.01
    endloop
  endfacet
  facet normal 0 0 1
    outer loop
      vertex 24.2 16.92 4.01
      vertex 22.4 18.72 4.01
      vertex 22.4 16.92 4.01
    endloop
  endfacet
  facet normal 0 -0.707107 0.707107
    outer loop
      vertex 16 0 1.81
      vertex 25.8 2.2 4.01
      vertex 18.2 2.2 4.01
    endloop
  endfacet
  facet normal 0 -0.707107 0.707107
    outer loop
      vertex 25.8 2.2 4.01
      vertex 16 0 1.81
      vertex 28 0 1.81
    endloop
  endfacet
  facet normal 0 -1 0
    outer loop
      vertex 16 0 1.8
      vertex 28 0 1.81
      vertex 16 0 1.81
    endloop
  endfacet
  facet normal 0 -1 -0
    outer loop
      vertex 28 0 1.81
      vertex 16 0 1.8
      vertex 28 0 1.8
    endloop
  endfacet
  facet normal 0 0.707107 0.707107
    outer loop
      vertex 28 26 1.81
      vertex 18.2 23.8 4.01
      vertex 25.8 23.8 4.01
    endloop
  endfacet
  facet normal 0 0.707107 0.707107
    outer loop
      vertex 18.2 23.8 4.01
      vertex 28 26 1.81
      vertex 16 26 1.81
    endloop
  endfacet
  facet normal 0.707107 0 0.707107
    outer loop
      vertex 25.8 23.8 4.01
      vertex 28 0 1.81
      vertex 28 26 1.81
    endloop
  endfacet
  facet normal 0.707107 0 0.707107
    outer loop
      vertex 28 0 1.81
      vertex 25.8 23.8 4.01
      vertex 25.8 2.2 4.01
    endloop
  endfacet
  facet normal -1 0 0
    outer loop
      vertex 22.4 16.92 3.5
      vertex 22.4 18.72 4.01
      vertex 22.4 18.72 3.5
    endloop
  endfacet
  facet normal -1 -0 0
    outer loop
      vertex 22.4 18.72 4.01
      vertex 22.4 16.92 3.5
      vertex 22.4 16.92 4.01
    endloop
  endfacet
  facet normal -1 0 0
    outer loop
      vertex 22.4 5.2 3.5
      vertex 22.4 16.12 4.01
      vertex 22.4 16.12 3.5
    endloop
  endfacet
  facet normal -1 -0 0
    outer loop
      vertex 22.4 16.12 4.01
      vertex 22.4 5.2 3.5
      vertex 22.4 5.2 4.01
    endloop
  endfacet
  facet normal -0 0 1
    outer loop
      vertex 19.8 16.92 3.5
      vertex 21.6 16.12 3.5
      vertex 21.6 16.92 3.5
    endloop
  endfacet
  facet normal 0 0 1
    outer loop
      vertex 21.6 16.12 3.5
      vertex 19.8 16.92 3.5
      vertex 19.8 16.12 3.5
    endloop
  endfacet
  facet normal 0 0 1
    outer loop
      vertex 21.6 16.92 3.5
      vertex 22.4 16.92 3.5
      vertex 22.4 18.72 3.5
    endloop
  endfacet
  facet normal 0 0 1
    outer loop
      vertex 22.4 16.92 3.5
      vertex 21.6 16.92 3.5
      vertex 22.4 16.12 3.5
    endloop
  endfacet
  facet normal 0 0 1
    outer loop
      vertex 21.6 16.92 3.5
      vertex 22.4 18.72 3.5
      vertex 21.6 18.72 3.5
    endloop
  endfacet
  facet normal 0 0 1
    outer loop
      vertex 22.4 16.12 3.5
      vertex 21.6 16.92 3.5
      vertex 21.6 16.12 3.5
    endloop
  endfacet
  facet normal 0 0 1
    outer loop
      vertex 22.4 16.12 3.5
      vertex 21.6 16.12 3.5
      vertex 22.4 5.2 3.5
    endloop
  endfacet
  facet normal 0 0 1
    outer loop
      vertex 22.4 5.2 3.5
      vertex 21.6 16.12 3.5
      vertex 21.6 5.2 3.5
    endloop
  endfacet
  facet normal -0 0 1
    outer loop
      vertex 22.4 16.92 3.5
      vertex 24.2 16.12 3.5
      vertex 24.2 16.92 3.5
    endloop
  endfacet
  facet normal 0 0 1
    outer loop
      vertex 24.2 16.12 3.5
      vertex 22.4 16.92 3.5
      vertex 22.4 16.12 3.5
    endloop
  endfacet
  facet normal 1 -0 0
    outer loop
      vertex 21.6 5.2 4.01
      vertex 21.6 16.12 3.5
      vertex 21.6 16.12 4.01
    endloop
  endfacet
  facet normal 1 0 0
    outer loop
      vertex 21.6 16.12 3.5
      vertex 21.6 5.2 4.01
      vertex 21.6 5.2 3.5
    endloop
  endfacet
  facet normal 1 -0 0
    outer loop
      vertex 21.6 16.92 4.01
      vertex 21.6 18.72 3.5
      vertex 21.6 18.72 4.01
    endloop
  endfacet
  facet normal 1 0 0
    outer loop
      vertex 21.6 18.72 3.5
      vertex 21.6 16.92 4.01
      vertex 21.6 16.92 3.5
    endloop
  endfacet
  facet normal 0 -1 0
    outer loop
      vertex 21.6 18.72 3.5
      vertex 22.4 18.72 4.01
      vertex 21.6 18.72 4.01
    endloop
  endfacet
  facet normal 0 -1 -0
    outer loop
      vertex 22.4 18.72 4.01
      vertex 21.6 18.72 3.5
      vertex 22.4 18.72 3.5
    endloop
  endfacet
  facet normal 0 1 -0
    outer loop
      vertex 22.4 5.2 3.5
      vertex 21.6 5.2 4.01
      vertex 22.4 5.2 4.01
    endloop
  endfacet
  facet normal 0 1 0
    outer loop
      vertex 21.6 5.2 4.01
      vertex 22.4 5.2 3.5
      vertex 21.6 5.2 3.5
    endloop
  endfacet
  facet normal -1 0 0
    outer loop
      vertex 24.2 16.12 3.5
      vertex 24.2 16.92 4.01
      vertex 24.2 16.92 3.5
    endloop
  endfacet
  facet normal -1 -0 0
    outer loop
      vertex 24.2 16.92 4.01
      vertex 24.2 16.12 3.5
      vertex 24.2 16.12 4.01
    endloop
  endfacet
  facet normal 1 -0 0
    outer loop
      vertex 19.8 16.12 4.01
      vertex 19.8 16.92 3.5
      vertex 19.8 16.92 4.01
    endloop
  endfacet
  facet normal 1 0 0
    outer loop
      vertex 19.8 16.92 3.5
      vertex 19.8 16.12 4.01
      vertex 19.8 16.12 3.5
    endloop
  endfacet
  facet normal 0 -1 0
    outer loop
      vertex 22.4 16.92 3.5
      vertex 24.2 16.92 4.01
      vertex 22.4 16.92 4.01
    endloop
  endfacet
  facet normal 0 -1 -0
    outer loop
      vertex 24.2 16.92 4.01
      vertex 22.4 16.92 3.5
      vertex 24.2 16.92 3.5
    endloop
  endfacet
  facet normal 0 -1 0
    outer loop
      vertex 19.8 16.92 3.5
      vertex 21.6 16.92 4.01
      vertex 19.8 16.92 4.01
    endloop
  endfacet
  facet normal 0 -1 -0
    outer loop
      vertex 21.6 16.92 4.01
      vertex 19.8 16.92 3.5
      vertex 21.6 16.92 3.5
    endloop
  endfacet
  facet normal 0 1 -0
    outer loop
      vertex 24.2 16.12 3.5
      vertex 22.4 16.12 4.01
      vertex 24.2 16.12 4.01
    endloop
  endfacet
  facet normal 0 1 0
    outer loop
      vertex 22.4 16.12 4.01
      vertex 24.2 16.12 3.5
      vertex 22.4 16.12 3.5
    endloop
  endfacet
  facet normal 0 1 -0
    outer loop
      vertex 21.6 16.12 3.5
      vertex 19.8 16.12 4.01
      vertex 21.6 16.12 4.01
    endloop
  endfacet
  facet normal 0 1 0
    outer loop
      vertex 19.8 16.12 4.01
      vertex 21.6 16.12 3.5
      vertex 19.8 16.12 3.5
    endloop
  endfacet
  facet normal 1 -0 0
    outer loop
      vertex 26.25 1.75 1.8
      vertex 26.25 24.25 0
      vertex 26.25 24.25 1.8
    endloop
  endfacet
  facet normal 1 0 0
    outer loop
      vertex 26.25 24.25 0
      vertex 26.25 1.75 1.8
      vertex 26.25 1.75 0
    endloop
  endfacet
  facet normal 0 0 -1
    outer loop
      vertex 17.75 1.75 0
      vertex 26.25 24.25 0
      vertex 26.25 1.75 0
    endloop
  endfacet
  facet normal -0 0 -1
    outer loop
      vertex 26.25 24.25 0
      vertex 17.75 1.75 0
      vertex 17.75 24.25 0
    endloop
  endfacet
  facet normal -1 0 0
    outer loop
      vertex 17.75 1.75 0
      vertex 17.75 24.25 1.8
      vertex 17.75 24.25 0
    endloop
  endfacet
  facet normal -1 -0 0
    outer loop
      vertex 17.75 24.25 1.8
      vertex 17.75 1.75 0
      vertex 17.75 1.75 1.8
    endloop
  endfacet
  facet normal 0 1 -0
    outer loop
      vertex 26.25 24.25 0
      vertex 17.75 24.25 1.8
      vertex 26.25 24.25 1.8
    endloop
  endfacet
  facet normal 0 1 0
    outer loop
      vertex 17.75 24.25 1.8
      vertex 26.25 24.25 0
      vertex 17.75 24.25 0
    endloop
  endfacet
  facet normal 0 -1 0
    outer loop
      vertex 17.75 1.75 0
      vertex 26.25 1.75 1.8
      vertex 17.75 1.75 1.8
    endloop
  endfacet
  facet normal 0 -1 -0
    outer loop
      vertex 26.25 1.75 1.8
      vertex 17.75 1.75 0
      vertex 26.25 1.75 0
    endloop
  endfacet
endsolid OpenSCAD_Model
