solid OpenSCAD_Model
  facet normal 1 -0 0
    outer loop
      vertex 2.6 0.799999 6.4
      vertex 2.6 2.6 0
      vertex 2.6 2.6 6.4
    endloop
  endfacet
  facet normal 1 0 0
    outer loop
      vertex 2.6 2.6 0
      vertex 2.6 0.799999 6.4
      vertex 2.6 0.799999 0
    endloop
  endfacet
  facet normal 0 0 1
    outer loop
      vertex 1.20799 0.854876 6.41
      vertex 0.799999 0.799999 6.41
      vertex 1.27915 0.799999 6.41
    endloop
  endfacet
  facet normal 0 0 1
    outer loop
      vertex 0.921406 1.13339 6.41
      vertex 0.799999 0.799999 6.41
      vertex 1.20799 0.854876 6.41
    endloop
  endfacet
  facet normal 0 0 1
    outer loop
      vertex 0.799999 0.799999 6.41
      vertex 0.921406 1.13339 6.41
      vertex 0.799999 1.28186 6.41
    endloop
  endfacet
  facet normal 0 0 -1
    outer loop
      vertex 0.799999 0.799999 0
      vertex 2.6 2.6 0
      vertex 2.6 0.799999 0
    endloop
  endfacet
  facet normal -0 0 -1
    outer loop
      vertex 2.6 2.6 0
      vertex 0.799999 0.799999 0
      vertex 0.799999 2.6 0
    endloop
  endfacet
  facet normal -1 0 0
    outer loop
      vertex 0.799999 2.6 0
      vertex 0.799999 1.28186 6.4
      vertex 0.799999 2.6 6.4
    endloop
  endfacet
  facet normal -1 0 0
    outer loop
      vertex 0.799999 0.799999 0
      vertex 0.799999 1.28186 6.4
      vertex 0.799999 2.6 0
    endloop
  endfacet
  facet normal -1 0 0
    outer loop
      vertex 0.799999 0.799999 6.41
      vertex 0.799999 1.28186 6.4
      vertex 0.799999 0.799999 0
    endloop
  endfacet
  facet normal -1 0 0
    outer loop
      vertex 0.799999 1.28186 6.4
      vertex 0.799999 0.799999 6.41
      vertex 0.799999 1.28186 6.41
    endloop
  endfacet
  facet normal 0 1 -0
    outer loop
      vertex 2.6 2.6 0
      vertex 0.799999 2.6 6.4
      vertex 2.6 2.6 6.4
    endloop
  endfacet
  facet normal 0 1 0
    outer loop
      vertex 0.799999 2.6 6.4
      vertex 2.6 2.6 0
      vertex 0.799999 2.6 0
    endloop
  endfacet
  facet normal 0 -1 0
    outer loop
      vertex 0.799999 0.799999 6.41
      vertex 1.27915 0.799999 6.4
      vertex 1.27915 0.799999 6.41
    endloop
  endfacet
  facet normal 0 -1 0
    outer loop
      vertex 0.799999 0.799999 0
      vertex 1.27915 0.799999 6.4
      vertex 0.799999 0.799999 6.41
    endloop
  endfacet
  facet normal 0 -1 0
    outer loop
      vertex 2.6 0.799999 0
      vertex 1.27915 0.799999 6.4
      vertex 0.799999 0.799999 0
    endloop
  endfacet
  facet normal 0 -1 0
    outer loop
      vertex 1.27915 0.799999 6.4
      vertex 2.6 0.799999 0
      vertex 2.6 0.799999 6.4
    endloop
  endfacet
  facet normal 1 -0 0
    outer loop
      vertex 2.6 4.4 6.4
      vertex 2.6 6.2 0
      vertex 2.6 6.2 6.4
    endloop
  endfacet
  facet normal 1 0 0
    outer loop
      vertex 2.6 6.2 0
      vertex 2.6 4.4 6.4
      vertex 2.6 4.4 0
    endloop
  endfacet
  facet normal -0 0 1
    outer loop
      vertex 0.799999 6.2 6.41
      vertex 1.20799 6.14512 6.41
      vertex 1.27915 6.2 6.41
    endloop
  endfacet
  facet normal 0 0 1
    outer loop
      vertex 0.799999 6.2 6.41
      vertex 0.921406 5.86661 6.41
      vertex 1.20799 6.14512 6.41
    endloop
  endfacet
  facet normal 0 0 1
    outer loop
      vertex 0.921406 5.86661 6.41
      vertex 0.799999 6.2 6.41
      vertex 0.799999 5.71814 6.41
    endloop
  endfacet
  facet normal 0 0 -1
    outer loop
      vertex 0.799999 4.4 0
      vertex 2.6 6.2 0
      vertex 2.6 4.4 0
    endloop
  endfacet
  facet normal -0 0 -1
    outer loop
      vertex 2.6 6.2 0
      vertex 0.799999 4.4 0
      vertex 0.799999 6.2 0
    endloop
  endfacet
  facet normal -1 0 0
    outer loop
      vertex 0.799999 6.2 0
      vertex 0.799999 5.71814 6.4
      vertex 0.799999 6.2 6.41
    endloop
  endfacet
  facet normal -1 0 0
    outer loop
      vertex 0.799999 4.4 0
      vertex 0.799999 5.71814 6.4
      vertex 0.799999 6.2 0
    endloop
  endfacet
  facet normal -1 -0 0
    outer loop
      vertex 0.799999 5.71814 6.4
      vertex 0.799999 4.4 0
      vertex 0.799999 4.4 6.4
    endloop
  endfacet
  facet normal -1 -0 0
    outer loop
      vertex 0.799999 6.2 6.41
      vertex 0.799999 5.71814 6.4
      vertex 0.799999 5.71814 6.41
    endloop
  endfacet
  facet normal 0 1 0
    outer loop
      vertex 2.6 6.2 6.4
      vertex 2.6 6.2 0
      vertex 1.27915 6.2 6.4
    endloop
  endfacet
  facet normal 0 1 -0
    outer loop
      vertex 1.27915 6.2 6.4
      vertex 0.799999 6.2 6.41
      vertex 1.27915 6.2 6.41
    endloop
  endfacet
  facet normal 0 1 0
    outer loop
      vertex 0.799999 6.2 0
      vertex 1.27915 6.2 6.4
      vertex 2.6 6.2 0
    endloop
  endfacet
  facet normal 0 1 0
    outer loop
      vertex 1.27915 6.2 6.4
      vertex 0.799999 6.2 0
      vertex 0.799999 6.2 6.41
    endloop
  endfacet
  facet normal 0 -1 0
    outer loop
      vertex 0.799999 4.4 0
      vertex 2.6 4.4 6.4
      vertex 0.799999 4.4 6.4
    endloop
  endfacet
  facet normal 0 -1 -0
    outer loop
      vertex 2.6 4.4 6.4
      vertex 0.799999 4.4 0
      vertex 2.6 4.4 0
    endloop
  endfacet
  facet normal 1 0 0
    outer loop
      vertex 6.2 1.27411 6.41
      vertex 6.2 0.799999 6.41
      vertex 6.2 1.27411 6.4
    endloop
  endfacet
  facet normal 1 -0 0
    outer loop
      vertex 6.2 1.27411 6.4
      vertex 6.2 2.6 0
      vertex 6.2 2.6 6.4
    endloop
  endfacet
  facet normal 1 0 0
    outer loop
      vertex 6.2 0.799999 0
      vertex 6.2 1.27411 6.4
      vertex 6.2 0.799999 6.41
    endloop
  endfacet
  facet normal 1 0 0
    outer loop
      vertex 6.2 1.27411 6.4
      vertex 6.2 0.799999 0
      vertex 6.2 2.6 0
    endloop
  endfacet
  facet normal -0 0 1
    outer loop
      vertex 5.93928 0.990038 6.41
      vertex 6.2 0.799999 6.41
      vertex 6.2 1.27411 6.41
    endloop
  endfacet
  facet normal 0 0 1
    outer loop
      vertex 6.2 0.799999 6.41
      vertex 5.93928 0.990038 6.41
      vertex 5.71996 0.799999 6.41
    endloop
  endfacet
  facet normal 0 0 -1
    outer loop
      vertex 4.4 0.799999 0
      vertex 6.2 2.6 0
      vertex 6.2 0.799999 0
    endloop
  endfacet
  facet normal -0 0 -1
    outer loop
      vertex 6.2 2.6 0
      vertex 4.4 0.799999 0
      vertex 4.4 2.6 0
    endloop
  endfacet
  facet normal -1 0 0
    outer loop
      vertex 4.4 0.799999 0
      vertex 4.4 2.6 6.4
      vertex 4.4 2.6 0
    endloop
  endfacet
  facet normal -1 -0 0
    outer loop
      vertex 4.4 2.6 6.4
      vertex 4.4 0.799999 0
      vertex 4.4 0.799999 6.4
    endloop
  endfacet
  facet normal 0 1 -0
    outer loop
      vertex 6.2 2.6 0
      vertex 4.4 2.6 6.4
      vertex 6.2 2.6 6.4
    endloop
  endfacet
  facet normal 0 1 0
    outer loop
      vertex 4.4 2.6 6.4
      vertex 6.2 2.6 0
      vertex 4.4 2.6 0
    endloop
  endfacet
  facet normal 0 -1 0
    outer loop
      vertex 4.4 0.799999 6.4
      vertex 4.4 0.799999 0
      vertex 5.71996 0.799999 6.4
    endloop
  endfacet
  facet normal 0 -1 0
    outer loop
      vertex 5.71996 0.799999 6.4
      vertex 6.2 0.799999 6.41
      vertex 5.71996 0.799999 6.41
    endloop
  endfacet
  facet normal 0 -1 0
    outer loop
      vertex 6.2 0.799999 0
      vertex 5.71996 0.799999 6.4
      vertex 4.4 0.799999 0
    endloop
  endfacet
  facet normal 0 -1 0
    outer loop
      vertex 5.71996 0.799999 6.4
      vertex 6.2 0.799999 0
      vertex 6.2 0.799999 6.41
    endloop
  endfacet
  facet normal 1 0 0
    outer loop
      vertex 6.2 5.72589 6.4
      vertex 6.2 6.2 6.41
      vertex 6.2 5.72589 6.41
    endloop
  endfacet
  facet normal 1 0 0
    outer loop
      vertex 6.2 6.2 6.41
      vertex 6.2 5.72589 6.4
      vertex 6.2 6.2 0
    endloop
  endfacet
  facet normal 1 0 0
    outer loop
      vertex 6.2 4.4 0
      vertex 6.2 5.72589 6.4
      vertex 6.2 4.4 6.4
    endloop
  endfacet
  facet normal 1 0 0
    outer loop
      vertex 6.2 5.72589 6.4
      vertex 6.2 4.4 0
      vertex 6.2 6.2 0
    endloop
  endfacet
  facet normal 0 0 1
    outer loop
      vertex 6.2 6.2 6.41
      vertex 5.93928 6.00996 6.41
      vertex 6.2 5.72589 6.41
    endloop
  endfacet
  facet normal 0 -0 1
    outer loop
      vertex 5.93928 6.00996 6.41
      vertex 6.2 6.2 6.41
      vertex 5.71996 6.2 6.41
    endloop
  endfacet
  facet normal 0 0 -1
    outer loop
      vertex 4.4 4.4 0
      vertex 6.2 6.2 0
      vertex 6.2 4.4 0
    endloop
  endfacet
  facet normal -0 0 -1
    outer loop
      vertex 6.2 6.2 0
      vertex 4.4 4.4 0
      vertex 4.4 6.2 0
    endloop
  endfacet
  facet normal -1 0 0
    outer loop
      vertex 4.4 4.4 0
      vertex 4.4 6.2 6.4
      vertex 4.4 6.2 0
    endloop
  endfacet
  facet normal -1 -0 0
    outer loop
      vertex 4.4 6.2 6.4
      vertex 4.4 4.4 0
      vertex 4.4 4.4 6.4
    endloop
  endfacet
  facet normal 0 1 0
    outer loop
      vertex 6.2 6.2 6.41
      vertex 5.71996 6.2 6.4
      vertex 5.71996 6.2 6.41
    endloop
  endfacet
  facet normal 0 1 -0
    outer loop
      vertex 6.2 6.2 0
      vertex 5.71996 6.2 6.4
      vertex 6.2 6.2 6.41
    endloop
  endfacet
  facet normal 0 1 0
    outer loop
      vertex 4.4 6.2 0
      vertex 5.71996 6.2 6.4
      vertex 6.2 6.2 0
    endloop
  endfacet
  facet normal 0 1 0
    outer loop
      vertex 5.71996 6.2 6.4
      vertex 4.4 6.2 0
      vertex 4.4 6.2 6.4
    endloop
  endfacet
  facet normal 0 -1 0
    outer loop
      vertex 4.4 4.4 0
      vertex 6.2 4.4 6.4
      vertex 4.4 4.4 6.4
    endloop
  endfacet
  facet normal 0 -1 -0
    outer loop
      vertex 6.2 4.4 6.4
      vertex 4.4 4.4 0
      vertex 6.2 4.4 0
    endloop
  endfacet
  facet normal 0.25422 -0.967146 0
    outer loop
      vertex 4.19507 0.0697107 6.4
      vertex 4.58156 0.171302 8
      vertex 4.19507 0.0697107 8
    endloop
  endfacet
  facet normal 0.25422 -0.967146 0
    outer loop
      vertex 4.58156 0.171302 8
      vertex 4.19507 0.0697107 6.4
      vertex 4.58156 0.171302 6.4
    endloop
  endfacet
  facet normal 0.985352 0.170535 0
    outer loop
      vertex 6.97719 3.89897 8
      vertex 6.90904 4.29274 6.4
      vertex 6.90904 4.29274 8
    endloop
  endfacet
  facet normal 0.985352 0.170535 0
    outer loop
      vertex 6.90904 4.29274 6.4
      vertex 6.97719 3.89897 8
      vertex 6.97719 3.89897 6.4
    endloop
  endfacet
  facet normal 0.99837 0.057079 0
    outer loop
      vertex 7 3.5 8
      vertex 6.97719 3.89897 6.4
      vertex 6.97719 3.89897 8
    endloop
  endfacet
  facet normal 0.99837 0.057079 0
    outer loop
      vertex 6.97719 3.89897 6.4
      vertex 7 3.5 8
      vertex 7 3.5 6.4
    endloop
  endfacet
  facet normal 0.870754 0.491718 0
    outer loop
      vertex 6.64089 5.04427 8
      vertex 6.44439 5.39224 6.4
      vertex 6.44439 5.39224 8
    endloop
  endfacet
  facet normal 0.870754 0.491718 0
    outer loop
      vertex 6.44439 5.39224 6.4
      vertex 6.64089 5.04427 8
      vertex 6.64089 5.04427 6.4
    endloop
  endfacet
  facet normal -0.993482 -0.11399 0
    outer loop
      vertex 0.0512609 2.90317 6.4
      vertex 0.00570774 3.30019 8
      vertex 0.00570774 3.30019 6.4
    endloop
  endfacet
  facet normal -0.993482 -0.11399 0
    outer loop
      vertex 0.00570774 3.30019 8
      vertex 0.0512609 2.90317 6.4
      vertex 0.0512609 2.90317 8
    endloop
  endfacet
  facet normal 0.654865 -0.755746 -2.34238e-06
    outer loop
      vertex 5.63727 0.728342 8
      vertex 5.71996 0.799999 6.41
      vertex 5.93928 0.990038 8
    endloop
  endfacet
  facet normal 0.654891 -0.755724 0
    outer loop
      vertex 5.63727 0.728342 6.4
      vertex 5.71996 0.799999 6.41
      vertex 5.63727 0.728342 8
    endloop
  endfacet
  facet normal 0.654891 -0.755724 0
    outer loop
      vertex 5.71996 0.799999 6.41
      vertex 5.63727 0.728342 6.4
      vertex 5.71996 0.799999 6.4
    endloop
  endfacet
  facet normal 0.654855 -0.755754 0
    outer loop
      vertex 5.93928 0.990038 8
      vertex 5.71996 0.799999 6.41
      vertex 5.93928 0.990038 6.41
    endloop
  endfacet
  facet normal 0.736737 0.676179 0
    outer loop
      vertex 5.93928 6.00996 8
      vertex 6.2 5.72589 6.41
      vertex 5.93928 6.00996 6.41
    endloop
  endfacet
  facet normal 0.736736 0.67618 -3.35218e-07
    outer loop
      vertex 6.2095 5.71554 8
      vertex 6.2 5.72589 6.41
      vertex 5.93928 6.00996 8
    endloop
  endfacet
  facet normal 0.736711 0.676208 -0
    outer loop
      vertex 6.2095 5.71554 6.4
      vertex 6.2 5.72589 6.41
      vertex 6.2095 5.71554 8
    endloop
  endfacet
  facet normal 0.736711 0.676208 0
    outer loop
      vertex 6.2 5.72589 6.41
      vertex 6.2095 5.71554 6.4
      vertex 6.2 5.72589 6.4
    endloop
  endfacet
  facet normal -0.309012 0.951058 0
    outer loop
      vertex 2.61024 6.88501 6.4
      vertex 2.23017 6.76152 8
      vertex 2.61024 6.88501 8
    endloop
  endfacet
  facet normal -0.309012 0.951058 0
    outer loop
      vertex 2.23017 6.76152 8
      vertex 2.61024 6.88501 6.4
      vertex 2.23017 6.76152 6.4
    endloop
  endfacet
  facet normal -0.897399 -0.44122 0
    outer loop
      vertex 0.452388 1.77893 6.4
      vertex 0.276067 2.13755 8
      vertex 0.276067 2.13755 6.4
    endloop
  endfacet
  facet normal -0.897399 -0.44122 0
    outer loop
      vertex 0.276067 2.13755 8
      vertex 0.452388 1.77893 6.4
      vertex 0.452388 1.77893 8
    endloop
  endfacet
  facet normal -0.897399 0.44122 0
    outer loop
      vertex 0.276067 4.86244 6.4
      vertex 0.452388 5.22106 8
      vertex 0.452388 5.22106 6.4
    endloop
  endfacet
  facet normal -0.897399 0.44122 0
    outer loop
      vertex 0.452388 5.22106 8
      vertex 0.276067 4.86244 6.4
      vertex 0.276067 4.86244 8
    endloop
  endfacet
  facet normal 0.466665 0.884434 -0
    outer loop
      vertex 5.30739 6.49722 6.4
      vertex 4.95395 6.68371 8
      vertex 5.30739 6.49722 8
    endloop
  endfacet
  facet normal 0.466665 0.884434 0
    outer loop
      vertex 4.95395 6.68371 8
      vertex 5.30739 6.49722 6.4
      vertex 4.95395 6.68371 6.4
    endloop
  endfacet
  facet normal 0.870754 -0.491718 0
    outer loop
      vertex 6.44439 1.60776 8
      vertex 6.64089 1.95573 6.4
      vertex 6.64089 1.95573 8
    endloop
  endfacet
  facet normal 0.870754 -0.491718 0
    outer loop
      vertex 6.64089 1.95573 6.4
      vertex 6.44439 1.60776 8
      vertex 6.44439 1.60776 6.4
    endloop
  endfacet
  facet normal 0.466665 -0.884434 0
    outer loop
      vertex 4.95395 0.316288 6.4
      vertex 5.30739 0.502778 8
      vertex 4.95395 0.316288 8
    endloop
  endfacet
  facet normal 0.466665 -0.884434 0
    outer loop
      vertex 5.30739 0.502778 8
      vertex 4.95395 0.316288 6.4
      vertex 5.30739 0.502778 6.4
    endloop
  endfacet
  facet normal -0.774142 0.633012 0
    outer loop
      vertex 0.799999 5.71814 6.4
      vertex 0.66844 5.55725 6.4
      vertex 0.799999 5.71814 6.41
    endloop
  endfacet
  facet normal -0.774132 0.633024 0
    outer loop
      vertex 0.799999 5.71814 6.41
      vertex 0.921406 5.86661 8
      vertex 0.921406 5.86661 6.41
    endloop
  endfacet
  facet normal -0.774142 0.633012 0
    outer loop
      vertex 0.66844 5.55725 8
      vertex 0.799999 5.71814 6.41
      vertex 0.66844 5.55725 6.4
    endloop
  endfacet
  facet normal -0.774137 0.633018 9.56099e-07
    outer loop
      vertex 0.799999 5.71814 6.41
      vertex 0.66844 5.55725 8
      vertex 0.921406 5.86661 8
    endloop
  endfacet
  facet normal 0.985352 -0.170535 0
    outer loop
      vertex 6.90904 2.70726 8
      vertex 6.97719 3.10103 6.4
      vertex 6.97719 3.10103 8
    endloop
  endfacet
  facet normal 0.985352 -0.170535 0
    outer loop
      vertex 6.97719 3.10103 6.4
      vertex 6.90904 2.70726 8
      vertex 6.90904 2.70726 6.4
    endloop
  endfacet
  facet normal -0.0855767 -0.996332 0
    outer loop
      vertex 3.0019 0.0356245 6.4
      vertex 3.40005 0.0014267 8
      vertex 3.0019 0.0356245 8
    endloop
  endfacet
  facet normal -0.0855767 -0.996332 -0
    outer loop
      vertex 3.40005 0.0014267 8
      vertex 3.0019 0.0356245 6.4
      vertex 3.40005 0.0014267 6.4
    endloop
  endfacet
  facet normal -0.610679 -0.791878 0
    outer loop
      vertex 1.27915 0.799999 6.41
      vertex 1.20799 0.854876 8
      vertex 1.20799 0.854876 6.41
    endloop
  endfacet
  facet normal -0.610651 -0.7919 2.00155e-06
    outer loop
      vertex 1.20799 0.854876 8
      vertex 1.27915 0.799999 6.41
      vertex 1.52445 0.610847 8
    endloop
  endfacet
  facet normal -0.610643 -0.791906 0
    outer loop
      vertex 1.52445 0.610847 6.4
      vertex 1.27915 0.799999 6.41
      vertex 1.27915 0.799999 6.4
    endloop
  endfacet
  facet normal -0.610643 -0.791906 0
    outer loop
      vertex 1.27915 0.799999 6.41
      vertex 1.52445 0.610847 6.4
      vertex 1.52445 0.610847 8
    endloop
  endfacet
  facet normal 0.0285519 0.999592 -0
    outer loop
      vertex 3.79951 6.98716 6.4
      vertex 3.40005 6.99857 8
      vertex 3.79951 6.98716 8
    endloop
  endfacet
  facet normal 0.0285519 0.999592 0
    outer loop
      vertex 3.40005 6.99857 8
      vertex 3.79951 6.98716 6.4
      vertex 3.40005 6.99857 6.4
    endloop
  endfacet
  facet normal 0.736711 -0.676208 0
    outer loop
      vertex 6.2095 1.28446 8
      vertex 6.2 1.27411 6.41
      vertex 6.2095 1.28446 6.4
    endloop
  endfacet
  facet normal 0.736739 -0.676178 -3.65119e-07
    outer loop
      vertex 5.93928 0.990038 8
      vertex 6.2 1.27411 6.41
      vertex 6.2095 1.28446 8
    endloop
  endfacet
  facet normal 0.73674 -0.676176 0
    outer loop
      vertex 6.2 1.27411 6.41
      vertex 5.93928 0.990038 8
      vertex 5.93928 0.990038 6.41
    endloop
  endfacet
  facet normal 0.736711 -0.676208 0
    outer loop
      vertex 6.2095 1.28446 6.4
      vertex 6.2 1.27411 6.41
      vertex 6.2 1.27411 6.4
    endloop
  endfacet
  facet normal 0.95949 0.281744 0
    outer loop
      vertex 6.90904 4.29274 8
      vertex 6.79645 4.67617 6.4
      vertex 6.79645 4.67617 8
    endloop
  endfacet
  facet normal 0.95949 0.281744 0
    outer loop
      vertex 6.79645 4.67617 6.4
      vertex 6.90904 4.29274 8
      vertex 6.90904 4.29274 6.4
    endloop
  endfacet
  facet normal 0.921124 0.389269 0
    outer loop
      vertex 6.79645 4.67617 8
      vertex 6.64089 5.04427 6.4
      vertex 6.64089 5.04427 8
    endloop
  endfacet
  facet normal 0.921124 0.389269 0
    outer loop
      vertex 6.64089 5.04427 6.4
      vertex 6.79645 4.67617 8
      vertex 6.79645 4.67617 6.4
    endloop
  endfacet
  facet normal -0.941846 -0.336043 0
    outer loop
      vertex 0.276067 2.13755 6.4
      vertex 0.141774 2.51394 8
      vertex 0.141774 2.51394 6.4
    endloop
  endfacet
  facet normal -0.941846 -0.336043 0
    outer loop
      vertex 0.141774 2.51394 8
      vertex 0.276067 2.13755 6.4
      vertex 0.276067 2.13755 8
    endloop
  endfacet
  facet normal 0.564433 0.825479 -0
    outer loop
      vertex 5.63727 6.27166 6.4
      vertex 5.30739 6.49722 8
      vertex 5.63727 6.27166 8
    endloop
  endfacet
  facet normal 0.564433 0.825479 0
    outer loop
      vertex 5.30739 6.49722 8
      vertex 5.63727 6.27166 6.4
      vertex 5.30739 6.49722 6.4
    endloop
  endfacet
  facet normal -0.309014 -0.951057 0
    outer loop
      vertex 2.23017 0.238476 6.4
      vertex 2.61024 0.114985 8
      vertex 2.23017 0.238476 8
    endloop
  endfacet
  facet normal -0.309014 -0.951057 -0
    outer loop
      vertex 2.61024 0.114985 8
      vertex 2.23017 0.238476 6.4
      vertex 2.61024 0.114985 6.4
    endloop
  endfacet
  facet normal -0.696933 0.717137 0
    outer loop
      vertex 1.20799 6.14512 6.41
      vertex 0.921406 5.86661 8
      vertex 1.20799 6.14512 8
    endloop
  endfacet
  facet normal -0.696933 0.717137 0
    outer loop
      vertex 0.921406 5.86661 8
      vertex 1.20799 6.14512 6.41
      vertex 0.921406 5.86661 6.41
    endloop
  endfacet
  facet normal -1 0 0
    outer loop
      vertex 0.00570774 3.30019 6.4
      vertex 0.00570774 3.69981 8
      vertex 0.00570774 3.69981 6.4
    endloop
  endfacet
  facet normal -1 -0 0
    outer loop
      vertex 0.00570774 3.69981 8
      vertex 0.00570774 3.30019 6.4
      vertex 0.00570774 3.30019 8
    endloop
  endfacet
  facet normal 0.654857 0.755753 0
    outer loop
      vertex 5.71996 6.2 6.41
      vertex 5.93928 6.00996 8
      vertex 5.93928 6.00996 6.41
    endloop
  endfacet
  facet normal 0.654871 0.755741 -3.24773e-06
    outer loop
      vertex 5.93928 6.00996 8
      vertex 5.71996 6.2 6.41
      vertex 5.63727 6.27166 8
    endloop
  endfacet
  facet normal 0.654906 0.75571 0
    outer loop
      vertex 5.63727 6.27166 6.4
      vertex 5.71996 6.2 6.41
      vertex 5.71996 6.2 6.4
    endloop
  endfacet
  facet normal 0.654906 0.75571 0
    outer loop
      vertex 5.71996 6.2 6.41
      vertex 5.63727 6.27166 6.4
      vertex 5.63727 6.27166 8
    endloop
  endfacet
  facet normal 0.99837 -0.057079 0
    outer loop
      vertex 6.97719 3.10103 8
      vertex 7 3.5 6.4
      vertex 7 3.5 8
    endloop
  endfacet
  facet normal 0.99837 -0.057079 0
    outer loop
      vertex 7 3.5 6.4
      vertex 6.97719 3.10103 8
      vertex 6.97719 3.10103 6.4
    endloop
  endfacet
  facet normal 0.362811 -0.931863 0
    outer loop
      vertex 4.58156 0.171302 6.4
      vertex 4.95395 0.316288 8
      vertex 4.58156 0.171302 8
    endloop
  endfacet
  facet normal 0.362811 -0.931863 0
    outer loop
      vertex 4.95395 0.316288 8
      vertex 4.58156 0.171302 6.4
      vertex 4.95395 0.316288 6.4
    endloop
  endfacet
  facet normal -0.774142 -0.633012 -0
    outer loop
      vertex 0.799999 1.28186 6.41
      vertex 0.66844 1.44275 6.4
      vertex 0.799999 1.28186 6.4
    endloop
  endfacet
  facet normal -0.774142 -0.633012 0
    outer loop
      vertex 0.66844 1.44275 6.4
      vertex 0.799999 1.28186 6.41
      vertex 0.66844 1.44275 8
    endloop
  endfacet
  facet normal -0.774132 -0.633024 -0
    outer loop
      vertex 0.921406 1.13339 8
      vertex 0.799999 1.28186 6.41
      vertex 0.921406 1.13339 6.41
    endloop
  endfacet
  facet normal -0.774137 -0.633018 9.56099e-07
    outer loop
      vertex 0.799999 1.28186 6.41
      vertex 0.921406 1.13339 8
      vertex 0.66844 1.44275 8
    endloop
  endfacet
  facet normal -0.198589 0.980083 0
    outer loop
      vertex 3.0019 6.96437 6.4
      vertex 2.61024 6.88501 8
      vertex 3.0019 6.96437 8
    endloop
  endfacet
  facet normal -0.198589 0.980083 0
    outer loop
      vertex 2.61024 6.88501 8
      vertex 3.0019 6.96437 6.4
      vertex 2.61024 6.88501 6.4
    endloop
  endfacet
  facet normal -0.993482 0.11399 0
    outer loop
      vertex 0.00570774 3.69981 6.4
      vertex 0.0512609 4.09683 8
      vertex 0.0512609 4.09683 6.4
    endloop
  endfacet
  facet normal -0.993482 0.11399 0
    outer loop
      vertex 0.0512609 4.09683 8
      vertex 0.00570774 3.69981 6.4
      vertex 0.00570774 3.69981 8
    endloop
  endfacet
  facet normal 0.142308 0.989822 -0
    outer loop
      vertex 4.19507 6.93029 6.4
      vertex 3.79951 6.98716 8
      vertex 4.19507 6.93029 8
    endloop
  endfacet
  facet normal 0.142308 0.989822 0
    outer loop
      vertex 3.79951 6.98716 8
      vertex 4.19507 6.93029 6.4
      vertex 3.79951 6.98716 6.4
    endloop
  endfacet
  facet normal 0.56444 -0.825474 0
    outer loop
      vertex 5.30739 0.502778 6.4
      vertex 5.63727 0.728342 8
      vertex 5.30739 0.502778 8
    endloop
  endfacet
  facet normal 0.56444 -0.825474 0
    outer loop
      vertex 5.63727 0.728342 8
      vertex 5.30739 0.502778 6.4
      vertex 5.63727 0.728342 6.4
    endloop
  endfacet
  facet normal -0.841251 -0.540645 0
    outer loop
      vertex 0.66844 1.44275 6.4
      vertex 0.452388 1.77893 8
      vertex 0.452388 1.77893 6.4
    endloop
  endfacet
  facet normal -0.841251 -0.540645 0
    outer loop
      vertex 0.452388 1.77893 8
      vertex 0.66844 1.44275 6.4
      vertex 0.66844 1.44275 8
    endloop
  endfacet
  facet normal 0.142313 -0.989822 0
    outer loop
      vertex 3.79951 0.0128384 6.4
      vertex 4.19507 0.0697107 8
      vertex 3.79951 0.0128384 8
    endloop
  endfacet
  facet normal 0.142313 -0.989822 0
    outer loop
      vertex 4.19507 0.0697107 8
      vertex 3.79951 0.0128384 6.4
      vertex 4.19507 0.0697107 6.4
    endloop
  endfacet
  facet normal 0.921124 -0.389269 0
    outer loop
      vertex 6.64089 1.95573 8
      vertex 6.79645 2.32383 6.4
      vertex 6.79645 2.32383 8
    endloop
  endfacet
  facet normal 0.921124 -0.389269 0
    outer loop
      vertex 6.79645 2.32383 6.4
      vertex 6.64089 1.95573 8
      vertex 6.64089 1.95573 6.4
    endloop
  endfacet
  facet normal -0.974011 -0.2265 0
    outer loop
      vertex 0.141774 2.51394 6.4
      vertex 0.0512609 2.90317 8
      vertex 0.0512609 2.90317 6.4
    endloop
  endfacet
  facet normal -0.974011 -0.2265 0
    outer loop
      vertex 0.0512609 2.90317 8
      vertex 0.141774 2.51394 6.4
      vertex 0.141774 2.51394 8
    endloop
  endfacet
  facet normal 0.0285562 -0.999592 0
    outer loop
      vertex 3.40005 0.0014267 6.4
      vertex 3.79951 0.0128384 8
      vertex 3.40005 0.0014267 8
    endloop
  endfacet
  facet normal 0.0285562 -0.999592 0
    outer loop
      vertex 3.79951 0.0128384 8
      vertex 3.40005 0.0014267 6.4
      vertex 3.79951 0.0128384 6.4
    endloop
  endfacet
  facet normal -0.415395 0.909641 0
    outer loop
      vertex 2.23017 6.76152 6.4
      vertex 1.86666 6.59552 8
      vertex 2.23017 6.76152 8
    endloop
  endfacet
  facet normal -0.415395 0.909641 0
    outer loop
      vertex 1.86666 6.59552 8
      vertex 2.23017 6.76152 6.4
      vertex 1.86666 6.59552 6.4
    endloop
  endfacet
  facet normal 0.95949 -0.281744 0
    outer loop
      vertex 6.79645 2.32383 8
      vertex 6.90904 2.70726 6.4
      vertex 6.90904 2.70726 8
    endloop
  endfacet
  facet normal 0.95949 -0.281744 0
    outer loop
      vertex 6.90904 2.70726 6.4
      vertex 6.79645 2.32383 8
      vertex 6.79645 2.32383 6.4
    endloop
  endfacet
  facet normal 0 0 1
    outer loop
      vertex 6.97719 3.89897 8
      vertex 6.97719 3.10103 8
      vertex 7 3.5 8
    endloop
  endfacet
  facet normal 0 0 1
    outer loop
      vertex 6.90904 4.29274 8
      vertex 6.97719 3.10103 8
      vertex 6.97719 3.89897 8
    endloop
  endfacet
  facet normal 0 0 1
    outer loop
      vertex 6.90904 4.29274 8
      vertex 6.90904 2.70726 8
      vertex 6.97719 3.10103 8
    endloop
  endfacet
  facet normal 0 0 1
    outer loop
      vertex 6.79645 4.67617 8
      vertex 6.90904 2.70726 8
      vertex 6.90904 4.29274 8
    endloop
  endfacet
  facet normal 0 0 1
    outer loop
      vertex 6.79645 4.67617 8
      vertex 6.79645 2.32383 8
      vertex 6.90904 2.70726 8
    endloop
  endfacet
  facet normal 0 0 1
    outer loop
      vertex 6.64089 5.04427 8
      vertex 6.79645 2.32383 8
      vertex 6.79645 4.67617 8
    endloop
  endfacet
  facet normal 0 0 1
    outer loop
      vertex 6.64089 5.04427 8
      vertex 6.64089 1.95573 8
      vertex 6.79645 2.32383 8
    endloop
  endfacet
  facet normal 0 0 1
    outer loop
      vertex 6.44439 5.39224 8
      vertex 6.64089 1.95573 8
      vertex 6.64089 5.04427 8
    endloop
  endfacet
  facet normal 0 0 1
    outer loop
      vertex 6.44439 5.39224 8
      vertex 6.44439 1.60776 8
      vertex 6.64089 1.95573 8
    endloop
  endfacet
  facet normal 0 0 1
    outer loop
      vertex 6.2095 5.71554 8
      vertex 6.44439 1.60776 8
      vertex 6.44439 5.39224 8
    endloop
  endfacet
  facet normal 0 0 1
    outer loop
      vertex 6.2095 5.71554 8
      vertex 6.2095 1.28446 8
      vertex 6.44439 1.60776 8
    endloop
  endfacet
  facet normal 0 0 1
    outer loop
      vertex 5.93928 6.00996 8
      vertex 6.2095 1.28446 8
      vertex 6.2095 5.71554 8
    endloop
  endfacet
  facet normal 0 0 1
    outer loop
      vertex 5.93928 6.00996 8
      vertex 5.93928 0.990038 8
      vertex 6.2095 1.28446 8
    endloop
  endfacet
  facet normal 0 0 1
    outer loop
      vertex 5.63727 6.27166 8
      vertex 5.93928 0.990038 8
      vertex 5.93928 6.00996 8
    endloop
  endfacet
  facet normal 0 0 1
    outer loop
      vertex 5.63727 6.27166 8
      vertex 5.63727 0.728342 8
      vertex 5.93928 0.990038 8
    endloop
  endfacet
  facet normal 0 0 1
    outer loop
      vertex 5.30739 6.49722 8
      vertex 5.63727 0.728342 8
      vertex 5.63727 6.27166 8
    endloop
  endfacet
  facet normal 0 0 1
    outer loop
      vertex 5.30739 6.49722 8
      vertex 5.30739 0.502778 8
      vertex 5.63727 0.728342 8
    endloop
  endfacet
  facet normal 0 0 1
    outer loop
      vertex 4.95395 6.68371 8
      vertex 5.30739 0.502778 8
      vertex 5.30739 6.49722 8
    endloop
  endfacet
  facet normal 0 0 1
    outer loop
      vertex 4.95395 6.68371 8
      vertex 4.95395 0.316288 8
      vertex 5.30739 0.502778 8
    endloop
  endfacet
  facet normal 0 0 1
    outer loop
      vertex 4.58156 6.8287 8
      vertex 4.95395 0.316288 8
      vertex 4.95395 6.68371 8
    endloop
  endfacet
  facet normal 0 0 1
    outer loop
      vertex 4.58156 6.8287 8
      vertex 4.58156 0.171302 8
      vertex 4.95395 0.316288 8
    endloop
  endfacet
  facet normal 0 0 1
    outer loop
      vertex 4.19507 6.93029 8
      vertex 4.58156 0.171302 8
      vertex 4.58156 6.8287 8
    endloop
  endfacet
  facet normal 0 0 1
    outer loop
      vertex 4.19507 6.93029 8
      vertex 4.19507 0.0697107 8
      vertex 4.58156 0.171302 8
    endloop
  endfacet
  facet normal 0 0 1
    outer loop
      vertex 3.79951 6.98716 8
      vertex 4.19507 0.0697107 8
      vertex 4.19507 6.93029 8
    endloop
  endfacet
  facet normal 0 0 1
    outer loop
      vertex 3.79951 6.98716 8
      vertex 3.79951 0.0128384 8
      vertex 4.19507 0.0697107 8
    endloop
  endfacet
  facet normal 0 0 1
    outer loop
      vertex 3.40005 6.99857 8
      vertex 3.79951 0.0128384 8
      vertex 3.79951 6.98716 8
    endloop
  endfacet
  facet normal 0 0 1
    outer loop
      vertex 3.40005 6.99857 8
      vertex 3.40005 0.0014267 8
      vertex 3.79951 0.0128384 8
    endloop
  endfacet
  facet normal -0 0 1
    outer loop
      vertex 3.0019 6.96437 8
      vertex 3.40005 0.0014267 8
      vertex 3.40005 6.99857 8
    endloop
  endfacet
  facet normal 0 0 1
    outer loop
      vertex 3.0019 6.96437 8
      vertex 3.0019 0.0356245 8
      vertex 3.40005 0.0014267 8
    endloop
  endfacet
  facet normal -0 0 1
    outer loop
      vertex 2.61024 6.88501 8
      vertex 3.0019 0.0356245 8
      vertex 3.0019 6.96437 8
    endloop
  endfacet
  facet normal 0 0 1
    outer loop
      vertex 2.61024 6.88501 8
      vertex 2.61024 0.114985 8
      vertex 3.0019 0.0356245 8
    endloop
  endfacet
  facet normal -0 0 1
    outer loop
      vertex 2.23017 6.76152 8
      vertex 2.61024 0.114985 8
      vertex 2.61024 6.88501 8
    endloop
  endfacet
  facet normal 0 0 1
    outer loop
      vertex 2.23017 6.76152 8
      vertex 2.23017 0.238476 8
      vertex 2.61024 0.114985 8
    endloop
  endfacet
  facet normal -0 0 1
    outer loop
      vertex 1.86666 6.59552 8
      vertex 2.23017 0.238476 8
      vertex 2.23017 6.76152 8
    endloop
  endfacet
  facet normal 0 0 1
    outer loop
      vertex 1.86666 6.59552 8
      vertex 1.86666 0.404484 8
      vertex 2.23017 0.238476 8
    endloop
  endfacet
  facet normal -0 0 1
    outer loop
      vertex 1.52445 6.38915 8
      vertex 1.86666 0.404484 8
      vertex 1.86666 6.59552 8
    endloop
  endfacet
  facet normal 0 0 1
    outer loop
      vertex 1.52445 6.38915 8
      vertex 1.52445 0.610847 8
      vertex 1.86666 0.404484 8
    endloop
  endfacet
  facet normal -0 0 1
    outer loop
      vertex 1.20799 6.14512 8
      vertex 1.52445 0.610847 8
      vertex 1.52445 6.38915 8
    endloop
  endfacet
  facet normal 0 0 1
    outer loop
      vertex 1.20799 6.14512 8
      vertex 1.20799 0.854876 8
      vertex 1.52445 0.610847 8
    endloop
  endfacet
  facet normal -0 0 1
    outer loop
      vertex 0.921406 5.86661 8
      vertex 1.20799 0.854876 8
      vertex 1.20799 6.14512 8
    endloop
  endfacet
  facet normal 0 0 1
    outer loop
      vertex 0.921406 5.86661 8
      vertex 0.921406 1.13339 8
      vertex 1.20799 0.854876 8
    endloop
  endfacet
  facet normal -0 0 1
    outer loop
      vertex 0.66844 5.55725 8
      vertex 0.921406 1.13339 8
      vertex 0.921406 5.86661 8
    endloop
  endfacet
  facet normal 0 0 1
    outer loop
      vertex 0.66844 5.55725 8
      vertex 0.66844 1.44275 8
      vertex 0.921406 1.13339 8
    endloop
  endfacet
  facet normal -0 0 1
    outer loop
      vertex 0.452388 5.22106 8
      vertex 0.66844 1.44275 8
      vertex 0.66844 5.55725 8
    endloop
  endfacet
  facet normal 0 0 1
    outer loop
      vertex 0.452388 5.22106 8
      vertex 0.452388 1.77893 8
      vertex 0.66844 1.44275 8
    endloop
  endfacet
  facet normal -0 0 1
    outer loop
      vertex 0.276067 4.86244 8
      vertex 0.452388 1.77893 8
      vertex 0.452388 5.22106 8
    endloop
  endfacet
  facet normal 0 0 1
    outer loop
      vertex 0.276067 4.86244 8
      vertex 0.276067 2.13755 8
      vertex 0.452388 1.77893 8
    endloop
  endfacet
  facet normal -0 0 1
    outer loop
      vertex 0.141774 4.48606 8
      vertex 0.276067 2.13755 8
      vertex 0.276067 4.86244 8
    endloop
  endfacet
  facet normal 0 0 1
    outer loop
      vertex 0.141774 4.48606 8
      vertex 0.141774 2.51394 8
      vertex 0.276067 2.13755 8
    endloop
  endfacet
  facet normal -0 0 1
    outer loop
      vertex 0.0512609 4.09683 8
      vertex 0.141774 2.51394 8
      vertex 0.141774 4.48606 8
    endloop
  endfacet
  facet normal 0 0 1
    outer loop
      vertex 0.0512609 4.09683 8
      vertex 0.0512609 2.90317 8
      vertex 0.141774 2.51394 8
    endloop
  endfacet
  facet normal -0 0 1
    outer loop
      vertex 0.00570774 3.69981 8
      vertex 0.0512609 2.90317 8
      vertex 0.0512609 4.09683 8
    endloop
  endfacet
  facet normal 0 0 1
    outer loop
      vertex 0.0512609 2.90317 8
      vertex 0.00570774 3.69981 8
      vertex 0.00570774 3.30019 8
    endloop
  endfacet
  facet normal -0.610652 0.791899 3.3837e-06
    outer loop
      vertex 1.52445 6.38915 8
      vertex 1.27915 6.2 6.41
      vertex 1.20799 6.14512 8
    endloop
  endfacet
  facet normal -0.610639 0.791909 0
    outer loop
      vertex 1.52445 6.38915 6.4
      vertex 1.27915 6.2 6.41
      vertex 1.52445 6.38915 8
    endloop
  endfacet
  facet normal -0.610639 0.791909 0
    outer loop
      vertex 1.27915 6.2 6.41
      vertex 1.52445 6.38915 6.4
      vertex 1.27915 6.2 6.4
    endloop
  endfacet
  facet normal -0.6107 0.791862 0
    outer loop
      vertex 1.20799 6.14512 8
      vertex 1.27915 6.2 6.41
      vertex 1.20799 6.14512 6.41
    endloop
  endfacet
  facet normal 0.362819 0.931859 -0
    outer loop
      vertex 4.95395 6.68371 6.4
      vertex 4.58156 6.8287 8
      vertex 4.95395 6.68371 8
    endloop
  endfacet
  facet normal 0.362819 0.931859 0
    outer loop
      vertex 4.58156 6.8287 8
      vertex 4.95395 6.68371 6.4
      vertex 4.58156 6.8287 6.4
    endloop
  endfacet
  facet normal -0.941844 0.336051 0
    outer loop
      vertex 0.141774 4.48606 6.4
      vertex 0.276067 4.86244 8
      vertex 0.276067 4.86244 6.4
    endloop
  endfacet
  facet normal -0.941844 0.336051 0
    outer loop
      vertex 0.276067 4.86244 8
      vertex 0.141774 4.48606 6.4
      vertex 0.141774 4.48606 8
    endloop
  endfacet
  facet normal 0.809018 0.587783 0
    outer loop
      vertex 6.44439 5.39224 8
      vertex 6.2095 5.71554 6.4
      vertex 6.2095 5.71554 8
    endloop
  endfacet
  facet normal 0.809018 0.587783 0
    outer loop
      vertex 6.2095 5.71554 6.4
      vertex 6.44439 5.39224 8
      vertex 6.44439 5.39224 6.4
    endloop
  endfacet
  facet normal -0.415412 -0.909633 0
    outer loop
      vertex 1.86666 0.404484 6.4
      vertex 2.23017 0.238476 8
      vertex 1.86666 0.404484 8
    endloop
  endfacet
  facet normal -0.415412 -0.909633 -0
    outer loop
      vertex 2.23017 0.238476 8
      vertex 1.86666 0.404484 6.4
      vertex 2.23017 0.238476 6.4
    endloop
  endfacet
  facet normal -0.516403 -0.856346 0
    outer loop
      vertex 1.52445 0.610847 6.4
      vertex 1.86666 0.404484 8
      vertex 1.52445 0.610847 8
    endloop
  endfacet
  facet normal -0.516403 -0.856346 -0
    outer loop
      vertex 1.86666 0.404484 8
      vertex 1.52445 0.610847 6.4
      vertex 1.86666 0.404484 6.4
    endloop
  endfacet
  facet normal -0.0855821 0.996331 0
    outer loop
      vertex 3.40005 6.99857 6.4
      vertex 3.0019 6.96437 8
      vertex 3.40005 6.99857 8
    endloop
  endfacet
  facet normal -0.0855821 0.996331 0
    outer loop
      vertex 3.0019 6.96437 8
      vertex 3.40005 6.99857 6.4
      vertex 3.0019 6.96437 6.4
    endloop
  endfacet
  facet normal -0.516415 0.856338 0
    outer loop
      vertex 1.86666 6.59552 6.4
      vertex 1.52445 6.38915 8
      vertex 1.86666 6.59552 8
    endloop
  endfacet
  facet normal -0.516415 0.856338 0
    outer loop
      vertex 1.52445 6.38915 8
      vertex 1.86666 6.59552 6.4
      vertex 1.52445 6.38915 6.4
    endloop
  endfacet
  facet normal -0.696938 -0.717132 0
    outer loop
      vertex 0.921406 1.13339 6.41
      vertex 1.20799 0.854876 8
      vertex 0.921406 1.13339 8
    endloop
  endfacet
  facet normal -0.696938 -0.717132 -0
    outer loop
      vertex 1.20799 0.854876 8
      vertex 0.921406 1.13339 6.41
      vertex 1.20799 0.854876 6.41
    endloop
  endfacet
  facet normal -0.974011 0.2265 0
    outer loop
      vertex 0.0512609 4.09683 6.4
      vertex 0.141774 4.48606 8
      vertex 0.141774 4.48606 6.4
    endloop
  endfacet
  facet normal -0.974011 0.2265 0
    outer loop
      vertex 0.141774 4.48606 8
      vertex 0.0512609 4.09683 6.4
      vertex 0.0512609 4.09683 8
    endloop
  endfacet
  facet normal 0.809018 -0.587783 0
    outer loop
      vertex 6.2095 1.28446 8
      vertex 6.44439 1.60776 6.4
      vertex 6.44439 1.60776 8
    endloop
  endfacet
  facet normal 0.809018 -0.587783 0
    outer loop
      vertex 6.44439 1.60776 6.4
      vertex 6.2095 1.28446 8
      vertex 6.2095 1.28446 6.4
    endloop
  endfacet
  facet normal -0.19859 -0.980083 0
    outer loop
      vertex 2.61024 0.114985 6.4
      vertex 3.0019 0.0356245 8
      vertex 2.61024 0.114985 8
    endloop
  endfacet
  facet normal -0.19859 -0.980083 -0
    outer loop
      vertex 3.0019 0.0356245 8
      vertex 2.61024 0.114985 6.4
      vertex 3.0019 0.0356245 6.4
    endloop
  endfacet
  facet normal 0 0 -1
    outer loop
      vertex 4.4 0.799999 6.4
      vertex 5.63727 0.728342 6.4
      vertex 5.30739 0.502778 6.4
    endloop
  endfacet
  facet normal 0 0 -1
    outer loop
      vertex 4.4 0.799999 6.4
      vertex 5.30739 0.502778 6.4
      vertex 4.95395 0.316288 6.4
    endloop
  endfacet
  facet normal 0 0 -1
    outer loop
      vertex 4.4 0.799999 6.4
      vertex 4.95395 0.316288 6.4
      vertex 4.58156 0.171302 6.4
    endloop
  endfacet
  facet normal 0 0 -1
    outer loop
      vertex 5.63727 0.728342 6.4
      vertex 4.4 0.799999 6.4
      vertex 5.71996 0.799999 6.4
    endloop
  endfacet
  facet normal 0 0 -1
    outer loop
      vertex 2.6 2.6 6.4
      vertex 4.4 2.6 6.4
      vertex 4.4 0.799999 6.4
    endloop
  endfacet
  facet normal 0 0 -1
    outer loop
      vertex 4.4 2.6 6.4
      vertex 2.6 2.6 6.4
      vertex 4.4 4.4 6.4
    endloop
  endfacet
  facet normal 0 0 -1
    outer loop
      vertex 3.79951 0.0128384 6.4
      vertex 4.4 0.799999 6.4
      vertex 4.19507 0.0697107 6.4
    endloop
  endfacet
  facet normal 0 0 -1
    outer loop
      vertex 4.19507 0.0697107 6.4
      vertex 4.4 0.799999 6.4
      vertex 4.58156 0.171302 6.4
    endloop
  endfacet
  facet normal 0 0 -1
    outer loop
      vertex 4.4 2.6 6.4
      vertex 6.2 4.4 6.4
      vertex 6.2 2.6 6.4
    endloop
  endfacet
  facet normal -0 0 -1
    outer loop
      vertex 6.2 4.4 6.4
      vertex 4.4 2.6 6.4
      vertex 4.4 4.4 6.4
    endloop
  endfacet
  facet normal 0 0 -1
    outer loop
      vertex 6.2 2.6 6.4
      vertex 7 3.5 6.4
      vertex 6.97719 3.10103 6.4
    endloop
  endfacet
  facet normal 0 0 -1
    outer loop
      vertex 6.2 2.6 6.4
      vertex 6.97719 3.10103 6.4
      vertex 6.90904 2.70726 6.4
    endloop
  endfacet
  facet normal 0 0 -1
    outer loop
      vertex 6.2 4.4 6.4
      vertex 7 3.5 6.4
      vertex 6.2 2.6 6.4
    endloop
  endfacet
  facet normal 0 0 -1
    outer loop
      vertex 6.2 2.6 6.4
      vertex 6.90904 2.70726 6.4
      vertex 6.79645 2.32383 6.4
    endloop
  endfacet
  facet normal 0 0 -1
    outer loop
      vertex 7 3.5 6.4
      vertex 6.2 4.4 6.4
      vertex 6.97719 3.89897 6.4
    endloop
  endfacet
  facet normal 0 0 -1
    outer loop
      vertex 6.2 2.6 6.4
      vertex 6.79645 2.32383 6.4
      vertex 6.64089 1.95573 6.4
    endloop
  endfacet
  facet normal 0 0 -1
    outer loop
      vertex 6.97719 3.89897 6.4
      vertex 6.2 4.4 6.4
      vertex 6.90904 4.29274 6.4
    endloop
  endfacet
  facet normal 0 0 -1
    outer loop
      vertex 6.2 2.6 6.4
      vertex 6.64089 1.95573 6.4
      vertex 6.44439 1.60776 6.4
    endloop
  endfacet
  facet normal 0 0 -1
    outer loop
      vertex 6.90904 4.29274 6.4
      vertex 6.2 4.4 6.4
      vertex 6.79645 4.67617 6.4
    endloop
  endfacet
  facet normal 0 0 -1
    outer loop
      vertex 6.2 2.6 6.4
      vertex 6.44439 1.60776 6.4
      vertex 6.2095 1.28446 6.4
    endloop
  endfacet
  facet normal -0 0 -1
    outer loop
      vertex 6.79645 4.67617 6.4
      vertex 6.2 4.4 6.4
      vertex 6.64089 5.04427 6.4
    endloop
  endfacet
  facet normal 0 0 -1
    outer loop
      vertex 6.2 2.6 6.4
      vertex 6.2095 1.28446 6.4
      vertex 6.2 1.27411 6.4
    endloop
  endfacet
  facet normal -0 0 -1
    outer loop
      vertex 6.64089 5.04427 6.4
      vertex 6.2 4.4 6.4
      vertex 6.44439 5.39224 6.4
    endloop
  endfacet
  facet normal -0 0 -1
    outer loop
      vertex 6.44439 5.39224 6.4
      vertex 6.2 4.4 6.4
      vertex 6.2095 5.71554 6.4
    endloop
  endfacet
  facet normal -0 0 -1
    outer loop
      vertex 6.2095 5.71554 6.4
      vertex 6.2 4.4 6.4
      vertex 6.2 5.72589 6.4
    endloop
  endfacet
  facet normal 0 0 -1
    outer loop
      vertex 4.4 6.2 6.4
      vertex 5.63727 6.27166 6.4
      vertex 5.71996 6.2 6.4
    endloop
  endfacet
  facet normal -0 0 -1
    outer loop
      vertex 5.63727 6.27166 6.4
      vertex 4.4 6.2 6.4
      vertex 5.30739 6.49722 6.4
    endloop
  endfacet
  facet normal -0 0 -1
    outer loop
      vertex 5.30739 6.49722 6.4
      vertex 4.4 6.2 6.4
      vertex 4.95395 6.68371 6.4
    endloop
  endfacet
  facet normal -0 0 -1
    outer loop
      vertex 4.95395 6.68371 6.4
      vertex 4.4 6.2 6.4
      vertex 4.58156 6.8287 6.4
    endloop
  endfacet
  facet normal 0 0 -1
    outer loop
      vertex 4.4 6.2 6.4
      vertex 4.19507 6.93029 6.4
      vertex 4.58156 6.8287 6.4
    endloop
  endfacet
  facet normal 0 0 -1
    outer loop
      vertex 2.6 4.4 6.4
      vertex 4.4 4.4 6.4
      vertex 2.6 2.6 6.4
    endloop
  endfacet
  facet normal 0 0 -1
    outer loop
      vertex 3.40005 0.0014267 6.4
      vertex 4.4 0.799999 6.4
      vertex 3.79951 0.0128384 6.4
    endloop
  endfacet
  facet normal 0 0 -1
    outer loop
      vertex 4.4 4.4 6.4
      vertex 2.6 4.4 6.4
      vertex 4.4 6.2 6.4
    endloop
  endfacet
  facet normal -0 0 -1
    outer loop
      vertex 4.4 0.799999 6.4
      vertex 3.40005 0.0014267 6.4
      vertex 2.6 0.799999 6.4
    endloop
  endfacet
  facet normal 0 0 -1
    outer loop
      vertex 2.6 6.2 6.4
      vertex 4.4 6.2 6.4
      vertex 2.6 4.4 6.4
    endloop
  endfacet
  facet normal 0 0 -1
    outer loop
      vertex 2.6 0.799999 6.4
      vertex 3.40005 0.0014267 6.4
      vertex 3.0019 0.0356245 6.4
    endloop
  endfacet
  facet normal 0 -0 -1
    outer loop
      vertex 3.40005 6.99857 6.4
      vertex 4.4 6.2 6.4
      vertex 2.6 6.2 6.4
    endloop
  endfacet
  facet normal 0 0 -1
    outer loop
      vertex 2.6 0.799999 6.4
      vertex 3.0019 0.0356245 6.4
      vertex 2.61024 0.114985 6.4
    endloop
  endfacet
  facet normal 0 0 -1
    outer loop
      vertex 4.4 0.799999 6.4
      vertex 2.6 0.799999 6.4
      vertex 2.6 2.6 6.4
    endloop
  endfacet
  facet normal 0 0 -1
    outer loop
      vertex 4.4 6.2 6.4
      vertex 3.79951 6.98716 6.4
      vertex 4.19507 6.93029 6.4
    endloop
  endfacet
  facet normal 0 0 -1
    outer loop
      vertex 2.23017 0.238476 6.4
      vertex 2.6 0.799999 6.4
      vertex 2.61024 0.114985 6.4
    endloop
  endfacet
  facet normal 0 0 -1
    outer loop
      vertex 1.86666 0.404484 6.4
      vertex 2.6 0.799999 6.4
      vertex 2.23017 0.238476 6.4
    endloop
  endfacet
  facet normal 0 0 -1
    outer loop
      vertex 1.52445 0.610847 6.4
      vertex 2.6 0.799999 6.4
      vertex 1.86666 0.404484 6.4
    endloop
  endfacet
  facet normal -0 0 -1
    outer loop
      vertex 2.6 0.799999 6.4
      vertex 1.52445 0.610847 6.4
      vertex 1.27915 0.799999 6.4
    endloop
  endfacet
  facet normal 0 0 -1
    outer loop
      vertex 0.799999 2.6 6.4
      vertex 2.6 4.4 6.4
      vertex 2.6 2.6 6.4
    endloop
  endfacet
  facet normal -0 0 -1
    outer loop
      vertex 2.6 4.4 6.4
      vertex 0.799999 2.6 6.4
      vertex 0.799999 4.4 6.4
    endloop
  endfacet
  facet normal 0 0 -1
    outer loop
      vertex 4.4 6.2 6.4
      vertex 3.40005 6.99857 6.4
      vertex 3.79951 6.98716 6.4
    endloop
  endfacet
  facet normal 0 0 -1
    outer loop
      vertex 3.40005 6.99857 6.4
      vertex 2.6 6.2 6.4
      vertex 3.0019 6.96437 6.4
    endloop
  endfacet
  facet normal 0 0 -1
    outer loop
      vertex 3.0019 6.96437 6.4
      vertex 2.6 6.2 6.4
      vertex 2.61024 6.88501 6.4
    endloop
  endfacet
  facet normal 0 0 -1
    outer loop
      vertex 2.6 6.2 6.4
      vertex 2.23017 6.76152 6.4
      vertex 2.61024 6.88501 6.4
    endloop
  endfacet
  facet normal 0 0 -1
    outer loop
      vertex 2.6 6.2 6.4
      vertex 1.86666 6.59552 6.4
      vertex 2.23017 6.76152 6.4
    endloop
  endfacet
  facet normal 0 0 -1
    outer loop
      vertex 2.6 6.2 6.4
      vertex 1.52445 6.38915 6.4
      vertex 1.86666 6.59552 6.4
    endloop
  endfacet
  facet normal 0 -0 -1
    outer loop
      vertex 1.52445 6.38915 6.4
      vertex 2.6 6.2 6.4
      vertex 1.27915 6.2 6.4
    endloop
  endfacet
  facet normal 0 0 -1
    outer loop
      vertex 0.66844 1.44275 6.4
      vertex 0.799999 2.6 6.4
      vertex 0.799999 1.28186 6.4
    endloop
  endfacet
  facet normal 0 0 -1
    outer loop
      vertex 0.452388 1.77893 6.4
      vertex 0.799999 2.6 6.4
      vertex 0.66844 1.44275 6.4
    endloop
  endfacet
  facet normal 0 0 -1
    outer loop
      vertex 0.276067 2.13755 6.4
      vertex 0.799999 2.6 6.4
      vertex 0.452388 1.77893 6.4
    endloop
  endfacet
  facet normal 0 0 -1
    outer loop
      vertex 0.141774 2.51394 6.4
      vertex 0.799999 2.6 6.4
      vertex 0.276067 2.13755 6.4
    endloop
  endfacet
  facet normal 0 -0 -1
    outer loop
      vertex 0.66844 5.55725 6.4
      vertex 0.799999 4.4 6.4
      vertex 0.452388 5.22106 6.4
    endloop
  endfacet
  facet normal 0 0 -1
    outer loop
      vertex 0.799999 4.4 6.4
      vertex 0.66844 5.55725 6.4
      vertex 0.799999 5.71814 6.4
    endloop
  endfacet
  facet normal 0 0 -1
    outer loop
      vertex 0.0512609 2.90317 6.4
      vertex 0.799999 2.6 6.4
      vertex 0.141774 2.51394 6.4
    endloop
  endfacet
  facet normal 0 0 -1
    outer loop
      vertex 0.799999 4.4 6.4
      vertex 0.276067 4.86244 6.4
      vertex 0.452388 5.22106 6.4
    endloop
  endfacet
  facet normal 0 0 -1
    outer loop
      vertex 0.00570774 3.30019 6.4
      vertex 0.799999 2.6 6.4
      vertex 0.0512609 2.90317 6.4
    endloop
  endfacet
  facet normal 0 0 -1
    outer loop
      vertex 0.799999 4.4 6.4
      vertex 0.141774 4.48606 6.4
      vertex 0.276067 4.86244 6.4
    endloop
  endfacet
  facet normal 0 0 -1
    outer loop
      vertex 0.799999 2.6 6.4
      vertex 0.00570774 3.30019 6.4
      vertex 0.799999 4.4 6.4
    endloop
  endfacet
  facet normal -0 0 -1
    outer loop
      vertex 0.799999 4.4 6.4
      vertex 0.0512609 4.09683 6.4
      vertex 0.141774 4.48606 6.4
    endloop
  endfacet
  facet normal 0 0 -1
    outer loop
      vertex 0.00570774 3.69981 6.4
      vertex 0.799999 4.4 6.4
      vertex 0.00570774 3.30019 6.4
    endloop
  endfacet
  facet normal 0 0 -1
    outer loop
      vertex 0.799999 4.4 6.4
      vertex 0.00570774 3.69981 6.4
      vertex 0.0512609 4.09683 6.4
    endloop
  endfacet
  facet normal -0.841258 0.540633 0
    outer loop
      vertex 0.452388 5.22106 6.4
      vertex 0.66844 5.55725 8
      vertex 0.66844 5.55725 6.4
    endloop
  endfacet
  facet normal -0.841258 0.540633 0
    outer loop
      vertex 0.66844 5.55725 8
      vertex 0.452388 5.22106 6.4
      vertex 0.452388 5.22106 8
    endloop
  endfacet
  facet normal 0.254217 0.967147 -0
    outer loop
      vertex 4.58156 6.8287 6.4
      vertex 4.19507 6.93029 8
      vertex 4.58156 6.8287 8
    endloop
  endfacet
  facet normal 0.254217 0.967147 0
    outer loop
      vertex 4.19507 6.93029 8
      vertex 4.58156 6.8287 6.4
      vertex 4.19507 6.93029 6.4
    endloop
  endfacet
endsolid OpenSCAD_Model
