solid OpenSCAD_Model
  facet normal 1 -0 0
    outer loop
      vertex 4.2 1.2 10.8
      vertex 4.2 4.2 0
      vertex 4.2 4.2 10.8
    endloop
  endfacet
  facet normal 1 0 0
    outer loop
      vertex 4.2 4.2 0
      vertex 4.2 1.2 10.8
      vertex 4.2 1.2 0
    endloop
  endfacet
  facet normal -0 0 1
    outer loop
      vertex 0 14 15
      vertex 3.75 0 15
      vertex 3.75 14 15
    endloop
  endfacet
  facet normal 0 0 1
    outer loop
      vertex 3.75 0 15
      vertex 0 14 15
      vertex 0 0 15
    endloop
  endfacet
  facet normal -0 0 1
    outer loop
      vertex 20.25 14 15
      vertex 24 0 15
      vertex 24 14 15
    endloop
  endfacet
  facet normal 0 0 1
    outer loop
      vertex 24 0 15
      vertex 20.25 14 15
      vertex 20.25 0 15
    endloop
  endfacet
  facet normal -0 0 1
    outer loop
      vertex 4.25 14 15
      vertex 7.75 0 15
      vertex 7.75 14 15
    endloop
  endfacet
  facet normal 0 0 1
    outer loop
      vertex 7.75 0 15
      vertex 4.25 14 15
      vertex 4.25 0 15
    endloop
  endfacet
  facet normal -0 0 1
    outer loop
      vertex 8.25 14 15
      vertex 11.75 0 15
      vertex 11.75 14 15
    endloop
  endfacet
  facet normal 0 0 1
    outer loop
      vertex 11.75 0 15
      vertex 8.25 14 15
      vertex 8.25 0 15
    endloop
  endfacet
  facet normal -0 0 1
    outer loop
      vertex 12.25 14 15
      vertex 15.75 0 15
      vertex 15.75 14 15
    endloop
  endfacet
  facet normal 0 0 1
    outer loop
      vertex 15.75 0 15
      vertex 12.25 14 15
      vertex 12.25 0 15
    endloop
  endfacet
  facet normal -0 0 1
    outer loop
      vertex 16.25 14 15
      vertex 19.75 0 15
      vertex 19.75 14 15
    endloop
  endfacet
  facet normal 0 0 1
    outer loop
      vertex 19.75 0 15
      vertex 16.25 14 15
      vertex 16.25 0 15
    endloop
  endfacet
  facet normal 0 0 -1
    outer loop
      vertex 1.2 1.2 0
      vertex 4.2 4.2 0
      vertex 4.2 1.2 0
    endloop
  endfacet
  facet normal -0 0 -1
    outer loop
      vertex 4.2 4.2 0
      vertex 1.2 1.2 0
      vertex 1.2 4.2 0
    endloop
  endfacet
  facet normal -1 0 0
    outer loop
      vertex 1.2 4.2 0
      vertex 1.2 1.2 0
      vertex 1.2 4.2 10.8
    endloop
  endfacet
  facet normal -1 0 0
    outer loop
      vertex 1.2 9.8 10.8
      vertex 1.2 12.8 0
      vertex 1.2 9.8 0
    endloop
  endfacet
  facet normal -1 0 0
    outer loop
      vertex 1.2 12.8 0
      vertex 1.2 9.8 10.8
      vertex 1.2 12.8 13
    endloop
  endfacet
  facet normal -1 0 0
    outer loop
      vertex 1.2 4.2 10.8
      vertex 1.2 12.8 13
      vertex 1.2 9.8 10.8
    endloop
  endfacet
  facet normal -1 0 0
    outer loop
      vertex 1.2 4.2 10.8
      vertex 1.2 1.2 13
      vertex 1.2 12.8 13
    endloop
  endfacet
  facet normal -1 0 0
    outer loop
      vertex 1.2 1.2 13
      vertex 1.2 4.2 10.8
      vertex 1.2 1.2 0
    endloop
  endfacet
  facet normal 0 1 -0
    outer loop
      vertex 4.2 4.2 0
      vertex 1.2 4.2 10.8
      vertex 4.2 4.2 10.8
    endloop
  endfacet
  facet normal 0 1 0
    outer loop
      vertex 1.2 4.2 10.8
      vertex 4.2 4.2 0
      vertex 1.2 4.2 0
    endloop
  endfacet
  facet normal 0 -1 0
    outer loop
      vertex 1.2 1.2 13
      vertex 4.2 1.2 10.8
      vertex 22.8 1.2 13
    endloop
  endfacet
  facet normal 0 -1 0
    outer loop
      vertex 1.2 1.2 0
      vertex 4.2 1.2 10.8
      vertex 1.2 1.2 13
    endloop
  endfacet
  facet normal 0 -1 -0
    outer loop
      vertex 4.2 1.2 10.8
      vertex 1.2 1.2 0
      vertex 4.2 1.2 0
    endloop
  endfacet
  facet normal 0 -1 0
    outer loop
      vertex 19.8 1.2 10.8
      vertex 22.8 1.2 13
      vertex 4.2 1.2 10.8
    endloop
  endfacet
  facet normal 0 -1 0
    outer loop
      vertex 22.8 1.2 0
      vertex 19.8 1.2 10.8
      vertex 19.8 1.2 0
    endloop
  endfacet
  facet normal 0 -1 0
    outer loop
      vertex 19.8 1.2 10.8
      vertex 22.8 1.2 0
      vertex 22.8 1.2 13
    endloop
  endfacet
  facet normal 1 -0 0
    outer loop
      vertex 4.2 9.8 10.8
      vertex 4.2 12.8 0
      vertex 4.2 12.8 10.8
    endloop
  endfacet
  facet normal 1 0 0
    outer loop
      vertex 4.2 12.8 0
      vertex 4.2 9.8 10.8
      vertex 4.2 9.8 0
    endloop
  endfacet
  facet normal 0 0 -1
    outer loop
      vertex 1.2 9.8 0
      vertex 4.2 12.8 0
      vertex 4.2 9.8 0
    endloop
  endfacet
  facet normal -0 0 -1
    outer loop
      vertex 4.2 12.8 0
      vertex 1.2 9.8 0
      vertex 1.2 12.8 0
    endloop
  endfacet
  facet normal 0 1 0
    outer loop
      vertex 22.8 12.8 13
      vertex 19.8 12.8 10.8
      vertex 1.2 12.8 13
    endloop
  endfacet
  facet normal 0 1 -0
    outer loop
      vertex 22.8 12.8 0
      vertex 19.8 12.8 10.8
      vertex 22.8 12.8 13
    endloop
  endfacet
  facet normal 0 1 0
    outer loop
      vertex 19.8 12.8 10.8
      vertex 22.8 12.8 0
      vertex 19.8 12.8 0
    endloop
  endfacet
  facet normal 0 1 -0
    outer loop
      vertex 4.2 12.8 10.8
      vertex 1.2 12.8 13
      vertex 19.8 12.8 10.8
    endloop
  endfacet
  facet normal 0 1 0
    outer loop
      vertex 1.2 12.8 0
      vertex 4.2 12.8 10.8
      vertex 4.2 12.8 0
    endloop
  endfacet
  facet normal 0 1 0
    outer loop
      vertex 4.2 12.8 10.8
      vertex 1.2 12.8 0
      vertex 1.2 12.8 13
    endloop
  endfacet
  facet normal 0 -1 0
    outer loop
      vertex 1.2 9.8 0
      vertex 4.2 9.8 10.8
      vertex 1.2 9.8 10.8
    endloop
  endfacet
  facet normal 0 -1 -0
    outer loop
      vertex 4.2 9.8 10.8
      vertex 1.2 9.8 0
      vertex 4.2 9.8 0
    endloop
  endfacet
  facet normal 1 0 0
    outer loop
      vertex 22.8 12.8 13
      vertex 22.8 9.8 10.8
      vertex 22.8 12.8 0
    endloop
  endfacet
  facet normal 1 0 0
    outer loop
      vertex 22.8 12.8 13
      vertex 22.8 4.2 10.8
      vertex 22.8 9.8 10.8
    endloop
  endfacet
  facet normal 1 -0 0
    outer loop
      vertex 22.8 1.2 13
      vertex 22.8 4.2 10.8
      vertex 22.8 12.8 13
    endloop
  endfacet
  facet normal 1 0 0
    outer loop
      vertex 22.8 1.2 0
      vertex 22.8 4.2 10.8
      vertex 22.8 1.2 13
    endloop
  endfacet
  facet normal 1 0 0
    outer loop
      vertex 22.8 4.2 10.8
      vertex 22.8 1.2 0
      vertex 22.8 4.2 0
    endloop
  endfacet
  facet normal 1 0 0
    outer loop
      vertex 22.8 12.8 0
      vertex 22.8 9.8 10.8
      vertex 22.8 9.8 0
    endloop
  endfacet
  facet normal 0 0 -1
    outer loop
      vertex 19.8 1.2 0
      vertex 22.8 4.2 0
      vertex 22.8 1.2 0
    endloop
  endfacet
  facet normal -0 0 -1
    outer loop
      vertex 22.8 4.2 0
      vertex 19.8 1.2 0
      vertex 19.8 4.2 0
    endloop
  endfacet
  facet normal -1 0 0
    outer loop
      vertex 19.8 1.2 0
      vertex 19.8 4.2 10.8
      vertex 19.8 4.2 0
    endloop
  endfacet
  facet normal -1 -0 0
    outer loop
      vertex 19.8 4.2 10.8
      vertex 19.8 1.2 0
      vertex 19.8 1.2 10.8
    endloop
  endfacet
  facet normal 0 1 -0
    outer loop
      vertex 22.8 4.2 0
      vertex 19.8 4.2 10.8
      vertex 22.8 4.2 10.8
    endloop
  endfacet
  facet normal 0 1 0
    outer loop
      vertex 19.8 4.2 10.8
      vertex 22.8 4.2 0
      vertex 19.8 4.2 0
    endloop
  endfacet
  facet normal 0 0 -1
    outer loop
      vertex 19.8 9.8 0
      vertex 22.8 12.8 0
      vertex 22.8 9.8 0
    endloop
  endfacet
  facet normal -0 0 -1
    outer loop
      vertex 22.8 12.8 0
      vertex 19.8 9.8 0
      vertex 19.8 12.8 0
    endloop
  endfacet
  facet normal -1 0 0
    outer loop
      vertex 19.8 9.8 0
      vertex 19.8 12.8 10.8
      vertex 19.8 12.8 0
    endloop
  endfacet
  facet normal -1 -0 0
    outer loop
      vertex 19.8 12.8 10.8
      vertex 19.8 9.8 0
      vertex 19.8 9.8 10.8
    endloop
  endfacet
  facet normal 0 -1 0
    outer loop
      vertex 19.8 9.8 0
      vertex 22.8 9.8 10.8
      vertex 19.8 9.8 10.8
    endloop
  endfacet
  facet normal 0 -1 -0
    outer loop
      vertex 22.8 9.8 10.8
      vertex 19.8 9.8 0
      vertex 22.8 9.8 0
    endloop
  endfacet
  facet normal 1 -0 0
    outer loop
      vertex 24 0 15
      vertex 24 14 13
      vertex 24 14 15
    endloop
  endfacet
  facet normal 1 0 0
    outer loop
      vertex 24 14 13
      vertex 24 0 15
      vertex 24 0 13
    endloop
  endfacet
  facet normal 0 0 -1
    outer loop
      vertex 24 0 13
      vertex 22.8 1.2 13
      vertex 24 14 13
    endloop
  endfacet
  facet normal 0 0 -1
    outer loop
      vertex 24 0 13
      vertex 1.2 1.2 13
      vertex 22.8 1.2 13
    endloop
  endfacet
  facet normal -0 0 -1
    outer loop
      vertex 1.2 1.2 13
      vertex 0 0 13
      vertex 1.2 12.8 13
    endloop
  endfacet
  facet normal 0 0 -1
    outer loop
      vertex 0 0 13
      vertex 1.2 1.2 13
      vertex 24 0 13
    endloop
  endfacet
  facet normal 0 0 -1
    outer loop
      vertex 22.8 12.8 13
      vertex 24 14 13
      vertex 22.8 1.2 13
    endloop
  endfacet
  facet normal 0 0 -1
    outer loop
      vertex 1.2 12.8 13
      vertex 24 14 13
      vertex 22.8 12.8 13
    endloop
  endfacet
  facet normal 0 0 -1
    outer loop
      vertex 1.2 12.8 13
      vertex 0 14 13
      vertex 24 14 13
    endloop
  endfacet
  facet normal 0 0 -1
    outer loop
      vertex 0 14 13
      vertex 1.2 12.8 13
      vertex 0 0 13
    endloop
  endfacet
  facet normal -1 0 0
    outer loop
      vertex 0 0 13
      vertex 0 14 15
      vertex 0 14 13
    endloop
  endfacet
  facet normal -1 -0 0
    outer loop
      vertex 0 14 15
      vertex 0 0 13
      vertex 0 0 15
    endloop
  endfacet
  facet normal 0 1 0
    outer loop
      vertex 24 14 15
      vertex 20.25 14 14.6
      vertex 20.25 14 15
    endloop
  endfacet
  facet normal 0 1 0
    outer loop
      vertex 24 14 13
      vertex 19.75 14 14.6
      vertex 20.25 14 14.6
    endloop
  endfacet
  facet normal 0 1 0
    outer loop
      vertex 19.75 14 14.6
      vertex 24 14 13
      vertex 16.25 14 14.6
    endloop
  endfacet
  facet normal 0 1 0
    outer loop
      vertex 16.25 14 14.6
      vertex 24 14 13
      vertex 15.75 14 14.6
    endloop
  endfacet
  facet normal 0 1 0
    outer loop
      vertex 15.75 14 14.6
      vertex 24 14 13
      vertex 12.25 14 14.6
    endloop
  endfacet
  facet normal 0 1 0
    outer loop
      vertex 12.25 14 14.6
      vertex 24 14 13
      vertex 11.75 14 14.6
    endloop
  endfacet
  facet normal 0 1 0
    outer loop
      vertex 0 14 13
      vertex 11.75 14 14.6
      vertex 24 14 13
    endloop
  endfacet
  facet normal 0 1 0
    outer loop
      vertex 11.75 14 14.6
      vertex 0 14 13
      vertex 8.25 14 14.6
    endloop
  endfacet
  facet normal 0 1 0
    outer loop
      vertex 8.25 14 14.6
      vertex 0 14 13
      vertex 7.75 14 14.6
    endloop
  endfacet
  facet normal 0 1 0
    outer loop
      vertex 7.75 14 14.6
      vertex 0 14 13
      vertex 4.25 14 14.6
    endloop
  endfacet
  facet normal 0 1 -0
    outer loop
      vertex 24 14 13
      vertex 20.25 14 14.6
      vertex 24 14 15
    endloop
  endfacet
  facet normal 0 1 -0
    outer loop
      vertex 19.75 14 14.6
      vertex 16.25 14 15
      vertex 19.75 14 15
    endloop
  endfacet
  facet normal 0 1 0
    outer loop
      vertex 16.25 14 15
      vertex 19.75 14 14.6
      vertex 16.25 14 14.6
    endloop
  endfacet
  facet normal 0 1 -0
    outer loop
      vertex 15.75 14 14.6
      vertex 12.25 14 15
      vertex 15.75 14 15
    endloop
  endfacet
  facet normal 0 1 0
    outer loop
      vertex 12.25 14 15
      vertex 15.75 14 14.6
      vertex 12.25 14 14.6
    endloop
  endfacet
  facet normal 0 1 -0
    outer loop
      vertex 11.75 14 14.6
      vertex 8.25 14 15
      vertex 11.75 14 15
    endloop
  endfacet
  facet normal 0 1 0
    outer loop
      vertex 8.25 14 15
      vertex 11.75 14 14.6
      vertex 8.25 14 14.6
    endloop
  endfacet
  facet normal 0 1 -0
    outer loop
      vertex 7.75 14 14.6
      vertex 4.25 14 15
      vertex 7.75 14 15
    endloop
  endfacet
  facet normal 0 1 0
    outer loop
      vertex 4.25 14 15
      vertex 7.75 14 14.6
      vertex 4.25 14 14.6
    endloop
  endfacet
  facet normal 0 1 -0
    outer loop
      vertex 3.75 14 14.6
      vertex 0 14 15
      vertex 3.75 14 15
    endloop
  endfacet
  facet normal 0 1 0
    outer loop
      vertex 3.75 14 14.6
      vertex 0 14 13
      vertex 0 14 15
    endloop
  endfacet
  facet normal 0 1 0
    outer loop
      vertex 4.25 14 14.6
      vertex 0 14 13
      vertex 3.75 14 14.6
    endloop
  endfacet
  facet normal 0 -1 0
    outer loop
      vertex 0 0 15
      vertex 3.75 0 14.6
      vertex 3.75 0 15
    endloop
  endfacet
  facet normal 0 -1 0
    outer loop
      vertex 0 0 13
      vertex 4.25 0 14.6
      vertex 3.75 0 14.6
    endloop
  endfacet
  facet normal 0 -1 -0
    outer loop
      vertex 4.25 0 14.6
      vertex 0 0 13
      vertex 7.75 0 14.6
    endloop
  endfacet
  facet normal 0 -1 -0
    outer loop
      vertex 7.75 0 14.6
      vertex 0 0 13
      vertex 8.25 0 14.6
    endloop
  endfacet
  facet normal 0 -1 -0
    outer loop
      vertex 8.25 0 14.6
      vertex 0 0 13
      vertex 11.75 0 14.6
    endloop
  endfacet
  facet normal 0 -1 -0
    outer loop
      vertex 11.75 0 14.6
      vertex 0 0 13
      vertex 12.25 0 14.6
    endloop
  endfacet
  facet normal 0 -1 0
    outer loop
      vertex 24 0 13
      vertex 12.25 0 14.6
      vertex 0 0 13
    endloop
  endfacet
  facet normal 0 -1 0
    outer loop
      vertex 12.25 0 14.6
      vertex 24 0 13
      vertex 15.75 0 14.6
    endloop
  endfacet
  facet normal 0 -1 0
    outer loop
      vertex 15.75 0 14.6
      vertex 24 0 13
      vertex 16.25 0 14.6
    endloop
  endfacet
  facet normal 0 -1 0
    outer loop
      vertex 16.25 0 14.6
      vertex 24 0 13
      vertex 19.75 0 14.6
    endloop
  endfacet
  facet normal 0 -1 0
    outer loop
      vertex 0 0 13
      vertex 3.75 0 14.6
      vertex 0 0 15
    endloop
  endfacet
  facet normal 0 -1 0
    outer loop
      vertex 4.25 0 14.6
      vertex 7.75 0 15
      vertex 4.25 0 15
    endloop
  endfacet
  facet normal 0 -1 -0
    outer loop
      vertex 7.75 0 15
      vertex 4.25 0 14.6
      vertex 7.75 0 14.6
    endloop
  endfacet
  facet normal 0 -1 0
    outer loop
      vertex 8.25 0 14.6
      vertex 11.75 0 15
      vertex 8.25 0 15
    endloop
  endfacet
  facet normal 0 -1 -0
    outer loop
      vertex 11.75 0 15
      vertex 8.25 0 14.6
      vertex 11.75 0 14.6
    endloop
  endfacet
  facet normal 0 -1 0
    outer loop
      vertex 12.25 0 14.6
      vertex 15.75 0 15
      vertex 12.25 0 15
    endloop
  endfacet
  facet normal 0 -1 -0
    outer loop
      vertex 15.75 0 15
      vertex 12.25 0 14.6
      vertex 15.75 0 14.6
    endloop
  endfacet
  facet normal 0 -1 0
    outer loop
      vertex 16.25 0 14.6
      vertex 19.75 0 15
      vertex 16.25 0 15
    endloop
  endfacet
  facet normal 0 -1 -0
    outer loop
      vertex 19.75 0 15
      vertex 16.25 0 14.6
      vertex 19.75 0 14.6
    endloop
  endfacet
  facet normal 0 -1 0
    outer loop
      vertex 20.25 0 14.6
      vertex 24 0 15
      vertex 20.25 0 15
    endloop
  endfacet
  facet normal 0 -1 0
    outer loop
      vertex 20.25 0 14.6
      vertex 24 0 13
      vertex 24 0 15
    endloop
  endfacet
  facet normal 0 -1 0
    outer loop
      vertex 19.75 0 14.6
      vertex 24 0 13
      vertex 20.25 0 14.6
    endloop
  endfacet
  facet normal 0 0 -1
    outer loop
      vertex 1.2 4.2 10.8
      vertex 4.2 9.8 10.8
      vertex 4.2 4.2 10.8
    endloop
  endfacet
  facet normal -0 0 -1
    outer loop
      vertex 4.2 9.8 10.8
      vertex 1.2 4.2 10.8
      vertex 1.2 9.8 10.8
    endloop
  endfacet
  facet normal 0 0 -1
    outer loop
      vertex 4.2 4.2 10.8
      vertex 19.8 4.2 10.8
      vertex 19.8 1.2 10.8
    endloop
  endfacet
  facet normal 0 0 -1
    outer loop
      vertex 19.8 4.2 10.8
      vertex 4.2 4.2 10.8
      vertex 19.8 9.8 10.8
    endloop
  endfacet
  facet normal 0 0 -1
    outer loop
      vertex 4.2 4.2 10.8
      vertex 19.8 1.2 10.8
      vertex 4.2 1.2 10.8
    endloop
  endfacet
  facet normal 0 0 -1
    outer loop
      vertex 4.2 9.8 10.8
      vertex 19.8 9.8 10.8
      vertex 4.2 4.2 10.8
    endloop
  endfacet
  facet normal 0 0 -1
    outer loop
      vertex 19.8 9.8 10.8
      vertex 4.2 9.8 10.8
      vertex 19.8 12.8 10.8
    endloop
  endfacet
  facet normal -0 0 -1
    outer loop
      vertex 19.8 12.8 10.8
      vertex 4.2 9.8 10.8
      vertex 4.2 12.8 10.8
    endloop
  endfacet
  facet normal 0 0 -1
    outer loop
      vertex 19.8 4.2 10.8
      vertex 22.8 9.8 10.8
      vertex 22.8 4.2 10.8
    endloop
  endfacet
  facet normal -0 0 -1
    outer loop
      vertex 22.8 9.8 10.8
      vertex 19.8 4.2 10.8
      vertex 19.8 9.8 10.8
    endloop
  endfacet
  facet normal -1 0 0
    outer loop
      vertex 4.25 0 14.6
      vertex 4.25 14 15
      vertex 4.25 14 14.6
    endloop
  endfacet
  facet normal -1 -0 0
    outer loop
      vertex 4.25 14 15
      vertex 4.25 0 14.6
      vertex 4.25 0 15
    endloop
  endfacet
  facet normal -0 0 1
    outer loop
      vertex 3.75 14 14.6
      vertex 4.25 0 14.6
      vertex 4.25 14 14.6
    endloop
  endfacet
  facet normal 0 0 1
    outer loop
      vertex 4.25 0 14.6
      vertex 3.75 14 14.6
      vertex 3.75 0 14.6
    endloop
  endfacet
  facet normal 1 -0 0
    outer loop
      vertex 3.75 0 15
      vertex 3.75 14 14.6
      vertex 3.75 14 15
    endloop
  endfacet
  facet normal 1 0 0
    outer loop
      vertex 3.75 14 14.6
      vertex 3.75 0 15
      vertex 3.75 0 14.6
    endloop
  endfacet
  facet normal -1 0 0
    outer loop
      vertex 8.25 0 14.6
      vertex 8.25 14 15
      vertex 8.25 14 14.6
    endloop
  endfacet
  facet normal -1 -0 0
    outer loop
      vertex 8.25 14 15
      vertex 8.25 0 14.6
      vertex 8.25 0 15
    endloop
  endfacet
  facet normal -0 0 1
    outer loop
      vertex 7.75 14 14.6
      vertex 8.25 0 14.6
      vertex 8.25 14 14.6
    endloop
  endfacet
  facet normal 0 0 1
    outer loop
      vertex 8.25 0 14.6
      vertex 7.75 14 14.6
      vertex 7.75 0 14.6
    endloop
  endfacet
  facet normal 1 -0 0
    outer loop
      vertex 7.75 0 15
      vertex 7.75 14 14.6
      vertex 7.75 14 15
    endloop
  endfacet
  facet normal 1 0 0
    outer loop
      vertex 7.75 14 14.6
      vertex 7.75 0 15
      vertex 7.75 0 14.6
    endloop
  endfacet
  facet normal -1 0 0
    outer loop
      vertex 12.25 0 14.6
      vertex 12.25 14 15
      vertex 12.25 14 14.6
    endloop
  endfacet
  facet normal -1 -0 0
    outer loop
      vertex 12.25 14 15
      vertex 12.25 0 14.6
      vertex 12.25 0 15
    endloop
  endfacet
  facet normal -0 0 1
    outer loop
      vertex 11.75 14 14.6
      vertex 12.25 0 14.6
      vertex 12.25 14 14.6
    endloop
  endfacet
  facet normal 0 0 1
    outer loop
      vertex 12.25 0 14.6
      vertex 11.75 14 14.6
      vertex 11.75 0 14.6
    endloop
  endfacet
  facet normal 1 -0 0
    outer loop
      vertex 11.75 0 15
      vertex 11.75 14 14.6
      vertex 11.75 14 15
    endloop
  endfacet
  facet normal 1 0 0
    outer loop
      vertex 11.75 14 14.6
      vertex 11.75 0 15
      vertex 11.75 0 14.6
    endloop
  endfacet
  facet normal -1 0 0
    outer loop
      vertex 16.25 0 14.6
      vertex 16.25 14 15
      vertex 16.25 14 14.6
    endloop
  endfacet
  facet normal -1 -0 0
    outer loop
      vertex 16.25 14 15
      vertex 16.25 0 14.6
      vertex 16.25 0 15
    endloop
  endfacet
  facet normal -0 0 1
    outer loop
      vertex 15.75 14 14.6
      vertex 16.25 0 14.6
      vertex 16.25 14 14.6
    endloop
  endfacet
  facet normal 0 0 1
    outer loop
      vertex 16.25 0 14.6
      vertex 15.75 14 14.6
      vertex 15.75 0 14.6
    endloop
  endfacet
  facet normal 1 -0 0
    outer loop
      vertex 15.75 0 15
      vertex 15.75 14 14.6
      vertex 15.75 14 15
    endloop
  endfacet
  facet normal 1 0 0
    outer loop
      vertex 15.75 14 14.6
      vertex 15.75 0 15
      vertex 15.75 0 14.6
    endloop
  endfacet
  facet normal -1 0 0
    outer loop
      vertex 20.25 0 14.6
      vertex 20.25 14 15
      vertex 20.25 14 14.6
    endloop
  endfacet
  facet normal -1 -0 0
    outer loop
      vertex 20.25 14 15
      vertex 20.25 0 14.6
      vertex 20.25 0 15
    endloop
  endfacet
  facet normal -0 0 1
    outer loop
      vertex 19.75 14 14.6
      vertex 20.25 0 14.6
      vertex 20.25 14 14.6
    endloop
  endfacet
  facet normal 0 0 1
    outer loop
      vertex 20.25 0 14.6
      vertex 19.75 14 14.6
      vertex 19.75 0 14.6
    endloop
  endfacet
  facet normal 1 -0 0
    outer loop
      vertex 19.75 0 15
      vertex 19.75 14 14.6
      vertex 19.75 14 15
    endloop
  endfacet
  facet normal 1 0 0
    outer loop
      vertex 19.75 14 14.6
      vertex 19.75 0 15
      vertex 19.75 0 14.6
    endloop
  endfacet
endsolid OpenSCAD_Model
