solid OpenSCAD_Model
  facet normal 1 -0 0
    outer loop
      vertex 22 0 34.8
      vertex 22 11 0
      vertex 22 11 34.8
    endloop
  endfacet
  facet normal 1 0 0
    outer loop
      vertex 22 11 0
      vertex 22 0 34.8
      vertex 22 0 0
    endloop
  endfacet
  facet normal 0 0 -1
    outer loop
      vertex 0 0 0
      vertex 22 11 0
      vertex 22 0 0
    endloop
  endfacet
  facet normal -0 0 -1
    outer loop
      vertex 22 11 0
      vertex 0 0 0
      vertex 0 11 0
    endloop
  endfacet
  facet normal -1 0 0
    outer loop
      vertex 0 0 0
      vertex 0 11 34.8
      vertex 0 11 0
    endloop
  endfacet
  facet normal -1 -0 0
    outer loop
      vertex 0 11 34.8
      vertex 0 0 0
      vertex 0 0 34.8
    endloop
  endfacet
  facet normal 0 1 -0
    outer loop
      vertex 22 11 0
      vertex 0 11 34.8
      vertex 22 11 34.8
    endloop
  endfacet
  facet normal 0 1 0
    outer loop
      vertex 0 11 34.8
      vertex 22 11 0
      vertex 0 11 0
    endloop
  endfacet
  facet normal 0 -1 0
    outer loop
      vertex 11.3 0 32.5
      vertex 12 0 4
      vertex 12 0 30
    endloop
  endfacet
  facet normal 0 -1 -0
    outer loop
      vertex 12 0 4
      vertex 11.3 0 1.5
      vertex 20 0 4
    endloop
  endfacet
  facet normal 0 -1 0
    outer loop
      vertex 11.3 0 1.5
      vertex 12 0 4
      vertex 11.3 0 32.5
    endloop
  endfacet
  facet normal 0 -1 0
    outer loop
      vertex 0 0 34.8
      vertex 10.7 0 32.5
      vertex 22 0 34.8
    endloop
  endfacet
  facet normal 0 -1 0
    outer loop
      vertex 0 0 34.8
      vertex 2 0 30
      vertex 10.7 0 32.5
    endloop
  endfacet
  facet normal 0 -1 0
    outer loop
      vertex 0 0 0
      vertex 2 0 30
      vertex 0 0 34.8
    endloop
  endfacet
  facet normal 0 -1 0
    outer loop
      vertex 2 0 4
      vertex 10.7 0 1.5
      vertex 10 0 4
    endloop
  endfacet
  facet normal 0 -1 -0
    outer loop
      vertex 10.7 0 1.5
      vertex 0 0 0
      vertex 11.3 0 1.5
    endloop
  endfacet
  facet normal 0 -1 -0
    outer loop
      vertex 2 0 4
      vertex 0 0 0
      vertex 10.7 0 1.5
    endloop
  endfacet
  facet normal 0 -1 -0
    outer loop
      vertex 2 0 30
      vertex 0 0 0
      vertex 2 0 4
    endloop
  endfacet
  facet normal 0 -1 0
    outer loop
      vertex 11.3 0 32.5
      vertex 22 0 34.8
      vertex 10.7 0 32.5
    endloop
  endfacet
  facet normal 0 -1 0
    outer loop
      vertex 20 0 30
      vertex 11.3 0 32.5
      vertex 12 0 30
    endloop
  endfacet
  facet normal 0 -1 0
    outer loop
      vertex 11.3 0 32.5
      vertex 20 0 30
      vertex 22 0 34.8
    endloop
  endfacet
  facet normal 0 -1 0
    outer loop
      vertex 22 0 0
      vertex 20 0 30
      vertex 20 0 4
    endloop
  endfacet
  facet normal 0 -1 0
    outer loop
      vertex 20 0 30
      vertex 22 0 0
      vertex 22 0 34.8
    endloop
  endfacet
  facet normal 0 -1 0
    outer loop
      vertex 11.3 0 1.5
      vertex 22 0 0
      vertex 20 0 4
    endloop
  endfacet
  facet normal 0 -1 0
    outer loop
      vertex 22 0 0
      vertex 11.3 0 1.5
      vertex 0 0 0
    endloop
  endfacet
  facet normal 0 -1 0
    outer loop
      vertex 10 0 30
      vertex 10.7 0 32.5
      vertex 2 0 30
    endloop
  endfacet
  facet normal 0 -1 0
    outer loop
      vertex 10 0 4
      vertex 10.7 0 32.5
      vertex 10 0 30
    endloop
  endfacet
  facet normal 0 -1 -0
    outer loop
      vertex 10.7 0 32.5
      vertex 10 0 4
      vertex 10.7 0 1.5
    endloop
  endfacet
  facet normal 0 -1 0
    outer loop
      vertex -1 -1 35.99
      vertex 23 -1 36
      vertex -1 -1 36
    endloop
  endfacet
  facet normal 0 -1 -0
    outer loop
      vertex 23 -1 36
      vertex -1 -1 35.99
      vertex 23 -1 35.99
    endloop
  endfacet
  facet normal 1 -0 0
    outer loop
      vertex 23 -1 36
      vertex 23 12 35.99
      vertex 23 12 36
    endloop
  endfacet
  facet normal 1 0 0
    outer loop
      vertex 23 12 35.99
      vertex 23 -1 36
      vertex 23 -1 35.99
    endloop
  endfacet
  facet normal -0.765578 0 -0.643343
    outer loop
      vertex 0 0 34.8
      vertex -1 12 35.99
      vertex 0 11 34.8
    endloop
  endfacet
  facet normal -0.765578 -0 -0.643343
    outer loop
      vertex -1 12 35.99
      vertex 0 0 34.8
      vertex -1 -1 35.99
    endloop
  endfacet
  facet normal 0 1 -0
    outer loop
      vertex 23 12 35.99
      vertex -1 12 36
      vertex 23 12 36
    endloop
  endfacet
  facet normal 0 1 0
    outer loop
      vertex -1 12 36
      vertex 23 12 35.99
      vertex -1 12 35.99
    endloop
  endfacet
  facet normal -0 0 1
    outer loop
      vertex -1 12 36
      vertex 23 -1 36
      vertex 23 12 36
    endloop
  endfacet
  facet normal 0 0 1
    outer loop
      vertex 23 -1 36
      vertex -1 12 36
      vertex -1 -1 36
    endloop
  endfacet
  facet normal -1 0 0
    outer loop
      vertex -1 -1 35.99
      vertex -1 12 36
      vertex -1 12 35.99
    endloop
  endfacet
  facet normal -1 -0 0
    outer loop
      vertex -1 12 36
      vertex -1 -1 35.99
      vertex -1 -1 36
    endloop
  endfacet
  facet normal 0 -0.765578 -0.643343
    outer loop
      vertex 0 0 34.8
      vertex 23 -1 35.99
      vertex -1 -1 35.99
    endloop
  endfacet
  facet normal 0 -0.765578 -0.643343
    outer loop
      vertex 23 -1 35.99
      vertex 0 0 34.8
      vertex 22 0 34.8
    endloop
  endfacet
  facet normal 0.765578 0 -0.643343
    outer loop
      vertex 23 12 35.99
      vertex 22 0 34.8
      vertex 22 11 34.8
    endloop
  endfacet
  facet normal 0.765578 0 -0.643343
    outer loop
      vertex 22 0 34.8
      vertex 23 12 35.99
      vertex 23 -1 35.99
    endloop
  endfacet
  facet normal 0 0.765578 -0.643343
    outer loop
      vertex 22 11 34.8
      vertex -1 12 35.99
      vertex 23 12 35.99
    endloop
  endfacet
  facet normal 0 0.765578 -0.643343
    outer loop
      vertex -1 12 35.99
      vertex 22 11 34.8
      vertex 0 11 34.8
    endloop
  endfacet
  facet normal -1 0 0
    outer loop
      vertex 10 0 4
      vertex 10 0.5 30
      vertex 10 0.5 4
    endloop
  endfacet
  facet normal -1 -0 0
    outer loop
      vertex 10 0.5 30
      vertex 10 0 4
      vertex 10 0 30
    endloop
  endfacet
  facet normal 0 0 -1
    outer loop
      vertex 2 0 30
      vertex 10 0.5 30
      vertex 10 0 30
    endloop
  endfacet
  facet normal -0 0 -1
    outer loop
      vertex 10 0.5 30
      vertex 2 0 30
      vertex 2 0.5 30
    endloop
  endfacet
  facet normal -0 0 1
    outer loop
      vertex 2 0.5 4
      vertex 10 0 4
      vertex 10 0.5 4
    endloop
  endfacet
  facet normal 0 0 1
    outer loop
      vertex 10 0 4
      vertex 2 0.5 4
      vertex 2 0 4
    endloop
  endfacet
  facet normal 1 -0 0
    outer loop
      vertex 2 0 30
      vertex 2 0.5 4
      vertex 2 0.5 30
    endloop
  endfacet
  facet normal 1 0 0
    outer loop
      vertex 2 0.5 4
      vertex 2 0 30
      vertex 2 0 4
    endloop
  endfacet
  facet normal 0 -1 0
    outer loop
      vertex 8.85359 0.5 19.3256
      vertex 10 0.5 30
      vertex 2 0.5 30
    endloop
  endfacet
  facet normal 0 -1 0
    outer loop
      vertex 10 0.5 30
      vertex 9.19411 0.5 19.4401
      vertex 9.2 0.5 19.441
    endloop
  endfacet
  facet normal 0 -1 0
    outer loop
      vertex 10 0.5 30
      vertex 9.08453 0.5 19.4232
      vertex 9.19411 0.5 19.4401
    endloop
  endfacet
  facet normal 0 -1 0
    outer loop
      vertex 10 0.5 30
      vertex 8.85359 0.5 19.3256
      vertex 9.08453 0.5 19.4232
    endloop
  endfacet
  facet normal 0 -1 0
    outer loop
      vertex 2 0.5 30
      vertex 8.80588 0.5 19.298
      vertex 8.85359 0.5 19.3256
    endloop
  endfacet
  facet normal 0 -1 0
    outer loop
      vertex 2 0.5 30
      vertex 8.72326 0.5 19.2503
      vertex 8.80588 0.5 19.298
    endloop
  endfacet
  facet normal 0 -1 0
    outer loop
      vertex 2 0.5 30
      vertex 8.67556 0.5 19.1677
      vertex 8.72326 0.5 19.2503
    endloop
  endfacet
  facet normal 0 -1 0
    outer loop
      vertex 2 0.5 30
      vertex 8.52915 0.5 18.9141
      vertex 8.67556 0.5 19.1677
    endloop
  endfacet
  facet normal 0 -1 0
    outer loop
      vertex 2 0.5 30
      vertex 8.52915 0.5 18.5259
      vertex 8.52915 0.5 18.9141
    endloop
  endfacet
  facet normal 0 1 0
    outer loop
      vertex 9.08453 0.5 18.0168
      vertex 9.2 0.5 17.999
      vertex 9.19411 0.5 17.9999
    endloop
  endfacet
  facet normal 0 -1 0
    outer loop
      vertex 10 0.5 4
      vertex 9.08453 0.5 18.0168
      vertex 2 0.5 4
    endloop
  endfacet
  facet normal 0 -1 -0
    outer loop
      vertex 8.85359 0.5 18.1144
      vertex 2 0.5 4
      vertex 9.08453 0.5 18.0168
    endloop
  endfacet
  facet normal 0 -1 -0
    outer loop
      vertex 8.80588 0.5 18.142
      vertex 2 0.5 4
      vertex 8.85359 0.5 18.1144
    endloop
  endfacet
  facet normal 0 -1 -0
    outer loop
      vertex 8.72326 0.5 18.1897
      vertex 2 0.5 4
      vertex 8.80588 0.5 18.142
    endloop
  endfacet
  facet normal 0 -1 -0
    outer loop
      vertex 8.67556 0.5 18.2723
      vertex 2 0.5 4
      vertex 8.72326 0.5 18.1897
    endloop
  endfacet
  facet normal 0 -1 -0
    outer loop
      vertex 8.52915 0.5 18.5259
      vertex 2 0.5 4
      vertex 8.67556 0.5 18.2723
    endloop
  endfacet
  facet normal 0 -1 0
    outer loop
      vertex 2 0.5 4
      vertex 8.52915 0.5 18.5259
      vertex 2 0.5 30
    endloop
  endfacet
  facet normal 0 -1 0
    outer loop
      vertex 9.20589 0.5 19.4401
      vertex 10 0.5 30
      vertex 9.2 0.5 19.441
    endloop
  endfacet
  facet normal 0 -1 0
    outer loop
      vertex 9.31547 0.5 19.4232
      vertex 10 0.5 30
      vertex 9.20589 0.5 19.4401
    endloop
  endfacet
  facet normal 0 -1 0
    outer loop
      vertex 9.39569 0.5 19.3893
      vertex 10 0.5 30
      vertex 9.31547 0.5 19.4232
    endloop
  endfacet
  facet normal 0 -1 0
    outer loop
      vertex 9.54641 0.5 19.3256
      vertex 10 0.5 30
      vertex 9.39569 0.5 19.3893
    endloop
  endfacet
  facet normal 0 -1 0
    outer loop
      vertex 9.67674 0.5 19.2503
      vertex 10 0.5 30
      vertex 9.54641 0.5 19.3256
    endloop
  endfacet
  facet normal 0 -1 0
    outer loop
      vertex 9.72444 0.5 19.1677
      vertex 10 0.5 30
      vertex 9.67674 0.5 19.2503
    endloop
  endfacet
  facet normal 0 -1 0
    outer loop
      vertex 9.87085 0.5 18.9141
      vertex 10 0.5 30
      vertex 9.72444 0.5 19.1677
    endloop
  endfacet
  facet normal 0 -1 0
    outer loop
      vertex 9.87085 0.5 18.5259
      vertex 10 0.5 30
      vertex 9.87085 0.5 18.9141
    endloop
  endfacet
  facet normal 0 1 0
    outer loop
      vertex 9.2 0.5 17.999
      vertex 9.31547 0.5 18.0168
      vertex 9.20589 0.5 17.9999
    endloop
  endfacet
  facet normal 0 -1 0
    outer loop
      vertex 9.08453 0.5 18.0168
      vertex 10 0.5 4
      vertex 9.2 0.5 17.999
    endloop
  endfacet
  facet normal 0 -1 0
    outer loop
      vertex 9.2 0.5 17.999
      vertex 10 0.5 4
      vertex 9.31547 0.5 18.0168
    endloop
  endfacet
  facet normal 0 -1 0
    outer loop
      vertex 9.31547 0.5 18.0168
      vertex 10 0.5 4
      vertex 9.39569 0.5 18.0507
    endloop
  endfacet
  facet normal 0 -1 0
    outer loop
      vertex 9.39569 0.5 18.0507
      vertex 10 0.5 4
      vertex 9.54641 0.5 18.1144
    endloop
  endfacet
  facet normal 0 -1 0
    outer loop
      vertex 9.54641 0.5 18.1144
      vertex 10 0.5 4
      vertex 9.67674 0.5 18.1897
    endloop
  endfacet
  facet normal 0 -1 0
    outer loop
      vertex 9.67674 0.5 18.1897
      vertex 10 0.5 4
      vertex 9.72444 0.5 18.2723
    endloop
  endfacet
  facet normal 0 -1 0
    outer loop
      vertex 9.87085 0.5 18.5259
      vertex 10 0.5 4
      vertex 10 0.5 30
    endloop
  endfacet
  facet normal 0 -1 0
    outer loop
      vertex 9.72444 0.5 18.2723
      vertex 10 0.5 4
      vertex 9.87085 0.5 18.5259
    endloop
  endfacet
  facet normal -1 0 0
    outer loop
      vertex 20 0 4
      vertex 20 0.5 30
      vertex 20 0.5 4
    endloop
  endfacet
  facet normal -1 -0 0
    outer loop
      vertex 20 0.5 30
      vertex 20 0 4
      vertex 20 0 30
    endloop
  endfacet
  facet normal 0 0 -1
    outer loop
      vertex 12 0 30
      vertex 20 0.5 30
      vertex 20 0 30
    endloop
  endfacet
  facet normal -0 0 -1
    outer loop
      vertex 20 0.5 30
      vertex 12 0 30
      vertex 12 0.5 30
    endloop
  endfacet
  facet normal -0 0 1
    outer loop
      vertex 12 0.5 4
      vertex 20 0 4
      vertex 20 0.5 4
    endloop
  endfacet
  facet normal 0 0 1
    outer loop
      vertex 20 0 4
      vertex 12 0.5 4
      vertex 12 0 4
    endloop
  endfacet
  facet normal 1 -0 0
    outer loop
      vertex 12 0 30
      vertex 12 0.5 4
      vertex 12 0.5 30
    endloop
  endfacet
  facet normal 1 0 0
    outer loop
      vertex 12 0.5 4
      vertex 12 0 30
      vertex 12 0 4
    endloop
  endfacet
  facet normal 0 -1 0
    outer loop
      vertex 12.8059 0.5 19.4401
      vertex 12 0.5 30
      vertex 12.8 0.5 19.441
    endloop
  endfacet
  facet normal 0 -1 0
    outer loop
      vertex 12 0.5 30
      vertex 12.7941 0.5 19.4401
      vertex 12.8 0.5 19.441
    endloop
  endfacet
  facet normal 0 -1 0
    outer loop
      vertex 12 0.5 30
      vertex 12.6845 0.5 19.4232
      vertex 12.7941 0.5 19.4401
    endloop
  endfacet
  facet normal 0 -1 0
    outer loop
      vertex 12 0.5 30
      vertex 12.6043 0.5 19.3893
      vertex 12.6845 0.5 19.4232
    endloop
  endfacet
  facet normal 0 -1 0
    outer loop
      vertex 12 0.5 30
      vertex 12.4536 0.5 19.3256
      vertex 12.6043 0.5 19.3893
    endloop
  endfacet
  facet normal 0 -1 0
    outer loop
      vertex 12 0.5 30
      vertex 12.3233 0.5 19.2503
      vertex 12.4536 0.5 19.3256
    endloop
  endfacet
  facet normal 0 -1 0
    outer loop
      vertex 12 0.5 30
      vertex 12.2756 0.5 19.1677
      vertex 12.3233 0.5 19.2503
    endloop
  endfacet
  facet normal 0 -1 0
    outer loop
      vertex 12 0.5 30
      vertex 12.1291 0.5 18.9141
      vertex 12.2756 0.5 19.1677
    endloop
  endfacet
  facet normal 0 -1 0
    outer loop
      vertex 12 0.5 30
      vertex 12.1291 0.5 18.5259
      vertex 12.1291 0.5 18.9141
    endloop
  endfacet
  facet normal 0 1 0
    outer loop
      vertex 12.6845 0.5 18.0168
      vertex 12.8 0.5 17.999
      vertex 12.7941 0.5 17.9999
    endloop
  endfacet
  facet normal 0 -1 -0
    outer loop
      vertex 12.6845 0.5 18.0168
      vertex 12 0.5 4
      vertex 12.8 0.5 17.999
    endloop
  endfacet
  facet normal 0 -1 -0
    outer loop
      vertex 12.6043 0.5 18.0507
      vertex 12 0.5 4
      vertex 12.6845 0.5 18.0168
    endloop
  endfacet
  facet normal 0 -1 -0
    outer loop
      vertex 12.4536 0.5 18.1144
      vertex 12 0.5 4
      vertex 12.6043 0.5 18.0507
    endloop
  endfacet
  facet normal 0 -1 -0
    outer loop
      vertex 12.3233 0.5 18.1897
      vertex 12 0.5 4
      vertex 12.4536 0.5 18.1144
    endloop
  endfacet
  facet normal 0 -1 -0
    outer loop
      vertex 12.2756 0.5 18.2723
      vertex 12 0.5 4
      vertex 12.3233 0.5 18.1897
    endloop
  endfacet
  facet normal 0 -1 -0
    outer loop
      vertex 12.1291 0.5 18.5259
      vertex 12 0.5 4
      vertex 12.2756 0.5 18.2723
    endloop
  endfacet
  facet normal 0 -1 0
    outer loop
      vertex 12 0.5 4
      vertex 12.1291 0.5 18.5259
      vertex 12 0.5 30
    endloop
  endfacet
  facet normal 0 -1 0
    outer loop
      vertex 12.9155 0.5 19.4232
      vertex 12 0.5 30
      vertex 12.8059 0.5 19.4401
    endloop
  endfacet
  facet normal 0 -1 0
    outer loop
      vertex 13.1464 0.5 19.3256
      vertex 12 0.5 30
      vertex 12.9155 0.5 19.4232
    endloop
  endfacet
  facet normal 0 -1 0
    outer loop
      vertex 12 0.5 30
      vertex 13.1464 0.5 19.3256
      vertex 20 0.5 30
    endloop
  endfacet
  facet normal 0 -1 0
    outer loop
      vertex 13.1941 0.5 19.298
      vertex 20 0.5 30
      vertex 13.1464 0.5 19.3256
    endloop
  endfacet
  facet normal 0 -1 0
    outer loop
      vertex 13.2767 0.5 19.2503
      vertex 20 0.5 30
      vertex 13.1941 0.5 19.298
    endloop
  endfacet
  facet normal 0 -1 0
    outer loop
      vertex 13.3244 0.5 19.1677
      vertex 20 0.5 30
      vertex 13.2767 0.5 19.2503
    endloop
  endfacet
  facet normal 0 -1 0
    outer loop
      vertex 13.4709 0.5 18.9141
      vertex 20 0.5 30
      vertex 13.3244 0.5 19.1677
    endloop
  endfacet
  facet normal 0 -1 0
    outer loop
      vertex 13.4709 0.5 18.5259
      vertex 20 0.5 30
      vertex 13.4709 0.5 18.9141
    endloop
  endfacet
  facet normal 0 1 0
    outer loop
      vertex 12.8 0.5 17.999
      vertex 12.9155 0.5 18.0168
      vertex 12.8059 0.5 17.9999
    endloop
  endfacet
  facet normal 0 -1 0
    outer loop
      vertex 12 0.5 4
      vertex 12.9155 0.5 18.0168
      vertex 12.8 0.5 17.999
    endloop
  endfacet
  facet normal 0 -1 0
    outer loop
      vertex 20 0.5 4
      vertex 12.9155 0.5 18.0168
      vertex 12 0.5 4
    endloop
  endfacet
  facet normal 0 -1 0
    outer loop
      vertex 12.9155 0.5 18.0168
      vertex 20 0.5 4
      vertex 13.1464 0.5 18.1144
    endloop
  endfacet
  facet normal 0 -1 0
    outer loop
      vertex 13.1464 0.5 18.1144
      vertex 20 0.5 4
      vertex 13.1941 0.5 18.142
    endloop
  endfacet
  facet normal 0 -1 0
    outer loop
      vertex 13.1941 0.5 18.142
      vertex 20 0.5 4
      vertex 13.2767 0.5 18.1897
    endloop
  endfacet
  facet normal 0 -1 0
    outer loop
      vertex 13.2767 0.5 18.1897
      vertex 20 0.5 4
      vertex 13.3244 0.5 18.2723
    endloop
  endfacet
  facet normal 0 -1 0
    outer loop
      vertex 13.3244 0.5 18.2723
      vertex 20 0.5 4
      vertex 13.4709 0.5 18.5259
    endloop
  endfacet
  facet normal 0 -1 0
    outer loop
      vertex 13.4709 0.5 18.5259
      vertex 20 0.5 4
      vertex 20 0.5 30
    endloop
  endfacet
  facet normal -1 0 0
    outer loop
      vertex 11.3 0 1.5
      vertex 11.3 0.5 32.5
      vertex 11.3 0.5 1.5
    endloop
  endfacet
  facet normal -1 -0 0
    outer loop
      vertex 11.3 0.5 32.5
      vertex 11.3 0 1.5
      vertex 11.3 0 32.5
    endloop
  endfacet
  facet normal 0 0 -1
    outer loop
      vertex 10.7 0 32.5
      vertex 11.3 0.5 32.5
      vertex 11.3 0 32.5
    endloop
  endfacet
  facet normal -0 0 -1
    outer loop
      vertex 11.3 0.5 32.5
      vertex 10.7 0 32.5
      vertex 10.7 0.5 32.5
    endloop
  endfacet
  facet normal -0 0 1
    outer loop
      vertex 10.7 0.5 1.5
      vertex 11.3 0 1.5
      vertex 11.3 0.5 1.5
    endloop
  endfacet
  facet normal 0 0 1
    outer loop
      vertex 11.3 0 1.5
      vertex 10.7 0.5 1.5
      vertex 10.7 0 1.5
    endloop
  endfacet
  facet normal 1 -0 0
    outer loop
      vertex 10.7 0 32.5
      vertex 10.7 0.5 1.5
      vertex 10.7 0.5 32.5
    endloop
  endfacet
  facet normal 1 0 0
    outer loop
      vertex 10.7 0.5 1.5
      vertex 10.7 0 32.5
      vertex 10.7 0 1.5
    endloop
  endfacet
  facet normal 0 -1 0
    outer loop
      vertex 10.7 0.5 1.5
      vertex 11.3 0.5 32.5
      vertex 10.7 0.5 32.5
    endloop
  endfacet
  facet normal 0 -1 -0
    outer loop
      vertex 11.3 0.5 32.5
      vertex 10.7 0.5 1.5
      vertex 11.3 0.5 1.5
    endloop
  endfacet
  facet normal 0.495834 0.132858 0.858194
    outer loop
      vertex 9.54641 0.5 19.3256
      vertex 9.73033 0.299999 19.2503
      vertex 9.67674 0.5 19.2503
    endloop
  endfacet
  facet normal 0.495502 0.132457 0.858448
    outer loop
      vertex 9.73033 0.299999 19.2503
      vertex 9.54641 0.5 19.3256
      vertex 9.36811 0.397057 19.4444
    endloop
  endfacet
  facet normal 0.617553 -0.617563 -0.487077
    outer loop
      vertex 9.82739 -0.0622215 18.5259
      vertex 9.56222 -0.327387 18.5259
      vertex 9.65928 0.0348349 18.1897
    endloop
  endfacet
  facet normal -0.843603 -0.226027 0.487078
    outer loop
      vertex 8.74072 0.0348349 19.2503
      vertex 8.47556 0.299999 18.9141
      vertex 8.57261 -0.0622215 18.9141
    endloop
  endfacet
  facet normal 0.843565 0.226032 0.487143
    outer loop
      vertex 9.73033 0.299999 19.2503
      vertex 9.72444 0.5 19.1677
      vertex 9.67674 0.5 19.2503
    endloop
  endfacet
  facet normal 0.843613 0.226004 0.487072
    outer loop
      vertex 9.72444 0.5 19.1677
      vertex 9.73033 0.299999 19.2503
      vertex 9.92444 0.299999 18.9141
    endloop
  endfacet
  facet normal -0.495541 -0.132779 0.858376
    outer loop
      vertex 9.00589 0.299999 19.4444
      vertex 8.66967 0.299999 19.2503
      vertex 8.74072 0.0348349 19.2503
    endloop
  endfacet
  facet normal -0.13277 -0.495546 0.858374
    outer loop
      vertex 9.2 0.105886 19.4444
      vertex 9.10294 0.131891 19.4444
      vertex 9.2 -0.23033 19.2503
    endloop
  endfacet
  facet normal 0.617547 -0.617566 -0.487082
    outer loop
      vertex 9.56222 -0.327387 18.5259
      vertex 9.46516 -0.159279 18.1897
      vertex 9.65928 0.0348349 18.1897
    endloop
  endfacet
  facet normal 0.495543 0.132747 0.85838
    outer loop
      vertex 9.73033 0.299999 19.2503
      vertex 9.36811 0.397057 19.4444
      vertex 9.39411 0.299999 19.4444
    endloop
  endfacet
  facet normal -0.13117 0.495868 -0.858434
    outer loop
      vertex 9.2 0.494114 17.9956
      vertex 9.19411 0.5 17.9999
      vertex 9.2 0.5 17.999
    endloop
  endfacet
  facet normal -0.362769 -0.362759 -0.858373
    outer loop
      vertex 9.10294 0.131891 17.9956
      vertex 8.74072 0.0348349 18.1897
      vertex 9.03189 0.202943 17.9956
    endloop
  endfacet
  facet normal -0.49556 -0.132754 0.858368
    outer loop
      vertex 9.00589 0.299999 19.4444
      vertex 8.74072 0.0348349 19.2503
      vertex 9.03189 0.202943 19.4444
    endloop
  endfacet
  facet normal 0.843613 0.226004 -0.487072
    outer loop
      vertex 9.73033 0.299999 18.1897
      vertex 9.72444 0.5 18.2723
      vertex 9.92444 0.299999 18.5259
    endloop
  endfacet
  facet normal 0.843565 0.226032 -0.487143
    outer loop
      vertex 9.72444 0.5 18.2723
      vertex 9.73033 0.299999 18.1897
      vertex 9.67674 0.5 18.1897
    endloop
  endfacet
  facet normal -0.226039 -0.843602 0.487076
    outer loop
      vertex 9.2 -0.23033 19.2503
      vertex 8.93483 -0.159279 19.2503
      vertex 9.2 -0.424444 18.9141
    endloop
  endfacet
  facet normal 0.362769 -0.362759 -0.858373
    outer loop
      vertex 9.65928 0.0348349 18.1897
      vertex 9.29706 0.131891 17.9956
      vertex 9.36811 0.202943 17.9956
    endloop
  endfacet
  facet normal -0.617569 -0.617557 -0.487065
    outer loop
      vertex 8.83778 -0.327387 18.5259
      vertex 8.74072 0.0348349 18.1897
      vertex 8.93483 -0.159279 18.1897
    endloop
  endfacet
  facet normal 0.13277 -0.495546 0.858374
    outer loop
      vertex 9.2 0.105886 19.4444
      vertex 9.2 -0.23033 19.2503
      vertex 9.29706 0.131891 19.4444
    endloop
  endfacet
  facet normal -0.707101 -0.707113 0
    outer loop
      vertex 8.83778 -0.327387 18.5259
      vertex 8.57261 -0.0622215 18.9141
      vertex 8.57261 -0.0622215 18.5259
    endloop
  endfacet
  facet normal -0.707101 -0.707113 0
    outer loop
      vertex 8.57261 -0.0622215 18.9141
      vertex 8.83778 -0.327387 18.5259
      vertex 8.83778 -0.327387 18.9141
    endloop
  endfacet
  facet normal -0.226044 -0.843602 -0.487073
    outer loop
      vertex 9.2 -0.424444 18.5259
      vertex 8.83778 -0.327387 18.5259
      vertex 8.93483 -0.159279 18.1897
    endloop
  endfacet
  facet normal 0.843605 -0.226042 0.487068
    outer loop
      vertex 9.73033 0.299999 19.2503
      vertex 9.65928 0.0348349 19.2503
      vertex 9.92444 0.299999 18.9141
    endloop
  endfacet
  facet normal 0.495543 -0.132749 -0.858379
    outer loop
      vertex 9.73033 0.299999 18.1897
      vertex 9.36811 0.202943 17.9956
      vertex 9.39411 0.299999 17.9956
    endloop
  endfacet
  facet normal -0.362768 -0.362761 0.858373
    outer loop
      vertex 9.10294 0.131891 19.4444
      vertex 8.74072 0.0348349 19.2503
      vertex 8.93483 -0.159279 19.2503
    endloop
  endfacet
  facet normal 0.362808 0.362329 0.858538
    outer loop
      vertex 9.31547 0.5 19.4232
      vertex 9.36811 0.397057 19.4444
      vertex 9.39569 0.5 19.3893
    endloop
  endfacet
  facet normal 0.362022 0.362022 0.859
    outer loop
      vertex 9.36811 0.397057 19.4444
      vertex 9.31547 0.5 19.4232
      vertex 9.29706 0.468107 19.4444
    endloop
  endfacet
  facet normal 0.362769 -0.362759 0.858373
    outer loop
      vertex 9.36811 0.202943 19.4444
      vertex 9.29706 0.131891 19.4444
      vertex 9.65928 0.0348349 19.2503
    endloop
  endfacet
  facet normal -0.965926 0.258819 0
    outer loop
      vertex 8.47556 0.299999 18.5259
      vertex 8.52915 0.5 18.9141
      vertex 8.52915 0.5 18.5259
    endloop
  endfacet
  facet normal -0.965926 0.258819 0
    outer loop
      vertex 8.52915 0.5 18.9141
      vertex 8.47556 0.299999 18.5259
      vertex 8.47556 0.299999 18.9141
    endloop
  endfacet
  facet normal 0.843603 -0.226027 -0.487078
    outer loop
      vertex 9.82739 -0.0622215 18.5259
      vertex 9.65928 0.0348349 18.1897
      vertex 9.92444 0.299999 18.5259
    endloop
  endfacet
  facet normal 0.843605 -0.226042 -0.487068
    outer loop
      vertex 9.92444 0.299999 18.5259
      vertex 9.65928 0.0348349 18.1897
      vertex 9.73033 0.299999 18.1897
    endloop
  endfacet
  facet normal -0.495542 0.132765 -0.858377
    outer loop
      vertex 8.66967 0.299999 18.1897
      vertex 8.80588 0.5 18.142
      vertex 9.00589 0.299999 17.9956
    endloop
  endfacet
  facet normal -0.495567 0.132787 -0.85836
    outer loop
      vertex 8.80588 0.5 18.142
      vertex 8.66967 0.299999 18.1897
      vertex 8.72326 0.5 18.1897
    endloop
  endfacet
  facet normal 0.226047 -0.8436 -0.487075
    outer loop
      vertex 9.46516 -0.159279 18.1897
      vertex 9.2 -0.424444 18.5259
      vertex 9.2 -0.23033 18.1897
    endloop
  endfacet
  facet normal -0.843618 0.226046 0.487043
    outer loop
      vertex 8.52915 0.5 18.9141
      vertex 8.47556 0.299999 18.9141
      vertex 8.67556 0.5 19.1677
    endloop
  endfacet
  facet normal -0.843618 0.226046 -0.487043
    outer loop
      vertex 8.67556 0.5 18.2723
      vertex 8.47556 0.299999 18.5259
      vertex 8.52915 0.5 18.5259
    endloop
  endfacet
  facet normal 0.13248 0.494527 0.859006
    outer loop
      vertex 9.20589 0.5 19.4401
      vertex 9.29706 0.468107 19.4444
      vertex 9.31547 0.5 19.4232
    endloop
  endfacet
  facet normal 0.132572 0.49477 0.858852
    outer loop
      vertex 9.29706 0.468107 19.4444
      vertex 9.20589 0.5 19.4401
      vertex 9.2 0.494114 19.4444
    endloop
  endfacet
  facet normal 0.362763 -0.362774 -0.858369
    outer loop
      vertex 9.46516 -0.159279 18.1897
      vertex 9.29706 0.131891 17.9956
      vertex 9.65928 0.0348349 18.1897
    endloop
  endfacet
  facet normal 0.362847 0.362313 -0.858529
    outer loop
      vertex 9.54641 0.5 18.1144
      vertex 9.36811 0.397057 17.9956
      vertex 9.39569 0.5 18.0507
    endloop
  endfacet
  facet normal 0.965926 0.258819 0
    outer loop
      vertex 9.92444 0.299999 18.9141
      vertex 9.87085 0.5 18.5259
      vertex 9.87085 0.5 18.9141
    endloop
  endfacet
  facet normal 0.965926 0.258819 0
    outer loop
      vertex 9.87085 0.5 18.5259
      vertex 9.92444 0.299999 18.9141
      vertex 9.92444 0.299999 18.5259
    endloop
  endfacet
  facet normal 0.362847 0.362313 0.858529
    outer loop
      vertex 9.39569 0.5 19.3893
      vertex 9.36811 0.397057 19.4444
      vertex 9.54641 0.5 19.3256
    endloop
  endfacet
  facet normal 0.132785 -0.495548 0.858371
    outer loop
      vertex 9.29706 0.131891 19.4444
      vertex 9.2 -0.23033 19.2503
      vertex 9.46516 -0.159279 19.2503
    endloop
  endfacet
  facet normal -0.495381 0.132703 0.85848
    outer loop
      vertex 8.85359 0.5 19.3256
      vertex 9.00589 0.299999 19.4444
      vertex 9.03189 0.397057 19.4444
    endloop
  endfacet
  facet normal -0.496382 0.131691 0.858057
    outer loop
      vertex 9.00589 0.299999 19.4444
      vertex 8.85359 0.5 19.3256
      vertex 8.80588 0.5 19.298
    endloop
  endfacet
  facet normal 0.226043 -0.843599 0.487078
    outer loop
      vertex 9.46516 -0.159279 19.2503
      vertex 9.2 -0.424444 18.9141
      vertex 9.56222 -0.327387 18.9141
    endloop
  endfacet
  facet normal 0.226043 -0.843599 -0.487078
    outer loop
      vertex 9.56222 -0.327387 18.5259
      vertex 9.2 -0.424444 18.5259
      vertex 9.46516 -0.159279 18.1897
    endloop
  endfacet
  facet normal 0.617547 -0.617566 0.487082
    outer loop
      vertex 9.65928 0.0348349 19.2503
      vertex 9.46516 -0.159279 19.2503
      vertex 9.56222 -0.327387 18.9141
    endloop
  endfacet
  facet normal -0.132779 -0.495547 -0.858372
    outer loop
      vertex 9.2 -0.23033 18.1897
      vertex 8.93483 -0.159279 18.1897
      vertex 9.10294 0.131891 17.9956
    endloop
  endfacet
  facet normal 0.25882 -0.965926 0
    outer loop
      vertex 9.2 -0.424444 18.5259
      vertex 9.56222 -0.327387 18.9141
      vertex 9.2 -0.424444 18.9141
    endloop
  endfacet
  facet normal 0.25882 -0.965926 0
    outer loop
      vertex 9.56222 -0.327387 18.9141
      vertex 9.2 -0.424444 18.5259
      vertex 9.56222 -0.327387 18.5259
    endloop
  endfacet
  facet normal 0.843618 0.226046 -0.487043
    outer loop
      vertex 9.92444 0.299999 18.5259
      vertex 9.72444 0.5 18.2723
      vertex 9.87085 0.5 18.5259
    endloop
  endfacet
  facet normal 0.495547 -0.132781 -0.858372
    outer loop
      vertex 9.65928 0.0348349 18.1897
      vertex 9.36811 0.202943 17.9956
      vertex 9.73033 0.299999 18.1897
    endloop
  endfacet
  facet normal -0.226039 -0.843602 -0.487076
    outer loop
      vertex 9.2 -0.424444 18.5259
      vertex 8.93483 -0.159279 18.1897
      vertex 9.2 -0.23033 18.1897
    endloop
  endfacet
  facet normal -0.617553 -0.617563 -0.487077
    outer loop
      vertex 8.83778 -0.327387 18.5259
      vertex 8.57261 -0.0622215 18.5259
      vertex 8.74072 0.0348349 18.1897
    endloop
  endfacet
  facet normal -0.843613 0.226004 0.487072
    outer loop
      vertex 8.66967 0.299999 19.2503
      vertex 8.67556 0.5 19.1677
      vertex 8.47556 0.299999 18.9141
    endloop
  endfacet
  facet normal -0.843565 0.226032 0.487143
    outer loop
      vertex 8.67556 0.5 19.1677
      vertex 8.66967 0.299999 19.2503
      vertex 8.72326 0.5 19.2503
    endloop
  endfacet
  facet normal -0.13277 -0.495546 -0.858374
    outer loop
      vertex 9.2 -0.23033 18.1897
      vertex 9.10294 0.131891 17.9956
      vertex 9.2 0.105886 17.9956
    endloop
  endfacet
  facet normal -0.495567 0.132787 0.85836
    outer loop
      vertex 8.66967 0.299999 19.2503
      vertex 8.80588 0.5 19.298
      vertex 8.72326 0.5 19.2503
    endloop
  endfacet
  facet normal -0.495542 0.132765 0.858377
    outer loop
      vertex 8.80588 0.5 19.298
      vertex 8.66967 0.299999 19.2503
      vertex 9.00589 0.299999 19.4444
    endloop
  endfacet
  facet normal -0.843605 -0.226042 0.487068
    outer loop
      vertex 8.66967 0.299999 19.2503
      vertex 8.47556 0.299999 18.9141
      vertex 8.74072 0.0348349 19.2503
    endloop
  endfacet
  facet normal -0.362769 -0.362759 0.858373
    outer loop
      vertex 9.03189 0.202943 19.4444
      vertex 8.74072 0.0348349 19.2503
      vertex 9.10294 0.131891 19.4444
    endloop
  endfacet
  facet normal -0.132779 -0.495547 0.858372
    outer loop
      vertex 9.10294 0.131891 19.4444
      vertex 8.93483 -0.159279 19.2503
      vertex 9.2 -0.23033 19.2503
    endloop
  endfacet
  facet normal -0.362768 -0.362761 -0.858373
    outer loop
      vertex 8.93483 -0.159279 18.1897
      vertex 8.74072 0.0348349 18.1897
      vertex 9.10294 0.131891 17.9956
    endloop
  endfacet
  facet normal 0.13248 0.494527 -0.859006
    outer loop
      vertex 9.29706 0.468107 17.9956
      vertex 9.20589 0.5 17.9999
      vertex 9.31547 0.5 18.0168
    endloop
  endfacet
  facet normal 0.132572 0.49477 -0.858852
    outer loop
      vertex 9.20589 0.5 17.9999
      vertex 9.29706 0.468107 17.9956
      vertex 9.2 0.494114 17.9956
    endloop
  endfacet
  facet normal -0.362022 0.362022 -0.859
    outer loop
      vertex 9.03189 0.397057 17.9956
      vertex 9.08453 0.5 18.0168
      vertex 9.10294 0.468107 17.9956
    endloop
  endfacet
  facet normal -0.36283 0.362338 -0.858525
    outer loop
      vertex 9.08453 0.5 18.0168
      vertex 9.03189 0.397057 17.9956
      vertex 8.85359 0.5 18.1144
    endloop
  endfacet
  facet normal 0.843618 0.226046 0.487043
    outer loop
      vertex 9.87085 0.5 18.9141
      vertex 9.72444 0.5 19.1677
      vertex 9.92444 0.299999 18.9141
    endloop
  endfacet
  facet normal -0.13117 0.495868 0.858434
    outer loop
      vertex 9.2 0.5 19.441
      vertex 9.19411 0.5 19.4401
      vertex 9.2 0.494114 19.4444
    endloop
  endfacet
  facet normal 0.13117 0.495868 -0.858434
    outer loop
      vertex 9.20589 0.5 17.9999
      vertex 9.2 0.494114 17.9956
      vertex 9.2 0.5 17.999
    endloop
  endfacet
  facet normal -0.226044 -0.843602 0.487073
    outer loop
      vertex 8.93483 -0.159279 19.2503
      vertex 8.83778 -0.327387 18.9141
      vertex 9.2 -0.424444 18.9141
    endloop
  endfacet
  facet normal 0.495543 -0.132749 0.858379
    outer loop
      vertex 9.39411 0.299999 19.4444
      vertex 9.36811 0.202943 19.4444
      vertex 9.73033 0.299999 19.2503
    endloop
  endfacet
  facet normal -0.617569 -0.617557 0.487065
    outer loop
      vertex 8.93483 -0.159279 19.2503
      vertex 8.74072 0.0348349 19.2503
      vertex 8.83778 -0.327387 18.9141
    endloop
  endfacet
  facet normal -0.617553 -0.617563 0.487077
    outer loop
      vertex 8.74072 0.0348349 19.2503
      vertex 8.57261 -0.0622215 18.9141
      vertex 8.83778 -0.327387 18.9141
    endloop
  endfacet
  facet normal 0 0 1
    outer loop
      vertex 9.36811 0.397057 19.4444
      vertex 9.36811 0.202943 19.4444
      vertex 9.39411 0.299999 19.4444
    endloop
  endfacet
  facet normal 0 0 1
    outer loop
      vertex 9.29706 0.468107 19.4444
      vertex 9.36811 0.202943 19.4444
      vertex 9.36811 0.397057 19.4444
    endloop
  endfacet
  facet normal 0 0 1
    outer loop
      vertex 9.29706 0.468107 19.4444
      vertex 9.29706 0.131891 19.4444
      vertex 9.36811 0.202943 19.4444
    endloop
  endfacet
  facet normal 0 0 1
    outer loop
      vertex 9.2 0.494114 19.4444
      vertex 9.29706 0.131891 19.4444
      vertex 9.29706 0.468107 19.4444
    endloop
  endfacet
  facet normal 0 0 1
    outer loop
      vertex 9.2 0.494114 19.4444
      vertex 9.2 0.105886 19.4444
      vertex 9.29706 0.131891 19.4444
    endloop
  endfacet
  facet normal -0 0 1
    outer loop
      vertex 9.10294 0.468107 19.4444
      vertex 9.2 0.105886 19.4444
      vertex 9.2 0.494114 19.4444
    endloop
  endfacet
  facet normal 0 0 1
    outer loop
      vertex 9.10294 0.468107 19.4444
      vertex 9.10294 0.131891 19.4444
      vertex 9.2 0.105886 19.4444
    endloop
  endfacet
  facet normal -0 0 1
    outer loop
      vertex 9.03189 0.397057 19.4444
      vertex 9.10294 0.131891 19.4444
      vertex 9.10294 0.468107 19.4444
    endloop
  endfacet
  facet normal 0 0 1
    outer loop
      vertex 9.03189 0.397057 19.4444
      vertex 9.03189 0.202943 19.4444
      vertex 9.10294 0.131891 19.4444
    endloop
  endfacet
  facet normal 0 -0 1
    outer loop
      vertex 9.03189 0.202943 19.4444
      vertex 9.03189 0.397057 19.4444
      vertex 9.00589 0.299999 19.4444
    endloop
  endfacet
  facet normal 0.96593 -0.258802 0
    outer loop
      vertex 9.82739 -0.0622215 18.9141
      vertex 9.92444 0.299999 18.5259
      vertex 9.92444 0.299999 18.9141
    endloop
  endfacet
  facet normal 0.96593 -0.258802 0
    outer loop
      vertex 9.92444 0.299999 18.5259
      vertex 9.82739 -0.0622215 18.9141
      vertex 9.82739 -0.0622215 18.5259
    endloop
  endfacet
  facet normal 0.362763 -0.362774 0.858369
    outer loop
      vertex 9.65928 0.0348349 19.2503
      vertex 9.29706 0.131891 19.4444
      vertex 9.46516 -0.159279 19.2503
    endloop
  endfacet
  facet normal 0.495547 -0.132781 0.858372
    outer loop
      vertex 9.73033 0.299999 19.2503
      vertex 9.36811 0.202943 19.4444
      vertex 9.65928 0.0348349 19.2503
    endloop
  endfacet
  facet normal 0.707101 -0.707113 0
    outer loop
      vertex 9.56222 -0.327387 18.9141
      vertex 9.82739 -0.0622215 18.5259
      vertex 9.82739 -0.0622215 18.9141
    endloop
  endfacet
  facet normal 0.707101 -0.707113 0
    outer loop
      vertex 9.82739 -0.0622215 18.5259
      vertex 9.56222 -0.327387 18.9141
      vertex 9.56222 -0.327387 18.5259
    endloop
  endfacet
  facet normal 0.226047 -0.8436 0.487075
    outer loop
      vertex 9.2 -0.23033 19.2503
      vertex 9.2 -0.424444 18.9141
      vertex 9.46516 -0.159279 19.2503
    endloop
  endfacet
  facet normal -0.96593 -0.258802 0
    outer loop
      vertex 8.57261 -0.0622215 18.5259
      vertex 8.47556 0.299999 18.9141
      vertex 8.47556 0.299999 18.5259
    endloop
  endfacet
  facet normal -0.96593 -0.258802 0
    outer loop
      vertex 8.47556 0.299999 18.9141
      vertex 8.57261 -0.0622215 18.5259
      vertex 8.57261 -0.0622215 18.9141
    endloop
  endfacet
  facet normal 0.13277 -0.495546 -0.858374
    outer loop
      vertex 9.29706 0.131891 17.9956
      vertex 9.2 -0.23033 18.1897
      vertex 9.2 0.105886 17.9956
    endloop
  endfacet
  facet normal -0.362022 0.362022 0.859
    outer loop
      vertex 9.08453 0.5 19.4232
      vertex 9.03189 0.397057 19.4444
      vertex 9.10294 0.468107 19.4444
    endloop
  endfacet
  facet normal -0.36283 0.362338 0.858525
    outer loop
      vertex 9.03189 0.397057 19.4444
      vertex 9.08453 0.5 19.4232
      vertex 8.85359 0.5 19.3256
    endloop
  endfacet
  facet normal -0.132572 0.49477 0.858852
    outer loop
      vertex 9.19411 0.5 19.4401
      vertex 9.10294 0.468107 19.4444
      vertex 9.2 0.494114 19.4444
    endloop
  endfacet
  facet normal -0.13248 0.494527 0.859006
    outer loop
      vertex 9.10294 0.468107 19.4444
      vertex 9.19411 0.5 19.4401
      vertex 9.08453 0.5 19.4232
    endloop
  endfacet
  facet normal 0.362808 0.362329 -0.858538
    outer loop
      vertex 9.36811 0.397057 17.9956
      vertex 9.31547 0.5 18.0168
      vertex 9.39569 0.5 18.0507
    endloop
  endfacet
  facet normal 0.362022 0.362022 -0.859
    outer loop
      vertex 9.31547 0.5 18.0168
      vertex 9.36811 0.397057 17.9956
      vertex 9.29706 0.468107 17.9956
    endloop
  endfacet
  facet normal 0.132785 -0.495548 -0.858371
    outer loop
      vertex 9.46516 -0.159279 18.1897
      vertex 9.2 -0.23033 18.1897
      vertex 9.29706 0.131891 17.9956
    endloop
  endfacet
  facet normal 0.495834 0.132858 -0.858194
    outer loop
      vertex 9.73033 0.299999 18.1897
      vertex 9.54641 0.5 18.1144
      vertex 9.67674 0.5 18.1897
    endloop
  endfacet
  facet normal 0.495502 0.132457 -0.858448
    outer loop
      vertex 9.54641 0.5 18.1144
      vertex 9.73033 0.299999 18.1897
      vertex 9.36811 0.397057 17.9956
    endloop
  endfacet
  facet normal 0.495543 0.132747 -0.85838
    outer loop
      vertex 9.39411 0.299999 17.9956
      vertex 9.36811 0.397057 17.9956
      vertex 9.73033 0.299999 18.1897
    endloop
  endfacet
  facet normal 0.13117 0.495868 0.858434
    outer loop
      vertex 9.2 0.5 19.441
      vertex 9.2 0.494114 19.4444
      vertex 9.20589 0.5 19.4401
    endloop
  endfacet
  facet normal -0.25882 -0.965926 0
    outer loop
      vertex 8.83778 -0.327387 18.5259
      vertex 9.2 -0.424444 18.9141
      vertex 8.83778 -0.327387 18.9141
    endloop
  endfacet
  facet normal -0.25882 -0.965926 -0
    outer loop
      vertex 9.2 -0.424444 18.9141
      vertex 8.83778 -0.327387 18.5259
      vertex 9.2 -0.424444 18.5259
    endloop
  endfacet
  facet normal 0.617553 -0.617563 0.487077
    outer loop
      vertex 9.65928 0.0348349 19.2503
      vertex 9.56222 -0.327387 18.9141
      vertex 9.82739 -0.0622215 18.9141
    endloop
  endfacet
  facet normal 0.843603 -0.226027 0.487078
    outer loop
      vertex 9.92444 0.299999 18.9141
      vertex 9.65928 0.0348349 19.2503
      vertex 9.82739 -0.0622215 18.9141
    endloop
  endfacet
  facet normal -0.843603 -0.226027 -0.487078
    outer loop
      vertex 8.57261 -0.0622215 18.5259
      vertex 8.47556 0.299999 18.5259
      vertex 8.74072 0.0348349 18.1897
    endloop
  endfacet
  facet normal -0.132572 0.49477 -0.858852
    outer loop
      vertex 9.10294 0.468107 17.9956
      vertex 9.19411 0.5 17.9999
      vertex 9.2 0.494114 17.9956
    endloop
  endfacet
  facet normal -0.13248 0.494527 -0.859006
    outer loop
      vertex 9.19411 0.5 17.9999
      vertex 9.10294 0.468107 17.9956
      vertex 9.08453 0.5 18.0168
    endloop
  endfacet
  facet normal -0.843605 -0.226042 -0.487068
    outer loop
      vertex 8.74072 0.0348349 18.1897
      vertex 8.47556 0.299999 18.5259
      vertex 8.66967 0.299999 18.1897
    endloop
  endfacet
  facet normal -0.843565 0.226032 -0.487143
    outer loop
      vertex 8.66967 0.299999 18.1897
      vertex 8.67556 0.5 18.2723
      vertex 8.72326 0.5 18.1897
    endloop
  endfacet
  facet normal -0.843613 0.226004 -0.487072
    outer loop
      vertex 8.67556 0.5 18.2723
      vertex 8.66967 0.299999 18.1897
      vertex 8.47556 0.299999 18.5259
    endloop
  endfacet
  facet normal -0.495541 -0.132779 -0.858376
    outer loop
      vertex 8.74072 0.0348349 18.1897
      vertex 8.66967 0.299999 18.1897
      vertex 9.00589 0.299999 17.9956
    endloop
  endfacet
  facet normal -0.49556 -0.132754 -0.858368
    outer loop
      vertex 9.03189 0.202943 17.9956
      vertex 8.74072 0.0348349 18.1897
      vertex 9.00589 0.299999 17.9956
    endloop
  endfacet
  facet normal -0.495381 0.132703 -0.85848
    outer loop
      vertex 9.00589 0.299999 17.9956
      vertex 8.85359 0.5 18.1144
      vertex 9.03189 0.397057 17.9956
    endloop
  endfacet
  facet normal -0.496382 0.131691 -0.858057
    outer loop
      vertex 8.85359 0.5 18.1144
      vertex 9.00589 0.299999 17.9956
      vertex 8.80588 0.5 18.142
    endloop
  endfacet
  facet normal 0 0 -1
    outer loop
      vertex 9.36811 0.202943 17.9956
      vertex 9.36811 0.397057 17.9956
      vertex 9.39411 0.299999 17.9956
    endloop
  endfacet
  facet normal 0 0 -1
    outer loop
      vertex 9.29706 0.131891 17.9956
      vertex 9.36811 0.397057 17.9956
      vertex 9.36811 0.202943 17.9956
    endloop
  endfacet
  facet normal 0 0 -1
    outer loop
      vertex 9.29706 0.131891 17.9956
      vertex 9.29706 0.468107 17.9956
      vertex 9.36811 0.397057 17.9956
    endloop
  endfacet
  facet normal 0 0 -1
    outer loop
      vertex 9.2 0.105886 17.9956
      vertex 9.29706 0.468107 17.9956
      vertex 9.29706 0.131891 17.9956
    endloop
  endfacet
  facet normal 0 0 -1
    outer loop
      vertex 9.2 0.105886 17.9956
      vertex 9.2 0.494114 17.9956
      vertex 9.29706 0.468107 17.9956
    endloop
  endfacet
  facet normal 0 0 -1
    outer loop
      vertex 9.10294 0.131891 17.9956
      vertex 9.2 0.494114 17.9956
      vertex 9.2 0.105886 17.9956
    endloop
  endfacet
  facet normal 0 0 -1
    outer loop
      vertex 9.10294 0.131891 17.9956
      vertex 9.10294 0.468107 17.9956
      vertex 9.2 0.494114 17.9956
    endloop
  endfacet
  facet normal 0 0 -1
    outer loop
      vertex 9.03189 0.202943 17.9956
      vertex 9.10294 0.468107 17.9956
      vertex 9.10294 0.131891 17.9956
    endloop
  endfacet
  facet normal 0 0 -1
    outer loop
      vertex 9.03189 0.202943 17.9956
      vertex 9.03189 0.397057 17.9956
      vertex 9.10294 0.468107 17.9956
    endloop
  endfacet
  facet normal 0 -0 -1
    outer loop
      vertex 9.03189 0.397057 17.9956
      vertex 9.03189 0.202943 17.9956
      vertex 9.00589 0.299999 17.9956
    endloop
  endfacet
  facet normal -0.843568 0.225653 0.487313
    outer loop
      vertex 12.1291 0.5 18.9141
      vertex 12.0756 0.299999 18.9141
      vertex 12.2756 0.5 19.1677
    endloop
  endfacet
  facet normal -0.966035 0.258413 0
    outer loop
      vertex 12.0756 0.299999 18.5259
      vertex 12.1291 0.5 18.9141
      vertex 12.1291 0.5 18.5259
    endloop
  endfacet
  facet normal -0.966035 0.258413 0
    outer loop
      vertex 12.1291 0.5 18.9141
      vertex 12.0756 0.299999 18.5259
      vertex 12.0756 0.299999 18.9141
    endloop
  endfacet
  facet normal 0.362785 -0.362759 0.858366
    outer loop
      vertex 13.2593 0.0348349 19.2503
      vertex 12.8971 0.131891 19.4444
      vertex 13.0652 -0.159279 19.2503
    endloop
  endfacet
  facet normal 0.843556 0.226072 0.487139
    outer loop
      vertex 13.3303 0.299999 19.2503
      vertex 13.3244 0.5 19.1677
      vertex 13.2767 0.5 19.2503
    endloop
  endfacet
  facet normal 0.843617 0.226037 0.48705
    outer loop
      vertex 13.3244 0.5 19.1677
      vertex 13.3303 0.299999 19.2503
      vertex 13.5244 0.299999 18.9141
    endloop
  endfacet
  facet normal -0.84365 -0.225923 0.487046
    outer loop
      vertex 12.3407 0.0348349 19.2503
      vertex 12.0756 0.299999 18.9141
      vertex 12.1726 -0.0622215 18.9141
    endloop
  endfacet
  facet normal 0.843568 0.225653 0.487313
    outer loop
      vertex 13.4709 0.5 18.9141
      vertex 13.3244 0.5 19.1677
      vertex 13.5244 0.299999 18.9141
    endloop
  endfacet
  facet normal 0.966035 0.258413 0
    outer loop
      vertex 13.5244 0.299999 18.9141
      vertex 13.4709 0.5 18.5259
      vertex 13.4709 0.5 18.9141
    endloop
  endfacet
  facet normal 0.966035 0.258413 0
    outer loop
      vertex 13.4709 0.5 18.5259
      vertex 13.5244 0.299999 18.9141
      vertex 13.5244 0.299999 18.5259
    endloop
  endfacet
  facet normal 0.496466 0.131606 0.858022
    outer loop
      vertex 13.1464 0.5 19.3256
      vertex 12.9941 0.299999 19.4444
      vertex 13.1941 0.5 19.298
    endloop
  endfacet
  facet normal 0.495381 0.132703 0.85848
    outer loop
      vertex 12.9941 0.299999 19.4444
      vertex 13.1464 0.5 19.3256
      vertex 12.9681 0.397057 19.4444
    endloop
  endfacet
  facet normal -0.132767 -0.495557 0.858369
    outer loop
      vertex 12.7029 0.131891 19.4444
      vertex 12.5348 -0.159279 19.2503
      vertex 12.8 -0.23033 19.2503
    endloop
  endfacet
  facet normal 0.132767 -0.495557 -0.858369
    outer loop
      vertex 13.0652 -0.159279 18.1897
      vertex 12.8 -0.23033 18.1897
      vertex 12.8971 0.131891 17.9956
    endloop
  endfacet
  facet normal -0.132716 -0.495549 -0.858381
    outer loop
      vertex 12.8 -0.23033 18.1897
      vertex 12.7029 0.131891 17.9956
      vertex 12.8 0.105886 17.9956
    endloop
  endfacet
  facet normal 0.617614 -0.617569 0.486992
    outer loop
      vertex 13.2593 0.0348349 19.2503
      vertex 13.0652 -0.159279 19.2503
      vertex 13.1622 -0.327387 18.9141
    endloop
  endfacet
  facet normal 0.495654 0.132835 0.858302
    outer loop
      vertex 13.1941 0.5 19.298
      vertex 13.3303 0.299999 19.2503
      vertex 13.2767 0.5 19.2503
    endloop
  endfacet
  facet normal 0.495564 0.132758 0.858365
    outer loop
      vertex 13.3303 0.299999 19.2503
      vertex 13.1941 0.5 19.298
      vertex 12.9941 0.299999 19.4444
    endloop
  endfacet
  facet normal -0.495555 -0.132689 0.858381
    outer loop
      vertex 12.6319 0.202943 19.4444
      vertex 12.2697 0.299999 19.2503
      vertex 12.3407 0.0348349 19.2503
    endloop
  endfacet
  facet normal 0.130951 0.495882 0.858459
    outer loop
      vertex 12.8 0.5 19.441
      vertex 12.8 0.494114 19.4444
      vertex 12.8059 0.5 19.4401
    endloop
  endfacet
  facet normal -0.617614 -0.617569 0.486992
    outer loop
      vertex 12.5348 -0.159279 19.2503
      vertex 12.3407 0.0348349 19.2503
      vertex 12.4378 -0.327387 18.9141
    endloop
  endfacet
  facet normal -0.258833 -0.965922 0
    outer loop
      vertex 12.4378 -0.327387 18.5259
      vertex 12.8 -0.424444 18.9141
      vertex 12.4378 -0.327387 18.9141
    endloop
  endfacet
  facet normal -0.258833 -0.965922 -0
    outer loop
      vertex 12.8 -0.424444 18.9141
      vertex 12.4378 -0.327387 18.5259
      vertex 12.8 -0.424444 18.5259
    endloop
  endfacet
  facet normal 0.132716 -0.495549 0.858381
    outer loop
      vertex 12.8 0.105886 19.4444
      vertex 12.8 -0.23033 19.2503
      vertex 12.8971 0.131891 19.4444
    endloop
  endfacet
  facet normal -0.495518 0.132424 -0.858444
    outer loop
      vertex 12.2697 0.299999 18.1897
      vertex 12.4536 0.5 18.1144
      vertex 12.6319 0.397057 17.9956
    endloop
  endfacet
  facet normal -0.495916 0.132905 -0.858139
    outer loop
      vertex 12.4536 0.5 18.1144
      vertex 12.2697 0.299999 18.1897
      vertex 12.3233 0.5 18.1897
    endloop
  endfacet
  facet normal -0.362854 -0.362589 -0.858409
    outer loop
      vertex 12.7029 0.131891 17.9956
      vertex 12.3407 0.0348349 18.1897
      vertex 12.6319 0.202943 17.9956
    endloop
  endfacet
  facet normal -0.132492 0.494674 -0.85892
    outer loop
      vertex 12.7029 0.468107 17.9956
      vertex 12.7941 0.5 17.9999
      vertex 12.8 0.494114 17.9956
    endloop
  endfacet
  facet normal -0.132453 0.494571 -0.858985
    outer loop
      vertex 12.7941 0.5 17.9999
      vertex 12.7029 0.468107 17.9956
      vertex 12.6845 0.5 18.0168
    endloop
  endfacet
  facet normal 0.965964 -0.258678 0
    outer loop
      vertex 13.4274 -0.0622215 18.9141
      vertex 13.5244 0.299999 18.5259
      vertex 13.5244 0.299999 18.9141
    endloop
  endfacet
  facet normal 0.965964 -0.258678 0
    outer loop
      vertex 13.5244 0.299999 18.5259
      vertex 13.4274 -0.0622215 18.9141
      vertex 13.4274 -0.0622215 18.5259
    endloop
  endfacet
  facet normal -0.362228 0.361973 0.858933
    outer loop
      vertex 12.6845 0.5 19.4232
      vertex 12.6319 0.397057 19.4444
      vertex 12.7029 0.468107 19.4444
    endloop
  endfacet
  facet normal -0.362899 0.362235 0.85854
    outer loop
      vertex 12.6319 0.397057 19.4444
      vertex 12.6845 0.5 19.4232
      vertex 12.6043 0.5 19.3893
    endloop
  endfacet
  facet normal 0.495569 -0.132693 -0.858373
    outer loop
      vertex 13.2593 0.0348349 18.1897
      vertex 12.9941 0.299999 17.9956
      vertex 13.3303 0.299999 18.1897
    endloop
  endfacet
  facet normal 0.843568 0.225653 -0.487313
    outer loop
      vertex 13.5244 0.299999 18.5259
      vertex 13.3244 0.5 18.2723
      vertex 13.4709 0.5 18.5259
    endloop
  endfacet
  facet normal 0.843646 -0.225894 -0.487066
    outer loop
      vertex 13.5244 0.299999 18.5259
      vertex 13.2593 0.0348349 18.1897
      vertex 13.3303 0.299999 18.1897
    endloop
  endfacet
  facet normal 0.84365 -0.225923 -0.487046
    outer loop
      vertex 13.4274 -0.0622215 18.5259
      vertex 13.2593 0.0348349 18.1897
      vertex 13.5244 0.299999 18.5259
    endloop
  endfacet
  facet normal 0.132453 0.494571 0.858985
    outer loop
      vertex 12.8059 0.5 19.4401
      vertex 12.8971 0.468107 19.4444
      vertex 12.9155 0.5 19.4232
    endloop
  endfacet
  facet normal 0.132492 0.494674 0.85892
    outer loop
      vertex 12.8971 0.468107 19.4444
      vertex 12.8059 0.5 19.4401
      vertex 12.8 0.494114 19.4444
    endloop
  endfacet
  facet normal -0.226015 -0.843606 0.487079
    outer loop
      vertex 12.8 -0.23033 19.2503
      vertex 12.5348 -0.159279 19.2503
      vertex 12.8 -0.424444 18.9141
    endloop
  endfacet
  facet normal 0.707061 -0.707153 0
    outer loop
      vertex 13.1622 -0.327387 18.9141
      vertex 13.4274 -0.0622215 18.5259
      vertex 13.4274 -0.0622215 18.9141
    endloop
  endfacet
  facet normal 0.707061 -0.707153 0
    outer loop
      vertex 13.4274 -0.0622215 18.5259
      vertex 13.1622 -0.327387 18.9141
      vertex 13.1622 -0.327387 18.5259
    endloop
  endfacet
  facet normal -0.362785 -0.362759 0.858366
    outer loop
      vertex 12.7029 0.131891 19.4444
      vertex 12.3407 0.0348349 19.2503
      vertex 12.5348 -0.159279 19.2503
    endloop
  endfacet
  facet normal -0.226059 -0.843612 0.487048
    outer loop
      vertex 12.5348 -0.159279 19.2503
      vertex 12.4378 -0.327387 18.9141
      vertex 12.8 -0.424444 18.9141
    endloop
  endfacet
  facet normal -0.617526 -0.617606 0.487057
    outer loop
      vertex 12.3407 0.0348349 19.2503
      vertex 12.1726 -0.0622215 18.9141
      vertex 12.4378 -0.327387 18.9141
    endloop
  endfacet
  facet normal 0.362785 -0.362759 -0.858366
    outer loop
      vertex 13.0652 -0.159279 18.1897
      vertex 12.8971 0.131891 17.9956
      vertex 13.2593 0.0348349 18.1897
    endloop
  endfacet
  facet normal -0.130951 0.495882 -0.858459
    outer loop
      vertex 12.8 0.494114 17.9956
      vertex 12.7941 0.5 17.9999
      vertex 12.8 0.5 17.999
    endloop
  endfacet
  facet normal 0.258833 -0.965922 0
    outer loop
      vertex 12.8 -0.424444 18.5259
      vertex 13.1622 -0.327387 18.9141
      vertex 12.8 -0.424444 18.9141
    endloop
  endfacet
  facet normal 0.258833 -0.965922 0
    outer loop
      vertex 13.1622 -0.327387 18.9141
      vertex 12.8 -0.424444 18.5259
      vertex 13.1622 -0.327387 18.5259
    endloop
  endfacet
  facet normal 0.843617 0.226037 -0.48705
    outer loop
      vertex 13.3303 0.299999 18.1897
      vertex 13.3244 0.5 18.2723
      vertex 13.5244 0.299999 18.5259
    endloop
  endfacet
  facet normal 0.843556 0.226072 -0.487139
    outer loop
      vertex 13.3244 0.5 18.2723
      vertex 13.3303 0.299999 18.1897
      vertex 13.2767 0.5 18.1897
    endloop
  endfacet
  facet normal 0.495654 0.132835 -0.858302
    outer loop
      vertex 13.3303 0.299999 18.1897
      vertex 13.1941 0.5 18.142
      vertex 13.2767 0.5 18.1897
    endloop
  endfacet
  facet normal 0.495564 0.132758 -0.858365
    outer loop
      vertex 13.1941 0.5 18.142
      vertex 13.3303 0.299999 18.1897
      vertex 12.9941 0.299999 17.9956
    endloop
  endfacet
  facet normal 0.495528 -0.132745 -0.858389
    outer loop
      vertex 13.2593 0.0348349 18.1897
      vertex 12.9681 0.202943 17.9956
      vertex 12.9941 0.299999 17.9956
    endloop
  endfacet
  facet normal 0.617614 -0.617569 -0.486992
    outer loop
      vertex 13.1622 -0.327387 18.5259
      vertex 13.0652 -0.159279 18.1897
      vertex 13.2593 0.0348349 18.1897
    endloop
  endfacet
  facet normal 0.84365 -0.225923 0.487046
    outer loop
      vertex 13.5244 0.299999 18.9141
      vertex 13.2593 0.0348349 19.2503
      vertex 13.4274 -0.0622215 18.9141
    endloop
  endfacet
  facet normal 0.362899 0.362235 0.858539
    outer loop
      vertex 12.9155 0.5 19.4232
      vertex 12.9681 0.397057 19.4444
      vertex 13.1464 0.5 19.3256
    endloop
  endfacet
  facet normal 0.362228 0.361973 0.858933
    outer loop
      vertex 12.9681 0.397057 19.4444
      vertex 12.9155 0.5 19.4232
      vertex 12.8971 0.468107 19.4444
    endloop
  endfacet
  facet normal -0.362854 -0.362589 0.858409
    outer loop
      vertex 12.6319 0.202943 19.4444
      vertex 12.3407 0.0348349 19.2503
      vertex 12.7029 0.131891 19.4444
    endloop
  endfacet
  facet normal 0.226059 -0.843612 0.487048
    outer loop
      vertex 13.0652 -0.159279 19.2503
      vertex 12.8 -0.424444 18.9141
      vertex 13.1622 -0.327387 18.9141
    endloop
  endfacet
  facet normal 0.617526 -0.617606 0.487057
    outer loop
      vertex 13.2593 0.0348349 19.2503
      vertex 13.1622 -0.327387 18.9141
      vertex 13.4274 -0.0622215 18.9141
    endloop
  endfacet
  facet normal -0.495916 0.132905 0.858139
    outer loop
      vertex 12.2697 0.299999 19.2503
      vertex 12.4536 0.5 19.3256
      vertex 12.3233 0.5 19.2503
    endloop
  endfacet
  facet normal -0.495518 0.132424 0.858444
    outer loop
      vertex 12.4536 0.5 19.3256
      vertex 12.2697 0.299999 19.2503
      vertex 12.6319 0.397057 19.4444
    endloop
  endfacet
  facet normal -0.965964 -0.258678 0
    outer loop
      vertex 12.1726 -0.0622215 18.5259
      vertex 12.0756 0.299999 18.9141
      vertex 12.0756 0.299999 18.5259
    endloop
  endfacet
  facet normal -0.965964 -0.258678 0
    outer loop
      vertex 12.0756 0.299999 18.9141
      vertex 12.1726 -0.0622215 18.5259
      vertex 12.1726 -0.0622215 18.9141
    endloop
  endfacet
  facet normal -0.3629 0.362234 -0.85854
    outer loop
      vertex 12.6319 0.397057 17.9956
      vertex 12.4536 0.5 18.1144
      vertex 12.6043 0.5 18.0507
    endloop
  endfacet
  facet normal 0.362854 -0.362589 -0.858409
    outer loop
      vertex 13.2593 0.0348349 18.1897
      vertex 12.8971 0.131891 17.9956
      vertex 12.9681 0.202943 17.9956
    endloop
  endfacet
  facet normal 0.843646 -0.225894 0.487066
    outer loop
      vertex 13.3303 0.299999 19.2503
      vertex 13.2593 0.0348349 19.2503
      vertex 13.5244 0.299999 18.9141
    endloop
  endfacet
  facet normal 0.495569 -0.132693 0.858373
    outer loop
      vertex 13.3303 0.299999 19.2503
      vertex 12.9941 0.299999 19.4444
      vertex 13.2593 0.0348349 19.2503
    endloop
  endfacet
  facet normal 0.617526 -0.617606 -0.487057
    outer loop
      vertex 13.4274 -0.0622215 18.5259
      vertex 13.1622 -0.327387 18.5259
      vertex 13.2593 0.0348349 18.1897
    endloop
  endfacet
  facet normal 0.130951 0.495882 -0.858459
    outer loop
      vertex 12.8059 0.5 17.9999
      vertex 12.8 0.494114 17.9956
      vertex 12.8 0.5 17.999
    endloop
  endfacet
  facet normal -0.617526 -0.617606 -0.487057
    outer loop
      vertex 12.4378 -0.327387 18.5259
      vertex 12.1726 -0.0622215 18.5259
      vertex 12.3407 0.0348349 18.1897
    endloop
  endfacet
  facet normal -0.843556 0.226072 -0.487139
    outer loop
      vertex 12.2697 0.299999 18.1897
      vertex 12.2756 0.5 18.2723
      vertex 12.3233 0.5 18.1897
    endloop
  endfacet
  facet normal -0.843617 0.226037 -0.48705
    outer loop
      vertex 12.2756 0.5 18.2723
      vertex 12.2697 0.299999 18.1897
      vertex 12.0756 0.299999 18.5259
    endloop
  endfacet
  facet normal -0.132492 0.494674 0.85892
    outer loop
      vertex 12.7941 0.5 19.4401
      vertex 12.7029 0.468107 19.4444
      vertex 12.8 0.494114 19.4444
    endloop
  endfacet
  facet normal -0.132453 0.494571 0.858985
    outer loop
      vertex 12.7029 0.468107 19.4444
      vertex 12.7941 0.5 19.4401
      vertex 12.6845 0.5 19.4232
    endloop
  endfacet
  facet normal -0.132716 -0.495549 0.858381
    outer loop
      vertex 12.8 0.105886 19.4444
      vertex 12.7029 0.131891 19.4444
      vertex 12.8 -0.23033 19.2503
    endloop
  endfacet
  facet normal -0.707061 -0.707153 0
    outer loop
      vertex 12.4378 -0.327387 18.5259
      vertex 12.1726 -0.0622215 18.9141
      vertex 12.1726 -0.0622215 18.5259
    endloop
  endfacet
  facet normal -0.707061 -0.707153 0
    outer loop
      vertex 12.1726 -0.0622215 18.9141
      vertex 12.4378 -0.327387 18.5259
      vertex 12.4378 -0.327387 18.9141
    endloop
  endfacet
  facet normal -0.362785 -0.362759 -0.858366
    outer loop
      vertex 12.5348 -0.159279 18.1897
      vertex 12.3407 0.0348349 18.1897
      vertex 12.7029 0.131891 17.9956
    endloop
  endfacet
  facet normal -0.132767 -0.495557 -0.858369
    outer loop
      vertex 12.8 -0.23033 18.1897
      vertex 12.5348 -0.159279 18.1897
      vertex 12.7029 0.131891 17.9956
    endloop
  endfacet
  facet normal -0.843568 0.225653 -0.487313
    outer loop
      vertex 12.2756 0.5 18.2723
      vertex 12.0756 0.299999 18.5259
      vertex 12.1291 0.5 18.5259
    endloop
  endfacet
  facet normal 0.132716 -0.495549 -0.858381
    outer loop
      vertex 12.8971 0.131891 17.9956
      vertex 12.8 -0.23033 18.1897
      vertex 12.8 0.105886 17.9956
    endloop
  endfacet
  facet normal 0.362854 -0.362589 0.858409
    outer loop
      vertex 12.9681 0.202943 19.4444
      vertex 12.8971 0.131891 19.4444
      vertex 13.2593 0.0348349 19.2503
    endloop
  endfacet
  facet normal 0.495528 -0.132745 0.858389
    outer loop
      vertex 12.9941 0.299999 19.4444
      vertex 12.9681 0.202943 19.4444
      vertex 13.2593 0.0348349 19.2503
    endloop
  endfacet
  facet normal 0.132767 -0.495557 0.858369
    outer loop
      vertex 12.8971 0.131891 19.4444
      vertex 12.8 -0.23033 19.2503
      vertex 13.0652 -0.159279 19.2503
    endloop
  endfacet
  facet normal 0.226015 -0.843606 0.487079
    outer loop
      vertex 12.8 -0.23033 19.2503
      vertex 12.8 -0.424444 18.9141
      vertex 13.0652 -0.159279 19.2503
    endloop
  endfacet
  facet normal -0.226059 -0.843612 -0.487048
    outer loop
      vertex 12.8 -0.424444 18.5259
      vertex 12.4378 -0.327387 18.5259
      vertex 12.5348 -0.159279 18.1897
    endloop
  endfacet
  facet normal -0.226015 -0.843606 -0.487079
    outer loop
      vertex 12.8 -0.424444 18.5259
      vertex 12.5348 -0.159279 18.1897
      vertex 12.8 -0.23033 18.1897
    endloop
  endfacet
  facet normal 0.226059 -0.843612 -0.487048
    outer loop
      vertex 13.1622 -0.327387 18.5259
      vertex 12.8 -0.424444 18.5259
      vertex 13.0652 -0.159279 18.1897
    endloop
  endfacet
  facet normal 0.226015 -0.843606 -0.487079
    outer loop
      vertex 13.0652 -0.159279 18.1897
      vertex 12.8 -0.424444 18.5259
      vertex 12.8 -0.23033 18.1897
    endloop
  endfacet
  facet normal 0.132453 0.494571 -0.858985
    outer loop
      vertex 12.8971 0.468107 17.9956
      vertex 12.8059 0.5 17.9999
      vertex 12.9155 0.5 18.0168
    endloop
  endfacet
  facet normal 0.132492 0.494674 -0.85892
    outer loop
      vertex 12.8059 0.5 17.9999
      vertex 12.8971 0.468107 17.9956
      vertex 12.8 0.494114 17.9956
    endloop
  endfacet
  facet normal -0.495555 -0.132689 -0.858381
    outer loop
      vertex 12.3407 0.0348349 18.1897
      vertex 12.2697 0.299999 18.1897
      vertex 12.6319 0.202943 17.9956
    endloop
  endfacet
  facet normal -0.362228 0.361973 -0.858933
    outer loop
      vertex 12.6319 0.397057 17.9956
      vertex 12.6845 0.5 18.0168
      vertex 12.7029 0.468107 17.9956
    endloop
  endfacet
  facet normal -0.362899 0.362235 -0.85854
    outer loop
      vertex 12.6845 0.5 18.0168
      vertex 12.6319 0.397057 17.9956
      vertex 12.6043 0.5 18.0507
    endloop
  endfacet
  facet normal -0.495565 -0.132755 -0.858366
    outer loop
      vertex 12.6319 0.202943 17.9956
      vertex 12.2697 0.299999 18.1897
      vertex 12.6059 0.299999 17.9956
    endloop
  endfacet
  facet normal -0.617614 -0.617569 -0.486992
    outer loop
      vertex 12.4378 -0.327387 18.5259
      vertex 12.3407 0.0348349 18.1897
      vertex 12.5348 -0.159279 18.1897
    endloop
  endfacet
  facet normal -0.84365 -0.225923 -0.487046
    outer loop
      vertex 12.1726 -0.0622215 18.5259
      vertex 12.0756 0.299999 18.5259
      vertex 12.3407 0.0348349 18.1897
    endloop
  endfacet
  facet normal -0.843646 -0.225894 -0.487066
    outer loop
      vertex 12.3407 0.0348349 18.1897
      vertex 12.0756 0.299999 18.5259
      vertex 12.2697 0.299999 18.1897
    endloop
  endfacet
  facet normal -0.843617 0.226037 0.48705
    outer loop
      vertex 12.2697 0.299999 19.2503
      vertex 12.2756 0.5 19.1677
      vertex 12.0756 0.299999 18.9141
    endloop
  endfacet
  facet normal -0.843556 0.226072 0.487139
    outer loop
      vertex 12.2756 0.5 19.1677
      vertex 12.2697 0.299999 19.2503
      vertex 12.3233 0.5 19.2503
    endloop
  endfacet
  facet normal -0.843646 -0.225894 0.487066
    outer loop
      vertex 12.2697 0.299999 19.2503
      vertex 12.0756 0.299999 18.9141
      vertex 12.3407 0.0348349 19.2503
    endloop
  endfacet
  facet normal -0.495565 0.132752 0.858366
    outer loop
      vertex 12.6319 0.397057 19.4444
      vertex 12.2697 0.299999 19.2503
      vertex 12.6059 0.299999 19.4444
    endloop
  endfacet
  facet normal -0.495565 -0.132755 0.858366
    outer loop
      vertex 12.6059 0.299999 19.4444
      vertex 12.2697 0.299999 19.2503
      vertex 12.6319 0.202943 19.4444
    endloop
  endfacet
  facet normal -0.3629 0.362234 0.85854
    outer loop
      vertex 12.6043 0.5 19.3893
      vertex 12.4536 0.5 19.3256
      vertex 12.6319 0.397057 19.4444
    endloop
  endfacet
  facet normal 0 0 -1
    outer loop
      vertex 12.9681 0.202943 17.9956
      vertex 12.9681 0.397057 17.9956
      vertex 12.9941 0.299999 17.9956
    endloop
  endfacet
  facet normal 0 0 -1
    outer loop
      vertex 12.8971 0.131891 17.9956
      vertex 12.9681 0.397057 17.9956
      vertex 12.9681 0.202943 17.9956
    endloop
  endfacet
  facet normal 0 0 -1
    outer loop
      vertex 12.8971 0.131891 17.9956
      vertex 12.8971 0.468107 17.9956
      vertex 12.9681 0.397057 17.9956
    endloop
  endfacet
  facet normal 0 0 -1
    outer loop
      vertex 12.8 0.105886 17.9956
      vertex 12.8971 0.468107 17.9956
      vertex 12.8971 0.131891 17.9956
    endloop
  endfacet
  facet normal 0 0 -1
    outer loop
      vertex 12.8 0.105886 17.9956
      vertex 12.8 0.494114 17.9956
      vertex 12.8971 0.468107 17.9956
    endloop
  endfacet
  facet normal 0 0 -1
    outer loop
      vertex 12.7029 0.131891 17.9956
      vertex 12.8 0.494114 17.9956
      vertex 12.8 0.105886 17.9956
    endloop
  endfacet
  facet normal 0 0 -1
    outer loop
      vertex 12.7029 0.131891 17.9956
      vertex 12.7029 0.468107 17.9956
      vertex 12.8 0.494114 17.9956
    endloop
  endfacet
  facet normal 0 0 -1
    outer loop
      vertex 12.6319 0.202943 17.9956
      vertex 12.7029 0.468107 17.9956
      vertex 12.7029 0.131891 17.9956
    endloop
  endfacet
  facet normal 0 0 -1
    outer loop
      vertex 12.6319 0.202943 17.9956
      vertex 12.6319 0.397057 17.9956
      vertex 12.7029 0.468107 17.9956
    endloop
  endfacet
  facet normal 0 -0 -1
    outer loop
      vertex 12.6319 0.397057 17.9956
      vertex 12.6319 0.202943 17.9956
      vertex 12.6059 0.299999 17.9956
    endloop
  endfacet
  facet normal 0.362899 0.362235 -0.858539
    outer loop
      vertex 12.9681 0.397057 17.9956
      vertex 12.9155 0.5 18.0168
      vertex 13.1464 0.5 18.1144
    endloop
  endfacet
  facet normal 0.362228 0.361973 -0.858933
    outer loop
      vertex 12.9155 0.5 18.0168
      vertex 12.9681 0.397057 17.9956
      vertex 12.8971 0.468107 17.9956
    endloop
  endfacet
  facet normal -0.495565 0.132752 -0.858366
    outer loop
      vertex 12.6059 0.299999 17.9956
      vertex 12.2697 0.299999 18.1897
      vertex 12.6319 0.397057 17.9956
    endloop
  endfacet
  facet normal -0.130951 0.495882 0.858459
    outer loop
      vertex 12.8 0.5 19.441
      vertex 12.7941 0.5 19.4401
      vertex 12.8 0.494114 19.4444
    endloop
  endfacet
  facet normal 0 0 1
    outer loop
      vertex 12.9681 0.397057 19.4444
      vertex 12.9681 0.202943 19.4444
      vertex 12.9941 0.299999 19.4444
    endloop
  endfacet
  facet normal 0 0 1
    outer loop
      vertex 12.8971 0.468107 19.4444
      vertex 12.9681 0.202943 19.4444
      vertex 12.9681 0.397057 19.4444
    endloop
  endfacet
  facet normal 0 0 1
    outer loop
      vertex 12.8971 0.468107 19.4444
      vertex 12.8971 0.131891 19.4444
      vertex 12.9681 0.202943 19.4444
    endloop
  endfacet
  facet normal 0 0 1
    outer loop
      vertex 12.8 0.494114 19.4444
      vertex 12.8971 0.131891 19.4444
      vertex 12.8971 0.468107 19.4444
    endloop
  endfacet
  facet normal 0 0 1
    outer loop
      vertex 12.8 0.494114 19.4444
      vertex 12.8 0.105886 19.4444
      vertex 12.8971 0.131891 19.4444
    endloop
  endfacet
  facet normal -0 0 1
    outer loop
      vertex 12.7029 0.468107 19.4444
      vertex 12.8 0.105886 19.4444
      vertex 12.8 0.494114 19.4444
    endloop
  endfacet
  facet normal 0 0 1
    outer loop
      vertex 12.7029 0.468107 19.4444
      vertex 12.7029 0.131891 19.4444
      vertex 12.8 0.105886 19.4444
    endloop
  endfacet
  facet normal -0 0 1
    outer loop
      vertex 12.6319 0.397057 19.4444
      vertex 12.7029 0.131891 19.4444
      vertex 12.7029 0.468107 19.4444
    endloop
  endfacet
  facet normal 0 0 1
    outer loop
      vertex 12.6319 0.397057 19.4444
      vertex 12.6319 0.202943 19.4444
      vertex 12.7029 0.131891 19.4444
    endloop
  endfacet
  facet normal 0 -0 1
    outer loop
      vertex 12.6319 0.202943 19.4444
      vertex 12.6319 0.397057 19.4444
      vertex 12.6059 0.299999 19.4444
    endloop
  endfacet
  facet normal 0.496466 0.131606 -0.858022
    outer loop
      vertex 12.9941 0.299999 17.9956
      vertex 13.1464 0.5 18.1144
      vertex 13.1941 0.5 18.142
    endloop
  endfacet
  facet normal 0.495381 0.132703 -0.85848
    outer loop
      vertex 13.1464 0.5 18.1144
      vertex 12.9941 0.299999 17.9956
      vertex 12.9681 0.397057 17.9956
    endloop
  endfacet
endsolid OpenSCAD_Model
