solid OpenSCAD_Model
  facet normal 0 0 -1
    outer loop
      vertex 0 15.8532 0
      vertex 6.14999 32.95 0
      vertex 6.14999 17.85 0
    endloop
  endfacet
  facet normal -0 0 -1
    outer loop
      vertex 6.14999 32.95 0
      vertex 0 15.8532 0
      vertex 0 34.9468 0
    endloop
  endfacet
  facet normal 0 0 -1
    outer loop
      vertex 0 0 0
      vertex 7.55001 6.14999 0
      vertex 9.54676 0 0
    endloop
  endfacet
  facet normal -0 0 -1
    outer loop
      vertex 7.55001 6.14999 0
      vertex 0 0 0
      vertex 6.14999 7.55001 0
    endloop
  endfacet
  facet normal -0 0 -1
    outer loop
      vertex 6.14999 7.55001 0
      vertex 0 0 0
      vertex 0 9.54676 0
    endloop
  endfacet
  facet normal 0 0 -1
    outer loop
      vertex 34.9468 0 0
      vertex 17.85 6.14999 0
      vertex 32.95 6.14999 0
    endloop
  endfacet
  facet normal 0 -0 -1
    outer loop
      vertex 17.85 6.14999 0
      vertex 34.9468 0 0
      vertex 15.8532 0 0
    endloop
  endfacet
  facet normal 0 0 -1
    outer loop
      vertex 43.25 6.14999 0
      vertex 50.8 9.69667 0
      vertex 50.8 0 0
    endloop
  endfacet
  facet normal -0 0 -1
    outer loop
      vertex 50.8 9.69667 0
      vertex 43.25 6.14999 0
      vertex 50.8 15.7033 0
    endloop
  endfacet
  facet normal 0 0 -1
    outer loop
      vertex 32.95 6.14999 0
      vertex 50.8 15.7033 0
      vertex 43.25 6.14999 0
    endloop
  endfacet
  facet normal -0 0 -1
    outer loop
      vertex 50.8 15.7033 0
      vertex 32.95 6.14999 0
      vertex 50.8 35.0967 0
    endloop
  endfacet
  facet normal 0 -0 -1
    outer loop
      vertex 35.0967 50.8 0
      vertex 50.8 35.0967 0
      vertex 32.95 6.14999 0
    endloop
  endfacet
  facet normal 0 -0 -1
    outer loop
      vertex 43.25 6.14999 0
      vertex 50.8 0 0
      vertex 41.2532 0 0
    endloop
  endfacet
  facet normal 0 0 -1
    outer loop
      vertex 50.8 9.69667 0
      vertex 56.8 17.7 0
      vertex 56.8 7.7 0
    endloop
  endfacet
  facet normal 0 0 -1
    outer loop
      vertex 56.8 17.7 0
      vertex 50.8 9.69667 0
      vertex 50.8 15.7033 0
    endloop
  endfacet
  facet normal 0 0 -1
    outer loop
      vertex 50.8 35.0967 0
      vertex 56.8 43.1 0
      vertex 56.8 33.1 0
    endloop
  endfacet
  facet normal 0 0 -1
    outer loop
      vertex 56.8 43.1 0
      vertex 50.8 35.0967 0
      vertex 50.8 41.1033 0
    endloop
  endfacet
  facet normal 0 0 -1
    outer loop
      vertex 50.8 41.1033 0
      vertex 41.1033 50.8 0
      vertex 50.8 50.8 0
    endloop
  endfacet
  facet normal 0 0 -1
    outer loop
      vertex 50.8 41.1033 0
      vertex 35.0967 50.8 0
      vertex 41.1033 50.8 0
    endloop
  endfacet
  facet normal 0 0 -1
    outer loop
      vertex 50.8 35.0967 0
      vertex 35.0967 50.8 0
      vertex 50.8 41.1033 0
    endloop
  endfacet
  facet normal 0 0 -1
    outer loop
      vertex 6.14999 32.95 0
      vertex 32.95 6.14999 0
      vertex 17.85 6.14999 0
    endloop
  endfacet
  facet normal 0 0 -1
    outer loop
      vertex 32.95 6.14999 0
      vertex 6.14999 32.95 0
      vertex 35.0967 50.8 0
    endloop
  endfacet
  facet normal -0 0 -1
    outer loop
      vertex 35.0967 50.8 0
      vertex 6.14999 32.95 0
      vertex 15.7033 50.8 0
    endloop
  endfacet
  facet normal 0 0 -1
    outer loop
      vertex 6.14999 17.85 0
      vertex 17.85 6.14999 0
      vertex 7.55001 6.14999 0
    endloop
  endfacet
  facet normal 0 0 -1
    outer loop
      vertex 6.14999 17.85 0
      vertex 7.55001 6.14999 0
      vertex 6.14999 7.55001 0
    endloop
  endfacet
  facet normal 0 0 -1
    outer loop
      vertex 6.14999 32.95 0
      vertex 17.85 6.14999 0
      vertex 6.14999 17.85 0
    endloop
  endfacet
  facet normal 0 0 -1
    outer loop
      vertex 6.14999 43.25 0
      vertex 15.7033 50.8 0
      vertex 6.14999 32.95 0
    endloop
  endfacet
  facet normal -0 0 -1
    outer loop
      vertex 15.7033 50.8 0
      vertex 6.14999 43.25 0
      vertex 9.69667 50.8 0
    endloop
  endfacet
  facet normal 0 0 -1
    outer loop
      vertex 0 50.8 0
      vertex 6.14999 43.25 0
      vertex 0 41.2532 0
    endloop
  endfacet
  facet normal 0 0 -1
    outer loop
      vertex 6.14999 43.25 0
      vertex 0 50.8 0
      vertex 9.69667 50.8 0
    endloop
  endfacet
  facet normal 0 0 -1
    outer loop
      vertex 35.0967 50.8 0
      vertex 43.1 56.8 0
      vertex 41.1033 50.8 0
    endloop
  endfacet
  facet normal -0 0 -1
    outer loop
      vertex 43.1 56.8 0
      vertex 35.0967 50.8 0
      vertex 33.1 56.8 0
    endloop
  endfacet
  facet normal 0 0 -1
    outer loop
      vertex 9.69667 50.8 0
      vertex 17.7 56.8 0
      vertex 15.7033 50.8 0
    endloop
  endfacet
  facet normal -0 0 -1
    outer loop
      vertex 17.7 56.8 0
      vertex 9.69667 50.8 0
      vertex 7.7 56.8 0
    endloop
  endfacet
  facet normal 1 -0 0
    outer loop
      vertex 56.8 7.7 2.4
      vertex 56.8 17.7 0
      vertex 56.8 17.7 2.4
    endloop
  endfacet
  facet normal 1 0 0
    outer loop
      vertex 56.8 17.7 0
      vertex 56.8 7.7 2.4
      vertex 56.8 7.7 0
    endloop
  endfacet
  facet normal -0.315089 -0.949062 0
    outer loop
      vertex 50.8 9.69667 0
      vertex 50.81 9.69335 2.4
      vertex 50.8 9.69667 2.4
    endloop
  endfacet
  facet normal -0.315755 -0.948841 3.08228e-06
    outer loop
      vertex 50.81 9.69335 2.4
      vertex 50.8 9.69667 0
      vertex 56.8 7.7 2.4
    endloop
  endfacet
  facet normal -0.315754 -0.948841 -0
    outer loop
      vertex 56.8 7.7 2.4
      vertex 50.8 9.69667 0
      vertex 56.8 7.7 0
    endloop
  endfacet
  facet normal -0.315748 0.948843 0
    outer loop
      vertex 56.8 17.7 0
      vertex 50.81 15.7067 2.4
      vertex 56.8 17.7 2.4
    endloop
  endfacet
  facet normal -0.315758 0.94884 -2.85311e-05
    outer loop
      vertex 50.8 15.7033 0
      vertex 50.81 15.7067 2.4
      vertex 56.8 17.7 0
    endloop
  endfacet
  facet normal -0.321903 0.946773 0
    outer loop
      vertex 50.81 15.7067 2.4
      vertex 50.8 15.7033 0
      vertex 50.8 15.7033 2.4
    endloop
  endfacet
  facet normal -0 0 1
    outer loop
      vertex 50.81 15.7067 2.4
      vertex 56.8 7.7 2.4
      vertex 56.8 17.7 2.4
    endloop
  endfacet
  facet normal 0 0 1
    outer loop
      vertex 56.8 7.7 2.4
      vertex 50.81 15.7067 2.4
      vertex 50.81 9.69335 2.4
    endloop
  endfacet
  facet normal -0 0 1
    outer loop
      vertex 50.81 41.1067 2.4
      vertex 56.8 33.1 2.4
      vertex 56.8 43.1 2.4
    endloop
  endfacet
  facet normal 0 0 1
    outer loop
      vertex 56.8 33.1 2.4
      vertex 50.81 41.1067 2.4
      vertex 50.81 35.0933 2.4
    endloop
  endfacet
  facet normal 0 0 1
    outer loop
      vertex 17.7 56.8 2.4
      vertex 9.69335 50.81 2.4
      vertex 15.7067 50.81 2.4
    endloop
  endfacet
  facet normal 0 -0 1
    outer loop
      vertex 9.69335 50.81 2.4
      vertex 17.7 56.8 2.4
      vertex 7.7 56.8 2.4
    endloop
  endfacet
  facet normal 0 0 1
    outer loop
      vertex 43.1 56.8 2.4
      vertex 35.0933 50.81 2.4
      vertex 41.1067 50.81 2.4
    endloop
  endfacet
  facet normal 0 -0 1
    outer loop
      vertex 35.0933 50.81 2.4
      vertex 43.1 56.8 2.4
      vertex 33.1 56.8 2.4
    endloop
  endfacet
  facet normal 0 0 1
    outer loop
      vertex 15.7067 50.81 2.4
      vertex 9.69667 50.8 2.4
      vertex 15.7033 50.8 2.4
    endloop
  endfacet
  facet normal 0 -0 1
    outer loop
      vertex 9.69667 50.8 2.4
      vertex 15.7067 50.81 2.4
      vertex 9.69335 50.81 2.4
    endloop
  endfacet
  facet normal 0 0 1
    outer loop
      vertex 41.1067 50.81 2.4
      vertex 35.0967 50.8 2.4
      vertex 41.1033 50.8 2.4
    endloop
  endfacet
  facet normal 0 -0 1
    outer loop
      vertex 35.0967 50.8 2.4
      vertex 41.1067 50.81 2.4
      vertex 35.0933 50.81 2.4
    endloop
  endfacet
  facet normal -0 0 1
    outer loop
      vertex 49.225 49.225 2.4
      vertex 50.8 41.1033 2.4
      vertex 50.8 50.8 2.4
    endloop
  endfacet
  facet normal 0 0 1
    outer loop
      vertex 50.8 41.1033 2.4
      vertex 49.225 49.225 2.4
      vertex 50.8 35.0967 2.4
    endloop
  endfacet
  facet normal 0 0 1
    outer loop
      vertex 50.8 35.0967 2.4
      vertex 49.225 49.225 2.4
      vertex 50.8 15.7033 2.4
    endloop
  endfacet
  facet normal 0 0 1
    outer loop
      vertex 49.225 1.575 2.4
      vertex 50.8 15.7033 2.4
      vertex 49.225 49.225 2.4
    endloop
  endfacet
  facet normal 0 0 1
    outer loop
      vertex 50.8 15.7033 2.4
      vertex 49.225 1.575 2.4
      vertex 50.8 9.69667 2.4
    endloop
  endfacet
  facet normal -0 0 1
    outer loop
      vertex 41.1033 50.8 2.4
      vertex 49.225 49.225 2.4
      vertex 50.8 50.8 2.4
    endloop
  endfacet
  facet normal -0 0 1
    outer loop
      vertex 35.0967 50.8 2.4
      vertex 49.225 49.225 2.4
      vertex 41.1033 50.8 2.4
    endloop
  endfacet
  facet normal -0 0 1
    outer loop
      vertex 15.7033 50.8 2.4
      vertex 49.225 49.225 2.4
      vertex 35.0967 50.8 2.4
    endloop
  endfacet
  facet normal 0 0 1
    outer loop
      vertex 1.575 49.225 2.4
      vertex 15.7033 50.8 2.4
      vertex 9.69667 50.8 2.4
    endloop
  endfacet
  facet normal 0 0 1
    outer loop
      vertex 15.7033 50.8 2.4
      vertex 1.575 49.225 2.4
      vertex 49.225 49.225 2.4
    endloop
  endfacet
  facet normal -0 0 1
    outer loop
      vertex 0 50.8 2.4
      vertex 1.575 49.225 2.4
      vertex 9.69667 50.8 2.4
    endloop
  endfacet
  facet normal 0 0 1
    outer loop
      vertex 0 41.2532 2.4
      vertex 1.575 49.225 2.4
      vertex 0 50.8 2.4
    endloop
  endfacet
  facet normal 0 0 1
    outer loop
      vertex 1.575 49.225 2.4
      vertex 0 41.2532 2.4
      vertex 1.575 41.7646 2.4
    endloop
  endfacet
  facet normal -0 0 1
    outer loop
      vertex 50.8 41.1033 2.4
      vertex 50.81 35.0933 2.4
      vertex 50.81 41.1067 2.4
    endloop
  endfacet
  facet normal 0 0 1
    outer loop
      vertex 50.81 35.0933 2.4
      vertex 50.8 41.1033 2.4
      vertex 50.8 35.0967 2.4
    endloop
  endfacet
  facet normal -0 0 1
    outer loop
      vertex 50.8 15.7033 2.4
      vertex 50.81 9.69335 2.4
      vertex 50.81 15.7067 2.4
    endloop
  endfacet
  facet normal 0 0 1
    outer loop
      vertex 50.81 9.69335 2.4
      vertex 50.8 15.7033 2.4
      vertex 50.8 9.69667 2.4
    endloop
  endfacet
  facet normal 0 0 1
    outer loop
      vertex 50.8 9.69667 2.4
      vertex 49.225 1.575 2.4
      vertex 50.8 0 2.4
    endloop
  endfacet
  facet normal 0 0 1
    outer loop
      vertex 41.2532 0 2.4
      vertex 49.225 1.575 2.4
      vertex 41.7646 1.575 2.4
    endloop
  endfacet
  facet normal 0 0 1
    outer loop
      vertex 49.225 1.575 2.4
      vertex 41.2532 0 2.4
      vertex 50.8 0 2.4
    endloop
  endfacet
  facet normal 0 0 1
    outer loop
      vertex 1.575 9.0354 2.4
      vertex 0 9.54676 2.4
      vertex 1.575 1.575 2.4
    endloop
  endfacet
  facet normal -0 0 1
    outer loop
      vertex 1.575 1.575 2.4
      vertex 9.54676 0 2.4
      vertex 9.0354 1.575 2.4
    endloop
  endfacet
  facet normal 0 0 1
    outer loop
      vertex 1.575 1.575 2.4
      vertex 0 0 2.4
      vertex 9.54676 0 2.4
    endloop
  endfacet
  facet normal 0 0 1
    outer loop
      vertex 0 0 2.4
      vertex 1.575 1.575 2.4
      vertex 0 9.54676 2.4
    endloop
  endfacet
  facet normal 0 0 1
    outer loop
      vertex 0 34.9468 2.4
      vertex 1.575 16.3646 2.4
      vertex 1.575 34.4354 2.4
    endloop
  endfacet
  facet normal 0 0 1
    outer loop
      vertex 1.575 16.3646 2.4
      vertex 0 34.9468 2.4
      vertex 0 15.8532 2.4
    endloop
  endfacet
  facet normal -0 0 1
    outer loop
      vertex 16.3646 1.575 2.4
      vertex 34.9468 0 2.4
      vertex 34.4354 1.575 2.4
    endloop
  endfacet
  facet normal 0 0 1
    outer loop
      vertex 34.9468 0 2.4
      vertex 16.3646 1.575 2.4
      vertex 15.8532 0 2.4
    endloop
  endfacet
  facet normal 1 -0 0
    outer loop
      vertex 56.8 33.1 2.4
      vertex 56.8 43.1 0
      vertex 56.8 43.1 2.4
    endloop
  endfacet
  facet normal 1 0 0
    outer loop
      vertex 56.8 43.1 0
      vertex 56.8 33.1 2.4
      vertex 56.8 33.1 0
    endloop
  endfacet
  facet normal -0.321903 -0.946773 0
    outer loop
      vertex 50.8 35.0967 0
      vertex 50.81 35.0933 2.4
      vertex 50.8 35.0967 2.4
    endloop
  endfacet
  facet normal -0.315748 -0.948843 -2.85788e-05
    outer loop
      vertex 50.81 35.0933 2.4
      vertex 50.8 35.0967 0
      vertex 56.8 33.1 2.4
    endloop
  endfacet
  facet normal -0.315758 -0.94884 -0
    outer loop
      vertex 56.8 33.1 2.4
      vertex 50.8 35.0967 0
      vertex 56.8 33.1 0
    endloop
  endfacet
  facet normal -0.315748 0.948843 0
    outer loop
      vertex 56.8 43.1 0
      vertex 50.81 41.1067 2.4
      vertex 56.8 43.1 2.4
    endloop
  endfacet
  facet normal -0.315758 0.94884 -2.85311e-05
    outer loop
      vertex 50.8 41.1033 0
      vertex 50.81 41.1067 2.4
      vertex 56.8 43.1 0
    endloop
  endfacet
  facet normal -0.321903 0.946773 0
    outer loop
      vertex 50.81 41.1067 2.4
      vertex 50.8 41.1033 0
      vertex 50.8 41.1033 2.4
    endloop
  endfacet
  facet normal 0 1 -0
    outer loop
      vertex 17.7 56.8 0
      vertex 7.7 56.8 2.4
      vertex 17.7 56.8 2.4
    endloop
  endfacet
  facet normal 0 1 0
    outer loop
      vertex 7.7 56.8 2.4
      vertex 17.7 56.8 0
      vertex 7.7 56.8 0
    endloop
  endfacet
  facet normal 0.948843 -0.315748 0
    outer loop
      vertex 15.7067 50.81 2.4
      vertex 17.7 56.8 0
      vertex 17.7 56.8 2.4
    endloop
  endfacet
  facet normal 0.946773 -0.321903 0
    outer loop
      vertex 15.7033 50.8 0
      vertex 15.7067 50.81 2.4
      vertex 15.7033 50.8 2.4
    endloop
  endfacet
  facet normal 0.94884 -0.315758 -2.85311e-05
    outer loop
      vertex 15.7067 50.81 2.4
      vertex 15.7033 50.8 0
      vertex 17.7 56.8 0
    endloop
  endfacet
  facet normal -0.948841 -0.315755 0
    outer loop
      vertex 7.7 56.8 0
      vertex 9.69335 50.81 2.4
      vertex 7.7 56.8 2.4
    endloop
  endfacet
  facet normal -0.948841 -0.315754 3.07714e-06
    outer loop
      vertex 9.69667 50.8 0
      vertex 9.69335 50.81 2.4
      vertex 7.7 56.8 0
    endloop
  endfacet
  facet normal -0.949062 -0.315089 0
    outer loop
      vertex 9.69335 50.81 2.4
      vertex 9.69667 50.8 0
      vertex 9.69667 50.8 2.4
    endloop
  endfacet
  facet normal 0 1 -0
    outer loop
      vertex 43.1 56.8 0
      vertex 33.1 56.8 2.4
      vertex 43.1 56.8 2.4
    endloop
  endfacet
  facet normal 0 1 0
    outer loop
      vertex 33.1 56.8 2.4
      vertex 43.1 56.8 0
      vertex 33.1 56.8 0
    endloop
  endfacet
  facet normal 0.948843 -0.315748 0
    outer loop
      vertex 41.1067 50.81 2.4
      vertex 43.1 56.8 0
      vertex 43.1 56.8 2.4
    endloop
  endfacet
  facet normal 0.946773 -0.321903 0
    outer loop
      vertex 41.1033 50.8 0
      vertex 41.1067 50.81 2.4
      vertex 41.1033 50.8 2.4
    endloop
  endfacet
  facet normal 0.94884 -0.315758 -2.85311e-05
    outer loop
      vertex 41.1067 50.81 2.4
      vertex 41.1033 50.8 0
      vertex 43.1 56.8 0
    endloop
  endfacet
  facet normal -0.948843 -0.315748 0
    outer loop
      vertex 33.1 56.8 0
      vertex 35.0933 50.81 2.4
      vertex 33.1 56.8 2.4
    endloop
  endfacet
  facet normal -0.94884 -0.315758 -2.85311e-05
    outer loop
      vertex 35.0967 50.8 0
      vertex 35.0933 50.81 2.4
      vertex 33.1 56.8 0
    endloop
  endfacet
  facet normal -0.946773 -0.321903 0
    outer loop
      vertex 35.0933 50.81 2.4
      vertex 35.0967 50.8 0
      vertex 35.0967 50.8 2.4
    endloop
  endfacet
  facet normal 1 -0 0
    outer loop
      vertex 50.8 41.1033 2.4
      vertex 50.8 50.8 0
      vertex 50.8 50.8 2.4
    endloop
  endfacet
  facet normal 1 0 0
    outer loop
      vertex 50.8 50.8 0
      vertex 50.8 41.1033 2.4
      vertex 50.8 41.1033 0
    endloop
  endfacet
  facet normal 1 -0 0
    outer loop
      vertex 50.8 0 2.4
      vertex 50.8 9.69667 0
      vertex 50.8 9.69667 2.4
    endloop
  endfacet
  facet normal 1 0 0
    outer loop
      vertex 50.8 9.69667 0
      vertex 50.8 0 2.4
      vertex 50.8 0 0
    endloop
  endfacet
  facet normal 1 -0 0
    outer loop
      vertex 50.8 15.7033 2.4
      vertex 50.8 35.0967 0
      vertex 50.8 35.0967 2.4
    endloop
  endfacet
  facet normal 1 0 0
    outer loop
      vertex 50.8 35.0967 0
      vertex 50.8 15.7033 2.4
      vertex 50.8 15.7033 0
    endloop
  endfacet
  facet normal 0 0 1
    outer loop
      vertex 1.575 34.4354 4
      vertex 6.14999 17.85 4
      vertex 6.14999 32.95 4
    endloop
  endfacet
  facet normal 0 0 1
    outer loop
      vertex 6.14999 17.85 4
      vertex 1.575 34.4354 4
      vertex 1.575 16.3646 4
    endloop
  endfacet
  facet normal 0 0 1
    outer loop
      vertex 11.12 27.236 4
      vertex 17.85 6.14999 4
      vertex 25.4 7.04001 4
    endloop
  endfacet
  facet normal -0 0 1
    outer loop
      vertex 6.14999 17.85 4
      vertex 17.85 6.14999 4
      vertex 11.12 27.236 4
    endloop
  endfacet
  facet normal -0 0 1
    outer loop
      vertex 39.68 27.236 4
      vertex 49.225 1.575 4
      vertex 49.225 49.225 4
    endloop
  endfacet
  facet normal 0 0 1
    outer loop
      vertex 39.68 27.236 4
      vertex 49.225 49.225 4
      vertex 39.68 43.76 4
    endloop
  endfacet
  facet normal 0 0 1
    outer loop
      vertex 49.225 49.225 4
      vertex 11.12 43.76 4
      vertex 39.68 43.76 4
    endloop
  endfacet
  facet normal -0 0 1
    outer loop
      vertex 6.14999 32.95 4
      vertex 11.12 27.236 4
      vertex 11.12 43.76 4
    endloop
  endfacet
  facet normal 0 0 1
    outer loop
      vertex 6.14999 32.95 4
      vertex 11.12 43.76 4
      vertex 6.14999 43.25 4
    endloop
  endfacet
  facet normal -0 0 1
    outer loop
      vertex 1.575 49.225 4
      vertex 11.12 43.76 4
      vertex 49.225 49.225 4
    endloop
  endfacet
  facet normal 0 0 1
    outer loop
      vertex 11.12 43.76 4
      vertex 1.575 49.225 4
      vertex 6.14999 43.25 4
    endloop
  endfacet
  facet normal 0 0 1
    outer loop
      vertex 6.14999 43.25 4
      vertex 1.575 49.225 4
      vertex 1.575 41.7646 4
    endloop
  endfacet
  facet normal 0 0 1
    outer loop
      vertex 49.225 1.575 4
      vertex 43.25 6.14999 4
      vertex 41.7646 1.575 4
    endloop
  endfacet
  facet normal 0 0 1
    outer loop
      vertex 49.225 1.575 4
      vertex 39.68 27.236 4
      vertex 43.25 6.14999 4
    endloop
  endfacet
  facet normal 0 0 1
    outer loop
      vertex 39.68 27.236 4
      vertex 32.95 6.14999 4
      vertex 43.25 6.14999 4
    endloop
  endfacet
  facet normal 0 -0 1
    outer loop
      vertex 32.95 6.14999 4
      vertex 39.68 27.236 4
      vertex 25.4 7.04001 4
    endloop
  endfacet
  facet normal 0 0 1
    outer loop
      vertex 25.4 7.04001 4
      vertex 34.4354 1.575 4
      vertex 32.95 6.14999 4
    endloop
  endfacet
  facet normal 0 0 1
    outer loop
      vertex 16.3646 1.575 4
      vertex 25.4 7.04001 4
      vertex 17.85 6.14999 4
    endloop
  endfacet
  facet normal 0 0 1
    outer loop
      vertex 25.4 7.04001 4
      vertex 16.3646 1.575 4
      vertex 34.4354 1.575 4
    endloop
  endfacet
  facet normal 0 0 1
    outer loop
      vertex 11.12 27.236 4
      vertex 6.14999 32.95 4
      vertex 6.14999 17.85 4
    endloop
  endfacet
  facet normal 0 0 1
    outer loop
      vertex 17.85 6.14999 4
      vertex 6.14999 17.85 4
      vertex 7.55001 6.14999 4
    endloop
  endfacet
  facet normal -0 0 1
    outer loop
      vertex 6.14999 7.55001 4
      vertex 7.55001 6.14999 4
      vertex 6.14999 17.85 4
    endloop
  endfacet
  facet normal 0 0 1
    outer loop
      vertex 1.575 1.575 4
      vertex 7.55001 6.14999 4
      vertex 6.14999 7.55001 4
    endloop
  endfacet
  facet normal 0 0 1
    outer loop
      vertex 1.575 1.575 4
      vertex 6.14999 7.55001 4
      vertex 1.575 9.0354 4
    endloop
  endfacet
  facet normal 0 0 1
    outer loop
      vertex 7.55001 6.14999 4
      vertex 1.575 1.575 4
      vertex 9.0354 1.575 4
    endloop
  endfacet
  facet normal 0 0 1
    outer loop
      vertex 38.28 42.36 4
      vertex 37.08 28.6316 4
      vertex 38.28 27.681 4
    endloop
  endfacet
  facet normal 0 0 1
    outer loop
      vertex 13.72 28.6316 4
      vertex 37.08 28.6316 4
      vertex 38.28 42.36 4
    endloop
  endfacet
  facet normal 0 0 1
    outer loop
      vertex 37.08 28.6316 4
      vertex 13.72 28.6316 4
      vertex 25.4 19.84 4
    endloop
  endfacet
  facet normal 0 0 1
    outer loop
      vertex 12.52 27.681 4
      vertex 13.72 28.6316 4
      vertex 12.52 42.36 4
    endloop
  endfacet
  facet normal -0 0 1
    outer loop
      vertex 12.52 42.36 4
      vertex 13.72 28.6316 4
      vertex 38.28 42.36 4
    endloop
  endfacet
  facet normal -0 0 1
    outer loop
      vertex 37.08 28.0623 4
      vertex 38.28 27.681 4
      vertex 37.08 28.6316 4
    endloop
  endfacet
  facet normal 0 0 1
    outer loop
      vertex 34.0106 23.7213 4
      vertex 38.28 27.681 4
      vertex 37.08 28.0623 4
    endloop
  endfacet
  facet normal -0 0 1
    outer loop
      vertex 34.0106 23.7213 4
      vertex 25.4 9.46496 4
      vertex 38.28 27.681 4
    endloop
  endfacet
  facet normal -0 0 1
    outer loop
      vertex 25.4 17.24 4
      vertex 25.4 9.46496 4
      vertex 34.0106 23.7213 4
    endloop
  endfacet
  facet normal 0 0 1
    outer loop
      vertex 16.7894 23.7213 4
      vertex 25.4 9.46496 4
      vertex 25.4 17.24 4
    endloop
  endfacet
  facet normal -0 0 1
    outer loop
      vertex 12.52 27.681 4
      vertex 16.7894 23.7213 4
      vertex 13.72 28.0623 4
    endloop
  endfacet
  facet normal 0 0 1
    outer loop
      vertex 16.7894 23.7213 4
      vertex 12.52 27.681 4
      vertex 25.4 9.46496 4
    endloop
  endfacet
  facet normal 0 0 1
    outer loop
      vertex 13.72 28.6316 4
      vertex 12.52 27.681 4
      vertex 13.72 28.0623 4
    endloop
  endfacet
  facet normal -1 0 0
    outer loop
      vertex 0 0 0
      vertex 0 9.54676 2.4
      vertex 0 9.54676 0
    endloop
  endfacet
  facet normal -1 -0 0
    outer loop
      vertex 0 9.54676 2.4
      vertex 0 0 0
      vertex 0 0 2.4
    endloop
  endfacet
  facet normal -1 0 0
    outer loop
      vertex 0 41.2532 0
      vertex 0 50.8 2.4
      vertex 0 50.8 0
    endloop
  endfacet
  facet normal -1 -0 0
    outer loop
      vertex 0 50.8 2.4
      vertex 0 41.2532 0
      vertex 0 41.2532 2.4
    endloop
  endfacet
  facet normal -1 0 0
    outer loop
      vertex 0 15.8532 0
      vertex 0 34.9468 2.4
      vertex 0 34.9468 0
    endloop
  endfacet
  facet normal -1 -0 0
    outer loop
      vertex 0 34.9468 2.4
      vertex 0 15.8532 0
      vertex 0 15.8532 2.4
    endloop
  endfacet
  facet normal 0 1 -0
    outer loop
      vertex 50.8 50.8 0
      vertex 41.1033 50.8 2.4
      vertex 50.8 50.8 2.4
    endloop
  endfacet
  facet normal 0 1 0
    outer loop
      vertex 41.1033 50.8 2.4
      vertex 50.8 50.8 0
      vertex 41.1033 50.8 0
    endloop
  endfacet
  facet normal 0 1 -0
    outer loop
      vertex 9.69667 50.8 0
      vertex 0 50.8 2.4
      vertex 9.69667 50.8 2.4
    endloop
  endfacet
  facet normal 0 1 0
    outer loop
      vertex 0 50.8 2.4
      vertex 9.69667 50.8 0
      vertex 0 50.8 0
    endloop
  endfacet
  facet normal 0 1 -0
    outer loop
      vertex 35.0967 50.8 0
      vertex 15.7033 50.8 2.4
      vertex 35.0967 50.8 2.4
    endloop
  endfacet
  facet normal 0 1 0
    outer loop
      vertex 15.7033 50.8 2.4
      vertex 35.0967 50.8 0
      vertex 15.7033 50.8 0
    endloop
  endfacet
  facet normal 0 -1 0
    outer loop
      vertex 41.2532 0 0
      vertex 50.8 0 2.4
      vertex 41.2532 0 2.4
    endloop
  endfacet
  facet normal 0 -1 -0
    outer loop
      vertex 50.8 0 2.4
      vertex 41.2532 0 0
      vertex 50.8 0 0
    endloop
  endfacet
  facet normal 0 -1 0
    outer loop
      vertex 0 0 0
      vertex 9.54676 0 2.4
      vertex 0 0 2.4
    endloop
  endfacet
  facet normal 0 -1 -0
    outer loop
      vertex 9.54676 0 2.4
      vertex 0 0 0
      vertex 9.54676 0 0
    endloop
  endfacet
  facet normal 0 -1 0
    outer loop
      vertex 15.8532 0 0
      vertex 34.9468 0 2.4
      vertex 15.8532 0 2.4
    endloop
  endfacet
  facet normal 0 -1 -0
    outer loop
      vertex 34.9468 0 2.4
      vertex 15.8532 0 0
      vertex 34.9468 0 0
    endloop
  endfacet
  facet normal 0 -1 0
    outer loop
      vertex 1.575 1.575 2.4
      vertex 9.0354 1.575 4
      vertex 1.575 1.575 4
    endloop
  endfacet
  facet normal 0 -1 -0
    outer loop
      vertex 9.0354 1.575 4
      vertex 1.575 1.575 2.4
      vertex 9.0354 1.575 2.4
    endloop
  endfacet
  facet normal 0 -1 0
    outer loop
      vertex 41.7646 1.575 2.4
      vertex 49.225 1.575 4
      vertex 41.7646 1.575 4
    endloop
  endfacet
  facet normal 0 -1 -0
    outer loop
      vertex 49.225 1.575 4
      vertex 41.7646 1.575 2.4
      vertex 49.225 1.575 2.4
    endloop
  endfacet
  facet normal 0 -1 0
    outer loop
      vertex 16.3646 1.575 2.4
      vertex 34.4354 1.575 4
      vertex 16.3646 1.575 4
    endloop
  endfacet
  facet normal 0 -1 -0
    outer loop
      vertex 34.4354 1.575 4
      vertex 16.3646 1.575 2.4
      vertex 34.4354 1.575 2.4
    endloop
  endfacet
  facet normal 0 1 -0
    outer loop
      vertex 49.225 49.225 2.4
      vertex 1.575 49.225 4
      vertex 49.225 49.225 4
    endloop
  endfacet
  facet normal 0 1 0
    outer loop
      vertex 1.575 49.225 4
      vertex 49.225 49.225 2.4
      vertex 1.575 49.225 2.4
    endloop
  endfacet
  facet normal -1 0 0
    outer loop
      vertex 1.575 1.575 2.4
      vertex 1.575 9.0354 4
      vertex 1.575 9.0354 2.4
    endloop
  endfacet
  facet normal -1 -0 0
    outer loop
      vertex 1.575 9.0354 4
      vertex 1.575 1.575 2.4
      vertex 1.575 1.575 4
    endloop
  endfacet
  facet normal -1 0 0
    outer loop
      vertex 1.575 41.7646 2.4
      vertex 1.575 49.225 4
      vertex 1.575 49.225 2.4
    endloop
  endfacet
  facet normal -1 -0 0
    outer loop
      vertex 1.575 49.225 4
      vertex 1.575 41.7646 2.4
      vertex 1.575 41.7646 4
    endloop
  endfacet
  facet normal -1 0 0
    outer loop
      vertex 1.575 16.3646 2.4
      vertex 1.575 34.4354 4
      vertex 1.575 34.4354 2.4
    endloop
  endfacet
  facet normal -1 -0 0
    outer loop
      vertex 1.575 34.4354 4
      vertex 1.575 16.3646 2.4
      vertex 1.575 16.3646 4
    endloop
  endfacet
  facet normal 1 -0 0
    outer loop
      vertex 49.225 1.575 4
      vertex 49.225 49.225 2.4
      vertex 49.225 49.225 4
    endloop
  endfacet
  facet normal 1 0 0
    outer loop
      vertex 49.225 49.225 2.4
      vertex 49.225 1.575 4
      vertex 49.225 1.575 2.4
    endloop
  endfacet
  facet normal -1 0 0
    outer loop
      vertex 6.14999 7.55001 0
      vertex 6.14999 17.85 4
      vertex 6.14999 17.85 0
    endloop
  endfacet
  facet normal -1 -0 0
    outer loop
      vertex 6.14999 17.85 4
      vertex 6.14999 7.55001 0
      vertex 6.14999 7.55001 4
    endloop
  endfacet
  facet normal 0.308807 0.951125 0
    outer loop
      vertex 6.14999 7.55001 4
      vertex 1.575 9.0354 2.4
      vertex 1.575 9.0354 4
    endloop
  endfacet
  facet normal 0.308807 0.951125 -0
    outer loop
      vertex 6.14999 7.55001 0
      vertex 1.575 9.0354 2.4
      vertex 6.14999 7.55001 4
    endloop
  endfacet
  facet normal 0.308807 0.951125 -1.4411e-06
    outer loop
      vertex 0 9.54676 0
      vertex 1.575 9.0354 2.4
      vertex 6.14999 7.55001 0
    endloop
  endfacet
  facet normal 0.308805 0.951125 0
    outer loop
      vertex 1.575 9.0354 2.4
      vertex 0 9.54676 0
      vertex 0 9.54676 2.4
    endloop
  endfacet
  facet normal 0.308827 -0.951118 0
    outer loop
      vertex 0 15.8532 2.4
      vertex 0 15.8532 0
      vertex 1.575 16.3646 2.4
    endloop
  endfacet
  facet normal 0.308809 -0.951124 0
    outer loop
      vertex 1.575 16.3646 2.4
      vertex 6.14999 17.85 4
      vertex 1.575 16.3646 4
    endloop
  endfacet
  facet normal 0.308814 -0.951123 9.33635e-06
    outer loop
      vertex 6.14999 17.85 0
      vertex 1.575 16.3646 2.4
      vertex 0 15.8532 0
    endloop
  endfacet
  facet normal 0.308809 -0.951124 0
    outer loop
      vertex 1.575 16.3646 2.4
      vertex 6.14999 17.85 0
      vertex 6.14999 17.85 4
    endloop
  endfacet
  facet normal -1 0 0
    outer loop
      vertex 6.14999 32.95 0
      vertex 6.14999 43.25 4
      vertex 6.14999 43.25 0
    endloop
  endfacet
  facet normal -1 -0 0
    outer loop
      vertex 6.14999 43.25 4
      vertex 6.14999 32.95 0
      vertex 6.14999 32.95 4
    endloop
  endfacet
  facet normal 0.308809 0.951124 0
    outer loop
      vertex 6.14999 32.95 4
      vertex 1.575 34.4354 2.4
      vertex 1.575 34.4354 4
    endloop
  endfacet
  facet normal 0.308809 0.951124 -0
    outer loop
      vertex 6.14999 32.95 0
      vertex 1.575 34.4354 2.4
      vertex 6.14999 32.95 4
    endloop
  endfacet
  facet normal 0.308814 0.951123 9.33635e-06
    outer loop
      vertex 0 34.9468 0
      vertex 1.575 34.4354 2.4
      vertex 6.14999 32.95 0
    endloop
  endfacet
  facet normal 0.308827 0.951118 0
    outer loop
      vertex 1.575 34.4354 2.4
      vertex 0 34.9468 0
      vertex 0 34.9468 2.4
    endloop
  endfacet
  facet normal 0.308827 -0.951118 0
    outer loop
      vertex 0 41.2532 2.4
      vertex 0 41.2532 0
      vertex 1.575 41.7646 2.4
    endloop
  endfacet
  facet normal 0.308809 -0.951124 0
    outer loop
      vertex 1.575 41.7646 2.4
      vertex 6.14999 43.25 4
      vertex 1.575 41.7646 4
    endloop
  endfacet
  facet normal 0.308814 -0.951123 9.33635e-06
    outer loop
      vertex 6.14999 43.25 0
      vertex 1.575 41.7646 2.4
      vertex 0 41.2532 0
    endloop
  endfacet
  facet normal 0.308809 -0.951124 0
    outer loop
      vertex 1.575 41.7646 2.4
      vertex 6.14999 43.25 0
      vertex 6.14999 43.25 4
    endloop
  endfacet
  facet normal 0 -1 0
    outer loop
      vertex 7.55001 6.14999 0
      vertex 17.85 6.14999 4
      vertex 7.55001 6.14999 4
    endloop
  endfacet
  facet normal 0 -1 -0
    outer loop
      vertex 17.85 6.14999 4
      vertex 7.55001 6.14999 0
      vertex 17.85 6.14999 0
    endloop
  endfacet
  facet normal -0.951124 0.308809 0
    outer loop
      vertex 17.85 6.14999 0
      vertex 16.3646 1.575 2.4
      vertex 17.85 6.14999 4
    endloop
  endfacet
  facet normal -0.951123 0.308814 9.33635e-06
    outer loop
      vertex 15.8532 0 0
      vertex 16.3646 1.575 2.4
      vertex 17.85 6.14999 0
    endloop
  endfacet
  facet normal -0.951118 0.308827 0
    outer loop
      vertex 16.3646 1.575 2.4
      vertex 15.8532 0 0
      vertex 15.8532 0 2.4
    endloop
  endfacet
  facet normal -0.951124 0.308809 0
    outer loop
      vertex 17.85 6.14999 4
      vertex 16.3646 1.575 2.4
      vertex 16.3646 1.575 4
    endloop
  endfacet
  facet normal 0.951125 0.308807 -0
    outer loop
      vertex 9.0354 1.575 2.4
      vertex 7.55001 6.14999 4
      vertex 9.0354 1.575 4
    endloop
  endfacet
  facet normal 0.951125 0.308807 0
    outer loop
      vertex 7.55001 6.14999 4
      vertex 9.0354 1.575 2.4
      vertex 7.55001 6.14999 0
    endloop
  endfacet
  facet normal 0.951125 0.308805 -0
    outer loop
      vertex 9.54676 0 0
      vertex 9.0354 1.575 2.4
      vertex 9.54676 0 2.4
    endloop
  endfacet
  facet normal 0.951125 0.308807 -1.4411e-06
    outer loop
      vertex 9.0354 1.575 2.4
      vertex 9.54676 0 0
      vertex 7.55001 6.14999 0
    endloop
  endfacet
  facet normal 0 -1 0
    outer loop
      vertex 32.95 6.14999 0
      vertex 43.25 6.14999 4
      vertex 32.95 6.14999 4
    endloop
  endfacet
  facet normal 0 -1 -0
    outer loop
      vertex 43.25 6.14999 4
      vertex 32.95 6.14999 0
      vertex 43.25 6.14999 0
    endloop
  endfacet
  facet normal -0.951124 0.308809 0
    outer loop
      vertex 43.25 6.14999 0
      vertex 41.7646 1.575 2.4
      vertex 43.25 6.14999 4
    endloop
  endfacet
  facet normal -0.951123 0.308814 9.33635e-06
    outer loop
      vertex 41.2532 0 0
      vertex 41.7646 1.575 2.4
      vertex 43.25 6.14999 0
    endloop
  endfacet
  facet normal -0.951118 0.308827 0
    outer loop
      vertex 41.7646 1.575 2.4
      vertex 41.2532 0 0
      vertex 41.2532 0 2.4
    endloop
  endfacet
  facet normal -0.951124 0.308809 0
    outer loop
      vertex 43.25 6.14999 4
      vertex 41.7646 1.575 2.4
      vertex 41.7646 1.575 4
    endloop
  endfacet
  facet normal 0.951124 0.308809 -0
    outer loop
      vertex 34.4354 1.575 2.4
      vertex 32.95 6.14999 4
      vertex 34.4354 1.575 4
    endloop
  endfacet
  facet normal 0.951124 0.308809 0
    outer loop
      vertex 32.95 6.14999 4
      vertex 34.4354 1.575 2.4
      vertex 32.95 6.14999 0
    endloop
  endfacet
  facet normal 0.951118 0.308827 -0
    outer loop
      vertex 34.9468 0 0
      vertex 34.4354 1.575 2.4
      vertex 34.9468 0 2.4
    endloop
  endfacet
  facet normal 0.951123 0.308814 9.33635e-06
    outer loop
      vertex 34.4354 1.575 2.4
      vertex 34.9468 0 0
      vertex 32.95 6.14999 0
    endloop
  endfacet
  facet normal 0 0 1
    outer loop
      vertex 39.68 43.76 3.4
      vertex 38.28 42.36 3.4
      vertex 39.68 27.236 3.4
    endloop
  endfacet
  facet normal 0 0 1
    outer loop
      vertex 39.68 43.76 3.4
      vertex 12.52 42.36 3.4
      vertex 38.28 42.36 3.4
    endloop
  endfacet
  facet normal 0 0 1
    outer loop
      vertex 11.12 27.236 3.4
      vertex 12.52 42.36 3.4
      vertex 11.12 43.76 3.4
    endloop
  endfacet
  facet normal -0 0 1
    outer loop
      vertex 11.12 43.76 3.4
      vertex 12.52 42.36 3.4
      vertex 39.68 43.76 3.4
    endloop
  endfacet
  facet normal -0 0 1
    outer loop
      vertex 38.28 27.681 3.4
      vertex 39.68 27.236 3.4
      vertex 38.28 42.36 3.4
    endloop
  endfacet
  facet normal 0 0 1
    outer loop
      vertex 25.4 9.46496 3.4
      vertex 39.68 27.236 3.4
      vertex 38.28 27.681 3.4
    endloop
  endfacet
  facet normal -0 0 1
    outer loop
      vertex 25.4 9.46496 3.4
      vertex 25.4 7.04001 3.4
      vertex 39.68 27.236 3.4
    endloop
  endfacet
  facet normal -0 0 1
    outer loop
      vertex 11.12 27.236 3.4
      vertex 25.4 9.46496 3.4
      vertex 12.52 27.681 3.4
    endloop
  endfacet
  facet normal 0 0 1
    outer loop
      vertex 25.4 9.46496 3.4
      vertex 11.12 27.236 3.4
      vertex 25.4 7.04001 3.4
    endloop
  endfacet
  facet normal 0 0 1
    outer loop
      vertex 12.52 42.36 3.4
      vertex 11.12 27.236 3.4
      vertex 12.52 27.681 3.4
    endloop
  endfacet
  facet normal 0 0 1
    outer loop
      vertex 37.08 28.6316 3.4
      vertex 34.0106 23.7213 3.4
      vertex 37.08 28.0623 3.4
    endloop
  endfacet
  facet normal 0 0 1
    outer loop
      vertex 25.4 19.84 3.4
      vertex 34.0106 23.7213 3.4
      vertex 37.08 28.6316 3.4
    endloop
  endfacet
  facet normal -0 0 1
    outer loop
      vertex 25.4 19.84 3.4
      vertex 25.4 17.24 3.4
      vertex 34.0106 23.7213 3.4
    endloop
  endfacet
  facet normal 0 0 1
    outer loop
      vertex 25.4 19.84 3.4
      vertex 16.7894 23.7213 3.4
      vertex 25.4 17.24 3.4
    endloop
  endfacet
  facet normal 0 0 1
    outer loop
      vertex 13.72 28.6316 3.4
      vertex 16.7894 23.7213 3.4
      vertex 25.4 19.84 3.4
    endloop
  endfacet
  facet normal 0 0 1
    outer loop
      vertex 16.7894 23.7213 3.4
      vertex 13.72 28.6316 3.4
      vertex 13.72 28.0623 3.4
    endloop
  endfacet
  facet normal -1 0 0
    outer loop
      vertex 39.68 27.236 3.4
      vertex 39.68 43.76 4
      vertex 39.68 43.76 3.4
    endloop
  endfacet
  facet normal -1 -0 0
    outer loop
      vertex 39.68 43.76 4
      vertex 39.68 27.236 3.4
      vertex 39.68 27.236 4
    endloop
  endfacet
  facet normal 0 -1 0
    outer loop
      vertex 11.12 43.76 3.4
      vertex 39.68 43.76 4
      vertex 11.12 43.76 4
    endloop
  endfacet
  facet normal 0 -1 -0
    outer loop
      vertex 39.68 43.76 4
      vertex 11.12 43.76 3.4
      vertex 39.68 43.76 3.4
    endloop
  endfacet
  facet normal 1 -0 0
    outer loop
      vertex 11.12 27.236 4
      vertex 11.12 43.76 3.4
      vertex 11.12 43.76 4
    endloop
  endfacet
  facet normal 1 0 0
    outer loop
      vertex 11.12 43.76 3.4
      vertex 11.12 27.236 4
      vertex 11.12 27.236 3.4
    endloop
  endfacet
  facet normal 0.81651 0.577331 0
    outer loop
      vertex 25.4 7.04001 4
      vertex 11.12 27.236 3.4
      vertex 11.12 27.236 4
    endloop
  endfacet
  facet normal 0.81651 0.577331 0
    outer loop
      vertex 11.12 27.236 3.4
      vertex 25.4 7.04001 4
      vertex 25.4 7.04001 3.4
    endloop
  endfacet
  facet normal -0.81651 0.577331 0
    outer loop
      vertex 25.4 7.04001 3.4
      vertex 39.68 27.236 4
      vertex 39.68 27.236 3.4
    endloop
  endfacet
  facet normal -0.81651 0.577331 0
    outer loop
      vertex 39.68 27.236 4
      vertex 25.4 7.04001 3.4
      vertex 25.4 7.04001 4
    endloop
  endfacet
  facet normal -1 0 0
    outer loop
      vertex 12.52 27.681 3.4
      vertex 12.52 42.36 4
      vertex 12.52 42.36 3.4
    endloop
  endfacet
  facet normal -1 -0 0
    outer loop
      vertex 12.52 42.36 4
      vertex 12.52 27.681 3.4
      vertex 12.52 27.681 4
    endloop
  endfacet
  facet normal 0 1 -0
    outer loop
      vertex 38.28 42.36 3.4
      vertex 12.52 42.36 4
      vertex 38.28 42.36 4
    endloop
  endfacet
  facet normal 0 1 0
    outer loop
      vertex 12.52 42.36 4
      vertex 38.28 42.36 3.4
      vertex 12.52 42.36 3.4
    endloop
  endfacet
  facet normal 1 -0 0
    outer loop
      vertex 38.28 27.681 4
      vertex 38.28 42.36 3.4
      vertex 38.28 42.36 4
    endloop
  endfacet
  facet normal 1 0 0
    outer loop
      vertex 38.28 42.36 3.4
      vertex 38.28 27.681 4
      vertex 38.28 27.681 3.4
    endloop
  endfacet
  facet normal 0.816511 -0.57733 0
    outer loop
      vertex 25.4 9.46496 4
      vertex 38.28 27.681 3.4
      vertex 38.28 27.681 4
    endloop
  endfacet
  facet normal 0.816511 -0.57733 0
    outer loop
      vertex 38.28 27.681 3.4
      vertex 25.4 9.46496 4
      vertex 25.4 9.46496 3.4
    endloop
  endfacet
  facet normal -0.816511 -0.57733 0
    outer loop
      vertex 25.4 9.46496 3.4
      vertex 12.52 27.681 4
      vertex 12.52 27.681 3.4
    endloop
  endfacet
  facet normal -0.816511 -0.57733 0
    outer loop
      vertex 12.52 27.681 4
      vertex 25.4 9.46496 3.4
      vertex 25.4 9.46496 4
    endloop
  endfacet
  facet normal -0.81651 0.577331 0
    outer loop
      vertex 34.0106 23.7213 3.4
      vertex 37.08 28.0623 4
      vertex 37.08 28.0623 3.4
    endloop
  endfacet
  facet normal -0.81651 0.577331 0
    outer loop
      vertex 37.08 28.0623 4
      vertex 34.0106 23.7213 3.4
      vertex 34.0106 23.7213 4
    endloop
  endfacet
  facet normal -1 0 0
    outer loop
      vertex 37.08 28.0623 3.4
      vertex 37.08 28.6316 4
      vertex 37.08 28.6316 3.4
    endloop
  endfacet
  facet normal -1 -0 0
    outer loop
      vertex 37.08 28.6316 4
      vertex 37.08 28.0623 3.4
      vertex 37.08 28.0623 4
    endloop
  endfacet
  facet normal 0.601383 -0.798961 0
    outer loop
      vertex 25.4 19.84 3.4
      vertex 37.08 28.6316 4
      vertex 25.4 19.84 4
    endloop
  endfacet
  facet normal 0.601383 -0.798961 0
    outer loop
      vertex 37.08 28.6316 4
      vertex 25.4 19.84 3.4
      vertex 37.08 28.6316 3.4
    endloop
  endfacet
  facet normal -0.601383 -0.798961 0
    outer loop
      vertex 13.72 28.6316 3.4
      vertex 25.4 19.84 4
      vertex 13.72 28.6316 4
    endloop
  endfacet
  facet normal -0.601383 -0.798961 -0
    outer loop
      vertex 25.4 19.84 4
      vertex 13.72 28.6316 3.4
      vertex 25.4 19.84 3.4
    endloop
  endfacet
  facet normal 1 -0 0
    outer loop
      vertex 13.72 28.0623 4
      vertex 13.72 28.6316 3.4
      vertex 13.72 28.6316 4
    endloop
  endfacet
  facet normal 1 0 0
    outer loop
      vertex 13.72 28.6316 3.4
      vertex 13.72 28.0623 4
      vertex 13.72 28.0623 3.4
    endloop
  endfacet
  facet normal 0.81651 0.577331 0
    outer loop
      vertex 16.7894 23.7213 4
      vertex 13.72 28.0623 3.4
      vertex 13.72 28.0623 4
    endloop
  endfacet
  facet normal 0.81651 0.577331 0
    outer loop
      vertex 13.72 28.0623 3.4
      vertex 16.7894 23.7213 4
      vertex 16.7894 23.7213 3.4
    endloop
  endfacet
  facet normal 0.601386 0.798959 -0
    outer loop
      vertex 25.4 17.24 3.4
      vertex 16.7894 23.7213 4
      vertex 25.4 17.24 4
    endloop
  endfacet
  facet normal 0.601386 0.798959 0
    outer loop
      vertex 16.7894 23.7213 4
      vertex 25.4 17.24 3.4
      vertex 16.7894 23.7213 3.4
    endloop
  endfacet
  facet normal -0.601386 0.798959 0
    outer loop
      vertex 34.0106 23.7213 3.4
      vertex 25.4 17.24 4
      vertex 34.0106 23.7213 4
    endloop
  endfacet
  facet normal -0.601386 0.798959 0
    outer loop
      vertex 25.4 17.24 4
      vertex 34.0106 23.7213 3.4
      vertex 25.4 17.24 3.4
    endloop
  endfacet
endsolid OpenSCAD_Model
