solid OpenSCAD_Model
  facet normal 1 -0 0
    outer loop
      vertex 25.4 1.50224 50.8
      vertex 25.4 3 0
      vertex 25.4 3 50.8
    endloop
  endfacet
  facet normal 1 0 0
    outer loop
      vertex 25.4 3 0
      vertex 25.4 1.50224 50.8
      vertex 25.4 1.50224 0
    endloop
  endfacet
  facet normal 1 -0 0
    outer loop
      vertex 25.4 -3 50.8
      vertex 25.4 -1.50224 0
      vertex 25.4 -1.50224 50.8
    endloop
  endfacet
  facet normal 1 0 0
    outer loop
      vertex 25.4 -1.50224 0
      vertex 25.4 -3 50.8
      vertex 25.4 -3 0
    endloop
  endfacet
  facet normal -0 0 1
    outer loop
      vertex 4.14999 2.54999 50.8
      vertex 25.4 1.50224 50.8
      vertex 25.4 3 50.8
    endloop
  endfacet
  facet normal 0 0 1
    outer loop
      vertex 25.4 1.50224 50.8
      vertex 4.14999 2.54999 50.8
      vertex 25.4 -1.50224 50.8
    endloop
  endfacet
  facet normal 0 0 1
    outer loop
      vertex 4.14999 -2.54999 50.8
      vertex 25.4 -1.50224 50.8
      vertex 4.14999 2.54999 50.8
    endloop
  endfacet
  facet normal -0 0 1
    outer loop
      vertex 0 3 50.8
      vertex 4.14999 2.54999 50.8
      vertex 25.4 3 50.8
    endloop
  endfacet
  facet normal 0 0 1
    outer loop
      vertex 4.14999 2.54999 50.8
      vertex 0 3 50.8
      vertex 0 1.65216 50.8
    endloop
  endfacet
  facet normal -0 0 1
    outer loop
      vertex 25.4 1.50224 50.8
      vertex 29.4 -2.39999 50.8
      vertex 29.4 2.39999 50.8
    endloop
  endfacet
  facet normal 0 0 1
    outer loop
      vertex 29.4 -2.39999 50.8
      vertex 25.4 1.50224 50.8
      vertex 25.4 -1.50224 50.8
    endloop
  endfacet
  facet normal 0 0 1
    outer loop
      vertex 25.4 -1.50224 50.8
      vertex 4.14999 -2.54999 50.8
      vertex 25.4 -3 50.8
    endloop
  endfacet
  facet normal 0 0 1
    outer loop
      vertex 4.14999 -2.54999 50.8
      vertex 0 -3 50.8
      vertex 25.4 -3 50.8
    endloop
  endfacet
  facet normal 0 0 1
    outer loop
      vertex 0 -3 50.8
      vertex 4.14999 -2.54999 50.8
      vertex 0 -1.65216 50.8
    endloop
  endfacet
  facet normal 0 0 -1
    outer loop
      vertex 25.4 -1.5 0
      vertex 29.4 -2.39999 0
      vertex 25.4 -1.50224 0
    endloop
  endfacet
  facet normal 0 0 -1
    outer loop
      vertex 29.4 -2.39999 0
      vertex 25.4 -1.5 0
      vertex 29.4 2.39999 0
    endloop
  endfacet
  facet normal 0 0 -1
    outer loop
      vertex 25.4 1.5 0
      vertex 29.4 2.39999 0
      vertex 25.4 -1.5 0
    endloop
  endfacet
  facet normal 0 0 -1
    outer loop
      vertex 25.4 1.5 0
      vertex 25.4 1.50224 0
      vertex 29.4 2.39999 0
    endloop
  endfacet
  facet normal 0 0 -1
    outer loop
      vertex 4.14999 1.5 0
      vertex 25.4 1.50224 0
      vertex 25.4 1.5 0
    endloop
  endfacet
  facet normal -0 0 -1
    outer loop
      vertex 25.4 1.50224 0
      vertex 4.14999 1.5 0
      vertex 4.14999 2.54999 0
    endloop
  endfacet
  facet normal 0 0 -1
    outer loop
      vertex 25.4 1.50224 0
      vertex 4.14999 2.54999 0
      vertex 25.4 3 0
    endloop
  endfacet
  facet normal 0 0 -1
    outer loop
      vertex 4.14999 2.54999 0
      vertex 0 3 0
      vertex 25.4 3 0
    endloop
  endfacet
  facet normal 0 0 -1
    outer loop
      vertex 0 3 0
      vertex 4.14999 2.54999 0
      vertex 0 1.65216 0
    endloop
  endfacet
  facet normal 0 0 -1
    outer loop
      vertex 4.14999 -2.54999 0
      vertex 25.4 -1.50224 0
      vertex 25.4 -3 0
    endloop
  endfacet
  facet normal 0 0 -1
    outer loop
      vertex 4.14999 -1.5 0
      vertex 25.4 -1.50224 0
      vertex 4.14999 -2.54999 0
    endloop
  endfacet
  facet normal 0 0 -1
    outer loop
      vertex 0 -3 0
      vertex 4.14999 -2.54999 0
      vertex 25.4 -3 0
    endloop
  endfacet
  facet normal -0 0 -1
    outer loop
      vertex 4.14999 -2.54999 0
      vertex 0 -3 0
      vertex 0 -1.65216 0
    endloop
  endfacet
  facet normal 0 0 -1
    outer loop
      vertex 25.4 -1.50224 0
      vertex 4.14999 -1.5 0
      vertex 25.4 -1.5 0
    endloop
  endfacet
  facet normal -1 0 0
    outer loop
      vertex 0 -1.5 -1.4
      vertex 0 1.5 -0.00999928
      vertex 0 1.5 -1.4
    endloop
  endfacet
  facet normal -1 -0 0
    outer loop
      vertex 0 1.5 -0.00999928
      vertex 0 -1.5 -1.4
      vertex 0 -1.5 -0.00999928
    endloop
  endfacet
  facet normal -1 0 0
    outer loop
      vertex 0 1.65216 0
      vertex 0 3 50.8
      vertex 0 3 0
    endloop
  endfacet
  facet normal -1 -0 0
    outer loop
      vertex 0 3 50.8
      vertex 0 1.65216 0
      vertex 0 1.65216 50.8
    endloop
  endfacet
  facet normal -1 0 0
    outer loop
      vertex 0 -3 0
      vertex 0 -1.65216 50.8
      vertex 0 -1.65216 0
    endloop
  endfacet
  facet normal -1 -0 0
    outer loop
      vertex 0 -1.65216 50.8
      vertex 0 -3 0
      vertex 0 -3 50.8
    endloop
  endfacet
  facet normal 0 1 0
    outer loop
      vertex 25.4 3 50.8
      vertex 12.6006 3 33.9992
      vertex 0 3 50.8
    endloop
  endfacet
  facet normal 0 1 0
    outer loop
      vertex 25.4 3 50.8
      vertex 12.9981 3 33.9929
      vertex 12.6006 3 33.9992
    endloop
  endfacet
  facet normal 0 1 0
    outer loop
      vertex 25.4 3 50.8
      vertex 13.3937 3 33.9613
      vertex 12.9981 3 33.9929
    endloop
  endfacet
  facet normal 0 1 0
    outer loop
      vertex 25.4 3 50.8
      vertex 13.7849 3 33.9047
      vertex 13.3937 3 33.9613
    endloop
  endfacet
  facet normal 0 1 0
    outer loop
      vertex 25.4 3 50.8
      vertex 14.1692 3 33.8234
      vertex 13.7849 3 33.9047
    endloop
  endfacet
  facet normal 0 1 0
    outer loop
      vertex 25.4 3 50.8
      vertex 14.5443 3 33.7179
      vertex 14.1692 3 33.8234
    endloop
  endfacet
  facet normal 0 1 0
    outer loop
      vertex 25.4 3 50.8
      vertex 14.9077 3 33.5889
      vertex 14.5443 3 33.7179
    endloop
  endfacet
  facet normal 0 1 0
    outer loop
      vertex 25.4 3 50.8
      vertex 15.2572 3 33.4373
      vertex 14.9077 3 33.5889
    endloop
  endfacet
  facet normal 0 1 0
    outer loop
      vertex 25.4 3 50.8
      vertex 15.5905 3 33.2639
      vertex 15.2572 3 33.4373
    endloop
  endfacet
  facet normal 0 1 0
    outer loop
      vertex 25.4 3 50.8
      vertex 15.9055 3 33.0698
      vertex 15.5905 3 33.2639
    endloop
  endfacet
  facet normal 0 1 0
    outer loop
      vertex 25.4 3 50.8
      vertex 16.2002 3 32.8564
      vertex 15.9055 3 33.0698
    endloop
  endfacet
  facet normal 0 1 0
    outer loop
      vertex 25.4 3 50.8
      vertex 16.4728 3 32.6249
      vertex 16.2002 3 32.8564
    endloop
  endfacet
  facet normal 0 1 0
    outer loop
      vertex 25.4 3 50.8
      vertex 16.7216 3 32.3768
      vertex 16.4728 3 32.6249
    endloop
  endfacet
  facet normal 0 1 0
    outer loop
      vertex 25.4 3 50.8
      vertex 16.9449 3 32.1137
      vertex 16.7216 3 32.3768
    endloop
  endfacet
  facet normal 0 1 0
    outer loop
      vertex 25.4 3 50.8
      vertex 17.1414 3 31.8372
      vertex 16.9449 3 32.1137
    endloop
  endfacet
  facet normal 0 1 0
    outer loop
      vertex 25.4 3 50.8
      vertex 17.3098 3 31.5491
      vertex 17.1414 3 31.8372
    endloop
  endfacet
  facet normal 0 1 0
    outer loop
      vertex 25.4 3 50.8
      vertex 17.4491 3 31.2512
      vertex 17.3098 3 31.5491
    endloop
  endfacet
  facet normal 0 1 0
    outer loop
      vertex 25.4 3 50.8
      vertex 17.5583 3 30.9454
      vertex 17.4491 3 31.2512
    endloop
  endfacet
  facet normal 0 1 0
    outer loop
      vertex 25.4 3 50.8
      vertex 17.6369 3 30.6336
      vertex 17.5583 3 30.9454
    endloop
  endfacet
  facet normal 0 1 0
    outer loop
      vertex 25.4 3 50.8
      vertex 17.6842 3 30.3178
      vertex 17.6369 3 30.6336
    endloop
  endfacet
  facet normal 0 1 0
    outer loop
      vertex 25.4 3 50.8
      vertex 17.7 3 30
      vertex 17.6842 3 30.3178
    endloop
  endfacet
  facet normal 0 1 0
    outer loop
      vertex 25.4 3 50.8
      vertex 17.7 3 22
      vertex 17.7 3 30
    endloop
  endfacet
  facet normal 0 1 0
    outer loop
      vertex 17.7 3 22
      vertex 25.4 3 0
      vertex 7.7 3 22
    endloop
  endfacet
  facet normal 0 1 -0
    outer loop
      vertex 25.4 3 0
      vertex 17.7 3 22
      vertex 25.4 3 50.8
    endloop
  endfacet
  facet normal 0 1 -0
    outer loop
      vertex 12.2037 3 33.9802
      vertex 0 3 50.8
      vertex 12.6006 3 33.9992
    endloop
  endfacet
  facet normal 0 1 -0
    outer loop
      vertex 11.81 3 33.9361
      vertex 0 3 50.8
      vertex 12.2037 3 33.9802
    endloop
  endfacet
  facet normal 0 1 -0
    outer loop
      vertex 11.4219 3 33.8671
      vertex 0 3 50.8
      vertex 11.81 3 33.9361
    endloop
  endfacet
  facet normal 0 1 -0
    outer loop
      vertex 11.0419 3 33.7736
      vertex 0 3 50.8
      vertex 11.4219 3 33.8671
    endloop
  endfacet
  facet normal 0 1 -0
    outer loop
      vertex 10.6724 3 33.6563
      vertex 0 3 50.8
      vertex 11.0419 3 33.7736
    endloop
  endfacet
  facet normal 0 1 -0
    outer loop
      vertex 10.3157 3 33.5159
      vertex 0 3 50.8
      vertex 10.6724 3 33.6563
    endloop
  endfacet
  facet normal 0 1 -0
    outer loop
      vertex 9.97403 3 33.3532
      vertex 0 3 50.8
      vertex 10.3157 3 33.5159
    endloop
  endfacet
  facet normal 0 1 -0
    outer loop
      vertex 9.64963 3 33.1694
      vertex 0 3 50.8
      vertex 9.97403 3 33.3532
    endloop
  endfacet
  facet normal 0 1 -0
    outer loop
      vertex 9.34452 3 32.9655
      vertex 0 3 50.8
      vertex 9.64963 3 33.1694
    endloop
  endfacet
  facet normal 0 1 -0
    outer loop
      vertex 9.06061 3 32.7428
      vertex 0 3 50.8
      vertex 9.34452 3 32.9655
    endloop
  endfacet
  facet normal 0 1 -0
    outer loop
      vertex 8.79972 3 32.5028
      vertex 0 3 50.8
      vertex 9.06061 3 32.7428
    endloop
  endfacet
  facet normal 0 1 -0
    outer loop
      vertex 8.56349 3 32.247
      vertex 0 3 50.8
      vertex 8.79972 3 32.5028
    endloop
  endfacet
  facet normal 0 1 -0
    outer loop
      vertex 8.35341 3 31.977
      vertex 0 3 50.8
      vertex 8.56349 3 32.247
    endloop
  endfacet
  facet normal 0 1 -0
    outer loop
      vertex 8.17081 3 31.6945
      vertex 0 3 50.8
      vertex 8.35341 3 31.977
    endloop
  endfacet
  facet normal 0 1 -0
    outer loop
      vertex 8.01683 3 31.4012
      vertex 0 3 50.8
      vertex 8.17081 3 31.6945
    endloop
  endfacet
  facet normal 0 1 -0
    outer loop
      vertex 7.89249 3 31.0991
      vertex 0 3 50.8
      vertex 8.01683 3 31.4012
    endloop
  endfacet
  facet normal 0 1 -0
    outer loop
      vertex 7.79853 3 30.7901
      vertex 0 3 50.8
      vertex 7.89249 3 31.0991
    endloop
  endfacet
  facet normal 0 1 -0
    outer loop
      vertex 7.73555 3 30.4761
      vertex 0 3 50.8
      vertex 7.79853 3 30.7901
    endloop
  endfacet
  facet normal 0 1 -0
    outer loop
      vertex 7.70397 3 30.159
      vertex 0 3 50.8
      vertex 7.73555 3 30.4761
    endloop
  endfacet
  facet normal 0 1 0
    outer loop
      vertex 7.7 3 30
      vertex 7.70397 3 30.159
      vertex 7.70397 3 30
    endloop
  endfacet
  facet normal 0 1 0
    outer loop
      vertex 7.70397 3 30.159
      vertex 7.7 3 30
      vertex 0 3 50.8
    endloop
  endfacet
  facet normal 0 1 -0
    outer loop
      vertex 7.7 3 22
      vertex 0 3 50.8
      vertex 7.7 3 30
    endloop
  endfacet
  facet normal 0 1 0
    outer loop
      vertex 7.7 3 22
      vertex 0 3 0
      vertex 0 3 50.8
    endloop
  endfacet
  facet normal 0 1 0
    outer loop
      vertex 0 3 0
      vertex 7.7 3 22
      vertex 25.4 3 0
    endloop
  endfacet
  facet normal 0 -1 0
    outer loop
      vertex 0 -3 50.8
      vertex 12.6006 -3 33.9992
      vertex 25.4 -3 50.8
    endloop
  endfacet
  facet normal 0 -1 0
    outer loop
      vertex 0 -3 50.8
      vertex 12.2037 -3 33.9802
      vertex 12.6006 -3 33.9992
    endloop
  endfacet
  facet normal 0 -1 0
    outer loop
      vertex 0 -3 50.8
      vertex 11.81 -3 33.9361
      vertex 12.2037 -3 33.9802
    endloop
  endfacet
  facet normal 0 -1 0
    outer loop
      vertex 0 -3 50.8
      vertex 11.4219 -3 33.8671
      vertex 11.81 -3 33.9361
    endloop
  endfacet
  facet normal 0 -1 0
    outer loop
      vertex 0 -3 50.8
      vertex 11.0419 -3 33.7736
      vertex 11.4219 -3 33.8671
    endloop
  endfacet
  facet normal 0 -1 0
    outer loop
      vertex 0 -3 50.8
      vertex 10.6724 -3 33.6563
      vertex 11.0419 -3 33.7736
    endloop
  endfacet
  facet normal 0 -1 0
    outer loop
      vertex 0 -3 50.8
      vertex 10.3157 -3 33.5159
      vertex 10.6724 -3 33.6563
    endloop
  endfacet
  facet normal 0 -1 0
    outer loop
      vertex 0 -3 50.8
      vertex 9.97403 -3 33.3532
      vertex 10.3157 -3 33.5159
    endloop
  endfacet
  facet normal 0 -1 0
    outer loop
      vertex 0 -3 50.8
      vertex 9.64963 -3 33.1694
      vertex 9.97403 -3 33.3532
    endloop
  endfacet
  facet normal 0 -1 0
    outer loop
      vertex 0 -3 50.8
      vertex 9.34452 -3 32.9655
      vertex 9.64963 -3 33.1694
    endloop
  endfacet
  facet normal 0 -1 0
    outer loop
      vertex 0 -3 50.8
      vertex 9.06061 -3 32.7428
      vertex 9.34452 -3 32.9655
    endloop
  endfacet
  facet normal 0 -1 0
    outer loop
      vertex 0 -3 50.8
      vertex 8.79972 -3 32.5028
      vertex 9.06061 -3 32.7428
    endloop
  endfacet
  facet normal 0 -1 0
    outer loop
      vertex 0 -3 50.8
      vertex 8.56349 -3 32.247
      vertex 8.79972 -3 32.5028
    endloop
  endfacet
  facet normal 0 -1 0
    outer loop
      vertex 0 -3 50.8
      vertex 8.35341 -3 31.977
      vertex 8.56349 -3 32.247
    endloop
  endfacet
  facet normal 0 -1 0
    outer loop
      vertex 0 -3 50.8
      vertex 8.17081 -3 31.6945
      vertex 8.35341 -3 31.977
    endloop
  endfacet
  facet normal 0 -1 0
    outer loop
      vertex 0 -3 50.8
      vertex 8.01683 -3 31.4012
      vertex 8.17081 -3 31.6945
    endloop
  endfacet
  facet normal 0 -1 0
    outer loop
      vertex 0 -3 50.8
      vertex 7.89249 -3 31.0991
      vertex 8.01683 -3 31.4012
    endloop
  endfacet
  facet normal 0 -1 0
    outer loop
      vertex 0 -3 50.8
      vertex 7.79853 -3 30.7901
      vertex 7.89249 -3 31.0991
    endloop
  endfacet
  facet normal 0 -1 0
    outer loop
      vertex 0 -3 50.8
      vertex 7.73555 -3 30.4761
      vertex 7.79853 -3 30.7901
    endloop
  endfacet
  facet normal 0 -1 0
    outer loop
      vertex 0 -3 50.8
      vertex 7.70397 -3 30.159
      vertex 7.73555 -3 30.4761
    endloop
  endfacet
  facet normal 0 -1 0
    outer loop
      vertex 0 -3 50.8
      vertex 7.7 -3 30
      vertex 7.70397 -3 30.159
    endloop
  endfacet
  facet normal 0 -1 0
    outer loop
      vertex 0 -3 50.8
      vertex 7.7 -3 22
      vertex 7.7 -3 30
    endloop
  endfacet
  facet normal 0 -1 -0
    outer loop
      vertex 7.7 -3 22
      vertex 0 -3 0
      vertex 17.7 -3 22
    endloop
  endfacet
  facet normal 0 -1 0
    outer loop
      vertex 0 -3 0
      vertex 7.7 -3 22
      vertex 0 -3 50.8
    endloop
  endfacet
  facet normal 0 -1 0
    outer loop
      vertex 12.9981 -3 33.9929
      vertex 25.4 -3 50.8
      vertex 12.6006 -3 33.9992
    endloop
  endfacet
  facet normal 0 -1 0
    outer loop
      vertex 13.3937 -3 33.9613
      vertex 25.4 -3 50.8
      vertex 12.9981 -3 33.9929
    endloop
  endfacet
  facet normal 0 -1 0
    outer loop
      vertex 13.7849 -3 33.9047
      vertex 25.4 -3 50.8
      vertex 13.3937 -3 33.9613
    endloop
  endfacet
  facet normal 0 -1 0
    outer loop
      vertex 14.1692 -3 33.8234
      vertex 25.4 -3 50.8
      vertex 13.7849 -3 33.9047
    endloop
  endfacet
  facet normal 0 -1 0
    outer loop
      vertex 14.5443 -3 33.7179
      vertex 25.4 -3 50.8
      vertex 14.1692 -3 33.8234
    endloop
  endfacet
  facet normal 0 -1 0
    outer loop
      vertex 14.9077 -3 33.5889
      vertex 25.4 -3 50.8
      vertex 14.5443 -3 33.7179
    endloop
  endfacet
  facet normal 0 -1 0
    outer loop
      vertex 15.2572 -3 33.4373
      vertex 25.4 -3 50.8
      vertex 14.9077 -3 33.5889
    endloop
  endfacet
  facet normal 0 -1 0
    outer loop
      vertex 15.5905 -3 33.2639
      vertex 25.4 -3 50.8
      vertex 15.2572 -3 33.4373
    endloop
  endfacet
  facet normal 0 -1 0
    outer loop
      vertex 15.9055 -3 33.0698
      vertex 25.4 -3 50.8
      vertex 15.5905 -3 33.2639
    endloop
  endfacet
  facet normal 0 -1 0
    outer loop
      vertex 16.2002 -3 32.8564
      vertex 25.4 -3 50.8
      vertex 15.9055 -3 33.0698
    endloop
  endfacet
  facet normal 0 -1 0
    outer loop
      vertex 16.4728 -3 32.6249
      vertex 25.4 -3 50.8
      vertex 16.2002 -3 32.8564
    endloop
  endfacet
  facet normal 0 -1 0
    outer loop
      vertex 16.7216 -3 32.3768
      vertex 25.4 -3 50.8
      vertex 16.4728 -3 32.6249
    endloop
  endfacet
  facet normal 0 -1 0
    outer loop
      vertex 16.9449 -3 32.1137
      vertex 25.4 -3 50.8
      vertex 16.7216 -3 32.3768
    endloop
  endfacet
  facet normal 0 -1 0
    outer loop
      vertex 17.1414 -3 31.8372
      vertex 25.4 -3 50.8
      vertex 16.9449 -3 32.1137
    endloop
  endfacet
  facet normal 0 -1 0
    outer loop
      vertex 17.3098 -3 31.5491
      vertex 25.4 -3 50.8
      vertex 17.1414 -3 31.8372
    endloop
  endfacet
  facet normal 0 -1 0
    outer loop
      vertex 17.4491 -3 31.2512
      vertex 25.4 -3 50.8
      vertex 17.3098 -3 31.5491
    endloop
  endfacet
  facet normal 0 -1 0
    outer loop
      vertex 17.5583 -3 30.9454
      vertex 25.4 -3 50.8
      vertex 17.4491 -3 31.2512
    endloop
  endfacet
  facet normal 0 -1 0
    outer loop
      vertex 17.6369 -3 30.6336
      vertex 25.4 -3 50.8
      vertex 17.5583 -3 30.9454
    endloop
  endfacet
  facet normal 0 -1 0
    outer loop
      vertex 17.6842 -3 30.3178
      vertex 25.4 -3 50.8
      vertex 17.6369 -3 30.6336
    endloop
  endfacet
  facet normal 0 -1 0
    outer loop
      vertex 17.7 -3 30
      vertex 25.4 -3 50.8
      vertex 17.6842 -3 30.3178
    endloop
  endfacet
  facet normal 0 -1 0
    outer loop
      vertex 17.7 -3 22
      vertex 25.4 -3 50.8
      vertex 17.7 -3 30
    endloop
  endfacet
  facet normal 0 -1 0
    outer loop
      vertex 17.7 -3 22
      vertex 25.4 -3 0
      vertex 25.4 -3 50.8
    endloop
  endfacet
  facet normal 0 -1 0
    outer loop
      vertex 25.4 -3 0
      vertex 17.7 -3 22
      vertex 0 -3 0
    endloop
  endfacet
  facet normal 0 -1 -0
    outer loop
      vertex 7.70397 -3 30.159
      vertex 7.7 -3 30
      vertex 7.70397 -3 30
    endloop
  endfacet
  facet normal 1 -0 0
    outer loop
      vertex 29.4 -2.39999 50.8
      vertex 29.4 2.39999 0
      vertex 29.4 2.39999 50.8
    endloop
  endfacet
  facet normal 1 0 0
    outer loop
      vertex 29.4 2.39999 0
      vertex 29.4 -2.39999 50.8
      vertex 29.4 -2.39999 0
    endloop
  endfacet
  facet normal -0.21899 -0.975727 0
    outer loop
      vertex 25.4 -1.50224 0
      vertex 29.4 -2.39999 50.8
      vertex 25.4 -1.50224 50.8
    endloop
  endfacet
  facet normal -0.21899 -0.975727 -0
    outer loop
      vertex 29.4 -2.39999 50.8
      vertex 25.4 -1.50224 0
      vertex 29.4 -2.39999 0
    endloop
  endfacet
  facet normal -0.21899 0.975727 0
    outer loop
      vertex 29.4 2.39999 0
      vertex 25.4 1.50224 50.8
      vertex 29.4 2.39999 50.8
    endloop
  endfacet
  facet normal -0.21899 0.975727 0
    outer loop
      vertex 25.4 1.50224 50.8
      vertex 29.4 2.39999 0
      vertex 25.4 1.50224 0
    endloop
  endfacet
  facet normal 1 -0 0
    outer loop
      vertex 25.4 -1.5 0
      vertex 25.4 1.5 -1.4
      vertex 25.4 1.5 0
    endloop
  endfacet
  facet normal 1 0 0
    outer loop
      vertex 25.4 1.5 -1.4
      vertex 25.4 -1.5 0
      vertex 25.4 -1.5 -1.4
    endloop
  endfacet
  facet normal 0 0 -1
    outer loop
      vertex 0 -1.5 -1.4
      vertex 25.4 1.5 -1.4
      vertex 25.4 -1.5 -1.4
    endloop
  endfacet
  facet normal -0 0 -1
    outer loop
      vertex 25.4 1.5 -1.4
      vertex 0 -1.5 -1.4
      vertex 0 1.5 -1.4
    endloop
  endfacet
  facet normal 0 1 0
    outer loop
      vertex 25.4 1.5 0
      vertex 4.14999 1.5 -0.00999928
      vertex 4.14999 1.5 0
    endloop
  endfacet
  facet normal 0 1 -0
    outer loop
      vertex 25.4 1.5 -1.4
      vertex 4.14999 1.5 -0.00999928
      vertex 25.4 1.5 0
    endloop
  endfacet
  facet normal 0 1 0
    outer loop
      vertex 0 1.5 -1.4
      vertex 4.14999 1.5 -0.00999928
      vertex 25.4 1.5 -1.4
    endloop
  endfacet
  facet normal 0 1 0
    outer loop
      vertex 4.14999 1.5 -0.00999928
      vertex 0 1.5 -1.4
      vertex 0 1.5 -0.00999928
    endloop
  endfacet
  facet normal 0 -1 0
    outer loop
      vertex 0 -1.5 -0.00999928
      vertex 0 -1.5 -1.4
      vertex 4.14999 -1.5 -0.00999928
    endloop
  endfacet
  facet normal 0 -1 0
    outer loop
      vertex 4.14999 -1.5 -0.00999928
      vertex 25.4 -1.5 0
      vertex 4.14999 -1.5 0
    endloop
  endfacet
  facet normal 0 -1 0
    outer loop
      vertex 25.4 -1.5 -1.4
      vertex 4.14999 -1.5 -0.00999928
      vertex 0 -1.5 -1.4
    endloop
  endfacet
  facet normal 0 -1 0
    outer loop
      vertex 4.14999 -1.5 -0.00999928
      vertex 25.4 -1.5 -1.4
      vertex 25.4 -1.5 0
    endloop
  endfacet
  facet normal -0 0 1
    outer loop
      vertex 0 1.5 -0.00999928
      vertex 4.14999 -1.5 -0.00999928
      vertex 4.14999 1.5 -0.00999928
    endloop
  endfacet
  facet normal 0 0 1
    outer loop
      vertex 4.14999 -1.5 -0.00999928
      vertex 0 1.5 -0.00999928
      vertex 0 -1.5 -0.00999928
    endloop
  endfacet
  facet normal -1 0 0
    outer loop
      vertex 4.14999 1.5 -0.00999928
      vertex 4.14999 -1.5 -0.00999928
      vertex 4.14999 1.5 0
    endloop
  endfacet
  facet normal -1 0 0
    outer loop
      vertex 4.14999 1.5 0
      vertex 4.14999 2.54999 50.8
      vertex 4.14999 2.54999 0
    endloop
  endfacet
  facet normal -1 0 0
    outer loop
      vertex 4.14999 -1.5 0
      vertex 4.14999 1.5 0
      vertex 4.14999 -1.5 -0.00999928
    endloop
  endfacet
  facet normal -1 0 0
    outer loop
      vertex 4.14999 1.5 0
      vertex 4.14999 -1.5 0
      vertex 4.14999 2.54999 50.8
    endloop
  endfacet
  facet normal -1 0 0
    outer loop
      vertex 4.14999 -2.54999 50.8
      vertex 4.14999 -1.5 0
      vertex 4.14999 -2.54999 0
    endloop
  endfacet
  facet normal -1 0 0
    outer loop
      vertex 4.14999 -1.5 0
      vertex 4.14999 -2.54999 50.8
      vertex 4.14999 2.54999 50.8
    endloop
  endfacet
  facet normal 0.211453 0.977388 -0
    outer loop
      vertex 4.14999 -2.54999 0
      vertex 0 -1.65216 50.8
      vertex 4.14999 -2.54999 50.8
    endloop
  endfacet
  facet normal 0.211453 0.977388 0
    outer loop
      vertex 0 -1.65216 50.8
      vertex 4.14999 -2.54999 0
      vertex 0 -1.65216 0
    endloop
  endfacet
  facet normal 0.211453 -0.977388 0
    outer loop
      vertex 0 1.65216 0
      vertex 4.14999 2.54999 50.8
      vertex 0 1.65216 50.8
    endloop
  endfacet
  facet normal 0.211453 -0.977388 0
    outer loop
      vertex 4.14999 2.54999 50.8
      vertex 0 1.65216 0
      vertex 4.14999 2.54999 0
    endloop
  endfacet
  facet normal -0 0 1
    outer loop
      vertex 7.7 3 22
      vertex 17.7 -3 22
      vertex 17.7 3 22
    endloop
  endfacet
  facet normal 0 0 1
    outer loop
      vertex 17.7 -3 22
      vertex 7.7 3 22
      vertex 7.7 -3 22
    endloop
  endfacet
  facet normal -1 0 0
    outer loop
      vertex 17.7 -3 22
      vertex 17.7 3 30
      vertex 17.7 3 22
    endloop
  endfacet
  facet normal -1 -0 0
    outer loop
      vertex 17.7 3 30
      vertex 17.7 -3 22
      vertex 17.7 -3 30
    endloop
  endfacet
  facet normal -0.998766 0 -0.0496555
    outer loop
      vertex 17.7 -3 30
      vertex 17.6842 3 30.3178
      vertex 17.7 3 30
    endloop
  endfacet
  facet normal -0.998766 -0 -0.0496555
    outer loop
      vertex 17.6842 3 30.3178
      vertex 17.7 -3 30
      vertex 17.6842 -3 30.3178
    endloop
  endfacet
  facet normal -0.988968 0 -0.148126
    outer loop
      vertex 17.6842 -3 30.3178
      vertex 17.6369 3 30.6336
      vertex 17.6842 3 30.3178
    endloop
  endfacet
  facet normal -0.988968 -0 -0.148126
    outer loop
      vertex 17.6369 3 30.6336
      vertex 17.6842 -3 30.3178
      vertex 17.6369 -3 30.6336
    endloop
  endfacet
  facet normal -0.969665 0 -0.244438
    outer loop
      vertex 17.6369 -3 30.6336
      vertex 17.5583 3 30.9454
      vertex 17.6369 3 30.6336
    endloop
  endfacet
  facet normal -0.969665 -0 -0.244438
    outer loop
      vertex 17.5583 3 30.9454
      vertex 17.6369 -3 30.6336
      vertex 17.5583 -3 30.9454
    endloop
  endfacet
  facet normal -0.941756 0 -0.336297
    outer loop
      vertex 17.5583 -3 30.9454
      vertex 17.4491 3 31.2512
      vertex 17.5583 3 30.9454
    endloop
  endfacet
  facet normal -0.941756 -0 -0.336297
    outer loop
      vertex 17.4491 3 31.2512
      vertex 17.5583 -3 30.9454
      vertex 17.4491 -3 31.2512
    endloop
  endfacet
  facet normal -0.905857 0 -0.423585
    outer loop
      vertex 17.4491 -3 31.2512
      vertex 17.3098 3 31.5491
      vertex 17.4491 3 31.2512
    endloop
  endfacet
  facet normal -0.905857 -0 -0.423585
    outer loop
      vertex 17.3098 3 31.5491
      vertex 17.4491 -3 31.2512
      vertex 17.3098 -3 31.5491
    endloop
  endfacet
  facet normal -0.863333 0 -0.504635
    outer loop
      vertex 17.3098 -3 31.5491
      vertex 17.1414 3 31.8372
      vertex 17.3098 3 31.5491
    endloop
  endfacet
  facet normal -0.863333 -0 -0.504635
    outer loop
      vertex 17.1414 3 31.8372
      vertex 17.3098 -3 31.5491
      vertex 17.1414 -3 31.8372
    endloop
  endfacet
  facet normal -0.815125 0 -0.579284
    outer loop
      vertex 17.1414 -3 31.8372
      vertex 16.9449 3 32.1137
      vertex 17.1414 3 31.8372
    endloop
  endfacet
  facet normal -0.815125 -0 -0.579284
    outer loop
      vertex 16.9449 3 32.1137
      vertex 17.1414 -3 31.8372
      vertex 16.9449 -3 32.1137
    endloop
  endfacet
  facet normal -0.762418 0 -0.647085
    outer loop
      vertex 16.9449 -3 32.1137
      vertex 16.7216 3 32.3768
      vertex 16.9449 3 32.1137
    endloop
  endfacet
  facet normal -0.762418 -0 -0.647085
    outer loop
      vertex 16.7216 3 32.3768
      vertex 16.9449 -3 32.1137
      vertex 16.7216 -3 32.3768
    endloop
  endfacet
  facet normal -0.70611 0 -0.708102
    outer loop
      vertex 16.4728 -3 32.6249
      vertex 16.7216 3 32.3768
      vertex 16.7216 -3 32.3768
    endloop
  endfacet
  facet normal -0.70611 0 -0.708102
    outer loop
      vertex 16.7216 3 32.3768
      vertex 16.4728 -3 32.6249
      vertex 16.4728 3 32.6249
    endloop
  endfacet
  facet normal -0.647307 0 -0.762229
    outer loop
      vertex 16.2002 -3 32.8564
      vertex 16.4728 3 32.6249
      vertex 16.4728 -3 32.6249
    endloop
  endfacet
  facet normal -0.647307 0 -0.762229
    outer loop
      vertex 16.4728 3 32.6249
      vertex 16.2002 -3 32.8564
      vertex 16.2002 3 32.8564
    endloop
  endfacet
  facet normal -0.586504 0 -0.809947
    outer loop
      vertex 15.9055 -3 33.0698
      vertex 16.2002 3 32.8564
      vertex 16.2002 -3 32.8564
    endloop
  endfacet
  facet normal -0.586504 0 -0.809947
    outer loop
      vertex 16.2002 3 32.8564
      vertex 15.9055 -3 33.0698
      vertex 15.9055 3 33.0698
    endloop
  endfacet
  facet normal -0.524595 0 -0.851352
    outer loop
      vertex 15.5905 -3 33.2639
      vertex 15.9055 3 33.0698
      vertex 15.9055 -3 33.0698
    endloop
  endfacet
  facet normal -0.524595 0 -0.851352
    outer loop
      vertex 15.9055 3 33.0698
      vertex 15.5905 -3 33.2639
      vertex 15.5905 3 33.2639
    endloop
  endfacet
  facet normal -0.461529 0 -0.887125
    outer loop
      vertex 15.2572 -3 33.4373
      vertex 15.5905 3 33.2639
      vertex 15.5905 -3 33.2639
    endloop
  endfacet
  facet normal -0.461529 0 -0.887125
    outer loop
      vertex 15.5905 3 33.2639
      vertex 15.2572 -3 33.4373
      vertex 15.2572 3 33.4373
    endloop
  endfacet
  facet normal -0.397939 0 -0.917412
    outer loop
      vertex 14.9077 -3 33.5889
      vertex 15.2572 3 33.4373
      vertex 15.2572 -3 33.4373
    endloop
  endfacet
  facet normal -0.397939 0 -0.917412
    outer loop
      vertex 15.2572 3 33.4373
      vertex 14.9077 -3 33.5889
      vertex 14.9077 3 33.5889
    endloop
  endfacet
  facet normal -0.334529 0 -0.942386
    outer loop
      vertex 14.5443 -3 33.7179
      vertex 14.9077 3 33.5889
      vertex 14.9077 -3 33.5889
    endloop
  endfacet
  facet normal -0.334529 0 -0.942386
    outer loop
      vertex 14.9077 3 33.5889
      vertex 14.5443 -3 33.7179
      vertex 14.5443 3 33.7179
    endloop
  endfacet
  facet normal -0.270753 0 -0.962649
    outer loop
      vertex 14.1692 -3 33.8234
      vertex 14.5443 3 33.7179
      vertex 14.5443 -3 33.7179
    endloop
  endfacet
  facet normal -0.270753 0 -0.962649
    outer loop
      vertex 14.5443 3 33.7179
      vertex 14.1692 -3 33.8234
      vertex 14.1692 3 33.8234
    endloop
  endfacet
  facet normal -0.206973 0 -0.978347
    outer loop
      vertex 13.7849 -3 33.9047
      vertex 14.1692 3 33.8234
      vertex 14.1692 -3 33.8234
    endloop
  endfacet
  facet normal -0.206973 0 -0.978347
    outer loop
      vertex 14.1692 3 33.8234
      vertex 13.7849 -3 33.9047
      vertex 13.7849 3 33.9047
    endloop
  endfacet
  facet normal -0.143192 0 -0.989695
    outer loop
      vertex 13.3937 -3 33.9613
      vertex 13.7849 3 33.9047
      vertex 13.7849 -3 33.9047
    endloop
  endfacet
  facet normal -0.143192 0 -0.989695
    outer loop
      vertex 13.7849 3 33.9047
      vertex 13.3937 -3 33.9613
      vertex 13.3937 3 33.9613
    endloop
  endfacet
  facet normal -0.079625 0 -0.996825
    outer loop
      vertex 12.9981 -3 33.9929
      vertex 13.3937 3 33.9613
      vertex 13.3937 -3 33.9613
    endloop
  endfacet
  facet normal -0.079625 0 -0.996825
    outer loop
      vertex 13.3937 3 33.9613
      vertex 12.9981 -3 33.9929
      vertex 12.9981 3 33.9929
    endloop
  endfacet
  facet normal -0.0158471 0 -0.999874
    outer loop
      vertex 12.6006 -3 33.9992
      vertex 12.9981 3 33.9929
      vertex 12.9981 -3 33.9929
    endloop
  endfacet
  facet normal -0.0158471 0 -0.999874
    outer loop
      vertex 12.9981 3 33.9929
      vertex 12.6006 -3 33.9992
      vertex 12.6006 3 33.9992
    endloop
  endfacet
  facet normal 0.0478162 0 -0.998856
    outer loop
      vertex 12.2037 -3 33.9802
      vertex 12.6006 3 33.9992
      vertex 12.6006 -3 33.9992
    endloop
  endfacet
  facet normal 0.0478162 0 -0.998856
    outer loop
      vertex 12.6006 3 33.9992
      vertex 12.2037 -3 33.9802
      vertex 12.2037 3 33.9802
    endloop
  endfacet
  facet normal 0.111318 0 -0.993785
    outer loop
      vertex 11.81 -3 33.9361
      vertex 12.2037 3 33.9802
      vertex 12.2037 -3 33.9802
    endloop
  endfacet
  facet normal 0.111318 0 -0.993785
    outer loop
      vertex 12.2037 3 33.9802
      vertex 11.81 -3 33.9361
      vertex 11.81 3 33.9361
    endloop
  endfacet
  facet normal 0.175044 0 -0.984561
    outer loop
      vertex 11.4219 -3 33.8671
      vertex 11.81 3 33.9361
      vertex 11.81 -3 33.9361
    endloop
  endfacet
  facet normal 0.175044 0 -0.984561
    outer loop
      vertex 11.81 3 33.9361
      vertex 11.4219 -3 33.8671
      vertex 11.4219 3 33.8671
    endloop
  endfacet
  facet normal 0.238926 0 -0.971038
    outer loop
      vertex 11.0419 -3 33.7736
      vertex 11.4219 3 33.8671
      vertex 11.4219 -3 33.8671
    endloop
  endfacet
  facet normal 0.238926 0 -0.971038
    outer loop
      vertex 11.4219 3 33.8671
      vertex 11.0419 -3 33.7736
      vertex 11.0419 3 33.7736
    endloop
  endfacet
  facet normal 0.302575 0 -0.953125
    outer loop
      vertex 10.6724 -3 33.6563
      vertex 11.0419 3 33.7736
      vertex 11.0419 -3 33.7736
    endloop
  endfacet
  facet normal 0.302575 0 -0.953125
    outer loop
      vertex 11.0419 3 33.7736
      vertex 10.6724 -3 33.6563
      vertex 10.6724 3 33.6563
    endloop
  endfacet
  facet normal 0.366258 0 -0.930513
    outer loop
      vertex 10.3157 -3 33.5159
      vertex 10.6724 3 33.6563
      vertex 10.6724 -3 33.6563
    endloop
  endfacet
  facet normal 0.366258 0 -0.930513
    outer loop
      vertex 10.6724 3 33.6563
      vertex 10.3157 -3 33.5159
      vertex 10.3157 3 33.5159
    endloop
  endfacet
  facet normal 0.429934 0 -0.902861
    outer loop
      vertex 9.97403 -3 33.3532
      vertex 10.3157 3 33.5159
      vertex 10.3157 -3 33.5159
    endloop
  endfacet
  facet normal 0.429934 0 -0.902861
    outer loop
      vertex 10.3157 3 33.5159
      vertex 9.97403 -3 33.3532
      vertex 9.97403 3 33.3532
    endloop
  endfacet
  facet normal 0.492958 0 -0.870053
    outer loop
      vertex 9.64963 -3 33.1694
      vertex 9.97403 3 33.3532
      vertex 9.97403 -3 33.3532
    endloop
  endfacet
  facet normal 0.492958 0 -0.870053
    outer loop
      vertex 9.97403 3 33.3532
      vertex 9.64963 -3 33.1694
      vertex 9.64963 3 33.1694
    endloop
  endfacet
  facet normal 0.555631 0 -0.831429
    outer loop
      vertex 9.34452 -3 32.9655
      vertex 9.64963 3 33.1694
      vertex 9.64963 -3 33.1694
    endloop
  endfacet
  facet normal 0.555631 0 -0.831429
    outer loop
      vertex 9.64963 3 33.1694
      vertex 9.34452 -3 32.9655
      vertex 9.34452 3 32.9655
    endloop
  endfacet
  facet normal 0.617184 0 -0.786819
    outer loop
      vertex 9.06061 -3 32.7428
      vertex 9.34452 3 32.9655
      vertex 9.34452 -3 32.9655
    endloop
  endfacet
  facet normal 0.617184 0 -0.786819
    outer loop
      vertex 9.34452 3 32.9655
      vertex 9.06061 -3 32.7428
      vertex 9.06061 3 32.7428
    endloop
  endfacet
  facet normal 0.677028 0 -0.735957
    outer loop
      vertex 8.79972 -3 32.5028
      vertex 9.06061 3 32.7428
      vertex 9.06061 -3 32.7428
    endloop
  endfacet
  facet normal 0.677028 0 -0.735957
    outer loop
      vertex 9.06061 3 32.7428
      vertex 8.79972 -3 32.5028
      vertex 8.79972 3 32.5028
    endloop
  endfacet
  facet normal 0.73465 0 -0.678446
    outer loop
      vertex 8.79972 -3 32.5028
      vertex 8.56349 3 32.247
      vertex 8.79972 3 32.5028
    endloop
  endfacet
  facet normal 0.73465 0 -0.678446
    outer loop
      vertex 8.56349 3 32.247
      vertex 8.79972 -3 32.5028
      vertex 8.56349 -3 32.247
    endloop
  endfacet
  facet normal 0.789239 0 -0.614086
    outer loop
      vertex 8.56349 -3 32.247
      vertex 8.35341 3 31.977
      vertex 8.56349 3 32.247
    endloop
  endfacet
  facet normal 0.789239 0 -0.614086
    outer loop
      vertex 8.35341 3 31.977
      vertex 8.56349 -3 32.247
      vertex 8.35341 -3 31.977
    endloop
  endfacet
  facet normal 0.839833 0 -0.542844
    outer loop
      vertex 8.35341 -3 31.977
      vertex 8.17081 3 31.6945
      vertex 8.35341 3 31.977
    endloop
  endfacet
  facet normal 0.839833 0 -0.542844
    outer loop
      vertex 8.17081 3 31.6945
      vertex 8.35341 -3 31.977
      vertex 8.17081 -3 31.6945
    endloop
  endfacet
  facet normal 0.885401 0 -0.464828
    outer loop
      vertex 8.17081 -3 31.6945
      vertex 8.01683 3 31.4012
      vertex 8.17081 3 31.6945
    endloop
  endfacet
  facet normal 0.885401 0 -0.464828
    outer loop
      vertex 8.01683 3 31.4012
      vertex 8.17081 -3 31.6945
      vertex 8.01683 -3 31.4012
    endloop
  endfacet
  facet normal 0.924736 0 -0.380608
    outer loop
      vertex 8.01683 -3 31.4012
      vertex 7.89249 3 31.0991
      vertex 8.01683 3 31.4012
    endloop
  endfacet
  facet normal 0.924736 0 -0.380608
    outer loop
      vertex 7.89249 3 31.0991
      vertex 8.01683 -3 31.4012
      vertex 7.89249 -3 31.0991
    endloop
  endfacet
  facet normal 0.956746 0 -0.290925
    outer loop
      vertex 7.89249 -3 31.0991
      vertex 7.79853 3 30.7901
      vertex 7.89249 3 31.0991
    endloop
  endfacet
  facet normal 0.956746 0 -0.290925
    outer loop
      vertex 7.79853 3 30.7901
      vertex 7.89249 -3 31.0991
      vertex 7.79853 -3 30.7901
    endloop
  endfacet
  facet normal 0.980472 0 -0.196657
    outer loop
      vertex 7.79853 -3 30.7901
      vertex 7.73555 3 30.4761
      vertex 7.79853 3 30.7901
    endloop
  endfacet
  facet normal 0.980472 0 -0.196657
    outer loop
      vertex 7.73555 3 30.4761
      vertex 7.79853 -3 30.7901
      vertex 7.73555 -3 30.4761
    endloop
  endfacet
  facet normal 0.995077 0 -0.0990998
    outer loop
      vertex 7.73555 -3 30.4761
      vertex 7.70397 3 30.159
      vertex 7.73555 3 30.4761
    endloop
  endfacet
  facet normal 0.995077 0 -0.0990998
    outer loop
      vertex 7.70397 3 30.159
      vertex 7.73555 -3 30.4761
      vertex 7.70397 -3 30.159
    endloop
  endfacet
  facet normal 1 -0 0
    outer loop
      vertex 7.70397 -3 30.159
      vertex 7.70397 3 30
      vertex 7.70397 3 30.159
    endloop
  endfacet
  facet normal 1 0 0
    outer loop
      vertex 7.70397 3 30
      vertex 7.70397 -3 30.159
      vertex 7.70397 -3 30
    endloop
  endfacet
  facet normal 0 0 -1
    outer loop
      vertex 7.7 -3 30
      vertex 7.70397 3 30
      vertex 7.70397 -3 30
    endloop
  endfacet
  facet normal -0 0 -1
    outer loop
      vertex 7.70397 3 30
      vertex 7.7 -3 30
      vertex 7.7 3 30
    endloop
  endfacet
  facet normal 1 -0 0
    outer loop
      vertex 7.7 -3 30
      vertex 7.7 3 22
      vertex 7.7 3 30
    endloop
  endfacet
  facet normal 1 0 0
    outer loop
      vertex 7.7 3 22
      vertex 7.7 -3 30
      vertex 7.7 -3 22
    endloop
  endfacet
endsolid OpenSCAD_Model
