solid OpenSCAD_Model
  facet normal 1 -0 0
    outer loop
      vertex 25.4 1.50224 50.8
      vertex 25.4 3 0
      vertex 25.4 3 50.8
    endloop
  endfacet
  facet normal 1 0 0
    outer loop
      vertex 25.4 3 0
      vertex 25.4 1.50224 50.8
      vertex 25.4 1.50224 0
    endloop
  endfacet
  facet normal 1 -0 0
    outer loop
      vertex 25.4 -3 50.8
      vertex 25.4 -1.50224 0
      vertex 25.4 -1.50224 50.8
    endloop
  endfacet
  facet normal 1 0 0
    outer loop
      vertex 25.4 -1.50224 0
      vertex 25.4 -3 50.8
      vertex 25.4 -3 0
    endloop
  endfacet
  facet normal -0 0 1
    outer loop
      vertex 4.14999 2.54999 50.8
      vertex 25.4 1.50224 50.8
      vertex 25.4 3 50.8
    endloop
  endfacet
  facet normal 0 0 1
    outer loop
      vertex 25.4 1.50224 50.8
      vertex 4.14999 2.54999 50.8
      vertex 25.4 -1.50224 50.8
    endloop
  endfacet
  facet normal 0 0 1
    outer loop
      vertex 4.14999 -2.54999 50.8
      vertex 25.4 -1.50224 50.8
      vertex 4.14999 2.54999 50.8
    endloop
  endfacet
  facet normal -0 0 1
    outer loop
      vertex 0 3 50.8
      vertex 4.14999 2.54999 50.8
      vertex 25.4 3 50.8
    endloop
  endfacet
  facet normal 0 0 1
    outer loop
      vertex 4.14999 2.54999 50.8
      vertex 0 3 50.8
      vertex 0 1.65216 50.8
    endloop
  endfacet
  facet normal -0 0 1
    outer loop
      vertex 25.4 1.50224 50.8
      vertex 29.4 -2.39999 50.8
      vertex 29.4 2.39999 50.8
    endloop
  endfacet
  facet normal 0 0 1
    outer loop
      vertex 29.4 -2.39999 50.8
      vertex 25.4 1.50224 50.8
      vertex 25.4 -1.50224 50.8
    endloop
  endfacet
  facet normal 0 0 1
    outer loop
      vertex 25.4 -1.50224 50.8
      vertex 4.14999 -2.54999 50.8
      vertex 25.4 -3 50.8
    endloop
  endfacet
  facet normal 0 0 1
    outer loop
      vertex 4.14999 -2.54999 50.8
      vertex 0 -3 50.8
      vertex 25.4 -3 50.8
    endloop
  endfacet
  facet normal 0 0 1
    outer loop
      vertex 0 -3 50.8
      vertex 4.14999 -2.54999 50.8
      vertex 0 -1.65216 50.8
    endloop
  endfacet
  facet normal 0 0 -1
    outer loop
      vertex 25.4 -1.5 0
      vertex 29.4 -2.39999 0
      vertex 25.4 -1.50224 0
    endloop
  endfacet
  facet normal 0 0 -1
    outer loop
      vertex 29.4 -2.39999 0
      vertex 25.4 -1.5 0
      vertex 29.4 2.39999 0
    endloop
  endfacet
  facet normal 0 0 -1
    outer loop
      vertex 25.4 1.5 0
      vertex 29.4 2.39999 0
      vertex 25.4 -1.5 0
    endloop
  endfacet
  facet normal 0 0 -1
    outer loop
      vertex 25.4 1.5 0
      vertex 25.4 1.50224 0
      vertex 29.4 2.39999 0
    endloop
  endfacet
  facet normal 0 0 -1
    outer loop
      vertex 4.14999 1.5 0
      vertex 25.4 1.50224 0
      vertex 25.4 1.5 0
    endloop
  endfacet
  facet normal -0 0 -1
    outer loop
      vertex 25.4 1.50224 0
      vertex 4.14999 1.5 0
      vertex 4.14999 2.54999 0
    endloop
  endfacet
  facet normal 0 0 -1
    outer loop
      vertex 25.4 1.50224 0
      vertex 4.14999 2.54999 0
      vertex 25.4 3 0
    endloop
  endfacet
  facet normal 0 0 -1
    outer loop
      vertex 4.14999 2.54999 0
      vertex 0 3 0
      vertex 25.4 3 0
    endloop
  endfacet
  facet normal 0 0 -1
    outer loop
      vertex 0 3 0
      vertex 4.14999 2.54999 0
      vertex 0 1.65216 0
    endloop
  endfacet
  facet normal 0 0 -1
    outer loop
      vertex 4.14999 -2.54999 0
      vertex 25.4 -1.50224 0
      vertex 25.4 -3 0
    endloop
  endfacet
  facet normal 0 0 -1
    outer loop
      vertex 4.14999 -1.5 0
      vertex 25.4 -1.50224 0
      vertex 4.14999 -2.54999 0
    endloop
  endfacet
  facet normal 0 0 -1
    outer loop
      vertex 0 -3 0
      vertex 4.14999 -2.54999 0
      vertex 25.4 -3 0
    endloop
  endfacet
  facet normal -0 0 -1
    outer loop
      vertex 4.14999 -2.54999 0
      vertex 0 -3 0
      vertex 0 -1.65216 0
    endloop
  endfacet
  facet normal 0 0 -1
    outer loop
      vertex 25.4 -1.50224 0
      vertex 4.14999 -1.5 0
      vertex 25.4 -1.5 0
    endloop
  endfacet
  facet normal -1 0 0
    outer loop
      vertex 0 -1.5 -1.4
      vertex 0 1.5 -0.00999928
      vertex 0 1.5 -1.4
    endloop
  endfacet
  facet normal -1 -0 0
    outer loop
      vertex 0 1.5 -0.00999928
      vertex 0 -1.5 -1.4
      vertex 0 -1.5 -0.00999928
    endloop
  endfacet
  facet normal -1 0 0
    outer loop
      vertex 0 1.65216 0
      vertex 0 3 50.8
      vertex 0 3 0
    endloop
  endfacet
  facet normal -1 -0 0
    outer loop
      vertex 0 3 50.8
      vertex 0 1.65216 0
      vertex 0 1.65216 50.8
    endloop
  endfacet
  facet normal -1 0 0
    outer loop
      vertex 0 -3 0
      vertex 0 -1.65216 50.8
      vertex 0 -1.65216 0
    endloop
  endfacet
  facet normal -1 -0 0
    outer loop
      vertex 0 -1.65216 50.8
      vertex 0 -3 0
      vertex 0 -3 50.8
    endloop
  endfacet
  facet normal 0 1 0
    outer loop
      vertex 25.4 3 50.8
      vertex 14.2069 3 38.0037
      vertex 0 3 50.8
    endloop
  endfacet
  facet normal 0 1 0
    outer loop
      vertex 25.4 3 50.8
      vertex 14.2069 3 13.9963
      vertex 14.2069 3 38.0037
    endloop
  endfacet
  facet normal 0 1 0
    outer loop
      vertex 14.2069 3 13.9963
      vertex 25.4 3 0
      vertex 11.1931 3 13.9963
    endloop
  endfacet
  facet normal 0 1 -0
    outer loop
      vertex 25.4 3 0
      vertex 14.2069 3 13.9963
      vertex 25.4 3 50.8
    endloop
  endfacet
  facet normal 0 1 -0
    outer loop
      vertex 11.1931 3 38.0037
      vertex 0 3 50.8
      vertex 14.2069 3 38.0037
    endloop
  endfacet
  facet normal 0 1 -0
    outer loop
      vertex 11.1931 3 13.9963
      vertex 0 3 50.8
      vertex 11.1931 3 38.0037
    endloop
  endfacet
  facet normal 0 1 0
    outer loop
      vertex 11.1931 3 13.9963
      vertex 0 3 0
      vertex 0 3 50.8
    endloop
  endfacet
  facet normal 0 1 0
    outer loop
      vertex 0 3 0
      vertex 11.1931 3 13.9963
      vertex 25.4 3 0
    endloop
  endfacet
  facet normal 0 -1 0
    outer loop
      vertex 0 -3 50.8
      vertex 7.45 -3 40
      vertex 25.4 -3 50.8
    endloop
  endfacet
  facet normal 0 -1 0
    outer loop
      vertex 0 -3 50.8
      vertex 7.45 -3 12
      vertex 7.45 -3 40
    endloop
  endfacet
  facet normal 0 -1 -0
    outer loop
      vertex 7.45 -3 12
      vertex 0 -3 0
      vertex 17.95 -3 12
    endloop
  endfacet
  facet normal 0 -1 0
    outer loop
      vertex 0 -3 0
      vertex 7.45 -3 12
      vertex 0 -3 50.8
    endloop
  endfacet
  facet normal 0 -1 0
    outer loop
      vertex 17.95 -3 40
      vertex 25.4 -3 50.8
      vertex 7.45 -3 40
    endloop
  endfacet
  facet normal 0 -1 0
    outer loop
      vertex 17.95 -3 12
      vertex 25.4 -3 50.8
      vertex 17.95 -3 40
    endloop
  endfacet
  facet normal 0 -1 0
    outer loop
      vertex 17.95 -3 12
      vertex 25.4 -3 0
      vertex 25.4 -3 50.8
    endloop
  endfacet
  facet normal 0 -1 0
    outer loop
      vertex 25.4 -3 0
      vertex 17.95 -3 12
      vertex 0 -3 0
    endloop
  endfacet
  facet normal 1 -0 0
    outer loop
      vertex 29.4 -2.39999 50.8
      vertex 29.4 2.39999 0
      vertex 29.4 2.39999 50.8
    endloop
  endfacet
  facet normal 1 0 0
    outer loop
      vertex 29.4 2.39999 0
      vertex 29.4 -2.39999 50.8
      vertex 29.4 -2.39999 0
    endloop
  endfacet
  facet normal -0.21899 -0.975727 0
    outer loop
      vertex 25.4 -1.50224 0
      vertex 29.4 -2.39999 50.8
      vertex 25.4 -1.50224 50.8
    endloop
  endfacet
  facet normal -0.21899 -0.975727 -0
    outer loop
      vertex 29.4 -2.39999 50.8
      vertex 25.4 -1.50224 0
      vertex 29.4 -2.39999 0
    endloop
  endfacet
  facet normal -0.21899 0.975727 0
    outer loop
      vertex 29.4 2.39999 0
      vertex 25.4 1.50224 50.8
      vertex 29.4 2.39999 50.8
    endloop
  endfacet
  facet normal -0.21899 0.975727 0
    outer loop
      vertex 25.4 1.50224 50.8
      vertex 29.4 2.39999 0
      vertex 25.4 1.50224 0
    endloop
  endfacet
  facet normal 1 -0 0
    outer loop
      vertex 25.4 -1.5 0
      vertex 25.4 1.5 -1.4
      vertex 25.4 1.5 0
    endloop
  endfacet
  facet normal 1 0 0
    outer loop
      vertex 25.4 1.5 -1.4
      vertex 25.4 -1.5 0
      vertex 25.4 -1.5 -1.4
    endloop
  endfacet
  facet normal 0 0 -1
    outer loop
      vertex 0 -1.5 -1.4
      vertex 25.4 1.5 -1.4
      vertex 25.4 -1.5 -1.4
    endloop
  endfacet
  facet normal -0 0 -1
    outer loop
      vertex 25.4 1.5 -1.4
      vertex 0 -1.5 -1.4
      vertex 0 1.5 -1.4
    endloop
  endfacet
  facet normal 0 1 0
    outer loop
      vertex 25.4 1.5 0
      vertex 4.14999 1.5 -0.00999928
      vertex 4.14999 1.5 0
    endloop
  endfacet
  facet normal 0 1 -0
    outer loop
      vertex 25.4 1.5 -1.4
      vertex 4.14999 1.5 -0.00999928
      vertex 25.4 1.5 0
    endloop
  endfacet
  facet normal 0 1 0
    outer loop
      vertex 0 1.5 -1.4
      vertex 4.14999 1.5 -0.00999928
      vertex 25.4 1.5 -1.4
    endloop
  endfacet
  facet normal 0 1 0
    outer loop
      vertex 4.14999 1.5 -0.00999928
      vertex 0 1.5 -1.4
      vertex 0 1.5 -0.00999928
    endloop
  endfacet
  facet normal 0 -1 0
    outer loop
      vertex 0 -1.5 -0.00999928
      vertex 0 -1.5 -1.4
      vertex 4.14999 -1.5 -0.00999928
    endloop
  endfacet
  facet normal 0 -1 0
    outer loop
      vertex 4.14999 -1.5 -0.00999928
      vertex 25.4 -1.5 0
      vertex 4.14999 -1.5 0
    endloop
  endfacet
  facet normal 0 -1 0
    outer loop
      vertex 25.4 -1.5 -1.4
      vertex 4.14999 -1.5 -0.00999928
      vertex 0 -1.5 -1.4
    endloop
  endfacet
  facet normal 0 -1 0
    outer loop
      vertex 4.14999 -1.5 -0.00999928
      vertex 25.4 -1.5 -1.4
      vertex 25.4 -1.5 0
    endloop
  endfacet
  facet normal -0 0 1
    outer loop
      vertex 0 1.5 -0.00999928
      vertex 4.14999 -1.5 -0.00999928
      vertex 4.14999 1.5 -0.00999928
    endloop
  endfacet
  facet normal 0 0 1
    outer loop
      vertex 4.14999 -1.5 -0.00999928
      vertex 0 1.5 -0.00999928
      vertex 0 -1.5 -0.00999928
    endloop
  endfacet
  facet normal -1 0 0
    outer loop
      vertex 4.14999 1.5 -0.00999928
      vertex 4.14999 -1.5 -0.00999928
      vertex 4.14999 1.5 0
    endloop
  endfacet
  facet normal -1 0 0
    outer loop
      vertex 4.14999 1.5 0
      vertex 4.14999 2.54999 50.8
      vertex 4.14999 2.54999 0
    endloop
  endfacet
  facet normal -1 0 0
    outer loop
      vertex 4.14999 -1.5 0
      vertex 4.14999 1.5 0
      vertex 4.14999 -1.5 -0.00999928
    endloop
  endfacet
  facet normal -1 0 0
    outer loop
      vertex 4.14999 1.5 0
      vertex 4.14999 -1.5 0
      vertex 4.14999 2.54999 50.8
    endloop
  endfacet
  facet normal -1 0 0
    outer loop
      vertex 4.14999 -2.54999 50.8
      vertex 4.14999 -1.5 0
      vertex 4.14999 -2.54999 0
    endloop
  endfacet
  facet normal -1 0 0
    outer loop
      vertex 4.14999 -1.5 0
      vertex 4.14999 -2.54999 50.8
      vertex 4.14999 2.54999 50.8
    endloop
  endfacet
  facet normal 0.211453 0.977388 -0
    outer loop
      vertex 4.14999 -2.54999 0
      vertex 0 -1.65216 50.8
      vertex 4.14999 -2.54999 50.8
    endloop
  endfacet
  facet normal 0.211453 0.977388 0
    outer loop
      vertex 0 -1.65216 50.8
      vertex 4.14999 -2.54999 0
      vertex 0 -1.65216 0
    endloop
  endfacet
  facet normal 0.211453 -0.977388 0
    outer loop
      vertex 0 1.65216 0
      vertex 4.14999 2.54999 50.8
      vertex 0 1.65216 50.8
    endloop
  endfacet
  facet normal 0.211453 -0.977388 0
    outer loop
      vertex 4.14999 2.54999 50.8
      vertex 0 1.65216 0
      vertex 4.14999 2.54999 0
    endloop
  endfacet
  facet normal 1 -0 0
    outer loop
      vertex 7.45 -3 40
      vertex 7.45 -2.41 12
      vertex 7.45 -2.41 40
    endloop
  endfacet
  facet normal 1 0 0
    outer loop
      vertex 7.45 -2.41 12
      vertex 7.45 -3 40
      vertex 7.45 -3 12
    endloop
  endfacet
  facet normal 0.822355 -0.568975 0
    outer loop
      vertex 7.45 -2.41 40
      vertex 11.1931 3 13.9963
      vertex 11.1931 3 38.0037
    endloop
  endfacet
  facet normal 0.822355 -0.568975 0
    outer loop
      vertex 11.1931 3 13.9963
      vertex 7.45 -2.41 40
      vertex 7.45 -2.41 12
    endloop
  endfacet
  facet normal -0.822355 -0.568975 0
    outer loop
      vertex 17.95 -2.41 12
      vertex 14.2069 3 38.0037
      vertex 14.2069 3 13.9963
    endloop
  endfacet
  facet normal -0.822355 -0.568975 0
    outer loop
      vertex 14.2069 3 38.0037
      vertex 17.95 -2.41 12
      vertex 17.95 -2.41 40
    endloop
  endfacet
  facet normal -1 0 0
    outer loop
      vertex 17.95 -3 12
      vertex 17.95 -2.41 40
      vertex 17.95 -2.41 12
    endloop
  endfacet
  facet normal -1 -0 0
    outer loop
      vertex 17.95 -2.41 40
      vertex 17.95 -3 12
      vertex 17.95 -3 40
    endloop
  endfacet
  facet normal 0 -0.346185 -0.938166
    outer loop
      vertex 17.95 -2.41 40
      vertex 11.1931 3 38.0037
      vertex 14.2069 3 38.0037
    endloop
  endfacet
  facet normal 0 -0.346185 -0.938166
    outer loop
      vertex 11.1931 3 38.0037
      vertex 17.95 -2.41 40
      vertex 7.45 -2.41 40
    endloop
  endfacet
  facet normal 0 0 -1
    outer loop
      vertex 7.45 -3 40
      vertex 17.95 -2.41 40
      vertex 17.95 -3 40
    endloop
  endfacet
  facet normal -0 0 -1
    outer loop
      vertex 17.95 -2.41 40
      vertex 7.45 -3 40
      vertex 7.45 -2.41 40
    endloop
  endfacet
  facet normal -0 0 1
    outer loop
      vertex 7.45 -2.41 12
      vertex 17.95 -3 12
      vertex 17.95 -2.41 12
    endloop
  endfacet
  facet normal 0 0 1
    outer loop
      vertex 17.95 -3 12
      vertex 7.45 -2.41 12
      vertex 7.45 -3 12
    endloop
  endfacet
  facet normal 0 -0.346185 0.938166
    outer loop
      vertex 11.1931 3 13.9963
      vertex 17.95 -2.41 12
      vertex 14.2069 3 13.9963
    endloop
  endfacet
  facet normal 0 -0.346185 0.938166
    outer loop
      vertex 17.95 -2.41 12
      vertex 11.1931 3 13.9963
      vertex 7.45 -2.41 12
    endloop
  endfacet
endsolid OpenSCAD_Model
